<?xml version="1.0" standalone="no"?>
<!DOCTYPE svg PUBLIC "-//W3C//DTD SVG 20010904//EN"
 "http://www.w3.org/TR/2001/REC-SVG-20010904/DTD/svg10.dtd">
<svg version="1.0" xmlns="http://www.w3.org/2000/svg"
 width="700.000000pt" height="700.000000pt" viewBox="0 0 700.000000 700.000000"
 preserveAspectRatio="xMidYMid meet">
<metadata>
Created by potrace 1.14, written by Peter Selinger 2001-2017
</metadata>
<g transform="translate(0.000000,700.000000) scale(0.100000,-0.100000)"
fill="#000000" stroke="none">
<path d="M3397 6994 c-1 -1 -54 -4 -117 -8 -123 -6 -151 -9 -300 -32 -153 -23
-159 -24 -305 -59 -465 -114 -885 -311 -1263 -595 -128 -96 -155 -118 -246
-200 -623 -561 -1031 -1338 -1131 -2155 -4 -27 -8 -61 -11 -75 -21 -131 -21
-635 1 -745 2 -11 7 -44 10 -74 3 -30 8 -64 10 -75 2 -12 7 -38 10 -59 14
-102 91 -421 115 -480 5 -12 25 -69 46 -127 20 -58 50 -136 66 -175 40 -94
165 -343 189 -376 10 -15 19 -30 19 -34 0 -21 281 -421 319 -455 3 -3 35 -39
71 -80 428 -494 1039 -878 1678 -1054 187 -52 371 -88 512 -102 30 -3 60 -7
67 -9 66 -22 635 -22 738 0 11 2 43 7 70 10 52 6 152 21 195 30 133 26 200 42
290 67 58 16 112 31 120 33 35 8 273 99 370 142 455 203 887 520 1206 888 27
32 54 62 59 68 6 7 40 50 76 97 579 750 829 1686 699 2621 -162 1163 -896
2167 -1958 2675 -243 116 -613 238 -847 279 -117 20 -301 42 -425 51 -75 5
-329 11 -333 8z m376 -68 c31 -3 83 -9 115 -12 31 -3 82 -9 112 -14 30 -5 71
-12 90 -14 30 -4 78 -13 204 -41 131 -29 312 -87 476 -151 786 -310 1453 -930
1820 -1689 298 -618 405 -1285 315 -1969 -65 -495 -244 -976 -523 -1406 -473
-729 -1216 -1260 -2052 -1466 -42 -10 -260 -54 -290 -59 -145 -21 -198 -27
-290 -32 -279 -18 -555 -5 -810 38 -204 33 -316 61 -500 121 -353 115 -624
253 -975 498 -171 119 -382 315 -580 541 -31 34 -121 149 -184 234 -50 67
-149 226 -213 340 -51 91 -70 130 -143 290 -13 28 -39 93 -58 145 -31 83 -46
126 -86 255 -56 176 -114 495 -128 706 -12 190 -7 533 11 639 2 14 7 48 10 75
3 28 8 61 10 75 3 14 7 41 10 60 8 49 15 87 27 140 6 25 13 56 15 70 9 44 55
202 85 294 97 287 232 561 402 816 50 75 195 271 207 280 4 3 34 37 67 75 308
360 751 686 1194 879 255 111 592 213 797 241 20 3 46 7 57 10 11 2 43 7 70
10 28 3 59 8 70 10 11 2 67 7 125 11 58 3 106 7 107 8 6 5 382 -2 436 -8z"/>
<path d="M3395 6144 c-208 -46 -235 -63 -279 -181 -42 -110 -38 -165 22 -292
13 -28 13 -38 2 -70 -22 -61 -37 -179 -29 -229 16 -97 14 -106 -36 -131 -25
-12 -51 -28 -57 -35 -7 -7 -22 -17 -32 -23 -10 -6 -61 -44 -112 -84 -108 -86
-125 -113 -150 -244 -20 -111 -13 -319 17 -471 5 -28 7 -57 4 -65 -3 -8 1 -33
9 -56 13 -38 13 -44 -4 -76 -19 -34 -45 -116 -42 -129 1 -4 -3 -20 -9 -35 -6
-15 -12 -49 -13 -74 -3 -41 1 -52 28 -81 86 -95 255 -174 369 -173 l37 0 0
-60 c0 -33 2 -98 5 -145 10 -182 8 -211 -24 -405 -25 -146 -36 -528 -17 -554
6 -8 12 -63 13 -124 1 -60 5 -117 8 -126 4 -14 19 -16 103 -13 l98 3 0 -43 c1
-56 10 -132 28 -216 38 -177 44 -280 32 -568 -2 -67 -1 -138 4 -158 6 -30 4
-45 -16 -81 -33 -63 -35 -189 -4 -257 11 -27 24 -49 28 -49 24 -4 145 -4 152
1 14 9 50 132 50 173 0 31 -11 56 -52 115 -49 73 -51 79 -52 147 -1 38 2 93 7
120 4 28 14 104 22 170 21 173 25 198 31 216 10 34 17 140 18 286 1 84 3 153
6 154 3 0 39 2 80 3 42 1 82 6 89 10 10 7 11 -19 6 -135 -5 -100 -4 -157 4
-187 23 -82 16 -460 -9 -562 -19 -77 -15 -136 10 -150 11 -6 79 -15 152 -21
166 -12 211 -17 268 -31 85 -20 139 -19 161 3 14 14 19 28 15 42 -3 12 -1 28
3 36 15 23 1 40 -37 47 -21 4 -48 11 -62 17 -14 5 -41 11 -60 13 -50 5 -118
23 -167 45 -24 10 -48 19 -55 19 -29 0 -34 38 -33 250 2 197 3 219 23 260 12
25 26 65 32 90 6 25 13 54 16 65 9 31 11 179 3 190 -17 24 -2 48 45 70 17 8
42 32 56 52 l25 36 6 331 c3 182 8 341 12 352 3 12 8 38 11 58 12 76 18 112
21 126 2 8 4 21 4 28 1 6 8 12 16 12 22 0 51 52 81 145 25 75 26 92 26 270 0
176 -1 196 -26 278 -14 49 -43 125 -63 169 -35 76 -36 82 -25 124 17 63 15
267 -3 334 -8 30 -17 71 -20 90 -3 20 -8 47 -11 60 -3 14 -13 59 -21 100 -8
41 -18 77 -22 80 -3 3 -21 34 -40 70 -64 124 -112 162 -258 206 l-93 28 -1 68
c0 37 -1 89 -1 115 -1 43 1 48 28 57 52 17 53 38 3 116 -46 74 -61 127 -64
229 -3 92 -2 95 26 120 l29 27 -26 36 c-31 43 -112 86 -174 90 -25 2 -90 -6
-145 -18z"/>
</g>
</svg>
