<?xml version="1.0" standalone="no"?>
<!DOCTYPE svg PUBLIC "-//W3C//DTD SVG 20010904//EN"
 "http://www.w3.org/TR/2001/REC-SVG-20010904/DTD/svg10.dtd">
<svg version="1.0" xmlns="http://www.w3.org/2000/svg"
 width="500.000000pt" height="500.000000pt" viewBox="0 0 500.000000 500.000000"
 preserveAspectRatio="xMidYMid meet">
<metadata>
Created by potrace 1.14, written by Peter Selinger 2001-2017
</metadata>
<g transform="translate(0.000000,500.000000) scale(0.100000,-0.100000)"
fill="#000000" stroke="none">
<path d="M2645 4770 c-11 -4 -49 -6 -85 -5 -45 2 -77 -3 -105 -15 -36 -17
-136 -32 -192 -31 -12 0 -38 -6 -58 -15 -21 -8 -51 -17 -69 -19 -43 -5 -135
-32 -149 -43 -7 -5 -28 -10 -48 -10 -22 -1 -65 -18 -115 -46 -79 -44 -80 -45
-164 -41 -68 2 -93 -1 -125 -16 -104 -49 -151 -89 -247 -211 -34 -43 -64 -78
-68 -78 -3 0 -12 -16 -20 -35 -8 -19 -17 -35 -21 -35 -11 0 -77 -177 -84 -225
-4 -22 -11 -51 -15 -65 -5 -14 -12 -36 -15 -50 -3 -14 -14 -63 -25 -110 -11
-47 -22 -92 -23 -100 -2 -8 -7 -24 -12 -34 -21 -49 0 -523 25 -553 2 -2 3 -6
4 -10 1 -5 10 -25 19 -47 9 -21 17 -46 17 -55 0 -9 4 -21 9 -27 6 -5 11 -20
13 -34 2 -14 6 -29 9 -35 4 -5 9 -22 12 -36 4 -14 20 -42 36 -63 26 -33 29
-43 25 -93 -2 -37 -14 -78 -34 -118 -16 -33 -30 -65 -30 -71 0 -7 -7 -17 -15
-24 -8 -7 -13 -16 -10 -20 3 -4 -7 -29 -21 -56 -29 -54 -49 -154 -58 -279 -1
-27 -6 -59 -9 -70 -3 -11 -9 -56 -12 -100 -4 -44 -8 -81 -10 -83 -1 -2 2 -22
7 -45 5 -23 11 -78 13 -123 2 -45 11 -117 20 -160 10 -43 18 -93 19 -109 1
-17 6 -36 10 -43 4 -7 10 -53 12 -103 5 -97 0 -113 -43 -130 -12 -4 -32 -28
-43 -52 l-21 -44 21 -56 c13 -34 31 -62 48 -73 15 -9 34 -25 42 -34 8 -9 25
-22 38 -29 13 -7 32 -20 42 -29 16 -13 178 -86 208 -93 4 -1 21 -8 37 -15 52
-23 363 -129 435 -148 34 -9 146 -48 166 -57 11 -6 31 -12 45 -14 13 -1 53
-12 89 -23 36 -12 77 -23 93 -26 42 -7 68 -16 117 -38 25 -11 46 -20 47 -20 2
1 23 -7 47 -18 24 -10 57 -21 73 -24 90 -16 153 -30 188 -42 22 -7 51 -15 65
-18 14 -3 41 -10 60 -16 19 -6 62 -13 95 -16 33 -2 74 -7 90 -11 34 -7 62 -11
119 -16 32 -3 41 1 59 25 11 15 25 28 29 28 44 0 118 198 118 314 0 17 -7 45
-16 61 -9 17 -21 46 -28 66 -12 35 -12 37 26 74 21 21 56 66 79 100 33 51 51
66 97 88 138 63 222 202 222 363 -1 38 0 98 1 134 1 36 -2 81 -6 100 -4 19 -8
49 -9 65 0 17 -4 35 -8 40 -6 11 -1 121 8 165 16 77 26 166 29 252 2 53 6 101
9 106 3 5 -1 16 -10 23 -14 12 -14 14 1 25 10 8 26 9 43 4 15 -4 38 -3 52 3
14 5 34 12 45 14 11 2 22 8 23 13 2 6 7 8 11 5 15 -9 106 31 134 58 31 32 33
44 12 73 -8 12 -12 23 -10 26 12 11 -95 230 -157 321 -44 65 -89 159 -142 297
-53 137 -75 182 -86 175 -14 -9 -12 39 2 53 8 8 13 47 14 100 2 48 7 98 11
112 15 39 3 375 -13 402 -3 5 -8 25 -10 46 -2 20 -8 48 -13 62 -5 14 -13 39
-17 55 -14 56 -46 161 -70 228 -31 87 -112 196 -182 244 -35 24 -75 43 -89 43
-15 0 -33 10 -45 26 -21 25 -93 76 -114 80 -14 2 -175 83 -190 95 -6 5 -20 7
-32 4 -12 -2 -24 0 -27 5 -5 8 -54 4 -63 -5 -2 -2 -17 1 -33 5 -17 5 -31 5
-34 -1 -9 -13 -36 -11 -54 5 -10 9 -24 11 -36 6z"/>
</g>
</svg>
