<?xml version="1.0" encoding="utf-8"?>
<!-- Generator: Adobe Illustrator 27.5.0, SVG Export Plug-In . SVG Version: 6.00 Build 0)  -->
<svg version="1.1" id="Layer_2_00000000902406108395145380000016177320597848830879_"
	 xmlns="http://www.w3.org/2000/svg" xmlns:xlink="http://www.w3.org/1999/xlink" x="0px" y="0px" viewBox="0 0 61 61"
	 style="enable-background:new 0 0 61 61;" xml:space="preserve">
<style type="text/css">
	.st0{fill:none;stroke:#FFFFFF;stroke-width:0.5;}
	.st1{fill:#FFFFFF;}
</style>
<g id="Layer_1-2">
	<circle class="st0" cx="30.5" cy="30.5" r="30.2"/>
</g>
<path class="st1" d="M36.4,23.7c0.2,0.3,0.3,0.6,0.5,1c0.1,0.2,0.1,0.3,0.2,0.5c0.1,0.3,0.2,0.7,0.3,1.1c0,0.1,0.1,0.2,0.1,0.4
	c0,0.1,0,0.1,0,0.2s0,0.2,0,0.4c0,0.4,0,0.7,0,1.1c0,0.1,0,0.3,0,0.4s0,0.2,0,0.3c0,0.1,0,0.2,0,0.3c0,0.2,0,0.4-0.1,0.7
	c-0.1,0.2-0.1,0.4-0.2,0.6c0,0.1-0.1,0.2-0.1,0.3c0,0.2-0.1,0.3-0.2,0.5c-0.1,0.1-0.1,0.2-0.1,0.2c-0.1,0-0.1,0.1-0.2,0.1
	c-0.1,0-0.2,0.1-0.2,0.2s0,0.2-0.1,0.4l0.1,0.1l0,0l-0.1,0.1c0,0.2-0.1,0.5-0.1,0.7c0,0.1,0,0.3-0.1,0.4c0,0.2,0,0.3-0.1,0.5
	c0,0.1,0,0.2,0,0.3s0,0.2,0,0.2c0,0.1,0,0.3,0,0.4c0,0.1,0,0.1,0,0.2v0.1c0,0.3,0,0.5,0,0.8s0,0.5,0,0.8l0,0c0,0.2,0,0.3,0,0.5
	c0,0.1,0,0.2,0,0.3s0,0.2,0,0.2c0,0.2,0,0.3,0,0.5s0,0.4,0,0.5c0,0.2,0,0.3-0.1,0.5c0,0.1,0,0.3-0.1,0.4c0,0.1-0.1,0.2-0.2,0.3
	c-0.1,0.1-0.2,0.3-0.4,0.3c-0.1,0-0.2,0.1-0.3,0.2c-0.1,0-0.1,0.1-0.1,0.1c0,0.1,0,0.3,0.1,0.4c0,0.1,0,0.2,0,0.3s0,0.1,0,0.2
	c0,0.1,0,0.3,0,0.4c0,0.1,0,0.2,0,0.2c0,0.2,0,0.3-0.1,0.5c0,0.1,0,0.2-0.1,0.3c0,0.3-0.1,0.6-0.2,0.8c-0.1,0.1-0.1,0.3-0.2,0.4
	c-0.1,0.2-0.1,0.5-0.1,0.7c0,0.1,0,0.3,0,0.4c0,0.1,0,0.3,0,0.4c0,0.1,0,0.2,0,0.3c0,0.4,0,0.8,0,1.3c0,0.3,0,0.5,0,0.8
	c0,0.1,0.1,0.3,0.2,0.3c0.1,0,0.2,0.1,0.3,0.1s0.2,0.1,0.3,0.1c0.1,0.1,0.2,0.1,0.3,0.2h0.1c0.1,0,0.1,0,0.2,0
	c0.2,0.1,0.4,0.1,0.6,0.2h0.1c0.1,0,0.2,0,0.3,0h0.1c0.2,0.1,0.4,0.2,0.5,0.2s0.1,0,0.2,0c0.1,0,0.1,0,0.2,0.1h0.1
	c0.2,0.1,0.2,0.3,0.1,0.4c0,0,0,0.1-0.1,0.1c0,0,0,0,0,0.1c0,0,0,0,0.1,0c0,0,0,0,0,0.1s0,0.2-0.1,0.3c0,0.1-0.1,0.2-0.3,0.2
	c0,0,0,0-0.1,0c-0.2,0-0.3,0-0.5,0c-0.1,0-0.2,0-0.3-0.1c-0.2,0-0.4-0.1-0.6-0.1c-0.2,0-0.5-0.1-0.7-0.1h-0.1c-0.2,0-0.4,0-0.6-0.1
	h-0.1c-0.1,0-0.2,0-0.3,0s-0.2,0-0.3,0s-0.2,0-0.3,0l0,0c-0.2,0-0.4-0.1-0.7-0.1c-0.1,0-0.2-0.1-0.3-0.1l0,0
	c-0.1-0.1-0.1-0.2-0.1-0.4c0-0.1,0-0.2,0-0.3c0-0.2,0-0.3,0.1-0.5c0-0.2,0.1-0.4,0.1-0.6c0-0.2,0.1-0.5,0.1-0.7c0-0.1,0.1-0.3,0-0.5
	c0-0.3,0-0.6,0-0.9c0-0.2,0-0.4,0-0.5s0-0.2,0-0.3s0-0.2,0-0.2c0-0.2,0-0.4,0-0.6v-0.1c0-0.2,0-0.3-0.1-0.5c0-0.2-0.1-0.3-0.1-0.5
	c0-0.3,0-0.5,0-0.8v-0.1c0-0.2,0-0.3,0.1-0.5v-0.1c0-0.3,0-0.5,0-0.8V41h-0.1c-0.1,0-0.2,0.1-0.4,0.1c-0.1,0-0.2,0-0.3,0
	c-0.1,0-0.2,0-0.3,0c-0.1,0-0.2,0-0.4,0H31c0,0-0.1,0.1,0,0.1c0,0.2,0,0.3,0,0.5s0,0.5,0,0.7c0,0.3,0,0.6,0,0.8c0,0.1,0,0.2,0,0.3
	c0,0.2-0.1,0.4-0.1,0.6c0,0.1,0,0.2,0,0.3c0,0.2,0,0.3-0.1,0.5c0,0.2-0.1,0.4-0.1,0.6v0.1c0,0.2,0,0.3-0.1,0.5c0,0.1,0,0.3,0,0.4
	c0,0.2-0.1,0.5-0.1,0.7v0.1c0,0.2-0.1,0.4-0.1,0.7c-0.1,0.3-0.1,0.6-0.1,0.9l0,0c0,0.2,0,0.4,0,0.5s0,0.4,0,0.5s0,0.1,0,0.2
	c0.1,0,0.2,0.1,0.2,0.2c0.1,0.1,0.2,0.3,0.3,0.4c0.1,0.1,0.1,0.2,0.2,0.3c0,0.1,0.1,0.1,0.1,0.2c0,0,0,0.1,0.1,0.1
	c0,0.2,0,0.4,0,0.7c0,0.1-0.1,0.2-0.1,0.3C31,52.4,31,52.5,31,52.6s0,0.2-0.1,0.3c0,0.1-0.1,0.2-0.1,0.3c-0.1,0-0.1,0-0.2,0
	s-0.2,0-0.2,0c-0.1,0-0.2,0-0.3,0c-0.1,0-0.3,0-0.4,0s-0.1,0-0.2,0s-0.2-0.1-0.2-0.1V53c-0.1-0.2-0.1-0.3-0.2-0.5
	C29,52.4,29,52.3,29,52.2c0-0.2,0-0.5,0-0.7v-0.1c0-0.1,0-0.2,0-0.3s0.1-0.2,0-0.2l0,0c0.1-0.2,0.2-0.3,0.3-0.5l0.1-0.1
	c0-0.1,0-0.2,0-0.2c0-0.2-0.1-0.5-0.1-0.7v-0.1c0-0.3,0-0.5,0-0.8c0-0.1,0-0.2,0-0.3c0-0.2,0.1-0.5,0.1-0.7c0-0.1,0-0.2,0-0.4
	c0-0.3,0-0.5,0-0.8c0-0.1,0-0.2,0-0.3c0-0.3,0-0.5-0.1-0.8c0-0.1,0-0.1,0-0.2c0-0.3-0.1-0.6-0.1-0.8s-0.1-0.4-0.1-0.6
	C29,43.3,29,43,28.9,42.7v-0.1c0-0.1,0-0.1,0-0.2c0-0.1-0.1-0.3-0.1-0.4c0-0.1,0-0.3,0-0.4l0,0c0-0.1,0-0.2,0-0.3v-0.1
	c-0.1,0-0.1,0-0.2,0c-0.2,0-0.4,0-0.7,0c-0.1,0-0.2,0-0.3,0s-0.2,0-0.3,0c-0.1,0-0.1,0-0.1,0.1c-0.1,0-0.1-0.1-0.2-0.2
	c0,0,0,0,0-0.1s0-0.2,0-0.2c0-0.2,0-0.4,0-0.5s0-0.2,0-0.2c0-0.1,0-0.3,0-0.4c0-0.2,0-0.4-0.1-0.6c0-0.1,0-0.2-0.1-0.2
	c0-0.1,0-0.2,0-0.3c0,0,0,0,0-0.1s0-0.3,0-0.4c0-0.1,0-0.3,0-0.4c0-0.2,0-0.4,0-0.6s0-0.4,0-0.6c0-0.1,0-0.2,0-0.3
	c0-0.2,0-0.5,0.1-0.7c0-0.2,0-0.3,0-0.5c0,0,0,0,0-0.1c0-0.2,0-0.4,0.1-0.6c0-0.2,0-0.4,0.1-0.6c0-0.1,0-0.1,0-0.2
	c0.1-0.1,0.1-0.2,0.1-0.3c0-0.2,0-0.4,0.1-0.6c0-0.1,0-0.1,0-0.2c0-0.1,0-0.2,0-0.3s0-0.2,0-0.3c0-0.2,0-0.4,0-0.6v-0.1
	c0-0.1,0-0.3-0.1-0.4c0-0.1,0-0.2,0-0.2c0-0.1,0-0.1,0-0.2c0-0.2,0-0.3,0-0.5s0-0.3,0-0.5c0-0.1,0-0.2,0-0.3c0-0.1,0-0.2,0-0.2l0,0
	c-0.2,0-0.3,0-0.5,0s-0.4,0-0.5-0.1c-0.2,0-0.5-0.1-0.7-0.2s-0.3-0.1-0.5-0.2c-0.1,0-0.1-0.1-0.2-0.1c-0.2-0.1-0.4-0.3-0.6-0.4
	c-0.1-0.1-0.3-0.2-0.4-0.3c0-0.1,0-0.2-0.2-0.2c0,0-0.1,0-0.1-0.1s-0.1-0.2-0.1-0.3c0-0.1,0-0.2,0-0.3c0-0.1,0-0.2,0-0.2
	c0-0.1,0.1-0.3,0.1-0.4s0.1-0.2,0.1-0.4v-0.1c0.1-0.2,0.1-0.4,0.2-0.6c0-0.1,0.1-0.3,0.2-0.4c0.1-0.2,0.1-0.5,0-0.7v-0.1l-0.1-0.1
	c0-0.1-0.1-0.1,0-0.2s0.1-0.3,0-0.4c0-0.2-0.1-0.5-0.1-0.7c0-0.3-0.1-0.6-0.1-1c0-0.2-0.1-0.5-0.1-0.7v-0.1c0-0.3,0-0.5,0-0.8
	c0-0.2,0-0.4,0.1-0.7c0-0.2,0.1-0.4,0.1-0.6c0.1-0.3,0.1-0.6,0.2-0.8c0,0,0-0.1,0.1-0.1c0-0.2,0.2-0.3,0.3-0.4
	c0.1-0.1,0.1-0.1,0.2-0.2s0.2-0.2,0.3-0.2l0,0c0.2-0.2,0.4-0.3,0.6-0.5l0.1-0.1c0.1-0.1,0.2-0.1,0.3-0.2c0,0,0.1-0.1,0.2-0.1
	c0,0,0.1,0,0.1-0.1c0.1-0.1,0.3-0.2,0.4-0.3c0,0,0,0,0.1,0s0.1-0.1,0.2-0.1c0-0.1,0.1-0.1,0.1-0.1s0,0,0.1,0l0.1-0.1
	c0-0.1,0-0.2,0-0.3c0-0.2-0.1-0.4-0.1-0.6c0-0.2-0.1-0.5,0-0.7c0-0.3,0.1-0.5,0.1-0.8v-0.1c0.1-0.2,0.1-0.3,0.2-0.5
	c0-0.1,0.1-0.1,0.1-0.2c0-0.1,0-0.1-0.1-0.2c-0.1-0.1-0.1-0.1-0.1-0.2c0-0.1-0.1-0.3-0.2-0.4c0-0.1,0-0.2-0.1-0.2
	c0-0.2-0.1-0.4-0.1-0.6c0-0.1,0-0.3,0-0.4c0-0.2,0.1-0.5,0.2-0.7c0.1-0.3,0.2-0.5,0.3-0.8c0.1-0.1,0.1-0.1,0.2-0.2
	C27.7,8.1,27.8,8,28,7.9c0.1-0.1,0.2-0.1,0.3-0.1c0.1,0,0.2,0,0.3-0.1c0.1,0,0.1-0.1,0.2-0.1c0,0,0,0,0.1,0s0.2,0,0.3-0.1
	c0.1,0,0.1,0,0.2,0l0,0c0.2-0.1,0.4-0.1,0.6-0.1l0,0c0.1-0.1,0.2-0.1,0.4-0.1h0.1h0.1c0.1,0,0.2,0,0.3,0c0.1,0,0.2,0,0.3,0
	c0.1,0.1,0.3,0.1,0.4,0.2c0.1,0,0.1,0.1,0.2,0.1l0.1,0.1c0.2,0,0.3,0.1,0.4,0.3c0.1,0.1,0.2,0.3,0.3,0.5C32,8.7,32,9,32.1,9.2l0,0
	c0,0.2,0.1,0.5,0,0.7V10c0,0.1,0,0.2,0,0.3s0,0.1,0,0.2c0.1,0.1,0.2,0.3,0.2,0.5c0.1,0.2,0.2,0.5,0.4,0.7c0.1,0.2,0.3,0.4,0.3,0.7
	v0.1l-0.1,0.1c-0.2,0.1-0.3,0.1-0.5,0.1c0,0.1,0,0.1,0,0.1v0.1c0,0.2,0,0.4,0,0.6c0,0.2,0,0.4,0,0.6c0,0.1,0,0.3,0,0.4
	c0,0.1,0,0.2,0,0.2c0,0.1,0,0.1,0.1,0.1s0.2,0.1,0.3,0.1s0.3,0.1,0.4,0.1c0.2,0.1,0.4,0.1,0.6,0.2c0.1,0,0.2,0.1,0.3,0.1
	c0.1,0.1,0.2,0.1,0.3,0.2c0.1,0,0.1,0.1,0.2,0.1c0.2,0.2,0.4,0.4,0.6,0.7c0.1,0.2,0.2,0.4,0.3,0.5c0.1,0.2,0.1,0.3,0.2,0.5
	c0,0,0,0.1,0.1,0.1l0.1,0.1c0,0.2,0.1,0.4,0.1,0.6s0.1,0.4,0.1,0.5s0,0.2,0.1,0.3c0,0.2,0.1,0.4,0.1,0.7v0.1
	c0.1,0.3,0.2,0.5,0.2,0.8c0,0.1,0.1,0.2,0.1,0.4l0,0c0,0.2,0,0.4,0,0.5c0,0.2,0,0.4,0,0.6s0,0.3,0,0.5v0.1c0,0.2,0,0.3-0.1,0.5v0.1
	C36.4,23.5,36.4,23.6,36.4,23.7z"/>
</svg>
