<?xml version="1.0" encoding="UTF-8"?>
<svg id="Layer_2" data-name="Layer 2" xmlns="http://www.w3.org/2000/svg" viewBox="0 0 20 20">
  <g id="Layer_1-2" data-name="Layer 1">
    <path d="m18.9,0H1.1c-.29,0-.57.12-.78.32-.21.21-.32.49-.32.78v17.8c0,.29.12.57.32.78.21.21.49.32.78.32h9.58v-7.75h-2.6v-3h2.6v-2.25c-.05-.53,0-1.06.18-1.56.17-.5.46-.96.83-1.34.37-.38.82-.68,1.31-.87.5-.19,1.03-.27,1.56-.23.78,0,1.56.04,2.33.12v2.7h-1.59c-1.26,0-1.5.6-1.5,1.47v1.93h3l-.39,3h-2.61v7.78h5.1c.14,0,.29-.03.42-.08.13-.06.25-.14.36-.24.1-.1.18-.22.24-.36.06-.13.08-.28.08-.42V1.1c0-.14-.03-.29-.08-.42-.06-.13-.14-.25-.24-.36-.1-.1-.22-.18-.36-.24-.13-.06-.28-.08-.42-.08Z"/>
  </g>
</svg>