<?xml version="1.0" encoding="utf-8"?>
<!-- Generator: Adobe Illustrator 27.7.0, SVG Export Plug-In . SVG Version: 6.00 Build 0)  -->
<svg version="1.1" id="Layer_2_00000000902406108395145380000016177320597848830879_"
	 xmlns="http://www.w3.org/2000/svg" xmlns:xlink="http://www.w3.org/1999/xlink" x="0px" y="0px" viewBox="0 0 38.4 38.4"
	 style="enable-background:new 0 0 38.4 38.4;" xml:space="preserve">
<style type="text/css">
	.st0{fill:#FFFFFF;fill-opacity:0.3;}
	.st1{fill:#FFFFFF;}
</style>
<g>
	<circle class="st0" cx="19.1" cy="19.5" r="16.5"/>
</g>
<path class="st1" d="M24.5,12.4c0.9,0,1.6,0.7,1.6,1.6v3.9c0,0.6-0.2,1.2-0.7,1.6l-6,6c-0.9,0.9-2.4,0.9-3.3,0L13,22.3
	c-0.9-0.9-0.9-2.4,0-3.3l6-6c0.4-0.4,1-0.7,1.6-0.7H24.5z M24.5,13.4h-3.9c-0.3,0-0.6,0.1-0.9,0.4l-6,6c-0.5,0.5-0.5,1.3,0,1.7
	l3.2,3.2c0.5,0.5,1.3,0.5,1.8,0l6-6c0.2-0.2,0.4-0.5,0.4-0.9V14C25.1,13.7,24.8,13.4,24.5,13.4z M22.6,14.9c0.6,0,1.1,0.5,1.1,1.1
	S23.2,17,22.6,17s-1.1-0.5-1.1-1.1S22,14.9,22.6,14.9z"/>
</svg>
