<?xml version="1.0" encoding="UTF-8"?>
<svg id="Layer_2" data-name="Layer 2" xmlns="http://www.w3.org/2000/svg" viewBox="0 0 20 20">
  <g id="Layer_1-2" data-name="Layer 1">
    <path d="m5.8,0h8.4c3.2,0,5.8,2.6,5.8,5.8v8.4c0,1.54-.61,3.01-1.7,4.1-1.09,1.09-2.56,1.7-4.1,1.7H5.8c-3.2,0-5.8-2.6-5.8-5.8V5.8c0-1.54.61-3.01,1.7-4.1C2.79.61,4.26,0,5.8,0Zm-.2,2c-.95,0-1.87.38-2.55,1.05-.68.68-1.05,1.59-1.05,2.55v8.8c0,1.99,1.61,3.6,3.6,3.6h8.8c.95,0,1.87-.38,2.55-1.05.68-.68,1.05-1.59,1.05-2.55V5.6c0-1.99-1.61-3.6-3.6-3.6H5.6Zm9.65,1.5c.33,0,.65.13.88.37.23.24.37.55.37.88s-.13.65-.37.88c-.23.23-.55.37-.88.37s-.65-.13-.88-.37c-.23-.24-.37-.55-.37-.88s.13-.65.37-.88c.23-.23.55-.37.88-.37Zm-5.25,1.5c1.33,0,2.6.53,3.54,1.46.94.94,1.46,2.21,1.46,3.54s-.53,2.6-1.46,3.54c-.94.94-2.21,1.46-3.54,1.46s-2.6-.53-3.54-1.46c-.94-.94-1.46-2.21-1.46-3.54s.53-2.6,1.46-3.54c.94-.94,2.21-1.46,3.54-1.46Zm0,2c-.8,0-1.56.32-2.12.88-.56.56-.88,1.33-.88,2.12s.32,1.56.88,2.12c.56.56,1.33.88,2.12.88s1.56-.32,2.12-.88c.56-.56.88-1.33.88-2.12s-.32-1.56-.88-2.12c-.56-.56-1.33-.88-2.12-.88Z"/>
  </g>
</svg>