<?xml version="1.0" encoding="UTF-8"?>
<svg id="Layer_2" data-name="Layer 2" xmlns="http://www.w3.org/2000/svg" viewBox="0 0 20 20">
  <defs>
    <style>
      .cls-1 {
        fill: #deb026;
      }
    </style>
  </defs>
  <g id="Layer_1-2" data-name="Layer 1">
    <path d="m14.2,0H5.8c-1.54,0-3.01.61-4.1,1.7C.61,2.79,0,4.26,0,5.8v8.4c0,3.2,2.6,5.8,5.8,5.8h8.4c1.54,0,3.01-.61,4.1-1.7,1.09-1.09,1.7-2.56,1.7-4.1V5.8c0-3.2-2.6-5.8-5.8-5.8Z"/>
    <path class="cls-1" d="m2,13.9V5.1l8,3.4,8-3.5v8.9c0,3.12-2.4,3.7-3.6,3.6H5.6c-1.99,0-3.6-1.61-3.6-3.6Z"/>
  </g>
</svg>