<svg id="Capa_1" data-name="Capa 1" xmlns="http://www.w3.org/2000/svg" viewBox="0 0 39.57 49.02"><title>Mano</title><path d="M373.69,425.85c0-.17,0-0.35,0-0.54a0.14,0.14,0,0,1,0-.08,0.11,0.11,0,0,1,.06,0,0.51,0.51,0,0,1,.16,0,5.62,5.62,0,0,0,.77,0,4.35,4.35,0,0,1,1,.12,3.17,3.17,0,0,0,.68.09,2.31,2.31,0,0,1,.87.16,0.88,0.88,0,0,0,.28.06,7.52,7.52,0,0,0,1.18.06,0.44,0.44,0,0,1,.4.14,0.32,0.32,0,0,0,.22.1l0.32,0a0.74,0.74,0,0,1,.39.1,1.08,1.08,0,0,0,.62.16,2.58,2.58,0,0,1,1,.16,1.72,1.72,0,0,0,.48.1l0.32,0.05a6.13,6.13,0,0,0,.76.12,2.48,2.48,0,0,1,.36.08l0.19,0.06a0.22,0.22,0,0,0,.3-0.23,1.09,1.09,0,0,1,.38-0.82,1.86,1.86,0,0,0,.5-0.92c0-.14.06-0.29,0.09-0.44a5.61,5.61,0,0,1,.42-1.19,0.89,0.89,0,0,1,.31-0.37,2.06,2.06,0,0,0,.47-0.45,1,1,0,0,1,.28-0.23,1.17,1.17,0,0,0,.44-0.41,0.77,0.77,0,0,1,.22-0.24,1.79,1.79,0,0,0,.62-0.93,1.73,1.73,0,0,1,.1-0.26,2.72,2.72,0,0,0,.22-0.61l0.07-.28a0.68,0.68,0,0,1,.2-0.35,3.1,3.1,0,0,0,.36-0.44,6.92,6.92,0,0,0,.48-0.7,4.57,4.57,0,0,1,.33-0.46,0.44,0.44,0,0,1,.34-0.19,0.26,0.26,0,0,0,.21-0.11l0.18-.22a0.14,0.14,0,0,0,0-.15l-0.14-.2a1.22,1.22,0,0,1-.27-0.58,1.92,1.92,0,0,0-.3-0.75,2.52,2.52,0,0,1-.15-0.29,2,2,0,0,0-.23-0.38,1.27,1.27,0,0,1-.25-0.51,1.05,1.05,0,0,0-.3-0.52,1,1,0,0,1-.26-0.4,0.75,0.75,0,0,0-.13-0.2l-0.09-.08a0.59,0.59,0,0,1-.2-0.58,5.91,5.91,0,0,1,.2-1,0.46,0.46,0,0,1,.24-0.31,2,2,0,0,0,.6-0.47l0.67-.66,0.12-.11c0.2-.14.38-0.31,0.57-0.46a3.09,3.09,0,0,1,.45-0.28,2.37,2.37,0,0,0,.56-0.39,1.65,1.65,0,0,1,.36-0.27,1.62,1.62,0,0,0,.38-0.31l0.23-.23a2.68,2.68,0,0,1,.73-0.51,2.13,2.13,0,0,0,.41-0.26,1.11,1.11,0,0,1,.43-0.23,0.53,0.53,0,0,0,.28-0.16,0.7,0.7,0,0,1,.16-0.13,3,3,0,0,0,.6-0.48l0.15-.14a0.61,0.61,0,0,1,.36-0.18,1.21,1.21,0,0,0,.42-0.15l0.5-.27a1.82,1.82,0,0,1,.56-0.23,1.2,1.2,0,0,0,.7-0.39,0.6,0.6,0,0,1,.08-0.09,0.49,0.49,0,0,1,.14-0.07l0.16,0a0.9,0.9,0,0,0,.52-0.21,1,1,0,0,1,.51-0.24,0.48,0.48,0,0,0,.16,0,9.24,9.24,0,0,1,1.12-.37,1.89,1.89,0,0,1,.27-0.08,0.55,0.55,0,0,1,.36,0l0.22,0.1a0.88,0.88,0,0,1,.44.4c0.11,0.22.25,0.42,0.38,0.63a2.85,2.85,0,0,0,.55.7,1.1,1.1,0,0,1,.32.51,3.59,3.59,0,0,0,.27.59c0.11,0.22.21,0.44,0.32,0.66l0.18,0.36,0.19,0.41c0,0.09.07,0.18,0.12,0.26a0.39,0.39,0,0,0,.29.2,0.94,0.94,0,0,1,.44.05,2.21,2.21,0,0,1,.28.29,1,1,0,0,0,.15.14,1.1,1.1,0,0,1,.4.55l0.06,0.19a1.4,1.4,0,0,0,.31.56,1.19,1.19,0,0,1,.19.26c0.14,0.26.27,0.53,0.38,0.81a2.93,2.93,0,0,0,.28.58,2.58,2.58,0,0,1,.33,1,3.28,3.28,0,0,1-.13.76l0,0.07a0.38,0.38,0,0,0-.06.31,0.6,0.6,0,0,0,.29.32l0.15,0.06a2,2,0,0,1,.54.27l0.48,0.31a0.7,0.7,0,0,1,.32.5,3.17,3.17,0,0,0,.1.43,1.53,1.53,0,0,1,.06.56c0,0.35,0,.7-0.07,1.05,0,0,0,.08,0,0.12,0,0.31,0,.62,0,0.93a0.91,0.91,0,0,1,0,.24,4.75,4.75,0,0,0-.11,1,3.59,3.59,0,0,1-.06.44,0.29,0.29,0,0,0,.06.26l0.29,0.34a0.46,0.46,0,0,0,.28.16l0.24,0a0.48,0.48,0,0,1,.28.15,2.55,2.55,0,0,1,.53.77,2.43,2.43,0,0,0,.1.22,1.22,1.22,0,0,1,.13.51,2.83,2.83,0,0,0,.12.64,2.72,2.72,0,0,1,.11,1,2.35,2.35,0,0,1,0,.36,0.62,0.62,0,0,0,.22.65,3.54,3.54,0,0,1,.7.89,6.12,6.12,0,0,0,.41.6,1.12,1.12,0,0,1,.19.44,6.64,6.64,0,0,0,.25,1,0.31,0.31,0,0,1,0,.16,1,1,0,0,0,.06.52,2,2,0,0,1,.09.44,1.32,1.32,0,0,0,.05.32,2.83,2.83,0,0,1,.07,1,2.89,2.89,0,0,1-.12.72,2.6,2.6,0,0,0-.12.51,0.5,0.5,0,0,1-.06.19,1.3,1.3,0,0,0-.14.59,2.14,2.14,0,0,1-.09.6c0,0.1,0,.21-0.05.32a0.89,0.89,0,0,1-.19.44,0.64,0.64,0,0,0-.08.14,0,0,0,0,0,0,.07h0.07a0.34,0.34,0,0,0,.15-0.13,0.24,0.24,0,0,1,.35,0,1.52,1.52,0,0,1,.1.22,5.08,5.08,0,0,0,.24.56,2.83,2.83,0,0,1,.19.53,9.34,9.34,0,0,0,.29,1.06,0.64,0.64,0,0,1,0,.36,3.08,3.08,0,0,0,0,.65,1.49,1.49,0,0,1,0,.36c0,0.19-.07.37-0.1,0.56a1.09,1.09,0,0,1-.55.81l-0.18.1c-0.58.42-1.21,0.78-1.77,1.23a1.7,1.7,0,0,1-.27.18,7.76,7.76,0,0,0-.85.55c-0.38.27-.74,0.55-1.13,0.8s-0.77.45-1.14,0.7a2.25,2.25,0,0,0-.56.33,2.61,2.61,0,0,1-.24.15,1.59,1.59,0,0,0-.21.13,5.87,5.87,0,0,1-1,.6,2.71,2.71,0,0,0-.8.62,5.9,5.9,0,0,1-.94.89c-0.16.12-.31,0.27-0.45,0.41a1.33,1.33,0,0,1-.4.28,1.91,1.91,0,0,0-.28.16,2.81,2.81,0,0,1-.24.16,1.23,1.23,0,0,0-.44.35,0.47,0.47,0,0,1-.43.18,1.92,1.92,0,0,0-.61,0,1.94,1.94,0,0,1-.45,0,0.8,0.8,0,0,1-.46-0.14l-0.1-.07a0.77,0.77,0,0,0-.4-0.17,0.46,0.46,0,0,1-.33-0.49,0.69,0.69,0,0,1,0-.16,0.38,0.38,0,0,0-.11-0.47,0.57,0.57,0,0,1-.17-0.36,1.73,1.73,0,0,0-.24-0.69,2,2,0,0,1-.2-0.49,2.48,2.48,0,0,0-.29-0.63l-0.09-.13a0.41,0.41,0,0,0-.36-0.16,3.16,3.16,0,0,0-.92.15,0.71,0.71,0,0,1-.56,0l-0.19-.07a0.78,0.78,0,0,0-.48,0l-0.16,0a1.27,1.27,0,0,0-.69.33,0.67,0.67,0,0,1-.36.18l-0.2.05a1.58,1.58,0,0,0-.72.37,2.05,2.05,0,0,1-.33.24l-1.4.83a1.29,1.29,0,0,0-.32.25,0.71,0.71,0,0,1-.27.18c-0.1,0-.2.1-0.3,0.13a1.29,1.29,0,0,0-.45.26,3.44,3.44,0,0,1-.48.31,3.07,3.07,0,0,0-.74.56,1,1,0,0,1-.26.19c-0.14.08-.28,0.17-0.42,0.24-0.38.19-.69,0.48-1.07,0.66l-0.07,0c-0.35.28-.75,0.49-1.12,0.74l-0.23.16a1.07,1.07,0,0,1-.43.23,0.52,0.52,0,0,0-.27.17,2.65,2.65,0,0,1-.68.51c-0.38.21-.74,0.45-1.1,0.69a8.09,8.09,0,0,1-.78.43,2.48,2.48,0,0,0-.35.21l-0.54.36-0.26.19-0.76.55a1.63,1.63,0,0,1-.25.13,0.14,0.14,0,0,1-.21-0.06l-0.29-.54a0.12,0.12,0,0,1,0-.15l0.24-.16a2.64,2.64,0,0,0,.5-0.35l0.28-.23a1.6,1.6,0,0,1,.42-0.25,2.08,2.08,0,0,0,.57-0.31,0.34,0.34,0,0,1,.14-0.08,1.16,1.16,0,0,0,.49-0.28,1.11,1.11,0,0,1,.28-0.17,2.33,2.33,0,0,0,.65-0.41,1.56,1.56,0,0,1,.48-0.29,1.33,1.33,0,0,0,.38-0.23,6.45,6.45,0,0,0,.5-0.42,6.85,6.85,0,0,1,.91-0.54,1.78,1.78,0,0,0,.45-0.27,3.78,3.78,0,0,1,.53-0.37,2,2,0,0,0,.51-0.4,2.21,2.21,0,0,1,.68-0.51,1.3,1.3,0,0,0,.45-0.34,0.55,0.55,0,0,1,.15-0.13,11.16,11.16,0,0,1,1-.59l0.07,0,1.12-.74a2,2,0,0,1,.58-0.28,0.88,0.88,0,0,0,.45-0.26,1.33,1.33,0,0,1,.59-0.35,3.74,3.74,0,0,0,.95-0.54,3.87,3.87,0,0,1,.44-0.29l0.31-.19,0.2-.13a0.59,0.59,0,0,1,.47-0.07l0.12,0a0.25,0.25,0,0,0,.23-0.07l0.45-.41a1,1,0,0,1,.2-0.13,0.52,0.52,0,0,1,.51,0,2.31,2.31,0,0,0,1.09.27l0.28,0a1.9,1.9,0,0,0,.65,0l0.4-.08a1.83,1.83,0,0,0,.54-0.18,0.84,0.84,0,0,1,.42-0.12,0.71,0.71,0,0,0,.38-0.12,0.81,0.81,0,0,1,.42-0.13,0.61,0.61,0,0,0,.34-0.11,1.88,1.88,0,0,1,.55-0.25,1.41,1.41,0,0,0,.37-0.17,3,3,0,0,1,.55-0.26l0.83-.34a2.85,2.85,0,0,1,.3-0.12,8.31,8.31,0,0,0,.94-0.37,2.36,2.36,0,0,0,.35-0.2l0.37-.25a2,2,0,0,1,.43-0.23A2.12,2.12,0,0,0,406,439a2.22,2.22,0,0,1,.4-0.27,5.39,5.39,0,0,0,.65-0.41,1.65,1.65,0,0,1,.61-0.31,0.51,0.51,0,0,0,.27-0.17l0.16-.18a2.4,2.4,0,0,1,.54-0.48,3.39,3.39,0,0,0,.45-0.35,1.4,1.4,0,0,0,.32-0.37,5.55,5.55,0,0,1,.56-0.75,1.1,1.1,0,0,0,.18-0.31,5.7,5.7,0,0,1,.55-1.13,3.83,3.83,0,0,0,.49-1,0.76,0.76,0,0,1,.06-0.15,1.55,1.55,0,0,0,.16-0.58,2.37,2.37,0,0,1,.1-0.43,2.18,2.18,0,0,0,.11-0.76,3.54,3.54,0,0,1,0-.36c0-.2,0-0.41,0-0.61a1.54,1.54,0,0,0-.15-0.75,0.71,0.71,0,0,1-.06-0.55,1,1,0,0,0,0-.44,3,3,0,0,1,0-.32,1.59,1.59,0,0,0-.22-0.73c-0.14-.25-0.29-0.49-0.44-0.73a1,1,0,0,0-.49-0.41,0.44,0.44,0,0,0-.16,0,0.24,0.24,0,0,0-.21.11,0.77,0.77,0,0,0-.07.15,1.45,1.45,0,0,1-.39.56,2.16,2.16,0,0,0-.65,1.06,1.62,1.62,0,0,1-.31.61,0.87,0.87,0,0,0-.22.56,0.22,0.22,0,0,1-.16.21,1,1,0,0,0-.48.42l-0.23.33a3.55,3.55,0,0,0-.44.73,0.76,0.76,0,0,1-.28.34,2,2,0,0,0-.48.49,2.89,2.89,0,0,1-.63.63l-0.1.07a1.39,1.39,0,0,0-.49.54,1.16,1.16,0,0,1-.44.46,2.27,2.27,0,0,0-.47.39,1.55,1.55,0,0,1-.67.44,1.26,1.26,0,0,0-.49.28,2.46,2.46,0,0,1-.65.41l-0.48.22a1.4,1.4,0,0,1-.51.12,0.57,0.57,0,0,1-.56-0.33,0.3,0.3,0,0,1,0-.34,1.8,1.8,0,0,1,.2-0.2,0.46,0.46,0,0,1,.33-0.14,1.47,1.47,0,0,0,1-.35,1,1,0,0,1,.39-0.21,1,1,0,0,0,.45-0.26,1.87,1.87,0,0,1,.47-0.32,0.58,0.58,0,0,0,.27-0.24,1.23,1.23,0,0,1,.32-0.36,1,1,0,0,0,.34-0.45,0.87,0.87,0,0,1,.5-0.51l0.15-.07a0.49,0.49,0,0,0,.18-0.16l0.36-.49a0.88,0.88,0,0,1,.07-0.1,12.88,12.88,0,0,0,1-1.41,1.25,1.25,0,0,1,.22-0.24,1.32,1.32,0,0,0,.34-0.4,0.92,0.92,0,0,1,.1-0.13,0.71,0.71,0,0,0,.14-0.25,1.86,1.86,0,0,1,.23-0.48,3.25,3.25,0,0,0,.2-0.36,3.33,3.33,0,0,1,.27-0.45,5.55,5.55,0,0,0,.59-1.16,1.05,1.05,0,0,0,.07-0.23,2.59,2.59,0,0,1,.21-0.7,2,2,0,0,0,.14-0.83,2,2,0,0,0-.11-0.72,4.33,4.33,0,0,0-.42-0.83,1.24,1.24,0,0,0-.31-0.32,0.38,0.38,0,0,0-.51.09l0,0.07a2.54,2.54,0,0,1-.42.65,0.45,0.45,0,0,0-.12.33,0.76,0.76,0,0,1-.15.49,1.21,1.21,0,0,0-.17.37,0.81,0.81,0,0,1-.18.32,2.29,2.29,0,0,1-.26.31c-0.22.18-.43,0.37-0.65,0.55a3.1,3.1,0,0,1-.48.3,1.66,1.66,0,0,1-.38.15,1.39,1.39,0,0,0-.57.29l-0.34.29-0.42.38a0.85,0.85,0,0,0-.25.32l-0.09.18a0.75,0.75,0,0,1-.2.25,15.85,15.85,0,0,0-1.35,1.24,1.79,1.79,0,0,1-.7.48,1.57,1.57,0,0,0-.32.17,2,2,0,0,1-.76.26,0.5,0.5,0,0,1-.39-0.08,0.19,0.19,0,0,1,0-.33l0.07,0,0.19-.07,0.78-.35a1.57,1.57,0,0,0,.67-0.57,3.21,3.21,0,0,1,.58-0.68,4.13,4.13,0,0,0,.64-0.74,1.82,1.82,0,0,1,.12-0.17,0.85,0.85,0,0,0,.21-0.39,0.62,0.62,0,0,1,.18-0.31l0.2-.2a1,1,0,0,1,.42-0.24l0.2-.05a0.37,0.37,0,0,0,.2-0.14,0.84,0.84,0,0,0,.09-0.13,0.78,0.78,0,0,1,.46-0.38l0.19-.07a1.37,1.37,0,0,0,.28-0.16c0.19-.16.35-0.34,0.54-0.49a0.53,0.53,0,0,0,.12-0.16,5,5,0,0,1,.38-0.58,0.64,0.64,0,0,0,.14-0.41,0.59,0.59,0,0,1,0-.24c0.11-.25.12-0.53,0.22-0.78a1.11,1.11,0,0,1,.1-0.18l0.2-.31a1.2,1.2,0,0,0,.25-0.63,1.6,1.6,0,0,1,.1-0.35,4.33,4.33,0,0,0,.19-0.83,1.88,1.88,0,0,1,0-.24,5.7,5.7,0,0,0,.13-1,2.62,2.62,0,0,1,0-.36,3.08,3.08,0,0,0,0-.73c0-.08,0-0.16,0-0.24a1.51,1.51,0,0,0-.2-0.74l-0.29-.54a2.1,2.1,0,0,0-1-.88,1.34,1.34,0,0,0-1.32.07c-0.19.11-.37,0.22-0.57,0.32a0.58,0.58,0,0,0-.3.32c-0.07.16-.13,0.33-0.2,0.49a1.09,1.09,0,0,0-.06.24,2.8,2.8,0,0,1-.29,1c-0.06.11-.09,0.22-0.14,0.34s-0.11.28-.18,0.41a1.2,1.2,0,0,0-.14.42,0.76,0.76,0,0,1-.18.4l-0.05.06a1.78,1.78,0,0,0-.38.8,0.39,0.39,0,0,1-.22.32,0.87,0.87,0,0,0-.42.43,2.44,2.44,0,0,1-.15.24l-0.25.37a2.53,2.53,0,0,1-.29.39,2.91,2.91,0,0,0-.34.46c-0.09.15-.2,0.29-0.3,0.43a0.5,0.5,0,0,1-.25.19,1.16,1.16,0,0,0-.42.24,0.76,0.76,0,0,1-.45.17,0.36,0.36,0,0,1-.3-0.11,0.68,0.68,0,0,1-.21-0.43,0.32,0.32,0,0,1,.15-0.32l0.07,0a3.75,3.75,0,0,0,.92-0.59,0.74,0.74,0,0,0,.19-0.21,2.45,2.45,0,0,1,.45-0.53,1.27,1.27,0,0,0,.35-0.54l0.21-.57a1.29,1.29,0,0,1,.4-0.6,0.74,0.74,0,0,0,.28-0.39,0.55,0.55,0,0,1,.11-0.17,3.74,3.74,0,0,0,.42-0.74,1.84,1.84,0,0,1,.25-0.42l0.28-.35a3.9,3.9,0,0,0,.66-1.25c0.11-.32.24-0.63,0.36-1a0.83,0.83,0,0,1,.22-0.34,0.48,0.48,0,0,1,.29-0.13l0.36,0a0.16,0.16,0,0,0,.13-0.14c0-.05,0-0.11,0-0.16a0.13,0.13,0,0,1,.11-0.11h0a1.49,1.49,0,0,0,.56-0.1l0.2,0a0.38,0.38,0,0,0,.29-0.2,2.48,2.48,0,0,0,.31-0.79,0.6,0.6,0,0,0,0-.2,1.9,1.9,0,0,0-.16-0.63,6.5,6.5,0,0,0-.55-0.91,1.92,1.92,0,0,0-.22-0.24,1.38,1.38,0,0,0-1.39-.33,1.42,1.42,0,0,0-.5.26,3.88,3.88,0,0,0-.92,1c-0.07.11-.14,0.23-0.2,0.35a8.38,8.38,0,0,1-.62,1,3.72,3.72,0,0,0-.48.94c-0.1.28-.21,0.56-0.32,0.84a2.8,2.8,0,0,1-.33.65,1.29,1.29,0,0,0-.22.52,3.18,3.18,0,0,1-.52,1.22c0,0.07-.08.14-0.12,0.21a1.22,1.22,0,0,1-.15.24,1.87,1.87,0,0,0-.37.63,1.07,1.07,0,0,1-.31.47,1.05,1.05,0,0,0-.21.3,3.52,3.52,0,0,1-.74.86,0.59,0.59,0,0,1-.44.16,0.33,0.33,0,0,0-.28.13l-0.24.28a1.94,1.94,0,0,1-.41.39,4.13,4.13,0,0,0-.62.52c-0.07.08-.17,0.14-0.25,0.21a1.37,1.37,0,0,0-.18.17,1.09,1.09,0,0,1-.41.32,2.14,2.14,0,0,0-.37.25,0.85,0.85,0,0,1-.32.17,0.56,0.56,0,0,0-.38.28,0.66,0.66,0,0,1-.09.13,0.23,0.23,0,0,1-.22.06l-0.15-.06a1.07,1.07,0,0,1-.43-0.52c-0.08-.2-0.17-0.4-0.26-0.6a1.06,1.06,0,0,0-.15-0.24c-0.14-.16-0.29-0.32-0.44-0.48a0.46,0.46,0,0,0-.13-0.09l-0.19-.07a0.52,0.52,0,0,1-.29-0.27,1.4,1.4,0,0,0-.23-0.38,0.57,0.57,0,0,1-.13-0.38c0-.12,0-0.24,0-0.37a2.66,2.66,0,0,0-.13-0.59,8.12,8.12,0,0,0-.53-1.14,0.67,0.67,0,0,0-.13-0.15,0.12,0.12,0,0,0-.15,0,0.69,0.69,0,0,0-.14.14,1.1,1.1,0,0,0-.11.22,1.13,1.13,0,0,1-.34.45l0,0a1.81,1.81,0,0,0-.72,1.05c-0.08.25-.14,0.5-0.21,0.74a2.26,2.26,0,0,1-.13.34c-0.17.35-.36,0.7-0.53,1.05a1.65,1.65,0,0,1-.33.46c-0.11.1-.2,0.22-0.29,0.34a0.54,0.54,0,0,1-.37.23,0.76,0.76,0,0,0-.52.29,3.24,3.24,0,0,0-.83,1.56,1.28,1.28,0,0,1-.29.62,0.63,0.63,0,0,0-.23.62,2.3,2.3,0,0,1-.15.71,0.19,0.19,0,0,0,.07.22,0.54,0.54,0,0,0,.14.08l0.12,0a5.67,5.67,0,0,1,1,.14,7.43,7.43,0,0,0,.89.06c0.23,0,.46,0,0.69,0a2.66,2.66,0,0,0,.49,0,0.35,0.35,0,0,1,.29.13c0.12,0.12.11,0.22-.06,0.33a0.48,0.48,0,0,1-.28.05h-0.73a1.71,1.71,0,0,0-.56.08,1.06,1.06,0,0,1-.56,0,0.89,0.89,0,0,0-.52,0,0.23,0.23,0,0,1-.12,0,4.5,4.5,0,0,1-.72-0.09,1.05,1.05,0,0,0-.4-0.06,2.47,2.47,0,0,1-.72-0.1,2.2,2.2,0,0,0-.56-0.09c-0.28,0-.57,0-0.85,0l-0.36,0c-0.2,0-.41,0-0.61-0.06s-0.37-.1-0.55-0.15l-0.16,0a2,2,0,0,1-.55-0.12,1.93,1.93,0,0,0-.51-0.12l-0.2,0a3.14,3.14,0,0,0-.77-0.08,0.9,0.9,0,0,1-.47-0.09,3.06,3.06,0,0,0-.93-0.28,1.67,1.67,0,0,1-.2,0,7.55,7.55,0,0,0-1.32-.25l-0.49,0a1.91,1.91,0,0,1-.44-0.06,1.18,1.18,0,0,0-.32,0,3.73,3.73,0,0,1-1.27-.24Zm23.61-14.57a1.41,1.41,0,0,0,.68-0.13,0.5,0.5,0,0,0,.38-0.47,5,5,0,0,0,.09-0.93,0.49,0.49,0,0,1,0-.12,0.75,0.75,0,0,0,0-.36,1.46,1.46,0,0,1-.07-0.48,0.74,0.74,0,0,0,0-.24,0.3,0.3,0,0,0-.4-0.18l0,0a0.85,0.85,0,0,1-.7.1h0a0.39,0.39,0,0,0-.15,0,0.8,0.8,0,0,0-.3.51,2,2,0,0,1-.17.58,0.87,0.87,0,0,0-.08.27,2.56,2.56,0,0,1-.07.4,0.38,0.38,0,0,0,0,.28l0.29,0.54a0.26,0.26,0,0,0,.19.13Zm5.62-2.54a2.94,2.94,0,0,0,.17,1,0.76,0.76,0,0,0,.12.16,0.12,0.12,0,0,0,.15,0,0.45,0.45,0,0,0,.12-0.52c0-.08-0.07-0.15-0.1-0.22a4.93,4.93,0,0,1-.34-0.91,2.78,2.78,0,0,0-.26-0.59,0.14,0.14,0,0,0-.11,0,0.08,0.08,0,0,0,0,.06,0.27,0.27,0,0,0,0,.12c0,0.1.1,0.19,0.14,0.29A1.17,1.17,0,0,1,402.93,408.74Zm8.3,27a0.67,0.67,0,0,0-.08-0.12,0.14,0.14,0,0,0-.18,0,0.34,0.34,0,0,0-.07.1,2.37,2.37,0,0,0-.13.59,0.08,0.08,0,0,0,.06,0,0.23,0.23,0,0,0,.21-0.11A1.18,1.18,0,0,0,411.23,435.73Zm-10.87,6.85-0.21.07a0.12,0.12,0,0,0-.05.14,0.87,0.87,0,0,0,.31.41,0.07,0.07,0,0,0,.06,0c0-.12.1-0.25,0.14-0.37a0.17,0.17,0,0,0-.11-0.19Zm-3.88-30.36a0,0,0,0,0-.06,0,0.18,0.18,0,0,0,0,.08,0.74,0.74,0,0,0,.34.52,0.5,0.5,0,0,0,.19,0,0.17,0.17,0,0,0,.07,0,0.09,0.09,0,0,0,0-.1,0.24,0.24,0,0,0,0-.06,1,1,0,0,1-.44-0.45A0.15,0.15,0,0,0,396.47,412.21Zm-2.22-4.14a0.23,0.23,0,0,0,.11,0l0.32-.3a0.08,0.08,0,0,0,0-.11,0.09,0.09,0,0,0-.07,0,1.82,1.82,0,0,0-.44.27,0.09,0.09,0,0,0,0,.14Zm-2.46,6.14a0.33,0.33,0,0,0-.15-0.27,0.13,0.13,0,0,0-.21.14,0.53,0.53,0,0,0,.16.27,0.11,0.11,0,0,0,.17,0Zm17.06,24a0.2,0.2,0,0,0-.16.09,0.16,0.16,0,0,0,0,.18,0.3,0.3,0,0,0,.16.1,0.17,0.17,0,0,0,.19-0.11A0.24,0.24,0,0,0,408.85,438.22Zm-13.76-30.83a0.17,0.17,0,0,0,.18-0.08,0.07,0.07,0,0,0,0-.09,0.16,0.16,0,0,0-.16.09A0.17,0.17,0,0,0,395.09,407.39Zm1.41,9a0.07,0.07,0,0,0-.07.07,0.09,0.09,0,0,0,0,.06,0.07,0.07,0,0,0,.09-0.09A0.15,0.15,0,0,0,396.5,416.4ZM403,441.76a0.05,0.05,0,0,0,0,0h0s0,0,0,0h0Z" transform="translate(-373.69 -403.61)"/><path d="M397.94,409.95c0,0.11,0,.22,0,0.32a0.33,0.33,0,0,1-.19.29,0.89,0.89,0,0,1-.23.07,0.36,0.36,0,0,1-.16,0,0.65,0.65,0,0,1-.37-0.49,1.28,1.28,0,0,1,.07-0.52,0.8,0.8,0,0,1,.35-0.27,0.25,0.25,0,0,1,.36,0,0.37,0.37,0,0,1,.18.34c0,0.08,0,.16,0,0.24h0Z" transform="translate(-373.69 -403.61)"/></svg>