<svg id="Capa_1" data-name="Capa 1" xmlns="http://www.w3.org/2000/svg" viewBox="0 0 1700.79 2040.94"><title>negro y blanco lleno</title><path d="M972.5,875.88a169.49,169.49,0,0,1,10.06,20.94c1.44,3.54,2.59,7.19,4,10.73,2.9,7.23,4.7,14.79,6.77,22.27a33.22,33.22,0,0,1,1.34,7.87,18.26,18.26,0,0,0,.6,3.77,31.93,31.93,0,0,1,.75,7.95c-0.06,7.43.06,14.86-.3,22.28-0.15,3.1.18,6.2-.19,9.32-0.26,2.25.34,4.6,0.56,6.91a54.75,54.75,0,0,1,.49,5.53,56.21,56.21,0,0,1-1.44,13.79c-1.14,4.35-2.8,8.57-4.23,12.85-0.62,1.87-1.37,3.7-1.85,5.6a30,30,0,0,1-4.63,10.4,10,10,0,0,0-1.88,5,40.82,40.82,0,0,1-3.79,2,5.67,5.67,0,0,0-3.5,4.43c-0.52,2.6-1,5.23-1.45,7.95l1.18,2.06a2.51,2.51,0,0,1-.51.86,3.79,3.79,0,0,0-1.7,2.83c-0.83,4.9-1.69,9.77-2.13,14.73a67,67,0,0,1-1.46,8.18,86.79,86.79,0,0,0-1.15,10.32,41.53,41.53,0,0,0-.06,7.25,41.87,41.87,0,0,1-.39,5.16c-0.13,2.66-.13,5.34-0.27,8-0.07,1.38-.31,2.75-0.45,4.12a26.12,26.12,0,0,0-.19,2.77c0,5.45.21,10.91,0.13,16.36s-0.39,10.88-.59,16.32a4.1,4.1,0,0,0,0,1c0.83,3.59-.35,7.1-0.36,10.65,0,2,.12,3.93.13,5.9a33.52,33.52,0,0,1-.13,5.21,53.39,53.39,0,0,0-.44,10.41,67,67,0,0,1-1,11.42c-0.41,3.21-.73,6.44-1.24,9.63-0.46,2.85-1,5.69-1.73,8.5-0.6,2.41-2.23,4.27-3.75,6.16-2.26,2.81-4.68,5.37-8.11,6.84a65.66,65.66,0,0,0-6.13,3.24c-1.58.88-1.93,1.46-1.42,3.1,0.95,3,1,6.16,1.23,9.28,0.21,2.42.62,4.82,0.89,7.23a18.07,18.07,0,0,1,.2,3.46c-0.22,2.76-.6,5.51-0.89,8.26A39.63,39.63,0,0,0,943,1270a39.16,39.16,0,0,1-1.26,9.61c-0.45,2-.89,4.08-1.2,6.14-0.91,6.12-3.08,11.87-5.16,17.64-1.14,3.16-2.46,6.26-3.5,9.45-1.66,5.09-2.24,10.41-2.9,15.7-0.38,3-.39,6-0.48,9a38.88,38.88,0,0,0,.35,8,32.84,32.84,0,0,1,.29,5.55c0,8.94,0,17.88,0,26.82,0,5.79,0,11.59,0,17.38a6.79,6.79,0,0,0,4.34,6.84c1.87,0.84,4.07,1.08,5.49,2.81,2.46-.18,3.86,1.73,5.7,2.82a53.37,53.37,0,0,0,6.9,3.25,8,8,0,0,0,3,.43,11.45,11.45,0,0,1,4.37.91c4.1,1.59,8.26,3,12.41,4.48a7,7,0,0,0,1.71.31c2.06,0.18,4.14.27,6.19,0.52a11.51,11.51,0,0,1,3,.8c3.74,1.55,7.42,3.24,11.18,4.72a16.88,16.88,0,0,0,4,.71,4.94,4.94,0,0,1,3.18,1.13,6.85,6.85,0,0,0,2.22.92c4.06,1.63,5.11,5.56,2.4,8.93-0.44.54-.86,1.09-1.24,1.67a15,15,0,0,0-.73,1.44,5,5,0,0,1,1.22,1.05,2.48,2.48,0,0,1,.34,1.6c-0.4,1.92-.95,3.81-1.39,5.73a6,6,0,0,1-5.5,4.86,13.07,13.07,0,0,1-1.39,0c-3.46,0-6.93-.13-10.39-0.13-2.13,0-4-1-6-1.4-3.87-.69-7.69-1.67-11.57-2.27-5-.78-10.09-1.33-15.13-2a11,11,0,0,0-2.08-.12,43.55,43.55,0,0,1-12.39-1.25,5.42,5.42,0,0,0-1.73-.19c-2.36.26-4.62-.38-6.87-0.83a32.39,32.39,0,0,0-6.56-.61A17.57,17.57,0,0,1,918,1442a1.73,1.73,0,0,0-.69-0.09c-4.69.4-9.15-1.28-13.77-1.56-2.55-.15-4.83-1.53-7.14-2.59a1.73,1.73,0,0,1-.81-0.63c-1.34-2.54-2.88-5-2.07-8.15a29.39,29.39,0,0,0,1-6.84,42,42,0,0,1,1.61-9.56c1-4.16,2-8.31,2.68-12.56,0.73-4.8,1.89-9.54,3-14.28a38.08,38.08,0,0,0,1-9.65c-0.21-6.37-.17-12.76-0.56-19.12-0.23-3.81-.58-7.62-0.67-11.44,0-2.07-.57-4.13-0.81-6.2-0.2-1.72-.32-3.45-0.44-5.18-0.28-3.93-.53-7.86-0.8-11.79a18,18,0,0,1-.1-2.08c0.17-3.39-.62-6.67-1.16-10-0.59-3.65-1.24-7.32-1.5-11a82.88,82.88,0,0,1,.38-16.67,10.57,10.57,0,0,0,.15-1.73,40.58,40.58,0,0,1,1.15-9.64,15.41,15.41,0,0,0,.36-3.1c0-5.57-.06-11.13-0.12-16.7,0-.68-0.15-1.35-0.25-2.22a7.61,7.61,0,0,0-2-.16c-2.6.55-5.16,1.28-7.77,1.79-1.92.37-3.89,0.48-5.84,0.75s-3.88.65-5.83,0.86c-2.53.27-5.08,0.42-7.62,0.63-0.57,0-1.13.13-1.55,0.18a2.68,2.68,0,0,0-.85,2.67,60.88,60.88,0,0,1-.4,9.7c-0.44,4.94-.63,9.92-0.77,14.88-0.17,5.92-.11,11.84-0.27,17.75a67,67,0,0,1-.71,6.91c-0.59,4.47-1.27,8.93-1.86,13.41-0.27,2.06-.43,4.14-0.66,6.21-0.35,3.22-.68,6.45-1.08,9.67-0.57,4.47-1.2,8.94-1.81,13.41-0.11.8-.29,1.59-0.41,2.39-0.51,3.43-1,6.86-1.49,10.29-0.37,2.75-.67,5.5-1,8.26q-0.92,7.59-1.85,15.18c-0.11.92-.33,1.82-0.47,2.74-0.74,4.69-1.34,9.4-2.24,14.06-1.24,6.39-1.11,12.9-2,19.31a2.11,2.11,0,0,0,0,.69c0.77,3.81,0,7.61,0,11.42s0,7.66,0,11.49c0,1.14.13,2.28,0.2,3.55,2.15,0.43,3.25,1.94,4.36,3.43,2.14,2.88,4.16,5.86,6.45,8.62a22.64,22.64,0,0,1,3.38,6.34,9.57,9.57,0,0,0,2.42,4.12,3.49,3.49,0,0,1,1.06,2.11c0.48,4.61.81,9.19-.45,13.81a26.51,26.51,0,0,1-2.62,6.34,13.2,13.2,0,0,0-2,5.83,19.25,19.25,0,0,1-1.42,5.34c-0.85,2.26-1.92,4.44-2.88,6.63a10.19,10.19,0,0,1-4.08.74,26,26,0,0,0-5.13.68c-1.83.27-3.65,0.61-5.49,0.8-3,.31-6,0.6-9,0.73a15.87,15.87,0,0,1-3.76-.5,5.6,5.6,0,0,1-3.91-3.14,15.85,15.85,0,0,1-.84-2.28,56.54,56.54,0,0,0-4.22-10.28,18.76,18.76,0,0,1-2.09-7.29,55.75,55.75,0,0,1,.12-15.58,9.54,9.54,0,0,0,.11-2.08,15.58,15.58,0,0,1,.84-5.8c0.53-1.64,1.27-3.26.58-5.06a1.48,1.48,0,0,1,.13-1c1.63-3.59,3.35-7.14,6.39-9.8a3,3,0,0,0,1.22-2.7c-0.16-1.72-.2-3.42-0.5-5.15-0.89-5.12-1.43-10.31-2.09-15.47a6.43,6.43,0,0,1,0-1.74c0.79-5.31.4-10.65,0.55-16a37.16,37.16,0,0,1,.46-5.53c0.9-5,1.19-10.11,1.65-15.18a65.34,65.34,0,0,0,0-7.93c-0.17-5.56-.08-11.13,0-16.7,0-2.07.33-4.15,0.34-6.22a75.21,75.21,0,0,0-1.76-16.5,19.78,19.78,0,0,1-.55-3.43c-0.24-5.94-1.79-11.68-2.58-17.53-0.59-4.35-1.12-8.72-1.94-13-1.16-6.14-1.69-12.4-3.31-18.46-0.21-.78-0.23-1.6-0.38-2.4a29.6,29.6,0,0,0-.93-4.39,36.38,36.38,0,0,1-1.53-9.23c-0.25-2.89-.37-5.78-0.54-8.68a3.56,3.56,0,0,1,0-1,15.79,15.79,0,0,0,0-6.56,15.51,15.51,0,0,1,0-2.51c-1.22-.89-2.68-0.71-4-0.69-4.64.07-9.27,0.33-13.91,0.45-2.32.06-4.64,0-7-.05s-4.61-.19-6.92-0.23c-1.41,0-1.41,0-3,1.65a13.94,13.94,0,0,1-3.18-3.5,3,3,0,0,1-.45-1.63c-0.07-1.73,0-3.47-.08-5.2q-0.22-5.73-.51-11.45c-0.08-1.62-.19-3.24-0.36-4.85-0.3-3-.68-6-1-9-0.39-4.15-.77-8.31-1.06-12.47-0.12-1.78-.32-3.46-1.66-4.63,0.43-2.57.83-5-.14-7.33a4.85,4.85,0,0,1-.24-1.36c-0.29-3-.57-6-0.83-9-0.24-2.77-.36-5.55-0.67-8.31-0.46-4,.12-8.05,0-12.08s0.11-8.12.16-12.18c0-2.31.08-4.62,0-6.94a112.33,112.33,0,0,1,1.06-15.58c0.43-3.68.65-7.39,1-11.08a9.66,9.66,0,0,1,.14-1.38c1-4.2,1-8.49,1.35-12.77s0.82-8.52,1.39-12.76a4.86,4.86,0,0,0-.71-3.75c1.84-1.83,1.53-4.3,1.72-6.52,0.37-4.39.73-8.77,1.45-13.11,0.19-1.14.17-2.31,0.29-3.47,0.22-2.18.53-4.35,0.67-6.54a39,39,0,0,0,.07-6.24c-0.43-4.36.6-8.77-.56-13.11a13.66,13.66,0,0,1-.19-3.11,26,26,0,0,0-1.76-8.82,7.25,7.25,0,0,1-.5-5,12.33,12.33,0,0,0,0-4.14q-0.35-5.2-.82-10.39c-0.3-3.34-.71-6.68-1-10-0.2-2.31-.3-4.63-0.37-6.95-0.05-1.77-.8-3.33-1-4.87a4,4,0,0,0-.9-0.37c-3.46-.22-6.94-0.3-10.38-0.67a106.61,106.61,0,0,1-11-1.68c-4.74-1-9.51-2-14-4-3.6-1.59-7.24-3.11-10.83-4.73a23.3,23.3,0,0,1-3.31-1.91c-4.14-2.76-8.23-5.62-12.4-8.34-2.9-1.9-5.91-3.64-9.07-5.58,0.1-2.16-1-3.73-3.12-4.74a3.38,3.38,0,0,1-1.31-1.52c-1-2.07-2-4.09-2.09-6.55a32.63,32.63,0,0,0-1-5.79,12.09,12.09,0,0,1,.06-4.84c0.57-2.84,1.13-5.68,1.72-8.51,0.52-2.5,1.07-5,1.61-7.48a7.75,7.75,0,0,1,.52-2c2.1-3.9,2.37-8.5,4.65-12.33,0.36-3.06,2.28-5.53,3.17-8.41a31,31,0,0,0,.83-14.39,15.64,15.64,0,0,1,0-2.44,27.15,27.15,0,0,1-2.32-2.43,3.63,3.63,0,0,1-.46-3.85,15.66,15.66,0,0,0,.94-8.46,130.06,130.06,0,0,1-1.71-15.88,190.49,190.49,0,0,0-3-20.24c-0.9-4.89-1.62-9.81-2.5-14.7a15.41,15.41,0,0,1-.27-2.07c-0.23-5.44-.69-10.89-0.56-16.32a79.1,79.1,0,0,1,1.26-13.82c0.83-4.08,1.44-8.2,2.12-12.31a85.18,85.18,0,0,1,5.17-17.28c0.38-1,.87-1.9,1.18-2.89,1-3.21,3.17-5.61,5.46-7.93,1.38-1.39,2.73-2.82,4-4.32,1.71-2,3.13-4.33,5.95-5a0.63,0.63,0,0,0,.29-0.18c3.73-4,9.22-5.81,12.89-10a9,9,0,0,1,2.59-1.73,29.28,29.28,0,0,0,6.13-4.55c1-.94,2.12-1.8,3.2-2.67a17.48,17.48,0,0,0,1.92-1.49c2.38-2.57,5.28-4.51,8-6.64a4.41,4.41,0,0,1,1.42-1,5.25,5.25,0,0,0,3.27-2.93,4.69,4.69,0,0,1,3.07-2.55,4,4,0,0,0,1.23-.65,2.32,2.32,0,0,0,1.16-2,62.89,62.89,0,0,0-.56-6.91c-0.75-4.33-2.07-8.58-2.53-12.92-0.54-5-1.7-10.06-1-15.21,0.71-5.39,1.28-10.8,1.93-16.2a6.06,6.06,0,0,1,.49-1.66c1.48-3.39,3-6.76,4.47-10.16a11.69,11.69,0,0,0,1.15-4.69,5.07,5.07,0,0,0-1.25-3.84,10.9,10.9,0,0,1-2.23-4.28c-1-3.07-2.29-6.07-3.33-9.14a26.4,26.4,0,0,1-1.21-5.05c-0.54-4.25-1.14-8.51-1.3-12.79a41.33,41.33,0,0,1,.79-9c0.92-5,2.19-9.93,3.25-14.91,1.27-6,3.28-11.57,7.24-16.34,1.26-1.51,2.45-3.08,3.64-4.66a25.92,25.92,0,0,1,7.94-6.66,9.34,9.34,0,0,1,6.36-1.26,9.63,9.63,0,0,0,7-1.54c1.18-.73,2.4-1.41,3.62-2.07a3.4,3.4,0,0,1,1.58-.63c2,0.12,3.57-.9,5.33-1.42,1.21-.36,2.46-0.61,3.69-0.9a4.62,4.62,0,0,0,1-.17c3.71-1.9,7.8-2,11.79-2.52a1.66,1.66,0,0,0,.67-0.14c2.27-1.54,4.84-1.37,7.39-1.37,0.68,0,1.36-.29,2-0.35a5.31,5.31,0,0,1,2.38,0,9.5,9.5,0,0,0,5.8.16,11.23,11.23,0,0,1,6.71.95c3,1.24,5.94,2.58,8.88,3.93a11.43,11.43,0,0,1,4.19,3,3.09,3.09,0,0,0,2,1.3c3.54,0.53,6.09,2.69,8.28,5.3a29.36,29.36,0,0,1,5.73,10.65c1.51,5.11,2.94,10.24,4.41,15.36a3.93,3.93,0,0,1,.13.68c0.51,5.06,1.27,10.11.93,15.23a7.78,7.78,0,0,1-.2,1.72,20.44,20.44,0,0,0-.5,6.9c0.08,2,.08,2-0.88,4.16,2.47,2.72,3.5,6.33,4.84,9.74a65.27,65.27,0,0,0,7.6,14.39,59.15,59.15,0,0,1,7.06,14.27,2.67,2.67,0,0,1-.56,2.89,6.56,6.56,0,0,1-2.69,2.08c-3.57,1.28-7,3.16-11.17,2.68,0,1.07,0,1.94,0,2.82S888,648.2,888,649a44,44,0,0,1-.87,11.77,32.49,32.49,0,0,0,.32,13.41,41.85,41.85,0,0,1,.53,8.3c0,1.73.05,3.47,0,5.2a2.58,2.58,0,0,0,2.21,2.69c2,0.55,4,1.28,6,1.67a58.42,58.42,0,0,1,9,2.7c4.14,1.5,8.31,2.9,12.48,4.29a22.81,22.81,0,0,1,5.5,2.92c2.31,1.55,4.63,3.07,6.92,4.65a33.24,33.24,0,0,1,3.31,2.53,66.52,66.52,0,0,1,12.18,14.18c2.4,3.83,5,7.52,6.93,11.64a36.13,36.13,0,0,1,3.4,10.17,2.76,2.76,0,0,0,1.23,2.35,2.9,2.9,0,0,1,1.26,2.37c0.48,4.28,1.91,8.34,2.81,12.53a100.31,100.31,0,0,1,1.94,11.28c0.24,2.41.74,4.81,1.21,7.19,0.92,4.66,1.89,9.3,2.85,14a11.9,11.9,0,0,0,.45,2,111.42,111.42,0,0,1,4.67,16.7c0.57,2.48,1.07,5,1.6,7.47a2.58,2.58,0,0,1,.08.34c0.28,3.79.9,7.61,0.73,11.38-0.19,4.16.17,8.28,0.26,12.42a45,45,0,0,1-.6,10.39,10.56,10.56,0,0,0-.23,2.07,60.3,60.3,0,0,1-1.27,11,19.59,19.59,0,0,0-.09,2.43C972.78,872.54,972.65,874,972.5,875.88Z"/></svg>