<?xml version="1.0" encoding="utf-8"?>
<!-- Generator: Adobe Illustrator 27.7.0, SVG Export Plug-In . SVG Version: 6.00 Build 0)  -->
<svg version="1.1" id="Capa_2" xmlns="http://www.w3.org/2000/svg" xmlns:xlink="http://www.w3.org/1999/xlink" x="0px" y="0px"
	 viewBox="0 0 22 35" style="enable-background:new 0 0 22 35;" xml:space="preserve" width="22" height="35">
<g id="Capa_1-2_00000070801781811478022560000012437221282288726459_">
	<g>
		<path d="M18.2,17.5c-0.2,0.7-0.5,1.4-0.9,2c0,0.1,0,0.1-0.1,0.2c0,0.1-0.1,0.2-0.2,0.3c-0.1,0.1-0.2,0.3-0.3,0.4
			c-0.2,0.3-0.5,0.6-0.6,0.9s-0.4,0.4-0.5,0.7c-0.2,0.4-0.6,0.6-0.8,1c-0.1,0.2-0.3,0.4-0.4,0.5c-0.2,0.2-0.3,0.5-0.6,0.6
			c-0.1,0-0.1,0.1-0.2,0.2l-0.1,0.1c-0.3,0.1-0.4,0.3-0.7,0.4c-0.4,0.3-0.8,0.6-1.2,0.9c-0.1,0.1-0.1,0.1-0.2,0.1c0,0-0.1,0-0.1,0.1
			c-0.2,0.3-0.5,0.3-0.8,0.5c-0.2,0.2-0.5,0.3-0.8,0.3s-0.6,0-0.8,0c-0.1,0-0.2,0-0.3-0.1c-0.2-0.1-0.4-0.2-0.7-0.2
			c-0.2-0.1-0.5-0.1-0.7-0.3C7,26,6.7,25.9,6.5,25.7c-0.1-0.1-0.1-0.1-0.2-0.1C5.8,25.5,5.4,25.1,5,25c-0.1,0-0.2-0.1-0.2-0.2
			c-0.2-0.2-0.5-0.4-0.7-0.7c-0.2-0.2-0.5-0.4-0.8-0.6c-0.1,0-0.1-0.1-0.2-0.1c-0.3-0.3-0.5-0.5-0.8-0.7s-0.6-0.5-0.8-0.8
			C1,21.6,0.8,21.3,0.6,21c-0.1-0.2-0.2-0.3-0.3-0.5C0,20.2,0,19.8,0,19.5c0-0.4,0-0.7,0.1-1.1c0.1-0.5,0.2-1,0.5-1.3
			C0.7,16.8,1,16.7,1,16.4c0.1-0.3,0.1-0.5,0.2-0.8c0-0.2,0.1-0.4,0.2-0.6c0.1-0.1,0.1-0.3,0.1-0.4c0-0.1,0.1-0.2,0.2-0.3
			C1.9,14,1.9,13.8,2,13.6c0-0.1,0-0.2,0.1-0.3c0,0,0.1-0.1,0-0.2c0-0.1,0-0.1,0-0.2c0.3-0.3,0.2-0.6,0.3-1v-0.1
			c0.2-0.3,0.2-0.7,0.4-1C3,10.4,3,9.9,3.4,9.6c0-0.2,0.2-0.4,0.3-0.7C3.9,8.7,4,8.5,4.1,8.3C4.2,8,4.3,7.7,4.4,7.5
			C4.5,7.2,4.6,7,4.7,6.8s0.1-0.3,0.2-0.5s0.3-0.4,0.5-0.6c0.1-0.1,0.1-0.1,0.2-0.1c0.3,0,0.5-0.2,0.8-0.3c0.2-0.1,0.4-0.2,0.5-0.1
			c0.4,0,0.8,0,1.2,0c0.2,0,0.4,0.1,0.7,0.1c0.1,0,0.1,0,0.2-0.1c0.1-0.4,0.4-0.7,0.7-1c0,0,0.1-0.1,0.1-0.2c0.2-0.4,0.4-0.7,0.7-1
			c0,0,0.1-0.1,0.1-0.2c0.1-0.4,0.3-0.7,0.6-1c0.2-0.2,0.2-0.6,0.5-0.7c0.1,0,0.1-0.1,0.1-0.2c0.1-0.4,0.5-0.5,0.8-0.7
			C12.8,0,13.1,0,13.4,0.1c0.1,0,0.2,0,0.3,0c0.2-0.1,0.4-0.1,0.6,0c0.1,0,0.1,0.1,0.2,0.1c0.6,0,0.9,0.5,1.2,0.8c0,0,0,0,0.1,0.1
			c0.1,0.6,0.1,1.2,0.1,1.7c-0.1,0.5-0.2,1-0.4,1.5c-0.1,0.1,0,0.2-0.1,0.4c-0.1,0.4-0.4,0.8-0.5,1.2c-0.1,0.2-0.2,0.5-0.3,0.7
			S14.5,7,14.3,7.1c-0.2,0.2-0.1,0.4-0.2,0.7c0,0,0,0.1,0.1,0.1c0.2,0.1,0.3,0.2,0.3,0.3v0.1c0.4,0.1,0.5,0.6,1,0.5h0.1
			C15.8,9,16.1,9,16.4,9.2c0.1,0.1,0.2,0.1,0.4,0.2c0.2,0.1,0.3,0.1,0.4,0.3c0,0,0,0,0.1,0c0.3,0,0.4,0.2,0.7,0.3l0.1,0.1
			c0.3,0,0.4,0.3,0.6,0.5c0,0.1,0.1,0.1,0.2,0.1c0.3,0.1,0.6,0.2,0.7,0.5l0.1,0.1c0.3,0.1,0.5,0.4,0.6,0.6c0,0.1,0.1,0.2,0.2,0.2
			c0.2,0,0.3,0.2,0.4,0.3s0.2,0.2,0.2,0.3c0,0,0,0.1,0.1,0.1c0.2,0.1,0.2,0.2,0.2,0.4c0,0.1,0,0.1,0.1,0.2c0.2,0.2,0.3,0.5,0.3,0.7
			v0.1c0.3,0.4,0.2,0.9,0.3,1.4c0,0.1,0,0.2,0,0.3c0.1,0.2,0.1,0.3,0,0.5v0.1c0.1,0.2,0.1,0.4,0,0.5c0,0.1,0,0.1,0,0.2
			s0.1,0.3,0,0.4v0.1c0.2,0.2-0.1,0.5,0.1,0.7l0,0c-0.1,0.6,0,1.2,0,1.8c0,0.2-0.2,0.4-0.2,0.7c0,0.3-0.2,0.6-0.3,0.9
			c-0.1,0.2-0.3,0.3-0.4,0.4s-0.2,0-0.3-0.1c-0.2-0.4-0.4-0.8-0.5-1.3c0-0.1-0.1-0.2-0.1-0.3c-0.2-0.4-0.3-0.8-0.6-1.2
			c-0.1-0.1-0.1-0.3-0.2-0.4c-0.2-0.4-0.4-0.7-0.8-0.9C18.4,17.8,18.3,17.7,18.2,17.5L18.2,17.5z M11,13.7c-0.2,0-0.4,0-0.6-0.1
			c-0.1,0-0.1-0.1-0.1-0.1c0-0.2-0.1-0.3,0.1-0.5c0.1-0.1,0.2-0.2,0.2-0.4c0.1-0.2,0.2-0.3,0.4-0.2c0.1,0,0.2,0,0.2-0.1
			c0.2-0.2,0.3-0.5,0.5-0.6c0.1-0.1,0.1-0.1,0.2-0.2c0.1-0.1,0.1-0.5,0-0.6s-0.2-0.2-0.4-0.3s-0.3-0.2-0.5-0.3
			c-0.3-0.3-0.6-0.5-1-0.8C9.6,9.3,9.3,9,9,8.8c0,0,0,0-0.1-0.1C8.5,8.2,7.9,8,7.5,7.5C7.2,7.3,6.8,7.1,6.6,6.7
			C6.4,6.5,6.2,6.3,6.1,6.1C6,6,6,6,5.9,6C5.8,5.9,5.7,5.9,5.7,6.1c0,0.1-0.1,0.1-0.1,0.2C5.4,6.6,5.3,7,5.1,7.4
			C5,7.6,5,7.9,4.8,8.2C4.7,8.4,4.6,8.7,4.6,8.9V9C4.4,9.1,4.4,9.3,4.3,9.5c-0.2,0.4-0.4,0.8-0.6,1.2c-0.1,0.4-0.3,0.7-0.4,1.1
			c0,0.1-0.1,0.2-0.1,0.3C3.1,12.3,3,12.5,3,12.7c0,0.2-0.1,0.3-0.1,0.4c-0.1,0.3-0.3,0.6-0.4,1c0,0.1,0,0.3-0.1,0.4
			c-0.2,0.2-0.2,0.4-0.3,0.6C2,15.2,1.9,15.5,2,15.8C2,15.9,2,16,2,16c-0.1,0.1-0.1,0.1-0.1,0.2c0,0.2-0.1,0.3-0.2,0.4
			S1.5,16.9,1.4,17s-0.1,0.2-0.2,0.3c0,0.2-0.2,0.3-0.2,0.5c0,0.2-0.1,0.4-0.2,0.6s-0.1,0.3-0.1,0.5c0,0.5,0,1,0.2,1.4
			c0.1,0.3,0.4,0.5,0.5,0.8c0.1,0.2,0.3,0.3,0.4,0.4c0.1,0.1,0.2,0.3,0.3,0.4c0.2,0.2,0.4,0.4,0.7,0.6c0.4,0.3,0.8,0.6,1.1,0.9
			c0.2,0.1,0.3,0.3,0.5,0.5C4.6,24,4.8,24.1,5,24.3c0.3,0.3,0.6,0.5,1,0.6h0.1c0.2,0.2,0.4,0.2,0.6,0.4c0.1,0.1,0.2,0.1,0.3,0.1
			c0.4,0.1,0.8,0.4,1.3,0.5c0,0,0.1,0,0.1,0.1c0.2,0.2,0.5,0.2,0.8,0.3c0.5,0.1,0.9-0.2,1.3-0.5c0.1-0.1,0.2-0.2,0.3-0.3
			c0.2-0.1,0.4-0.2,0.5-0.3c0.3-0.1,0.5-0.5,0.9-0.6l0.1-0.1c0-0.1,0.1-0.1,0.2-0.1c0.2,0,0.3-0.2,0.4-0.3C12.9,24,13,24,13,24
			c0.2,0,0.4-0.1,0.5-0.4c0-0.1,0.1-0.1,0.2-0.2c0.2-0.1,0.3-0.3,0.4-0.5c0,0,0-0.1,0.1-0.1c0.3,0,0.3-0.3,0.3-0.4s0.1-0.2,0.1-0.2
			c0.1-0.1,0.3-0.2,0.3-0.4c0.1-0.2,0.2-0.5,0.4-0.7s0.3-0.5,0.6-0.6c0.1-0.1,0.2-0.2,0.2-0.3c0-0.1,0-0.1,0.1-0.2
			c0.1-0.4,0.6-0.7,0.6-1.2c0,0,0,0,0-0.1c0.1-0.2,0.2-0.3,0.2-0.5c0-0.1,0-0.2,0.1-0.2c0.1-0.2,0.2-0.4,0.3-0.6
			c0.1-0.2,0.2-0.4,0.3-0.6c0.1-0.2,0.1-0.3,0.1-0.5c-0.1-0.2-0.2-0.3-0.3-0.4c-0.1,0-0.2-0.1-0.2-0.2c0-0.1-0.1-0.1-0.1-0.2
			c-0.3-0.3-0.5-0.6-0.7-0.9c-0.1-0.2-0.2-0.5-0.4-0.7C16,13.8,16,13.8,16,13.7c-0.1-0.2-0.2-0.4-0.5-0.5c-0.4-0.1-0.8-0.4-1.2-0.6
			c-0.4-0.2-0.7-0.4-1.1-0.6c0,0-0.1,0-0.1-0.1c-0.1,0-0.2-0.1-0.3-0.2c-0.1-0.1-0.3-0.1-0.3,0c-0.1,0.1-0.2,0.2-0.2,0.3
			c-0.1,0.3-0.2,0.4-0.5,0.6c-0.1,0.1-0.1,0.2,0,0.3C12,13,12,13.2,12,13.3c0,0.3,0,0.4-0.3,0.5C11.4,13.7,11.2,13.8,11,13.7
			L11,13.7z M13.4,7.4c0.1-0.2,0.1-0.4,0.2-0.5c0.2-0.4,0.3-0.9,0.6-1.3c0.2-0.3,0.2-0.8,0.5-1.1V4.4c0.1-0.5,0.2-1,0.2-1.5
			C14.9,2.5,15,2,15,1.6c0-0.5-0.4-0.9-1-1c-0.4,0-0.7,0.1-1,0.1c-0.1,0-0.2,0.1-0.3,0.2c-0.2,0.3-0.5,0.6-0.7,0.9
			c0,0,0,0.1-0.1,0.2c-0.2,0.4-0.5,0.8-0.7,1.2c-0.1,0.1-0.2,0.2-0.3,0.4c-0.1,0.1-0.3,0.3-0.3,0.4c-0.1,0.2-0.2,0.4-0.3,0.6
			c0,0.1-0.1,0.2-0.2,0.3c-0.3,0-0.3,0.3-0.3,0.5c0,0.1,0,0.1,0.1,0.2c0.2,0.1,0.3,0.1,0.5,0.1c0.3,0,0.5,0.3,0.9,0.4
			c0.1,0,0.2,0.1,0.3,0.1c0.2,0.1,0.4,0.3,0.7,0.4C12.5,6.7,12.7,7,13,7c-0.1-0.1,0,0,0,0C13.1,7.2,13.2,7.3,13.4,7.4L13.4,7.4z
			 M12.9,8.4L12.9,8.4c0.1,0,0.2,0,0.2-0.1s0-0.1-0.1-0.1c-0.2,0-0.3-0.1-0.4-0.3c-0.3-0.3-0.7-0.3-1-0.6h-0.1
			c-0.2,0-0.3-0.1-0.4-0.2C11,7,11,6.9,10.9,6.9c-0.4-0.1-0.7-0.3-1.1-0.4c-0.1,0-0.2-0.1-0.3-0.1C9.4,6.3,9.2,6.2,9.1,6.2
			c-0.1,0-0.1,0-0.2,0C8.8,6.1,8.7,6.1,8.6,6.1c-0.2,0-0.4,0-0.6-0.2c-0.1-0.1-0.1,0-0.2,0c-0.3,0-0.6,0-0.8,0c-0.1,0-0.2,0-0.3,0.1
			C6.5,6,6.4,6.1,6.6,6.1C6.7,6.2,6.8,6.3,7,6.4s0.4,0.2,0.5,0.4C7.7,7.1,8,7.1,8.2,7.4c0,0,0,0,0.1,0c0.2,0.1,0.4,0.2,0.5,0.3
			c0,0.1,0.1,0.1,0.2,0.1c0.4,0,0.7,0,1.1,0.2c0.1,0,0.1,0,0.2,0c0.3,0,0.6,0.1,0.9,0.2c0.1,0.1,0.3,0.1,0.4,0.1
			c0.2-0.1,0.4,0,0.7-0.1c0.1,0,0.3,0,0.4,0C12.7,8.4,12.8,8.4,12.9,8.4L12.9,8.4z"/>
		<path d="M20.4,24.8c0-0.3,0-0.5,0.1-0.7c0.1-0.3,0.1-0.6,0.2-0.9c0-0.1,0-0.2,0.2-0.2c0.1,0,0.2,0.1,0.2,0.2
			c0,0.4,0.1,0.7,0.3,1.1c0.1,0.2,0.1,0.3,0.2,0.5s0,0.4-0.2,0.5s-0.4,0.3-0.7,0.1c-0.1-0.1-0.2-0.2-0.2-0.4
			C20.4,24.9,20.4,24.8,20.4,24.8L20.4,24.8z"/>
	</g>
</g>
</svg>
