<?xml version="1.0" encoding="utf-8"?>
<!-- Generator: Adobe Illustrator 27.7.0, SVG Export Plug-In . SVG Version: 6.00 Build 0)  -->
<svg version="1.1" id="Capa_2" xmlns="http://www.w3.org/2000/svg" xmlns:xlink="http://www.w3.org/1999/xlink" x="0px" y="0px"
	 viewBox="0 0 40 120" style="enable-background:new 0 0 40 120;" xml:space="preserve" width="120" height="120">
<style type="text/css">
	.stp{fill:#FFFFFF;}
</style>
<g id="Capa_1-2">
	<path class="stp" d="M34.8,42.5c0.5,0.8,0.9,1.7,1.2,2.5c0.2,0.4,0.3,0.9,0.5,1.3c0.4,0.9,0.6,1.8,0.8,2.7c0.1,0.3,0.1,0.6,0.2,1
		c0,0.2,0,0.3,0.1,0.5c0.1,0.3,0.1,0.6,0.1,1c0,0.9,0,1.8,0,2.7c0,0.4,0,0.8,0,1.1c0,0.3,0,0.6,0.1,0.8c0,0.2,0.1,0.4,0.1,0.7
		c0,0.6,0,1.1-0.2,1.7c-0.1,0.5-0.3,1-0.5,1.6c-0.1,0.2-0.2,0.4-0.2,0.7c-0.1,0.4-0.3,0.9-0.6,1.3C36.1,62,36,62.2,36,62.5
		c-0.1,0.1-0.3,0.2-0.5,0.2c-0.2,0.1-0.4,0.3-0.4,0.5c-0.1,0.3-0.1,0.6-0.2,1l0.1,0.3c0,0,0,0.1-0.1,0.1c-0.1,0.1-0.2,0.2-0.2,0.3
		c-0.1,0.6-0.2,1.2-0.3,1.8c0,0.3-0.1,0.7-0.2,1c-0.1,0.4-0.1,0.8-0.1,1.2c0,0.3,0,0.6,0,0.9c0,0.2,0,0.4,0,0.6c0,0.3,0,0.6,0,1
		c0,0.2,0,0.3-0.1,0.5c0,0.1,0,0.2,0,0.3c0,0.7,0,1.3,0,2c0,0.7,0,1.3-0.1,2c0,0,0,0.1,0,0.1c0.1,0.4,0,0.9,0,1.3c0,0.2,0,0.5,0,0.7
		c0,0.2,0,0.4,0,0.6c-0.1,0.4-0.1,0.8-0.1,1.3c0,0.5,0,0.9-0.1,1.4c-0.1,0.4-0.1,0.8-0.1,1.2c-0.1,0.3-0.1,0.7-0.2,1
		c-0.1,0.3-0.3,0.5-0.5,0.7c-0.3,0.3-0.6,0.6-1,0.8c-0.3,0.1-0.5,0.3-0.7,0.4c-0.2,0.1-0.2,0.2-0.2,0.4c0.1,0.4,0.1,0.7,0.1,1.1
		c0,0.3,0.1,0.6,0.1,0.9c0,0.1,0,0.3,0,0.4c0,0.3-0.1,0.7-0.1,1c0,0.2-0.1,0.4-0.1,0.6c0,0.4-0.1,0.8-0.2,1.2
		c-0.1,0.2-0.1,0.5-0.1,0.7c-0.1,0.7-0.4,1.4-0.6,2.1c-0.1,0.4-0.3,0.8-0.4,1.1c-0.2,0.6-0.3,1.3-0.4,1.9c0,0.4,0,0.7-0.1,1.1
		c0,0.3,0,0.6,0,1c0,0.2,0,0.4,0,0.7v5.3c0,0.4,0.2,0.7,0.5,0.8c0.2,0.1,0.5,0.1,0.7,0.3c0.3,0,0.5,0.2,0.7,0.3
		c0.3,0.1,0.5,0.3,0.8,0.4c0.1,0,0.2,0.1,0.4,0.1c0.2,0,0.4,0,0.5,0.1c0.5,0.2,1,0.4,1.5,0.5c0.1,0,0.1,0,0.2,0c0.3,0,0.5,0,0.8,0.1
		c0.1,0,0.2,0.1,0.4,0.1c0.4,0.2,0.9,0.4,1.3,0.6c0.2,0.1,0.3,0.1,0.5,0.1c0.1,0,0.3,0,0.4,0.1c0.1,0.1,0.2,0.1,0.3,0.1
		c0.5,0.2,0.6,0.7,0.3,1.1c-0.1,0.1-0.1,0.1-0.1,0.2c0,0.1-0.1,0.1-0.1,0.2c0.1,0,0.1,0.1,0.1,0.1c0,0.1,0.1,0.1,0,0.2
		c-0.1,0.2-0.1,0.5-0.2,0.7c-0.1,0.3-0.3,0.6-0.7,0.6h-0.2c-0.4,0-0.8,0-1.3,0c-0.3,0-0.5-0.1-0.7-0.2c-0.5-0.1-0.9-0.2-1.4-0.3
		c-0.6-0.1-1.2-0.2-1.8-0.2c-0.1,0-0.2,0-0.3,0c-0.5,0-1,0-1.5-0.2c-0.1,0-0.1,0-0.2,0c-0.3,0-0.6,0-0.8-0.1
		c-0.3-0.1-0.5-0.1-0.8-0.1c-0.2,0-0.5,0-0.7-0.1c0,0-0.1,0-0.1,0c-0.6,0.1-1.1-0.2-1.7-0.2c-0.3,0-0.6-0.2-0.9-0.3
		c0,0-0.1,0-0.1-0.1c-0.2-0.3-0.3-0.6-0.3-1c0.1-0.3,0.1-0.5,0.1-0.8c0-0.4,0.1-0.8,0.2-1.2c0.1-0.5,0.2-1,0.3-1.5
		c0.1-0.6,0.2-1.2,0.4-1.7c0.1-0.4,0.1-0.8,0.1-1.2c0-0.8,0-1.5-0.1-2.3c0-0.5-0.1-0.9-0.1-1.4c0-0.3-0.1-0.5-0.1-0.8
		c0-0.2,0-0.4-0.1-0.6c0-0.5-0.1-1-0.1-1.4c0-0.1,0-0.2,0-0.3c0-0.4-0.1-0.8-0.1-1.2c-0.1-0.4-0.1-0.9-0.2-1.3c-0.1-0.7,0-1.3,0-2
		c0-0.1,0-0.1,0-0.2c0-0.4,0-0.8,0.1-1.2c0-0.1,0-0.3,0-0.4c0-0.7,0-1.3,0-2c0-0.1,0-0.2,0-0.3c-0.1,0-0.2,0-0.2,0
		c-0.3,0.1-0.6,0.2-0.9,0.2c-0.2,0-0.5,0.1-0.7,0.1c-0.2,0-0.5,0.1-0.7,0.1c-0.3,0-0.6,0.1-0.9,0.1c-0.1,0-0.1,0-0.2,0
		C22,88.2,22,88.3,22,88.5c0,0.4,0,0.8-0.1,1.2c-0.1,0.6-0.1,1.2-0.1,1.8c0,0.7,0,1.4,0,2.1c0,0.3,0,0.6-0.1,0.8
		c-0.1,0.5-0.2,1.1-0.2,1.6c0,0.3-0.1,0.5-0.1,0.8c0,0.4-0.1,0.8-0.1,1.2c-0.1,0.5-0.1,1.1-0.2,1.6c0,0.1,0,0.2-0.1,0.3
		c-0.1,0.4-0.1,0.8-0.2,1.2c0,0.3-0.1,0.7-0.1,1c-0.1,0.6-0.1,1.2-0.2,1.8c0,0.1,0,0.2-0.1,0.3c-0.1,0.6-0.2,1.1-0.3,1.7
		c-0.1,0.8-0.1,1.6-0.2,2.3c0,0,0,0.1,0,0.1c0.1,0.5,0,0.9,0,1.4v1.4c0,0.1,0,0.3,0,0.4c0.3,0.1,0.4,0.2,0.5,0.4
		c0.3,0.3,0.5,0.7,0.8,1c0.2,0.2,0.3,0.5,0.4,0.8c0.1,0.2,0.2,0.4,0.3,0.5c0.1,0.1,0.1,0.2,0.1,0.3c0.1,0.6,0.1,1.1-0.1,1.7
		c-0.1,0.3-0.2,0.5-0.3,0.8c-0.1,0.2-0.2,0.5-0.2,0.7c0,0.2-0.1,0.4-0.2,0.6c-0.1,0.3-0.2,0.5-0.3,0.8c-0.2,0.1-0.3,0.1-0.5,0.1
		c-0.2,0-0.4,0-0.6,0.1c-0.2,0-0.4,0.1-0.7,0.1c-0.4,0-0.7,0.1-1.1,0.1c-0.2,0-0.3,0-0.5-0.1c-0.2,0-0.4-0.2-0.5-0.4
		c0-0.1-0.1-0.2-0.1-0.3c-0.1-0.4-0.3-0.8-0.5-1.2c-0.1-0.3-0.2-0.6-0.3-0.9c-0.1-0.6-0.1-1.3,0-1.9c0-0.1,0-0.2,0-0.3
		c0-0.2,0-0.5,0.1-0.7c0.1-0.2,0.2-0.4,0.1-0.6c0,0,0-0.1,0-0.1c0.2-0.4,0.4-0.9,0.8-1.2c0.1-0.1,0.2-0.2,0.1-0.3
		c0-0.2,0-0.4-0.1-0.6c-0.1-0.6-0.2-1.2-0.3-1.9c0-0.1,0-0.1,0-0.2c0.1-0.6,0.1-1.3,0.1-1.9c0-0.2,0-0.4,0.1-0.7
		c0.1-0.6,0.1-1.2,0.2-1.8c0-0.3,0-0.6,0-1c0-0.7,0-1.3,0-2c0-0.3,0-0.5,0-0.8c0-0.7-0.1-1.3-0.2-2c0-0.1-0.1-0.3-0.1-0.4
		c0-0.7-0.2-1.4-0.3-2.1c-0.1-0.5-0.1-1.1-0.2-1.6c-0.1-0.7-0.2-1.5-0.4-2.2c0-0.1,0-0.2,0-0.3c0-0.2-0.1-0.4-0.1-0.5
		C16,91.2,16,90.8,16,90.5c0-0.3,0-0.7-0.1-1c0,0,0-0.1,0-0.1c0.1-0.3,0.1-0.5,0-0.8c0-0.1,0-0.2,0-0.3c-0.1-0.1-0.3-0.1-0.5-0.1
		c-0.6,0-1.1,0-1.7,0.1c-0.3,0-0.6,0-0.8,0c-0.3,0-0.6,0-0.8,0c-0.1,0-0.2,0.1-0.4,0.2c-0.2-0.1-0.3-0.3-0.4-0.4
		c0-0.1-0.1-0.1-0.1-0.2c0-0.2,0-0.4,0-0.6c0-0.5,0-0.9-0.1-1.4c0-0.2,0-0.4,0-0.6c0-0.4-0.1-0.7-0.1-1.1c0-0.5-0.1-1-0.1-1.5
		c0-0.2,0-0.4-0.2-0.6c0.1-0.3,0.1-0.6,0-0.9c0-0.1,0-0.1,0-0.2c0-0.4-0.1-0.7-0.1-1.1c0-0.3,0-0.7-0.1-1c-0.1-0.5,0-1,0-1.5
		c0-0.5,0-1,0-1.5c0-0.3,0-0.6,0-0.8c0-0.6,0-1.3,0.1-1.9c0.1-0.4,0.1-0.9,0.1-1.3c0-0.1,0-0.1,0-0.2c0.1-0.5,0.1-1,0.2-1.5
		c0-0.5,0.1-1,0.2-1.5c0-0.2,0-0.3-0.1-0.5c0.2-0.2,0.2-0.5,0.2-0.8c0-0.5,0.1-1.1,0.2-1.6c0-0.1,0-0.3,0-0.4c0-0.3,0.1-0.5,0.1-0.8
		c0-0.3,0-0.5,0-0.8c-0.1-0.5,0.1-1.1-0.1-1.6c0-0.1,0-0.3,0-0.4c0-0.4-0.1-0.7-0.2-1.1c-0.1-0.2-0.1-0.4-0.1-0.6c0-0.2,0-0.3,0-0.5
		c0-0.4-0.1-0.8-0.1-1.3c0-0.4-0.1-0.8-0.1-1.2c0-0.3,0-0.6,0-0.8c0-0.2-0.1-0.4-0.1-0.6c0,0-0.1,0-0.1,0c-0.4,0-0.8,0-1.3-0.1
		c-0.4,0-0.9-0.1-1.3-0.2c-0.6-0.1-1.1-0.2-1.7-0.5c-0.4-0.2-0.9-0.4-1.3-0.6c-0.1-0.1-0.3-0.1-0.4-0.2c-0.5-0.3-1-0.7-1.5-1
		c-0.4-0.2-0.7-0.4-1.1-0.7c0-0.3-0.1-0.4-0.4-0.6c-0.1,0-0.1-0.1-0.2-0.2c-0.1-0.3-0.2-0.5-0.3-0.8c0-0.2-0.1-0.5-0.1-0.7
		c0-0.2,0-0.4,0-0.6c0.1-0.3,0.1-0.7,0.2-1c0.1-0.3,0.1-0.6,0.2-0.9c0-0.1,0-0.2,0.1-0.2c0.3-0.5,0.3-1,0.6-1.5c0-0.4,0.3-0.7,0.4-1
		c0.2-0.6,0.2-1.2,0.1-1.7c0-0.1,0-0.2,0-0.3c-0.1-0.1-0.2-0.2-0.3-0.3c-0.1-0.1-0.1-0.3-0.1-0.5c0.1-0.3,0.2-0.7,0.1-1
		c-0.1-0.6-0.2-1.3-0.2-1.9c-0.1-0.8-0.2-1.6-0.4-2.4c-0.1-0.6-0.2-1.2-0.3-1.8c0-0.1,0-0.2,0-0.3c0-0.7-0.1-1.3-0.1-2
		c0-0.6,0.1-1.1,0.2-1.7c0.1-0.5,0.2-1,0.3-1.5c0.1-0.7,0.3-1.4,0.6-2.1c0-0.1,0.1-0.2,0.1-0.3c0.1-0.4,0.4-0.7,0.7-1
		c0.2-0.2,0.3-0.3,0.5-0.5C4,25.4,4.2,25.1,4.6,25c0,0,0,0,0,0c0.4-0.5,1.1-0.7,1.6-1.2c0.1-0.1,0.2-0.2,0.3-0.2
		C6.7,23.4,7,23.2,7.2,23c0.1-0.1,0.3-0.2,0.4-0.3c0.1-0.1,0.2-0.1,0.2-0.2c0.3-0.3,0.6-0.5,1-0.8c0.1-0.1,0.1-0.1,0.2-0.1
		c0.2-0.1,0.3-0.2,0.4-0.4c0.1-0.2,0.2-0.3,0.4-0.3c0.1,0,0.1,0,0.1-0.1c0.1-0.1,0.1-0.1,0.1-0.2c0-0.3,0-0.6-0.1-0.8
		c-0.1-0.5-0.3-1-0.3-1.6c-0.1-0.6-0.2-1.2-0.1-1.8c0.1-0.6,0.2-1.3,0.2-2c0-0.1,0-0.1,0.1-0.2c0.2-0.4,0.4-0.8,0.5-1.2
		c0.1-0.2,0.1-0.4,0.1-0.6c0-0.2,0-0.3-0.2-0.5c-0.1-0.1-0.2-0.3-0.3-0.5c-0.1-0.4-0.3-0.7-0.4-1.1c-0.1-0.2-0.1-0.4-0.1-0.6
		c-0.1-0.5-0.1-1-0.2-1.5c0-0.4,0-0.7,0.1-1.1c0.1-0.6,0.3-1.2,0.4-1.8c0.2-0.7,0.4-1.4,0.9-2c0.2-0.2,0.3-0.4,0.4-0.6
		c0.3-0.3,0.6-0.6,1-0.8c0.2-0.1,0.5-0.2,0.8-0.2c0.3,0.1,0.6,0,0.8-0.2c0.1-0.1,0.3-0.2,0.4-0.3c0.1,0,0.1-0.1,0.2-0.1
		c0.2,0,0.4-0.1,0.6-0.2c0.1,0,0.3-0.1,0.4-0.1c0,0,0.1,0,0.1,0C16,0.7,16.5,0.7,17,0.7c0,0,0.1,0,0.1,0c0.3-0.2,0.6-0.2,0.9-0.2
		c0.1,0,0.2,0,0.2,0c0.1,0,0.2,0,0.3,0c0.2,0.1,0.5,0.1,0.7,0c0.3,0,0.6,0,0.8,0.1c0.4,0.1,0.7,0.3,1.1,0.5c0.2,0.1,0.4,0.2,0.5,0.4
		c0.1,0.1,0.1,0.1,0.2,0.2c0.4,0.1,0.7,0.3,1,0.6c0.3,0.4,0.6,0.8,0.7,1.3c0.2,0.6,0.4,1.2,0.5,1.9c0,0,0,0.1,0,0.1
		c0.1,0.6,0.2,1.2,0.1,1.8c0,0.1,0,0.1,0,0.2c-0.1,0.3-0.1,0.6-0.1,0.8c0,0.2,0,0.3-0.1,0.5c0.3,0.3,0.4,0.8,0.6,1.2
		c0.2,0.6,0.5,1.2,0.9,1.7c0.4,0.5,0.6,1.1,0.9,1.7c0.1,0.1,0,0.3-0.1,0.3c-0.1,0.1-0.2,0.2-0.3,0.3c-0.4,0.2-0.8,0.4-1.3,0.3v0.3
		c0,0.1,0,0.2,0,0.3c0,0.5,0,1-0.1,1.4c-0.1,0.5-0.1,1.1,0,1.6c0.1,0.3,0.1,0.7,0.1,1c0,0.2,0,0.4,0,0.6c0,0.2,0.1,0.3,0.3,0.3
		c0.2,0.1,0.5,0.2,0.7,0.2c0.4,0.1,0.7,0.2,1.1,0.3c0.5,0.2,1,0.4,1.5,0.5c0.2,0.1,0.5,0.2,0.7,0.4c0.3,0.2,0.6,0.4,0.8,0.6
		c0.1,0.1,0.3,0.2,0.4,0.3c0.6,0.5,1.1,1.1,1.5,1.7c0.3,0.5,0.6,0.9,0.8,1.4c0.2,0.4,0.3,0.8,0.4,1.2c0,0.1,0.1,0.2,0.1,0.3
		s0.2,0.2,0.2,0.3c0.1,0.5,0.2,1,0.3,1.5c0.1,0.4,0.2,0.9,0.2,1.4c0,0.3,0.1,0.6,0.1,0.9c0.1,0.6,0.2,1.1,0.3,1.7
		c0,0.1,0,0.2,0.1,0.2c0.2,0.7,0.4,1.3,0.6,2c0.1,0.3,0.1,0.6,0.2,0.9c0,0,0,0,0,0c0,0.5,0.1,0.9,0.1,1.4c0,0.5,0,1,0,1.5
		c0,0.4,0,0.8-0.1,1.3c0,0.1,0,0.2,0,0.3c0,0.4-0.1,0.9-0.2,1.3c0,0.1,0,0.2,0,0.3C34.8,42.1,34.8,42.3,34.8,42.5L34.8,42.5z"/>
	<g>
		<path d="M23.8,4.8C23.9,5,24,5.2,24,5.4c0.1,0.5,0.1,1.1,0.1,1.6c0,0.2,0,0.3,0,0.5c0,0.3-0.1,0.6,0,0.9c0,0.1,0,0.1-0.1,0.2
			c-0.1,0.1-0.2,0.3-0.3,0.5c0,0,0.1,0.2,0.1,0.2c0,0,0.1,0,0.1,0c0.1,0,0.1-0.1,0.2-0.1c0.2,0.1,0.3,0.3,0.3,0.5l0,0l-0.2-0.1
			c0,0.2,0.1,0.3,0.2,0.5c0.1,0,0.1-0.1,0.1-0.2l0,0c0.1,0.1,0.1,0.3,0.2,0.4c0.3,0.5,0.5,1,0.9,1.5c0,0.1,0.1,0.1,0,0.2l0,0
			c-0.2-0.1-0.4-0.2-0.5-0.5c0-0.1-0.1-0.1-0.2-0.2c-0.2-0.3-0.4-0.5-0.6-0.8c-0.1-0.1-0.1-0.2-0.2-0.3c-0.2-0.4-0.4-0.7-0.6-1
			c-0.1-0.1-0.2-0.3-0.3-0.4c-0.1-0.1-0.1-0.1-0.1-0.2c0.2-0.2,0.3-0.4,0.4-0.6c0-0.1,0.1-0.2,0.1-0.3c0-0.3,0-0.6-0.1-0.9
			c0-0.1-0.1-0.2-0.1-0.4c0-0.1,0-0.1,0-0.2c0.1-0.2,0-0.5,0-0.7c-0.1-0.5-0.2-0.9-0.4-1.4c-0.1-0.3-0.2-0.6-0.3-0.9
			c-0.1-0.3-0.2-0.5-0.3-0.8c-0.2-0.4-0.6-0.7-0.9-1c0,0-0.1-0.1-0.2-0.1C20.7,1.4,20.3,1.2,20,1c-0.2-0.1-0.4-0.2-0.6-0.2
			c-0.2,0-0.4,0-0.7,0c-0.2-0.1-0.4,0-0.6,0.1C17.9,1,17.8,1,17.6,1.1c-0.3,0.2-0.6,0.3-0.9,0.4c-0.3,0.1-0.6,0.2-0.9,0.4
			c0,0-0.1,0-0.1,0c-0.2-0.1-0.3,0-0.4,0.1c-0.3,0.2-0.6,0.4-0.9,0.7C14.3,2.9,14.1,3,13.8,3c-0.1,0-0.2,0.1-0.3,0.2
			c-0.2,0.3-0.4,0.6-0.5,1c-0.2,0.4-0.4,0.9-0.6,1.4c-0.1,0.2-0.2,0.5-0.3,0.7c-0.3,0.8-0.5,1.7-0.6,2.6c0,0.2-0.1,0.4-0.1,0.6
			c0,0,0,0.1-0.1,0.1c0-0.1,0-0.2,0-0.3c0-0.3,0.1-0.5,0.1-0.8c0-0.1,0-0.1,0-0.2c0.1-0.4,0.2-0.9,0.3-1.3c0-0.1,0-0.2,0.1-0.3
			c0-0.1,0.1-0.2,0.1-0.2C12,6.2,12.1,6.1,12,6c0-0.1,0-0.1-0.1-0.1c0.1,0,0.3,0,0.3-0.2c0.2-0.4,0.4-0.8,0.5-1.2c0,0,0-0.1,0-0.1
			c-0.1,0-0.1,0.2-0.3,0.2c0-0.1,0-0.2,0.1-0.3C12.8,4,13,3.7,13.2,3.4c0.1-0.1,0.2-0.3,0.3-0.4c0.1-0.2,0.2-0.3,0.3-0.4
			c0,0,0.1-0.1,0.1,0c0.1,0,0.1,0.1,0.2,0.1c0,0,0.1,0,0.1-0.1c0.5-0.4,1-0.8,1.5-1.2c0,0,0.1-0.1,0.1-0.1c0,0,0-0.1,0-0.1
			c0,0,0.1,0.1,0.1,0l-0.1,0c-0.2,0.1-0.4,0.1-0.6,0.1c-0.1,0-0.3,0.1-0.4,0.1c-0.1,0.1-0.2,0.1-0.4,0.1c-0.1,0-0.2,0.1-0.3,0.2
			C14,1.9,13.7,2,13.4,2.1c-0.4,0.2-0.7,0.4-1,0.7c-0.1,0.1-0.2,0.2-0.3,0.3c-0.2,0.3-0.3,0.5-0.4,0.8c0,0.1,0,0.1,0,0.2l0,0l-0.2,0
			l-0.1-0.3c0,0,0,0-0.1,0c0,0-0.1,0-0.1,0.1c-0.4,0.6-0.8,1.3-0.9,2.1c0,0.2-0.1,0.4-0.1,0.6c0,0.3-0.1,0.7-0.1,1
			c0,0.1,0,0.1,0.1,0.1c0.1,0,0.1,0,0.1-0.1c0-0.1,0-0.2,0.1-0.3c0-0.1,0.1-0.2,0.1-0.3c0,0,0,0,0,0.1c0,0,0,0.1,0,0.1
			c-0.1,0.5-0.3,1-0.3,1.5c-0.1,0.4,0,0.8,0.1,1.3c0-0.1,0.1-0.1,0.1-0.2c0-0.2,0.1-0.4,0.1-0.6c0.1-0.4,0.2-0.8,0.3-1.2
			C11,7.7,11.2,7.4,11.4,7c0.1-0.2,0.2-0.4,0.2-0.7c0.1-0.4,0.2-0.8,0.4-1.1c0.1-0.2,0.2-0.5,0.4-0.6c0,0,0.1,0,0.1,0
			c0,0.1,0,0.1,0,0.2c-0.2,0.3-0.4,0.6-0.5,1c0,0.1,0,0.1,0,0.2c-0.1,0-0.1,0.1-0.1,0.2c0,0,0,0,0,0c0,0.1,0.1,0.2,0.1,0.3
			c-0.1,0-0.1,0-0.1,0.1c0,0,0,0,0,0c0,0.1,0,0.1,0,0.1c-0.1,0-0.1,0-0.2,0.1v0c-0.2,0.5-0.4,1-0.6,1.5c-0.2,0.5-0.3,1.1-0.3,1.7
			c0,0.2,0,0.4,0,0.6c0,0,0,0,0,0l-0.1-0.1c0,0,0,0,0,0c-0.1,0.3,0,0.7,0.1,1c0,0,0,0.1,0.1,0.1c0.1,0.1,0.1,0.2,0.1,0.3
			c0,0.1,0,0.2,0,0.3c0.1,0.3,0.2,0.6,0.3,0.8c0.1,0.2,0.3,0.4,0.5,0.6c0,0,0,0,0.1,0c0,0,0,0,0,0c0-0.1,0-0.1,0-0.2
			c0-0.1,0.1-0.3,0-0.4c0-0.1-0.1-0.3-0.2-0.4c0-0.1-0.1-0.2-0.1-0.3c-0.1-0.2-0.1-0.5,0-0.7c0.1-0.2,0-0.4,0-0.5
			c-0.1-0.1-0.1-0.3-0.1-0.4c0,0,0-0.1,0-0.1c0,0,0.1,0,0.1,0c0,0.2,0.1,0.3,0.1,0.5c0,0.1,0.1,0.2,0.2,0.1c0.1-0.1,0.3-0.1,0.4-0.1
			c0.1,0,0.1,0,0.2,0c0.3,0.1,0.6,0.3,0.7,0.6c0.1,0.2,0.2,0.4,0.3,0.6c0.1,0.3,0.3,0.5,0.5,0.6c0,0,0,0.1,0,0.1
			c-0.1,0-0.1,0.1-0.2,0.1c0,0.1,0.1,0.1,0.1,0.1c0.1,0.1,0.2,0.2,0.2,0.4c0.1,0.2,0.1,0.4,0.1,0.6c0,0.1,0,0.1,0,0.2
			c0,0.1-0.1,0.2-0.3,0.3c-0.3,0.1-0.3,0.2-0.3,0.4c0,0.2,0.1,0.5,0.2,0.6c0.1,0,0.1-0.1,0.1-0.2c0-0.2,0.1-0.3,0.1-0.5
			c0,0,0-0.1,0.1-0.1c0,0,0.1,0,0.1,0.1c0,0.1,0,0.1,0,0.2c0,0.3-0.2,0.7-0.4,0.9c0.1,0.4,0,0.8,0.2,1.2c0,0.1,0,0.1,0,0.2
			c0,0.1-0.1,0.2-0.1,0.2c-0.1,0.1-0.3,0.1-0.4,0.2c-0.1,0-0.2,0-0.2-0.1c0,0,0,0,0,0c0-0.2-0.1-0.4-0.1-0.6c0-0.2,0-0.4,0-0.7
			c0-0.1-0.1-0.2-0.2-0.2c-0.2,0.1-0.3,0-0.5-0.2c-0.1-0.2-0.2-0.4-0.3-0.6c0-0.3-0.1-0.6,0-0.9c0.1-0.3,0-0.5-0.1-0.8
			c0-0.1-0.1-0.2-0.2-0.2c-0.1,0-0.2-0.1-0.2-0.1c-0.3-0.2-0.5-0.4-0.6-0.8c0-0.1-0.1-0.2-0.2-0.3c-0.3,0.2-0.4,0.5-0.4,0.8
			c0,0.3-0.1,0.7-0.1,1v0.1c0,0.1-0.1,0.1-0.1,0.1c0,0-0.1,0-0.1-0.1c0-0.1,0-0.2,0-0.3c0-0.1,0-0.3,0-0.4c0,0,0-0.1-0.1-0.1
			s-0.1,0-0.1,0.1c-0.1,0.3-0.2,0.5-0.3,0.8c-0.1,0.7-0.2,1.4-0.3,2.1c0,0.1,0,0.1,0,0.2c0.1,0.3,0.1,0.7,0.1,1
			c0,0.3,0.1,0.6,0.3,0.9c0.1,0.1,0.2,0.2,0.3,0.3c0,0,0.1,0.1,0.1,0.1l0,0c-0.2,0-0.2-0.2-0.4-0.1c0,0.2,0,0.4,0.1,0.5
			c0.1,0.2,0.1,0.4,0.1,0.5c0.2,0.2,0.4,0.4,0.7,0.5c0,0,0,0,0,0c0,0,0,0,0,0c0,0,0,0-0.1,0c-0.2-0.1-0.4-0.1-0.7-0.2
			c0,0.1,0,0.2-0.1,0.2c0,0.1-0.1,0.3-0.1,0.4c0,0-0.1,0-0.1,0c0,0-0.1,0-0.1-0.1c-0.1,0-0.1,0-0.1,0c0,0.1,0,0.2-0.1,0.3
			c-0.1,0.1-0.1,0.2,0,0.3c0.1,0.2,0.2,0.3,0.4,0.4c0.2,0.2,0.5,0.3,0.7,0.4c0.4,0.2,0.9,0.4,1.3,0.5c0.3,0.1,0.5,0.2,0.8,0.3
			c0.7,0.2,1.3,0.4,2,0.6c0.3,0.1,0.7,0.2,1.1,0.3c0.5,0.1,1,0.3,1.5,0.5c0.4,0.2,0.9,0.3,1.3,0.3c0.2,0,0.5,0.1,0.7,0.1
			c0.3,0.1,0.6,0.1,0.9,0.1c0.3,0,0.5,0,0.8,0.1c0.1,0,0.2,0,0.3,0c0.2,0,0.3-0.1,0.4-0.3c0.2-0.4,0.4-0.8,0.4-1.3
			c0-0.1,0-0.1,0-0.2c-0.1-0.2-0.1-0.4-0.2-0.6c-0.1,0-0.2-0.1-0.2-0.1c-0.1,0-0.1-0.2,0-0.2c0.3-0.2,0.5-0.4,0.7-0.7
			c0,0,0-0.1,0-0.1c0,0,0-0.1-0.1-0.1c-0.1,0-0.3,0-0.4,0c0,0-0.1,0-0.1-0.1c0,0,0-0.1,0-0.1c0.1-0.1,0.2-0.1,0.3-0.1
			c0.3,0,0.5-0.1,0.8-0.3c0.1-0.1,0.1-0.1,0.2-0.1c0.2-0.1,0.3-0.2,0.4-0.3c0.4-0.3,0.7-0.7,0.7-1.2v-0.1c0-0.1,0-0.3,0.1-0.4
			c0.1-0.4,0-0.8,0-1.1c0,0,0,0,0-0.1c-0.1-0.2-0.1-0.2-0.3-0.2c-0.1,0.1-0.3,0.1-0.4,0.1c-0.1,0-0.3,0-0.4,0c-0.2-0.1-0.5,0-0.7,0
			c-0.1,0-0.2,0.1-0.3,0.2c0,0.1,0,0.2,0,0.3c0,0.1-0.1,0.1-0.1,0.1c0,0-0.1-0.1-0.1-0.1c0-0.3,0-0.5,0.3-0.6c0.1,0,0.1-0.1,0.2-0.1
			c0.3-0.2,0.6-0.3,1-0.2c0.2,0,0.3,0,0.4-0.1c0.3-0.2,0.5-0.5,0.6-0.8c0.1-0.2,0.1-0.3,0.1-0.5c0-0.2,0-0.4,0-0.7
			c0-0.2,0-0.4,0-0.6c0-0.1-0.1-0.2-0.2-0.1c-0.2,0.1-0.4,0.2-0.5,0.3C23.4,15,23.2,15.1,23,15c-0.2,0-0.5-0.1-0.7-0.1
			c-0.1,0-0.2-0.1-0.2-0.1c-0.1-0.1-0.1-0.2-0.3-0.2c-0.3,0.1-0.5,0.4-0.6,0.7c-0.1,0.2-0.2,0.4-0.2,0.7c0,0,0,0.1-0.1,0.1
			c-0.1,0-0.1-0.1-0.1-0.1v-0.1c0.1-0.3,0.2-0.7,0.4-1c0.1-0.1,0.2-0.3,0.3-0.3c0.2-0.1,0.3-0.3,0.3-0.5c0,0,0-0.1,0.1-0.1
			c0.2-0.2,0.4-0.4,0.6-0.6c0,0,0,0,0.1,0c0,0,0.1,0,0.1,0c0,0,0,0,0,0c-0.2,0.2-0.3,0.4-0.5,0.7c-0.1,0.1-0.1,0.2-0.1,0.3
			c0,0,0,0.1,0,0.1c0.1,0.1,0.2,0.2,0.3,0.3c0.2,0.1,0.5,0.1,0.7,0.2c0,0,0.1,0,0.1,0c0.2,0,0.4-0.1,0.6-0.3c0,0,0-0.1,0-0.1
			c0,0,0,0,0,0c-0.1,0-0.2,0-0.3,0.1c-0.1,0.1-0.2,0.1-0.3,0c0,0-0.1-0.1-0.1-0.1c0,0,0-0.1,0-0.1c0.1-0.1,0.3-0.2,0.5-0.3
			c0.1,0,0.3,0.1,0.5,0.1c0.2,0,0.4,0.1,0.5,0.1c0.1,0,0.3,0,0.4,0c0.3-0.1,0.6-0.2,0.9-0.4c0,0,0.1,0,0.1-0.1c0,0,0.1-0.1,0.1-0.1
			c-0.1-0.4-0.1-0.8-0.6-1.1c0,0,0,0,0,0c0,0,0-0.1,0-0.1c0.1,0,0.1-0.1,0.1-0.1l0,0c0,0,0.1,0,0.1,0.1c0.2,0.3,0.4,0.7,0.5,1
			c0,0.1,0.1,0.2,0.1,0.3C26.2,13.8,26.2,14,26,14c-0.4,0.2-0.8,0.4-1.3,0.4c0,0-0.1,0-0.1,0.1c0,0.1,0,0.3,0,0.4
			c0,0.5,0,1.1-0.1,1.6c0,0.3-0.1,0.6-0.1,0.9c0,0.1,0,0.1,0,0.2c0.1,0.2,0.1,0.4,0.1,0.5c0.1,0.4,0.1,0.7,0.1,1.1
			c0,0.1,0,0.2,0,0.3c0.1,0.6-0.1,0.5,0.6,0.7c0.1,0,0.2,0.1,0.4,0.1c0.4,0.1,0.8,0.2,1.2,0.4c0.3,0.1,0.6,0.2,0.8,0.3
			c0.2,0.1,0.4,0.2,0.6,0.2c0.2,0.1,0.5,0.2,0.7,0.4c0.2,0.1,0.4,0.3,0.6,0.4c0.4,0.3,0.8,0.6,1.1,0.9c0.4,0.4,0.7,0.9,1.1,1.3
			c0.2,0.3,0.4,0.7,0.6,1c0.2,0.4,0.3,0.7,0.5,1.1c0,0.1,0.1,0.2,0.1,0.3c0,0.1,0.1,0.3,0.2,0.3c0.1,0.1,0.1,0.1,0.1,0.2
			c0.1,0.5,0.2,1,0.3,1.6c0.1,0.4,0.2,0.9,0.2,1.4c0.1,0.4,0.1,0.9,0.2,1.3c0.1,0.3,0.1,0.6,0.2,1c0,0.2,0.1,0.4,0.2,0.6
			c0.1,0.5,0.3,0.9,0.4,1.4c0.1,0.3,0.1,0.6,0.2,0.9c0,0.2,0.1,0.4,0.1,0.5c0.1,0.4,0,0.8,0.1,1.1c0,0.1,0,0.2,0,0.3
			c0,0.2-0.1,0.3-0.1,0.5c0,0.2,0,0.4,0.1,0.5c0,0.2,0,0.3,0,0.5c0,0.4,0,0.9-0.1,1.3c0,0.1,0,0.1,0,0.2c0,0.4-0.1,0.9-0.1,1.3
			c0,0.1,0,0.2,0,0.3c0,0.1,0,0.2,0,0.3c0,0.1,0,0.2-0.1,0.2c0.3,0.6,0.6,1.1,0.8,1.7c0.3,0.7,0.6,1.3,0.8,2
			c0.1,0.2,0.2,0.4,0.3,0.7c0.3,0.8,0.5,1.7,0.7,2.6c0,0.3,0.1,0.5,0.1,0.8c0,0.1,0,0.2,0,0.3c0.1,0.3,0.1,0.7,0.1,1
			c0,0.6,0,1.1,0,1.7c0,0.5,0,1,0,1.4c0,0.6,0,1.1,0.1,1.7c0.1,0.4,0.1,0.7,0,1.1c0,0.1,0,0.3,0,0.4c0,0.3-0.1,0.7-0.2,1
			c-0.1,0.5-0.3,1-0.5,1.5c-0.1,0.2-0.1,0.3-0.1,0.5c-0.1,0.4-0.3,0.9-0.6,1.3c-0.1,0.1-0.1,0.3-0.2,0.4c0,0.2-0.1,0.3-0.2,0.3
			c-0.1,0-0.2,0.1-0.3,0.1c-0.2,0.1-0.3,0.3-0.4,0.5c-0.1,0.3-0.1,0.6-0.2,0.9c0,0.1,0,0.1,0,0.2c0.1,0.1,0.1,0.2-0.1,0.3
			c-0.1,0.1-0.1,0.1-0.1,0.2c-0.1,0.6-0.2,1.2-0.3,1.8c0,0.1,0,0.2-0.1,0.3c-0.1,0.5-0.2,1-0.2,1.6c0,0.2,0,0.4-0.1,0.6
			c0,0.1,0,0.1,0,0.2c0.1,0.4,0,0.8,0,1.3c0,0.4,0,0.9-0.1,1.3c0,0.1,0,0.2,0,0.3c0,0.6,0,1.2,0,1.8c0,0.6,0,1.3,0,1.9
			c0,0.3,0,0.6,0,0.8c0,0.3-0.1,0.5-0.1,0.8c0,0.2,0,0.4,0,0.6c0,0.4,0,0.9-0.1,1.3c0,0.1,0,0.2,0,0.3c0.1,0.7,0,1.3-0.1,2
			c-0.1,0.4-0.1,0.8-0.1,1.1c0,0.3-0.1,0.6-0.2,0.9c-0.1,0.2-0.1,0.4-0.3,0.5c-0.2,0.2-0.3,0.4-0.5,0.6C32.6,85,32.6,85,32.5,85
			c-0.3,0.2-0.7,0.4-1,0.6c-0.1,0-0.2,0.1-0.2,0.1c-0.1,0-0.1,0.1-0.1,0.2c0,0.1,0,0.1,0,0.2c0.1,0.3,0.1,0.6,0.1,0.9
			c0,0.4,0.1,0.8,0.1,1.1c0,0.1,0,0.2,0,0.3c-0.1,0.3,0,0.7-0.1,1c0,0.2-0.1,0.4-0.1,0.7c0,0.3,0,0.6-0.1,0.9
			c-0.1,0.4-0.1,0.9-0.2,1.3c-0.1,0.6-0.3,1.2-0.5,1.7c-0.1,0.3-0.3,0.7-0.4,1c-0.1,0.3-0.2,0.5-0.2,0.8c-0.2,0.9-0.3,1.9-0.3,2.8
			c0,0.1,0,0.3,0,0.4c0.1,0.4,0.1,0.8,0.1,1.3c0,0.9,0,1.7,0,2.6c0,0.2,0,0.5,0,0.7c0,0.1,0,0.2,0,0.3c0.1,0.4,0,0.8,0,1.3
			c0,0.1,0,0.3,0.1,0.4c0.1,0.1,0.2,0.3,0.3,0.3c0.1,0,0.2,0.1,0.2,0.1c0.2,0.1,0.4,0.1,0.5,0.3c0,0,0,0,0,0c0.3,0,0.5,0.2,0.7,0.3
			c0.1,0,0.1,0.1,0.2,0.1c0.1,0,0.2,0.1,0.4,0.2c0.2,0.1,0.4,0.2,0.7,0.2c0.1,0,0.3,0,0.4,0.1c0.2,0.1,0.5,0.2,0.7,0.3
			c0.2,0.1,0.4,0.2,0.6,0.2c0.2,0.1,0.4,0.2,0.7,0.1c0.2,0,0.4,0,0.5,0.1c0.1,0,0.1,0,0.2,0.1c0.5,0.2,0.9,0.4,1.4,0.6
			c0.1,0.1,0.2,0.1,0.3,0.1s0.2,0,0.3,0.1c0.1,0,0.2,0.1,0.3,0.1c0.1,0,0.1,0.1,0.2,0.1c0,0,0.1,0,0.1,0c0.3,0.1,0.4,0.3,0.4,0.6
			v0.1c0,0,0,0.1,0,0.1c-0.1,0.2-0.2,0.3-0.4,0.5c0,0,0,0.1,0,0.2c0,0,0,0,0,0c0.1,0.1,0.1,0.2,0.1,0.3c-0.1,0.3-0.1,0.6-0.2,0.9
			c-0.1,0-0.1,0.1-0.2,0.1c-0.2,0.2-0.5,0.2-0.7,0.2c-0.1,0-0.3,0-0.4,0c-0.2,0-0.5,0-0.7,0c-0.1,0-0.1,0-0.2,0
			c-0.2-0.1-0.3-0.1-0.5-0.2c-0.7-0.1-1.3-0.3-2-0.3c-0.3,0-0.7-0.1-1-0.1c-0.2,0-0.4,0-0.5,0c-0.4,0-0.7,0-1-0.1
			c-0.5-0.1-1.1-0.1-1.6-0.2c-0.1,0-0.3,0-0.4,0c-0.3,0-0.7,0-1-0.1c-0.1,0-0.1,0-0.2,0c-0.1,0-0.1,0-0.2,0
			c-0.5-0.1-0.9-0.1-1.4-0.2c-0.2,0-0.3-0.1-0.5-0.2c-0.2-0.1-0.3-0.2-0.4-0.4c0-0.1-0.1-0.2-0.1-0.3c-0.1-0.1-0.1-0.3,0-0.4
			c0.1-0.3,0.1-0.7,0.1-1c0-0.4,0.1-0.8,0.2-1.2c0.1-0.3,0.1-0.6,0.2-0.9c0.1-0.8,0.3-1.5,0.5-2.3c0.1-0.2,0.1-0.5,0.1-0.7
			c0-0.8,0-1.5,0-2.3c0-0.2,0-0.4,0-0.6c0-0.1,0-0.3,0-0.4c0-0.5-0.1-1-0.1-1.5c0-0.1,0-0.3,0-0.4c0-0.6-0.1-1.3-0.1-1.9
			c0-0.6-0.1-1.2-0.2-1.8c-0.1-0.5-0.1-1-0.1-1.5c0-0.1,0-0.2,0-0.3c0-0.4,0-0.8,0.1-1.3c0-0.3,0.1-0.7,0.1-1c0-0.2,0.1-0.4,0-0.6
			c0-0.2,0-0.4,0-0.7c0-0.4,0-0.8,0-1.2c0-0.1,0-0.1,0-0.2c0,0-0.1-0.1-0.1-0.1c-0.1,0-0.1,0-0.2,0c-0.3,0.1-0.7,0.2-1,0.2
			c-0.1,0-0.1,0-0.2,0c-0.4,0-0.7,0.1-1,0.1c-0.3,0.1-0.7,0.1-1,0.1c-0.1,0-0.2,0.1-0.2,0.2v0c0.1,0.6-0.1,1.2-0.1,1.8
			c0,0.6,0,1.1,0,1.7c0,0.4,0,0.8-0.1,1.3c0,0.1,0,0.2,0,0.3c0,0.4-0.1,0.7-0.1,1.1c-0.1,0.8-0.2,1.6-0.3,2.4
			c-0.1,0.7-0.2,1.4-0.3,2.1c-0.1,0.6-0.2,1.2-0.3,1.8s-0.1,1.2-0.2,1.8c-0.1,0.5-0.1,1.1-0.2,1.6c-0.1,0.7-0.2,1.3-0.3,2
			c0,0.1,0,0.3,0,0.4c0,0.4-0.1,0.8-0.1,1.2c0,0.3-0.1,0.7,0,1c0,0.1,0,0.2,0,0.3c-0.1,0.8,0,1.5-0.1,2.3c0,0.1,0,0.1,0,0.2
			s0,0.1,0.1,0.1c0.2,0.1,0.3,0.2,0.4,0.4c0.2,0.4,0.6,0.7,0.8,1.1c0.1,0.1,0.2,0.2,0.3,0.4c0,0.1,0.1,0.3,0.1,0.4
			c0,0.2,0.1,0.3,0.3,0.5c0.1,0.1,0.2,0.2,0.2,0.3c0,0.4,0,0.7,0,1c0,0.2-0.1,0.4-0.1,0.5c0,0.2-0.1,0.5-0.3,0.7
			c-0.1,0.1-0.1,0.3-0.2,0.4c0,0.1-0.1,0.2-0.1,0.3c-0.1,0.6-0.3,1.1-0.5,1.5c-0.1,0-0.2,0.1-0.3,0.1c-0.4,0-0.7,0.1-1.1,0.1
			c-0.4,0.1-0.8,0.1-1.3,0.1c-0.2,0-0.4,0-0.7-0.1c-0.2-0.1-0.4-0.2-0.5-0.5c0-0.1-0.1-0.2-0.1-0.3c-0.1-0.4-0.3-0.7-0.4-1.1
			c-0.2-0.3-0.3-0.7-0.3-1.1c-0.1-0.6,0-1.2,0-1.8c0-0.1,0-0.1,0-0.2c0-0.2,0-0.5,0.1-0.7c0.1-0.2,0.1-0.4,0.1-0.6c0,0,0-0.1,0-0.1
			c0.2-0.2,0.2-0.5,0.4-0.7c0.2-0.2,0.3-0.4,0.5-0.6c0-0.2,0-0.5,0-0.7c0-0.1,0-0.1-0.1-0.2c0-0.4-0.1-0.8-0.2-1.3c0-0.3,0-0.7,0-1
			c0-0.3,0-0.6,0-0.9v-0.5c0-0.4,0-0.8,0.1-1.3c0-0.1,0-0.2,0-0.3c0-0.3,0-0.5,0.1-0.8c0.1-0.5,0.1-1.1,0-1.6c0-0.1,0-0.1,0-0.2
			c0.1-0.9,0-1.7,0.1-2.6c0-0.6-0.1-1.1-0.2-1.6c0-0.2-0.1-0.3-0.1-0.5c-0.1-0.5-0.1-1.1-0.3-1.6C17,96.5,17,96.3,16.9,96
			c-0.1-0.4-0.1-0.9-0.2-1.3c-0.1-0.7-0.2-1.4-0.4-2.1c0-0.2-0.1-0.3-0.1-0.5c0-0.2-0.1-0.5-0.1-0.7c-0.1-0.3-0.1-0.5-0.1-0.8
			c0-0.4,0-0.8-0.1-1.2c0-0.1,0-0.1,0-0.2c0.1-0.4,0-0.7,0-1.1c-0.1,0-0.1,0-0.2-0.1c-0.2,0-0.4,0-0.6,0c-0.3,0-0.6,0-0.8,0
			c-0.7,0.1-1.4,0-2.1,0c-0.1,0-0.3,0-0.4,0c-0.1,0-0.2,0-0.3,0c-0.1-0.1-0.2-0.2-0.2-0.4c0-0.1,0-0.3,0-0.4c0-0.4,0-0.8,0-1.3
			c0-0.1,0-0.1,0-0.2c-0.1-0.6-0.1-1.1-0.2-1.7c0-0.4-0.1-0.8-0.1-1.2c0-0.2,0-0.4,0-0.6c0-0.1,0-0.3-0.1-0.4
			c-0.1-0.1-0.1-0.1,0-0.2c0.1-0.2,0-0.4,0-0.5c-0.1-0.2-0.1-0.5-0.1-0.8c-0.1-0.4-0.1-0.8-0.1-1.1c0-0.4-0.1-0.8-0.1-1.3
			c0-0.5,0-1,0-1.5c0-0.5,0-0.9,0.1-1.4c0-0.1,0-0.1,0-0.2c0-0.9,0.1-1.8,0.2-2.7c0-0.3,0.1-0.7,0.2-1c0-0.1,0-0.2,0-0.3
			c0-0.4,0-0.8,0.1-1.2c0-0.1,0-0.3,0-0.4c0-0.3,0.1-0.5,0.1-0.8c0-0.1,0-0.2,0-0.3c0,0,0-0.1,0-0.2c0.1-0.2,0.1-0.3,0.1-0.5
			c0-0.4,0.1-0.8,0.1-1.2c0-0.4,0.1-0.9,0.1-1.3c0-0.3,0.1-0.7,0-1c0-0.1,0-0.1,0-0.2c0-0.1,0-0.2,0-0.3c0-0.1,0-0.1,0-0.2
			c0.1-0.2,0-0.4,0-0.6c0-0.5-0.1-1-0.1-1.4c0-0.2-0.1-0.4-0.2-0.6c-0.1-0.2-0.1-0.4-0.1-0.5c0-0.2,0-0.3,0-0.5c0-0.1,0-0.3-0.1-0.4
			c0-0.5-0.1-1.1-0.1-1.6c0-0.4-0.1-0.9-0.1-1.3c0-0.2-0.1-0.4-0.1-0.6c-0.1,0-0.1,0-0.2-0.1c-0.2,0-0.4,0-0.6,0
			c-0.6,0-1.3-0.1-1.9-0.2c-0.5-0.1-1.1-0.3-1.6-0.5c-0.4-0.2-0.8-0.3-1.2-0.5C5,54.2,4.8,54.1,4.6,54c-0.8-0.5-1.5-1.1-2.4-1.5
			C2.1,52.4,2,52.3,2,52.2C2,52.1,2,52,1.9,52c0,0-0.1-0.1-0.1-0.1c-0.4-0.2-0.5-0.6-0.6-1c0-0.1-0.1-0.3-0.1-0.4
			c-0.1-0.3-0.1-0.5-0.1-0.8c0.1-0.3,0.1-0.6,0.2-1c0-0.2,0.1-0.4,0.2-0.6c0.1-0.4,0.2-0.8,0.3-1.2c0-0.1,0.1-0.2,0.1-0.3
			c0.1-0.2,0.1-0.4,0.2-0.6c0-0.1,0.1-0.2,0.1-0.3c0-0.1,0.1-0.2,0.1-0.4c0.3-0.5,0.4-1,0.3-1.6c0-0.3,0-0.6,0-0.9
			c-0.1-0.1-0.2-0.2-0.3-0.4c-0.1-0.1-0.1-0.2,0-0.4c0.1-0.1,0-0.3,0.1-0.5c0-0.1,0-0.2,0-0.3c0-0.1,0-0.2,0-0.3
			c-0.1-0.7-0.2-1.5-0.2-2.2c0-0.1,0-0.2,0-0.3c-0.1-0.5-0.2-1-0.2-1.5c0-0.3-0.1-0.5-0.2-0.8c0-0.1-0.1-0.3-0.1-0.4
			c-0.1-0.4-0.1-0.8-0.2-1.3c-0.1-0.6-0.1-1.2-0.1-1.8c0-0.6,0-1.2,0.2-1.8c0-0.1,0-0.2,0-0.3c0.1-0.7,0.2-1.3,0.4-1.9
			c0.2-0.7,0.4-1.3,0.7-2c0-0.1,0.1-0.1,0.1-0.2c0.1-0.1,0.2-0.3,0.4-0.4c0.2-0.2,0.3-0.3,0.5-0.5c0.1-0.2,0.3-0.4,0.6-0.5
			c0.2-0.1,0.3-0.2,0.4-0.3c0.1-0.1,0.3-0.3,0.5-0.4c0.3-0.1,0.5-0.3,0.7-0.5c0.2-0.2,0.4-0.3,0.6-0.4c0.1,0,0.2-0.1,0.3-0.2
			c0.4-0.4,0.9-0.7,1.3-1.1C8.2,22.1,8.3,22,8.3,22c0.3-0.1,0.4-0.4,0.7-0.5c0.1-0.1,0.2-0.2,0.3-0.3c0.1-0.2,0.2-0.3,0.4-0.3
			c0.1,0,0.1-0.1,0.1-0.1c0.1-0.1,0.1-0.1,0.1-0.2c0-0.3,0-0.6-0.1-0.9c-0.1-0.4-0.2-0.8-0.3-1.2c0-0.2-0.1-0.4-0.1-0.7
			c0-0.2,0-0.4-0.1-0.6c0-0.2-0.1-0.4,0-0.6c0.1-0.7,0.1-1.4,0.2-2c0-0.2,0.1-0.3,0.1-0.5c0.2-0.4,0.3-0.8,0.5-1.2
			c0.1-0.3,0.1-0.5,0.1-0.8c-0.1-0.1-0.1-0.2-0.2-0.2c-0.1-0.1-0.1-0.2-0.2-0.3c-0.1-0.4-0.3-0.8-0.4-1.2C9.6,10.1,9.6,10,9.5,9.8
			C9.5,9.3,9.4,8.7,9.4,8.2c0-0.4,0-0.8,0.1-1.2c0.1-0.6,0.3-1.2,0.4-1.8c0.1-0.3,0.1-0.6,0.2-0.8c0.1-0.3,0.2-0.6,0.4-0.8
			c0.3-0.4,0.6-0.7,0.9-1.1c0.2-0.3,0.5-0.4,0.8-0.6c0.2-0.1,0.4-0.1,0.5-0.1c0.1,0,0.1,0,0.2,0c0.2,0,0.5,0,0.7-0.2
			c0.1-0.1,0.3-0.1,0.4-0.2c0.1-0.1,0.3-0.1,0.4-0.1c0.1,0,0.2,0,0.3-0.1c0.3-0.1,0.6-0.2,0.9-0.3c0,0,0,0,0.1,0
			c0.3-0.1,0.6-0.2,1-0.2c0.3,0,0.5-0.1,0.7-0.2c0.1,0,0.2-0.1,0.3-0.1c0.2,0,0.4,0.1,0.7,0c0,0,0.1,0,0.1,0c0.2,0.1,0.4,0.1,0.6,0
			c0.1,0,0.2,0,0.3,0c0.2,0,0.5,0,0.7,0.1c0.3,0.2,0.7,0.3,1.1,0.5c0.2,0.1,0.4,0.2,0.5,0.4c0.1,0.1,0.2,0.1,0.3,0.2
			c0.4,0.1,0.7,0.3,0.9,0.6c0.3,0.3,0.5,0.7,0.6,1s0.3,0.8,0.4,1.1C23.8,4.5,23.9,4.6,23.8,4.8c0-0.1-0.1-0.1-0.1-0.2
			c-0.1-0.2-0.2-0.5-0.2-0.7c-0.2-0.5-0.3-1-0.6-1.4c-0.1-0.2-0.3-0.3-0.5-0.5c0,0-0.1,0-0.1,0c0,0,0,0,0,0c0,0.1,0.1,0.2,0.1,0.2
			c0.2,0.3,0.3,0.6,0.4,0.9c0.1,0.3,0.2,0.6,0.3,0.9c0.2,0.4,0.3,0.8,0.4,1.2c0,0.3,0.1,0.5,0.2,0.8c0.1,0.2,0.1,0.4,0.1,0.6
			c0,0.3,0,0.6,0.1,0.9c0,0,0,0.1,0.1,0.1c0,0,0,0,0,0C24,7.5,24,7.4,24,7.3c0-0.4,0-0.8,0-1.3c-0.1-0.3-0.1-0.6-0.2-1
			C23.8,5,23.7,4.9,23.8,4.8L23.8,4.8z M26.9,79c-0.1,0-0.1,0-0.1,0.1c-0.1,0-0.1,0-0.2,0c-0.2,0.2-0.5,0.3-0.7,0.5
			c-0.5,0.3-1,0.6-1.5,1c-0.3,0.2-0.6,0.4-0.9,0.6c-0.4,0.3-0.9,0.5-1.3,0.8c-0.2,0.1-0.4,0.3-0.6,0.4c-0.2,0.1-0.3,0.2-0.5,0.3
			c-0.3,0.2-0.6,0.4-0.9,0.7c-0.3,0.2-0.5,0.4-0.8,0.5c-0.1,0-0.2,0.1-0.2,0.1c-0.5,0.3-0.9,0.7-1.4,1c-0.5,0.4-1,0.7-1.6,1
			c-0.5,0.3-1,0.6-1.5,0.9c-0.4,0.3-0.9,0.6-1.3,0.8c0,0,0,0,0,0.1c0,0,0.1,0.1,0.1,0.1c0.3,0.1,0.6,0,0.8,0c0.2,0,0.4-0.1,0.6-0.2
			c0.3-0.1,0.5-0.3,0.8-0.3c0.1,0,0.2-0.1,0.3-0.1c0.5-0.3,1-0.6,1.5-0.9c0.3-0.1,0.5-0.3,0.7-0.5c0.3-0.2,0.6-0.4,0.9-0.6
			c0.3-0.2,0.7-0.5,1-0.7c0.9-0.7,1.7-1.4,2.6-2.1c0.1-0.1,0.2-0.1,0.3-0.2c0.2-0.2,0.4-0.4,0.7-0.6c0.8-0.6,1.6-1.2,2.4-1.9
			c0.2-0.2,0.4-0.3,0.6-0.5c0-0.1,0.1-0.1,0.1-0.2C26.8,79,26.9,79,26.9,79L26.9,79c0,0,0.1-0.1,0.1-0.1c0.1,0,0.1,0,0,0v0.1
			C26.9,78.8,26.9,78.9,26.9,79L26.9,79L26.9,79z M17.5,78.8L17.5,78.8L17.5,78.8c0-0.1,0-0.2,0.1-0.2c0.1,0.1,0.2,0.1,0.3,0
			c0.3-0.2,0.6-0.3,1-0.5c0.4-0.2,0.9-0.4,1.3-0.7c0.6-0.4,1.3-0.6,1.9-1.1c0.5-0.3,1.1-0.5,1.6-0.8c0.4-0.2,0.8-0.4,1.2-0.6
			c0.1-0.1,0.2-0.1,0.4-0.2c0.3-0.1,0.6-0.3,1-0.4c0.2-0.1,0.5-0.2,0.7-0.3c0.2-0.1,0.3-0.1,0.5-0.2c0.2-0.1,0.3-0.1,0.5-0.3
			c0-0.2,0-0.4,0.1-0.6C28,73,28,73,27.9,73h0c-0.1,0-0.1,0-0.2,0.1c-0.6,0.2-1.2,0.6-1.8,0.9c-0.6,0.3-1.2,0.7-1.8,1
			c-0.6,0.3-1.1,0.6-1.6,0.9c-0.8,0.4-1.6,0.8-2.3,1.2c-0.3,0.2-0.6,0.3-1,0.5c-0.2,0.1-0.5,0.2-0.7,0.3c-0.1,0.1-0.2,0.2-0.3,0.3
			c-0.1,0.2-0.3,0.3-0.4,0.5c0,0,0,0-0.1,0C17.6,78.7,17.5,78.8,17.5,78.8L17.5,78.8L17.5,78.8z M10.7,22.9
			C10.7,22.8,10.7,22.8,10.7,22.9L10.7,22.9L11,23c0.1,0.1,0.1,0.2,0.3,0.2c0.3,0.1,0.5,0.2,0.8,0.3c0.7,0.3,1.3,0.6,2,0.8
			c0.2,0.1,0.4,0.1,0.6,0.2c0.2,0.1,0.5,0.1,0.7,0.2c0.3,0.1,0.7,0.3,1,0.3c0.1,0,0.2,0,0.3,0.1c0.6,0.2,1.2,0.3,1.8,0.5
			c0.4,0.1,0.9,0.2,1.3,0.3c0.1,0,0.1,0,0.2,0.1c0.6,0.3,1.2,0.4,1.8,0.7c0.2,0.1,0.4,0.2,0.5,0.3c0,0,0.1,0,0.1,0c0,0,0-0.1,0-0.1
			c0-0.2-0.1-0.4-0.2-0.5c-0.1-0.2-0.2-0.3-0.3-0.5c0-0.1-0.1-0.2-0.1-0.2c-0.2,0-0.4-0.1-0.6-0.1c-0.2,0-0.3,0-0.5-0.1
			c-0.3,0-0.6-0.1-0.9-0.1c-0.3-0.1-0.7-0.2-1-0.2c-0.3,0-0.7-0.1-1-0.3c-0.2-0.1-0.4-0.2-0.7-0.3c-0.2-0.1-0.5-0.1-0.7-0.2
			c-0.6-0.2-1.1-0.3-1.7-0.5c-0.6-0.2-1.1-0.3-1.7-0.5c-0.3-0.1-0.7-0.2-1-0.3c-0.2-0.1-0.4-0.2-0.6-0.2c-0.1,0-0.1,0-0.2,0
			c0-0.1,0-0.1-0.1-0.1C10.8,22.9,10.8,22.9,10.7,22.9L10.7,22.9z M25.8,78.7c0,0.1-0.1,0.1-0.2,0.1c-0.1,0-0.1,0-0.1,0
			c-0.1,0-0.1,0-0.2,0.1l0,0c-0.1,0-0.1,0-0.2,0c-0.2,0.1-0.4,0.2-0.7,0.3c-0.4,0.2-0.8,0.4-1.3,0.6c-0.1,0-0.2,0.1-0.3,0.1
			c-0.5,0.2-0.9,0.5-1.4,0.7c-0.4,0.2-0.8,0.4-1.2,0.7c-0.2,0.1-0.4,0.2-0.6,0.3c-0.4,0.2-0.8,0.5-1.2,0.6c-0.4,0.3-0.9,0.4-1.3,0.6
			c-0.3,0.1-0.5,0.2-0.8,0.4c-0.1,0-0.2,0.1-0.3,0.1c-0.5,0.2-1,0.4-1.5,0.7c-0.3,0.2-0.6,0.3-1,0.4c-0.2,0-0.4,0.1-0.5,0.2
			c-0.5,0.2-1,0.5-1.6,0.7c-0.1,0-0.2,0.1-0.2,0.1c0,0.1,0,0.1,0,0.2c0.1,0.3,0.1,0.5,0.1,0.8c0,0.1,0.1,0.1,0.1,0.1c0,0,0,0,0.1,0
			c0.4-0.2,0.8-0.4,1.1-0.5c0.1,0,0.1,0,0.2-0.1c0.6-0.3,1.2-0.6,1.7-0.8c0.6-0.3,1.1-0.6,1.7-0.9c0.4-0.2,0.8-0.3,1.1-0.5
			c0.2-0.1,0.4-0.2,0.6-0.3c0.5-0.3,1-0.6,1.5-0.8c0.7-0.4,1.4-0.8,2.1-1.2c0.8-0.4,1.5-0.9,2.2-1.3c0.1-0.1,0.2-0.1,0.3-0.2
			c0.3-0.2,0.6-0.4,0.9-0.6c0.1,0,0.1-0.1,0.2-0.1c0,0,0,0,0-0.1l0.3-0.1C25.7,78.7,25.8,78.6,25.8,78.7
			C25.8,78.6,25.8,78.6,25.8,78.7L25.8,78.7L25.8,78.7z M26.3,78.3l0.3-0.1c0,0,0,0,0,0l0,0C26.5,78.2,26.4,78.2,26.3,78.3
			C26.3,78.3,26.3,78.3,26.3,78.3L26.3,78.3L26.3,78.3z M20.6,1.1C20.6,1.1,20.6,1.1,20.6,1.1L20.6,1.1C20.5,1.1,20.5,1.1,20.6,1.1
			C20.5,1.1,20.5,1,20.6,1.1C20.6,1,20.6,1.1,20.6,1.1z M25.8,73.5c0.1,0,0.1,0,0.2,0c0.1,0,0.1,0,0.1-0.1v0c0.1,0,0.1,0,0.2,0
			c0.1,0,0.2-0.1,0.3-0.2c0.2-0.1,0.5-0.2,0.7-0.3c0.3-0.1,0.5-0.3,0.7-0.4c0.1,0,0.1-0.1,0-0.2c0,0-0.1-0.1-0.1,0
			c-0.1,0.1-0.3,0.2-0.4,0.2c-0.5,0.3-0.9,0.6-1.4,0.9C26,73.4,25.9,73.5,25.8,73.5C25.9,73.5,25.9,73.5,25.8,73.5L25.8,73.5
			L25.8,73.5z M25.6,73.8c0,0-0.1,0-0.1,0c-0.1,0-0.1,0-0.2,0c0,0,0,0,0,0c-0.1,0-0.2,0-0.2,0.1c-0.1,0-0.1,0-0.2,0
			c-0.2,0.1-0.4,0.2-0.6,0.3c-0.7,0.4-1.5,0.8-2.2,1.1c-0.3,0.1-0.7,0.3-1,0.4c-0.5,0.2-1,0.4-1.5,0.6c-0.2,0.1-0.5,0.2-0.7,0.3
			c-0.2,0.1-0.4,0.3-0.5,0.5c0,0,0,0,0,0.1s0,0,0,0.1c0,0.1,0,0.1,0.1,0.1h0c0.3-0.1,0.6-0.2,0.9-0.4c0.7-0.4,1.5-0.8,2.2-1.1
			c0.3-0.2,0.6-0.3,1-0.5c0.4-0.2,0.8-0.4,1.1-0.6c0.3-0.2,0.6-0.4,0.9-0.5c0.2-0.1,0.3-0.2,0.5-0.3c0,0,0-0.1,0-0.1
			c0.1,0,0.2,0,0.2-0.1L25.6,73.8C25.6,73.8,25.6,73.8,25.6,73.8L25.6,73.8L25.6,73.8z M10,22.6C10.1,22.6,10.1,22.6,10,22.6
			c0.1,0,0.1,0,0.1,0C10.1,22.5,10.1,22.6,10,22.6c0,0,0-0.1,0-0.1c-0.1-0.1-0.1-0.1-0.2-0.2c-0.1,0-0.2-0.1-0.4,0
			c0-0.1,0.1-0.1,0.1-0.2c0-0.1-0.1-0.2-0.2-0.3c0,0,0,0,0,0c0,0,0,0.1-0.1,0.1c0,0.1,0,0.1,0.1,0.1c0.1,0.1,0.1,0.2,0.2,0.2
			c0.1,0,0.1,0,0.2,0c0.1,0,0.1,0,0.2-0.1c-0.1,0.1-0.1,0.2,0,0.2C9.9,22.5,10,22.5,10,22.6z M20,67.7c-0.1,0-0.1,0-0.2,0
			c-0.2,0-0.4,0.1-0.6,0.2c0,0,0,0.1,0,0.1s0,0.1,0.1,0c0,0,0,0,0,0C19.5,67.9,19.7,67.8,20,67.7C20,67.7,20,67.7,20,67.7
			c0-0.1,0.1-0.1,0.1-0.1c0,0,0,0-0.1,0C20,67.6,19.9,67.6,20,67.7L20,67.7C19.9,67.7,19.9,67.7,20,67.7L20,67.7z M33.2,38.3
			c-0.2,0-0.5,0.1-0.7,0.2c0,0,0,0,0,0.1c0,0,0,0,0,0C32.8,38.7,33,38.6,33.2,38.3C33.2,38.4,33.2,38.4,33.2,38.3
			c0.1,0,0.2,0,0.2-0.1c0.1,0,0.1,0,0.2,0c0.1-0.1,0.3-0.1,0.4-0.2c0.2-0.1,0.4-0.2,0.6-0.4c0.1-0.1,0.1-0.1,0-0.2
			c0.1,0,0.1-0.1,0.2-0.2c0,0,0,0,0,0c0,0,0,0,0,0c-0.1,0.1-0.1,0.1-0.1,0.2c-0.1,0-0.1,0-0.2,0c-0.2,0.1-0.4,0.3-0.6,0.4
			c-0.1,0.1-0.3,0.2-0.4,0.3c0,0,0,0.1,0,0.1C33.3,38.2,33.2,38.2,33.2,38.3L33.2,38.3z M16,1.4c0.1,0.1,0.3,0.1,0.5,0.1
			c0.4-0.1,0.8-0.3,1.1-0.5c0,0,0,0,0-0.1c0,0,0,0,0,0c-0.1,0-0.1,0-0.2,0c-0.2,0.1-0.3,0.1-0.5,0.2c-0.2,0-0.3,0.1-0.5,0.2
			C16.3,1.2,16.2,1.3,16,1.4L16,1.4L16,1.4L16,1.4L16,1.4z M25.4,86.3c-0.1,0-0.1,0-0.2,0c-0.1,0-0.1,0.1-0.2,0.1
			c-0.3,0.3-0.5,0.6-0.8,0.8c-0.1,0.1-0.1,0.1-0.1,0.2c0,0,0,0.1,0,0.1c0.1,0,0.3,0,0.4-0.1C24.8,87.1,25.1,86.7,25.4,86.3
			C25.3,86.3,25.3,86.3,25.4,86.3c0.1,0,0.2-0.1,0.2-0.2c0,0,0-0.1,0-0.1c0,0,0,0,0,0C25.4,86.1,25.4,86.1,25.4,86.3
			C25.3,86.2,25.4,86.2,25.4,86.3L25.4,86.3z M31.8,109.7c0.1,0.1,0.3,0.1,0.4,0c0.2-0.2,0.4-0.4,0.6-0.6c0.2-0.2,0.4-0.5,0.5-0.8
			c0-0.1,0-0.1-0.1-0.2c0,0-0.1,0-0.1,0c0,0.1-0.1,0.2-0.1,0.2c-0.1,0.2-0.3,0.4-0.4,0.6C32.3,109.1,32.1,109.4,31.8,109.7
			C31.8,109.7,31.9,109.7,31.8,109.7C31.8,109.7,31.8,109.7,31.8,109.7L31.8,109.7L31.8,109.7z M24.8,63.5c-0.1,0-0.3,0-0.4,0
			c-0.3,0-0.5,0-0.8,0c-0.3,0-0.6,0.1-0.9,0.2c-0.1,0-0.1,0.1-0.1,0.1c-0.2,0.2-0.5,0.3-0.8,0.3c-0.4,0.1-0.7,0.2-1,0.4
			c-0.3,0.1-0.5,0.3-0.8,0.3c-0.3,0.1-0.6,0.3-0.9,0.4c-0.1,0-0.1,0.1-0.2,0.1c0,0,0,0.1,0,0.1c0.1,0.2,0.1,0.4,0.1,0.5
			c0,0.1,0.1,0.1,0.2,0.1h0c0.2-0.1,0.4-0.2,0.6-0.3c0.5-0.3,1.1-0.6,1.7-0.8c0.3-0.1,0.6-0.3,1-0.4c0.4-0.2,0.8-0.4,1.2-0.5
			C24,63.9,24.4,63.7,24.8,63.5C24.8,63.5,24.8,63.5,24.8,63.5L24.8,63.5L24.8,63.5z M26.4,81.2c-0.2,0.3-0.4,0.5-0.7,0.6
			c-0.4,0.2-0.7,0.5-1,0.8c-0.1,0.1-0.3,0.2-0.4,0.3c-0.2,0.2-0.5,0.4-0.7,0.6c-0.3,0.2-0.5,0.5-0.8,0.7c-0.5,0.4-1,0.9-1.5,1.3
			c-0.4,0.4-0.8,0.8-1.3,1.1c-0.1,0-0.1,0.1-0.2,0.1c-0.2,0.2-0.4,0.3-0.6,0.5c-0.2,0.2-0.4,0.4-0.6,0.5c0,0,0,0.1,0,0.1h0.5
			c0.2-0.1,0.3-0.3,0.5-0.4c0.3-0.2,0.6-0.4,0.9-0.7c0.4-0.3,0.7-0.7,1.1-1c0.1-0.1,0.1-0.1,0.2-0.2c0.3-0.2,0.6-0.5,0.8-0.7
			c0.2-0.1,0.3-0.3,0.5-0.4c0.4-0.4,0.8-0.8,1.1-1.1c0.5-0.5,1-1,1.6-1.6c0.1-0.1,0.2-0.2,0.3-0.2c0.1-0.1,0.1-0.2,0.1-0.3
			C26.4,81.3,26.4,81.2,26.4,81.2C26.4,81.2,26.4,81.2,26.4,81.2L26.4,81.2L26.4,81.2z M26.6,80.2c-0.5,0.4-0.9,0.8-1.3,1.2
			c-0.1,0.1-0.2,0.2-0.4,0.3c-0.5,0.4-1,0.8-1.5,1.3c-0.3,0.3-0.7,0.6-1.1,0.9c-0.3,0.2-0.7,0.5-1,0.7c-0.6,0.4-1.1,0.8-1.7,1.3
			c-0.5,0.4-1,0.8-1.5,1.1c-0.1,0.1-0.3,0.2-0.4,0.3c-0.1,0.1-0.2,0.1-0.3,0.2c-0.1,0.1-0.2,0.2-0.3,0.3c0,0,0,0.1,0.1,0.1
			c0.2,0.1,0.4,0.1,0.6,0.1c0.1,0,0.1,0,0.1-0.1c0.1-0.1,0.2-0.2,0.3-0.2c0.2-0.1,0.5-0.2,0.7-0.4c0.1-0.1,0.2-0.2,0.3-0.2
			c0.4-0.3,0.8-0.7,1.2-1c0.4-0.3,0.8-0.7,1.2-1.1c0.2-0.2,0.5-0.4,0.7-0.6c0.9-0.8,1.8-1.5,2.7-2.3c0.3-0.3,0.6-0.5,0.9-0.8
			c0.2-0.2,0.4-0.4,0.6-0.7C26.7,80.5,26.7,80.3,26.6,80.2L26.6,80.2L26.6,80.2L26.6,80.2z M35.2,62.5c0.1-0.1,0.1-0.2,0.2-0.3
			c0.3-0.3,0.5-0.7,0.7-1.1c0.1-0.2,0.1-0.3,0.2-0.5c0.2-0.3,0.3-0.7,0.5-1c0.2-0.4,0.3-0.8,0.4-1.2c0-0.1,0-0.2,0.1-0.3
			c0.2-0.5,0.2-1.1,0.1-1.6c0-0.5-0.1-1-0.1-1.5c0-0.4,0-0.8,0-1.3c0-0.3,0-0.7,0-1c0-0.6,0-1.2,0-1.8c0-0.3-0.1-0.5-0.1-0.8
			c0-0.5-0.1-1-0.3-1.5c-0.1-0.3-0.2-0.7-0.3-1c-0.2-0.9-0.6-1.7-0.9-2.6c0-0.1-0.1-0.2-0.2-0.4c-0.1-0.3-0.3-0.6-0.4-0.9
			c-0.2-0.5-0.5-1-0.8-1.5c-0.2-0.4-0.5-0.8-0.7-1.2c-0.1-0.3-0.3-0.5-0.6-0.8c-0.2-0.2-0.4-0.4-0.5-0.6c-0.1-0.1-0.1-0.1-0.2-0.2
			c-0.2-0.1-0.5-0.2-0.7-0.3c-0.1,0-0.3-0.1-0.4,0c-0.2,0-0.4,0-0.6,0.1c0,0-0.1,0-0.1,0c0,0-0.1,0-0.1-0.1v0c0-0.1,0-0.1,0.1-0.1
			c0.4-0.2,0.8-0.2,1.2-0.1c0.1,0,0.1,0,0.2,0.1c0,0,0.1-0.1,0.1-0.1c0-0.1,0-0.3-0.1-0.4c0-0.2,0.1-0.3,0.1-0.4c0,0,0-0.1,0-0.1
			c0-0.4,0-0.8,0.1-1.2c0,0,0,0,0-0.1c0-0.1-0.1-0.1-0.2-0.1c-0.1,0-0.1,0-0.2,0.1c-0.1,0.1-0.3,0.1-0.4,0.2c-0.1,0-0.1,0-0.2,0
			c-0.1,0-0.1,0-0.1-0.1c0,0,0-0.1,0.1-0.1c0.2-0.1,0.4-0.2,0.6-0.3c0.1-0.1,0.3-0.2,0.3-0.4c0.1-0.1,0.1-0.3,0.1-0.4
			c0-0.3,0-0.7-0.1-1c0-0.1-0.1-0.2-0.1-0.3c0-0.1,0-0.3,0-0.4c0.1-0.2,0.1-0.4,0.1-0.5c0-0.2-0.1-0.4-0.1-0.6
			c-0.1-0.2-0.1-0.5-0.1-0.7c0-0.1,0-0.1,0-0.2c0-0.1,0-0.3-0.1-0.4c-0.1-0.2-0.3-0.4-0.4-0.7c-0.1-0.3-0.3-0.5-0.5-0.7
			c0,0,0,0,0-0.1c0,0,0,0,0,0c0,0,0.1,0,0.1,0c0.1,0,0.2,0.1,0.3,0.2c0.1,0.1,0.2,0.2,0.2,0.3c0.3,0.4,0.5,0.9,0.8,1.3
			c0.3,0.5,0.4,1.1,0.4,1.6c0,0.3,0,0.6,0.1,0.9c0.1,0.4,0,0.8,0,1.3c0,0.2-0.1,0.3-0.2,0.4c-0.1,0-0.1,0.1-0.1,0.2
			c0,0.1,0,0.1,0,0.2c0,0.5,0,0.9-0.1,1.4c0,0,0,0.1,0,0.1c0,0,0.1,0,0.1,0.1c0,0,0.1,0,0.1,0c0.6-0.2,1.1-0.5,1.6-0.9
			c0.2-0.2,0.4-0.4,0.5-0.7V36c0-0.1,0-0.3,0-0.4c-0.2-0.7-0.3-1.5-0.5-2.2c-0.1-0.3-0.2-0.7-0.3-1c-0.1-0.4-0.1-0.8-0.2-1.2
			c-0.1-0.3-0.1-0.5-0.1-0.8c-0.1-0.6-0.2-1.2-0.3-1.9c-0.1-0.3-0.1-0.5-0.3-0.8c0-0.1-0.1-0.1-0.1-0.2c0-0.2-0.1-0.4-0.2-0.6
			c-0.1-0.4-0.3-0.9-0.5-1.3c-0.2-0.4-0.4-0.8-0.6-1.1c-0.2-0.3-0.4-0.5-0.5-0.8c-0.2-0.3-0.4-0.5-0.6-0.7c-0.4-0.5-0.9-0.9-1.5-1.2
			c-0.1-0.1-0.2-0.1-0.3-0.2c-0.2-0.1-0.3-0.2-0.5-0.3c-0.2-0.1-0.4-0.2-0.6-0.2C27,21,26.5,20.8,26,20.6c-0.2-0.1-0.3-0.1-0.5-0.1
			c-0.2,0-0.4-0.1-0.6-0.2c-0.1,0-0.2-0.1-0.3,0c-0.1,0-0.1,0-0.1,0.1c-0.1,0.1-0.1,0.2-0.2,0.3c-0.3,0.4-0.6,0.7-1,0.9
			c-0.2,0.1-0.3,0.2-0.4,0.3c-0.1,0.2-0.3,0.5-0.5,0.7c-0.1,0.1-0.1,0.2-0.2,0.2c0,0.2,0.1,0.3,0.2,0.3c0.1,0.1,0.2,0.2,0.3,0.3
			c0.2,0.3,0.2,0.6,0.3,0.9c0,0.4,0,0.8,0.1,1.2c0,0.1,0,0.2,0,0.3c0,0.5-0.1,0.9-0.1,1.4c0,0.1,0,0.2,0,0.3c0,0.1-0.1,0.2-0.2,0.3
			c0,0-0.1,0-0.2,0c0,0-0.1,0-0.1-0.1c-0.1-0.2-0.2-0.3-0.4-0.4c-0.4-0.2-0.8-0.4-1.2-0.6c-0.7-0.2-1.3-0.6-2-0.7c0,0-0.1,0-0.1,0
			c-0.9-0.3-1.9-0.5-2.8-0.8c-0.3-0.1-0.6-0.2-0.9-0.3c-0.1-0.1-0.3-0.1-0.4-0.1c-0.4-0.1-0.8-0.2-1.2-0.4c-0.6-0.3-1.1-0.5-1.7-0.8
			c-0.1,0-0.1,0-0.2-0.1c-0.3-0.1-0.5-0.2-0.8-0.3c-0.2-0.2-0.5-0.3-0.8-0.4c-0.2-0.1-0.3-0.1-0.5-0.3c-0.1-0.1-0.3-0.2-0.4-0.3
			C9,22.2,8.9,22.1,8.7,22c-0.2,0.1-0.4,0.3-0.6,0.4c-0.6,0.5-1.2,1-1.9,1.5C6.1,24,6,24.1,5.8,24.2c-0.4,0.4-0.9,0.7-1.4,1
			c0,0-0.1,0-0.1,0.1c-0.1,0.1-0.2,0.2-0.3,0.3c-0.3,0.3-0.6,0.6-0.8,1c-0.1,0.1-0.2,0.2-0.3,0.4c-0.3,0.4-0.4,0.8-0.6,1.2
			c-0.3,0.7-0.4,1.4-0.5,2.1c0,0,0,0.1,0,0.1c-0.1,0.5-0.1,0.9-0.2,1.4c-0.1,0.8,0,1.6,0,2.4c0,0.1,0,0.1,0,0.2
			c0.1,0.3,0.1,0.7,0.1,1c0.1,0.5,0.1,1.1,0.3,1.6c0.2,0.8,0.3,1.7,0.3,2.6c0,0.1,0,0.2,0,0.3c0.1,0.6,0.2,1.2,0.2,1.8
			c0,0.1,0,0.2,0.1,0.3C2.8,42,3,42.2,3.1,42.3c0.3,0.2,0.6,0.3,0.9,0.5c0.7,0.4,1.3,0.7,2,1c0.4,0.2,0.9,0.4,1.4,0.6
			c0.1,0,0.2,0,0.3,0.1c0.3,0.2,0.7,0.2,1,0.4L9.9,45c0,0,0,0,0.1,0c0.1,0,0.1-0.1,0.2-0.1c0-0.1,0.1-0.1,0.1-0.2
			c0-0.2,0.1-0.4,0.3-0.5c0.1-0.1,0.2-0.2,0.3-0.3c0.1-0.2,0.1-0.4,0.3-0.7c0.2-0.4,0.5-0.9,0.6-1.3c0-0.1,0.1-0.2,0.1-0.3
			c0.2-0.5,0.4-0.9,0.6-1.4c0.1-0.3,0.2-0.7,0.4-1c0.1-0.2,0.1-0.3,0.1-0.5c0.1-0.3,0.2-0.7,0.2-1c0.1-0.4,0.2-0.7,0.4-1
			c0,0,0,0,0.1,0c0,0.1,0,0.2,0,0.3c-0.1,0.3-0.2,0.6-0.3,0.9c-0.1,0.3-0.1,0.6-0.2,0.9c-0.1,0.5-0.2,0.9-0.4,1.4
			c0,0.1-0.1,0.1-0.1,0.2c-0.2,0.6-0.4,1.2-0.7,1.7c0,0.1-0.1,0.2-0.1,0.3c-0.2,0.4-0.4,0.9-0.6,1.3c-0.1,0.1-0.1,0.3-0.2,0.4
			c0,0.1,0,0.1,0.1,0.1c0.1,0,0.2,0,0.3,0c0.6-0.1,1.3-0.1,1.9,0c0.3,0,0.7,0.1,1,0.1c0.4,0,0.7,0,1.1,0.1c0.7,0.1,1.5,0.2,2.2,0.4
			c0.1,0,0.2,0,0.3,0.1c0.5,0,1,0.2,1.5,0.3c0.6,0.2,1.3,0.3,2,0.3c0.3,0,0.6,0.1,0.9,0.1c0.3,0,0.6,0.1,1,0.2
			c0.1,0,0.3,0.1,0.4,0.1c0.1,0,0.2,0,0.2,0c0.2-0.2,0.3-0.4,0.3-0.6c0-0.2,0.1-0.3,0.3-0.4c0.1-0.1,0.1-0.1,0.2-0.2
			c0.1-0.1,0.2-0.2,0.3-0.4c0.1-0.3,0.3-0.5,0.4-0.8c0.1-0.1,0.1-0.1,0.1-0.2c0-0.2-0.1-0.3-0.2-0.5c-0.1-0.2-0.2-0.3-0.3-0.5
			c-0.1-0.2-0.1-0.3,0.1-0.5c0.2-0.2,0.4-0.4,0.7-0.6c0.2-0.1,0.4-0.3,0.5-0.5c0,0-0.1,0-0.1,0c-0.2,0.1-0.5,0.2-0.7,0.2
			c-0.3,0.1-0.5,0.2-0.8,0.3c0,0-0.1,0-0.1,0c0,0,0,0,0,0c0,0,0,0,0-0.1c0-0.1,0.1-0.1,0.2-0.1c0.3-0.1,0.6-0.2,0.9-0.3
			c0.3-0.1,0.7-0.2,1-0.3c0.3-0.1,0.6-0.2,0.9-0.3c0.2-0.1,0.3-0.1,0.5-0.2c0.2-0.1,0.4-0.1,0.7,0.1c0.2,0.2,0.4,0.2,0.6,0.1
			c0.2-0.1,0.4-0.1,0.6-0.2c0,0,0.1,0,0.1,0c0,0,0,0.1,0,0.1c-0.1,0.1-0.2,0.1-0.3,0.1c-0.1,0-0.2,0.1-0.3,0.1
			c-0.1,0-0.2,0.1-0.4,0.1c0,0.1,0.1,0.2,0.1,0.3c0.1,0.2,0.2,0.4,0.4,0.4c0.1,0,0.1,0.1,0.1,0.2c0.1,0.2,0.3,0.5,0.4,0.7
			c0.1,0.1,0.1,0.2,0.1,0.3c0,0.1,0,0.2,0,0.3c0,0,0.1,0.1,0.1,0.1c0,0,0.1,0,0.1,0.1c0.1,0.1,0.2,0.2,0.2,0.4c0,0.3,0,0.6,0,0.9
			c0,0.1,0,0.3,0.2,0.3c0.2,0.1,0.3,0.3,0.3,0.5c0,0.2,0.1,0.4,0.1,0.6c0.1,0.1,0.1,0.2,0.2,0.2c0.1,0.2,0.2,0.4,0.2,0.6
			c0.1,0.4,0.1,0.7,0,1.1c-0.1,0.2-0.1,0.5,0.1,0.7c0.1,0.1,0.1,0.2,0.1,0.4c0,0.2,0.1,0.3,0,0.5c0,0.2-0.1,0.3-0.3,0.4
			c-0.6,0.4-1.1,0.8-1.7,1.1c-0.2,0.1-0.3,0.2-0.4,0.3c-0.2,0.2-0.4,0.3-0.6,0.5c-0.2,0.1-0.4,0.1-0.7,0c0,0-0.1,0-0.1-0.1
			c0-0.1,0-0.1-0.1-0.2c-0.1-0.2-0.1-0.4-0.2-0.6c0-0.1-0.1-0.1-0.2-0.1c-0.1,0-0.1,0-0.2,0c-0.2,0-0.4,0-0.6,0.1
			c-0.1,0.1-0.2,0.1-0.3,0.2c-0.4,0.3-0.9,0.6-1.3,0.8c-0.8,0.5-1.6,1.1-2.5,1.5c-0.1,0-0.1,0.1-0.2,0.1c-0.2,0.1-0.4,0.3-0.6,0.3
			c-0.2,0.1-0.3,0.1-0.4,0.2c-0.2,0.1-0.5,0.3-0.7,0.4c-0.2,0.2-0.5,0.2-0.8,0.3c-0.1,0-0.2,0.1-0.3,0.1c-0.6,0.3-1.1,0.5-1.7,0.6
			c-0.8,0.2-1.6,0.4-2.4,0.5c-0.5,0.1-1,0.1-1.5,0.1c-0.8,0.1-1.7,0.1-2.5,0.2c-0.1,0-0.2,0-0.3,0c0,0.2,0,0.3,0,0.5
			c0,0.2,0,0.4,0,0.6c0,0.2,0,0.4,0,0.6c0.1,0.3,0.1,0.6,0.1,0.9c0,0.5,0,1,0.1,1.5c0,0.4,0.1,0.8,0.3,1.1c0,0,0,0.1,0.1,0.1
			c0.4,0.2,0.8,0.4,1.2,0.6c0.2,0.1,0.5,0.2,0.7,0.3c0.1,0,0.3,0.1,0.4,0.1c0.1,0,0.2,0.1,0.4,0.1c0.4,0.1,0.7,0.2,1.1,0.3
			c0.2,0.1,0.4,0.1,0.5,0.1c0.3,0,0.6,0,0.9,0.1c0.5,0,1,0.2,1.5,0.3c0.6,0.1,1.2,0.2,1.8,0.2c0.1,0,0.2,0,0.3,0
			c0.1-0.1,0.2-0.1,0.3,0c0.1,0.1,0.3,0.1,0.4,0.1c0.8,0,1.6,0,2.4,0c0.1,0,0.2,0,0.3,0c0.4,0,0.7-0.1,1.1-0.1c0.3,0,0.6,0,0.9-0.2
			c0.1,0,0.1,0,0.2,0c0.3,0.1,0.5,0.1,0.8,0c0.4-0.1,0.9-0.1,1.3-0.1c0.2,0,0.4,0,0.7,0c0.3-0.1,0.6-0.1,0.9-0.1c0.2,0,0.4,0,0.6,0
			c0.2,0,0.3,0,0.5,0c0.2,0,0.4,0,0.5,0c0.5,0,1,0,1.4-0.1c0.3,0,0.5,0,0.8,0C34.2,62.7,34.7,62.7,35.2,62.5L35.2,62.5L35.2,62.5z
			 M25.8,43.3c-0.2,0.1-0.3,0.3-0.4,0.5c0,0.1-0.1,0.3-0.2,0.4c-0.1,0.2-0.2,0.3-0.3,0.4c-0.1,0.1-0.2,0.2-0.3,0.3
			c-0.1,0.1-0.1,0.3-0.2,0.4c0,0.1,0,0.1,0,0.2c0,0.1,0,0.1,0.1,0.1c0.2,0,0.3,0.1,0.5,0.1c0.1,0,0.2,0,0.3,0c0,0,0,0,0,0
			c0,0,0,0-0.1,0.1c-0.2,0-0.4,0.1-0.7,0c-0.5,0-1-0.1-1.4-0.2c-0.6-0.1-1.2-0.2-1.9-0.3c-0.6-0.1-1.2-0.2-1.8-0.3
			c-0.4-0.1-0.8-0.2-1.2-0.3c-0.5-0.1-0.9-0.2-1.4-0.3c-0.4-0.1-0.8-0.1-1.2-0.2c-1-0.1-1.9-0.1-2.9-0.2c-0.2,0-0.4,0-0.6,0
			c-0.3,0-0.6,0.1-0.9,0.1c-0.1,0-0.2,0-0.3,0.1c-0.1,0-0.2,0.1-0.2,0.2c0,0.3-0.1,0.7,0,1c0,0.2,0,0.4-0.1,0.5
			c-0.1,0.1-0.1,0.1-0.2,0.1c-0.1,0-0.1,0-0.2,0c-0.3,0-0.5-0.1-0.8-0.1c-0.1-0.1-0.2-0.1-0.3-0.2c-0.2-0.1-0.4-0.1-0.6-0.2
			c-0.1,0-0.2-0.1-0.4-0.1c-0.3-0.2-0.7-0.3-1.1-0.4c-0.5-0.1-0.9-0.3-1.4-0.6c-0.1-0.1-0.2-0.1-0.3-0.2c-0.8-0.4-1.7-0.8-2.5-1.2
			c-0.1,0-0.1,0-0.2,0.1c0,0,0,0,0,0.1c0,0.2,0,0.3,0,0.5c0,0.4,0,0.9-0.2,1.3c0,0.1-0.1,0.2-0.1,0.3c-0.1,0.2-0.1,0.3-0.2,0.5
			c-0.1,0.4-0.3,0.8-0.4,1.2c-0.1,0.3-0.2,0.6-0.3,0.8c0,0.3-0.1,0.5-0.2,0.8c-0.2,0.7-0.2,1.4-0.1,2.1c0.1,0.4,0.2,0.7,0.5,0.9
			c0.1,0,0.1,0,0.2-0.1c0.1,0,0.1-0.1,0.1-0.2c0-0.1-0.1-0.1-0.1-0.1c0,0,0,0-0.1,0c-0.2,0-0.2-0.1-0.2-0.2c0-0.1,0-0.3,0-0.4
			c0,0,0,0,0-0.1c0,0,0.1,0,0.1-0.1c0,0,0,0,0,0c0.1,0.1,0.1,0.3,0.2,0.4c0,0,0.1,0,0.1,0h0c0,0,0,0,0,0c0-0.2,0-0.4,0-0.6
			c0,0,0,0,0,0c0,0,0.1,0,0.1,0c0,0.1,0,0.1,0,0.2c0,0.3,0,0.5,0,0.8c0,0.3,0,0.6-0.3,0.8c0,0.1,0,0.1,0,0.2
			c0.3,0.2,0.6,0.4,0.9,0.6c0.5,0.3,0.9,0.6,1.4,0.9c0.2,0.2,0.5,0.3,0.7,0.4c0.3,0.1,0.6,0.3,1,0.4s0.6,0.3,1,0.4
			c0.1,0,0.3,0.1,0.4,0.1c0.3,0.1,0.6,0.1,0.9,0.2c0.2,0,0.3,0.1,0.5,0.1c0.6,0.1,1.2,0.1,1.9,0.1c0.2,0,0.5,0,0.7,0
			c0.8-0.1,1.5-0.1,2.3-0.2c0.7-0.1,1.4-0.1,2.1-0.3c0.6-0.1,1.2-0.2,1.7-0.4c0.5-0.1,0.9-0.3,1.4-0.5c0.2-0.1,0.5-0.2,0.7-0.2
			c0.1,0,0.2-0.1,0.2-0.1c0.1-0.1,0.2-0.2,0.3-0.1c0.1,0,0.3,0,0.4-0.1c0.2-0.1,0.4-0.2,0.6-0.3c0.4-0.2,0.8-0.3,1.2-0.6
			c0,0,0,0,0,0c0.5-0.2,0.9-0.5,1.3-0.8c0.4-0.2,0.8-0.5,1.2-0.8c0.6-0.5,1.3-0.9,2-1.2c0.1,0,0.2-0.1,0.3,0c0.2,0.1,0.5,0.1,0.7,0
			c0.6-0.2,1.2-0.4,1.8-0.8c0.2-0.1,0.3-0.2,0.5-0.3c0.2-0.2,0.5-0.3,0.6-0.6c0.1-0.2,0.3-0.5,0.4-0.7c0.1-0.2,0.1-0.5,0.1-0.7
			c0-0.2,0-0.4-0.1-0.7c0-0.1-0.1-0.3-0.2-0.4c0,0-0.1,0-0.1,0c-0.1,0.1-0.2,0.2-0.3,0.3c-0.1,0.3-0.3,0.6-0.5,0.8
			c-0.2,0.3-0.5,0.6-0.8,0.8c-0.2,0.1-0.4,0.2-0.6,0.3c-0.1,0-0.1,0-0.2,0s-0.1,0-0.1-0.1c0-0.1,0-0.1,0-0.1c0,0,0,0,0.1,0
			c0.4-0.1,0.7-0.3,0.9-0.6c0,0,0.1-0.1,0.1-0.1c0.4-0.4,0.7-0.9,0.9-1.4c0.1-0.1,0.1-0.3,0.2-0.5c0-0.1,0-0.3,0-0.4
			c0-0.1-0.1-0.2-0.2-0.2c-0.1,0-0.1,0.1-0.2,0.2c0,0.1,0,0.1-0.1,0.2c-0.1,0.3-0.3,0.5-0.5,0.6c-0.2,0.1-0.4,0.3-0.6,0.4
			c-0.1,0.1-0.2,0.2-0.3,0.3c-0.1,0.1-0.3,0.2-0.4,0.3c-0.1,0-0.1,0-0.2,0c0,0,0,0,0,0s0,0,0,0c0.1-0.1,0.2-0.2,0.4-0.3
			c0.1-0.1,0.3-0.3,0.4-0.5c0.1-0.1,0.2-0.3,0.3-0.3c0.1-0.1,0.2-0.1,0.3-0.2c0.1-0.1,0.2-0.2,0.3-0.4c0-0.1,0.1-0.2,0.1-0.4
			c0.2-0.4,0.2-0.7,0.2-1.1c0-0.2-0.1-0.4-0.3-0.5c-0.1,0-0.1-0.1-0.2-0.1c-0.2,0-0.4,0.1-0.5,0.2c0,0.1,0,0.1-0.1,0.2
			c-0.1,0.6-0.5,1.1-0.8,1.5c-0.1,0.1-0.1,0.1-0.2,0.1c-0.1,0-0.1,0-0.2,0c-0.1,0-0.1,0-0.1-0.1c0,0,0-0.1,0-0.1
			c0.3-0.2,0.5-0.4,0.6-0.7c0-0.1,0.1-0.1,0.1-0.2c0.2-0.4,0.5-0.7,0.6-1.1c0.1-0.1,0.3-0.2,0.4-0.3C30,42.2,30,42,30,41.9
			c0-0.2-0.1-0.3-0.3-0.4c-0.1-0.1-0.3-0.1-0.4,0c-0.1,0.1-0.2,0.1-0.2,0.2c-0.2,0.2-0.3,0.5-0.4,0.8c-0.1,0.4-0.3,0.7-0.5,1
			c-0.1,0.2-0.3,0.4-0.5,0.5c-0.1,0.1-0.2,0.2-0.3,0.3c-0.1,0.1-0.3,0.3-0.5,0.4c-0.1,0.1-0.2,0.1-0.3,0c-0.1-0.2-0.2-0.3-0.3-0.4
			c-0.1-0.1-0.1-0.2-0.2-0.3c0-0.1,0-0.2-0.1-0.3C25.9,43.5,25.9,43.4,25.8,43.3L25.8,43.3z M19.7,112.6c0-0.1,0-0.2,0-0.3
			c0-0.1,0-0.3,0-0.4c0-0.3,0-0.6,0-0.9c0-0.6,0.1-1.3,0-1.9c0-0.1,0-0.2,0-0.3c0-0.6,0.1-1.1,0.1-1.7c0-0.2,0-0.5,0.1-0.7
			c0.1-0.3,0.2-0.7,0.2-1c0-0.1,0-0.1,0-0.2c0.1-0.7,0.2-1.4,0.3-2.1c0-0.1,0-0.1,0-0.2c0.1-0.6,0.2-1.2,0.2-1.8
			c0.1-0.7,0.2-1.4,0.3-2.1c0.1-0.6,0.2-1.3,0.3-2c0.1-0.8,0.2-1.6,0.3-2.4c0.1-1,0.2-2,0.2-3v-0.7c0-0.3,0-0.6,0-0.8
			c0-0.4,0.1-0.9,0-1.3c0-0.1,0-0.3-0.1-0.4c0-0.1-0.1-0.1-0.2-0.1c-0.3,0-0.7,0-1,0.1c-0.1,0-0.2,0-0.3,0c-0.1,0-0.1,0-0.2,0
			c-0.4,0-0.9-0.1-1.3,0c-0.4,0-0.8,0-1.2-0.1c-0.3-0.1-0.6-0.1-0.9-0.1c-0.6,0-0.5,0-0.5,0.5c0,0.3,0,0.6,0,0.8
			c0,0.4,0,0.8,0.1,1.3c0,0.1,0,0.2,0,0.3c0.2,0.7,0.3,1.3,0.4,2c0.1,0.4,0.1,0.7,0.2,1.1c0.1,0.5,0.2,1.1,0.2,1.6
			c0,0.1,0,0.3,0.1,0.4c0.1,0.6,0.2,1.1,0.3,1.7c0.1,0.4,0.1,0.8,0.2,1.1c0.1,0.4,0.1,0.8,0.1,1.2c0,0.6,0,1.1,0,1.7
			c0,0.6,0,1.3,0,1.9c0,0.2,0,0.4,0,0.6c0,0.5-0.1,1-0.1,1.4c0,0.2,0,0.3-0.1,0.5c-0.1,0.3-0.1,0.6-0.1,0.9c0,0.6,0,1.2-0.1,1.8
			c0,0.2,0,0.4,0,0.6c0,0.2,0.1,0.4,0.1,0.7c0,0.2,0.1,0.4,0.1,0.5c0.1,0.1,0.1,0.2,0.1,0.3c0,0.4,0.1,0.8,0.1,1.2c0,0,0,0.1,0,0.1
			c0.1,0.2,0.3,0.4,0.5,0.4c0.1,0,0.2,0,0.3,0c0.2,0,0.4,0,0.6,0.1c0.1,0,0.2,0,0.3,0C19.6,112.7,19.6,112.7,19.7,112.6L19.7,112.6
			L19.7,112.6z M26.7,87.3c-0.1,0.1-0.2,0.3-0.3,0.3c-0.1,0-0.1,0.1-0.1,0.2c0,0.2-0.1,0.5-0.1,0.7c0,0.4,0,0.8,0,1.2
			c0,0.2,0,0.4-0.1,0.6c-0.1,0.5-0.1,1-0.2,1.5c0,1-0.1,1.9,0.1,2.9c0,0.2,0.1,0.4,0.1,0.6c0,0.3,0.1,0.5,0.1,0.8c0,0.1,0,0.2,0,0.3
			c0,0.2,0.1,0.4,0,0.7c0,0.5,0,1,0.1,1.4c0.1,0.4,0.1,0.8,0.1,1.3c0,0.2,0,0.3,0,0.5c0,0.3,0,0.7,0.1,1c0,0.3,0,0.7,0.1,1
			c0,0.3,0,0.7,0,1c0,0.1,0,0.3-0.1,0.4c0,0.2-0.1,0.5-0.1,0.7c-0.1,0.4-0.2,0.9-0.2,1.4c-0.1,0.4-0.1,0.8-0.3,1.2c0,0,0,0.1,0,0.1
			c0,0.1,0,0.1,0.1,0.2c0.3,0.3,0.7,0.7,0.9,1.1c0,0.1,0.1,0.1,0.2,0.2c0.2,0,0.3,0.1,0.5,0.2c0.3,0.1,0.5,0.1,0.8-0.1
			c0.2-0.1,0.4-0.2,0.5-0.3c0.2-0.2,0.4-0.3,0.6-0.5c0.1-0.1,0.3-0.3,0.4-0.4c0.2-0.1,0.3-0.2,0.5-0.3c0,0,0.1-0.1,0.1-0.1
			c0.1-0.1,0.1-0.2,0-0.3c0,0,0,0,0,0c-0.1,0-0.1-0.1-0.2-0.1c-0.2-0.1-0.4-0.2-0.6-0.3c-0.1-0.1-0.2-0.1-0.2-0.2
			c-0.1-0.1-0.1-0.3-0.2-0.4c0-0.3-0.1-0.7-0.1-1c0-0.4,0-0.8,0.1-1.2c0-0.4,0-0.8,0-1.2c0-0.6,0-1.2,0-1.8c0-0.4,0-0.8-0.1-1.2
			c0-0.3-0.1-0.6-0.1-0.8c0-0.8,0.1-1.6,0.2-2.4c0.1-0.5,0.2-0.9,0.4-1.4c0.3-0.8,0.6-1.7,0.8-2.5c0.2-0.9,0.4-1.7,0.4-2.6
			c0-0.3,0-0.5,0.1-0.8c0-0.3,0-0.5,0-0.8c0-0.3-0.1-0.5-0.1-0.8c0-0.4-0.1-0.8-0.2-1.2c0-0.1-0.1-0.1-0.2-0.1
			c-0.2,0-0.4,0.1-0.6,0.1c-0.1,0-0.2,0-0.3,0.1c-0.5,0.2-1,0.4-1.5,0.6C27.7,86.9,27.2,87.1,26.7,87.3L26.7,87.3L26.7,87.3z
			 M11.4,86.7c0,0.3,0,0.5,0,0.8c0,0.1,0.1,0.2,0.2,0.3c0.3,0.1,0.7,0.1,1-0.1c0.2-0.1,0.5-0.3,0.8-0.3c0.1,0,0.2-0.1,0.3-0.1
			c0.3-0.2,0.6-0.3,0.8-0.5c0.5-0.3,1-0.6,1.5-0.9c0.5-0.3,1-0.6,1.5-1c0.5-0.4,1.1-0.8,1.6-1.1c0.4-0.2,0.7-0.5,1-0.7
			c0.5-0.3,0.9-0.7,1.3-1c0.5-0.3,1-0.6,1.5-1c0.3-0.2,0.5-0.3,0.7-0.5c1-0.6,1.8-1.1,2.8-1.8c0.2-0.2,0.4-0.3,0.6-0.5
			c0,0,0-0.1,0-0.1c0,0,0,0,0,0c-0.2,0.1-0.4,0.2-0.6,0.4c-0.6,0.3-1.3,0.7-1.8,1.1c-0.3,0.2-0.6,0.4-0.9,0.6
			c-0.4,0.2-0.7,0.4-1,0.6c-0.5,0.4-1.1,0.7-1.7,1c-1.3,0.7-2.5,1.4-3.8,2.1c-0.2,0.1-0.4,0.2-0.6,0.3c-0.3,0.2-0.7,0.3-1,0.5
			c-0.2,0.1-0.4,0.3-0.7,0.4c-0.5,0.2-0.9,0.4-1.4,0.7c-0.4,0.2-0.8,0.5-1.3,0.6C12,86.5,11.7,86.6,11.4,86.7L11.4,86.7L11.4,86.7z
			 M27.9,74.3v-0.1c0-0.1-0.1-0.1-0.1-0.1c0,0,0,0,0,0c-0.4,0.2-0.7,0.3-1.1,0.5c-0.3,0.1-0.7,0.3-1,0.4c-0.2,0.1-0.5,0.2-0.7,0.3
			c-0.1,0.1-0.3,0.1-0.4,0.2c-0.6,0.3-1.3,0.6-1.9,0.9c-0.2,0.1-0.4,0.2-0.6,0.4c-0.3,0.2-0.6,0.3-0.9,0.5c-0.2,0.1-0.3,0.2-0.5,0.3
			c-0.3,0.2-0.6,0.3-1,0.5l-0.4,0.2c-0.3,0.2-0.6,0.3-0.9,0.5c-0.3,0.1-0.5,0.3-0.8,0.4c-0.3,0.2-0.7,0.4-1.1,0.5
			c-0.4,0.2-0.8,0.4-1.2,0.6c-0.4,0.2-0.8,0.4-1.1,0.5c-1,0.3-1.9,0.8-2.9,1.1C11,82,11,82.1,11,82.1c0,0.1,0,0.2,0,0.3
			c0,0.1,0.1,0.1,0.2,0.1h0c0.4-0.1,0.8-0.3,1.2-0.5c0.4-0.2,0.8-0.4,1.1-0.5c0.7-0.3,1.3-0.5,2-0.9c1.1-0.6,2.2-1.1,3.4-1.6
			c0.2-0.1,0.5-0.2,0.7-0.4c0.2-0.1,0.5-0.2,0.7-0.3c0.4-0.1,0.8-0.3,1.2-0.5c0.3-0.2,0.7-0.3,1-0.4c0.1-0.1,0.2-0.1,0.4-0.1
			c0.2-0.1,0.4-0.1,0.6-0.2c0.2-0.1,0.3-0.2,0.5-0.2c0.5-0.2,1-0.4,1.4-0.7c0.6-0.3,1.2-0.6,1.8-1c0.2-0.1,0.3-0.2,0.5-0.3
			c0.1,0,0.1-0.1,0.1-0.2C27.9,74.5,27.9,74.4,27.9,74.3L27.9,74.3L27.9,74.3z M11.1,83C11.1,83,11.1,83.1,11.1,83
			c0,0.1,0.1,0.2,0.1,0.2c0,0,0,0,0,0c0.1,0,0.2-0.1,0.4-0.1c0.6-0.1,1.1-0.3,1.7-0.5c0.3-0.1,0.5-0.2,0.8-0.3
			c0.7-0.3,1.4-0.6,2.1-0.9c0.3-0.1,0.5-0.3,0.8-0.4c0.4-0.2,0.9-0.4,1.3-0.6c0.1,0,0.1-0.1,0.2-0.1c0.1-0.1,0.2-0.1,0.3-0.2
			c0.4-0.2,0.8-0.4,1.2-0.5c0.1-0.1,0.3-0.1,0.4-0.2c0.2-0.1,0.4-0.2,0.5-0.3c0.5-0.2,1-0.4,1.6-0.7c0.2-0.1,0.4-0.2,0.6-0.2
			c0.3-0.1,0.5-0.2,0.8-0.3c0.5-0.3,1-0.5,1.5-0.8c0.1-0.1,0.2-0.1,0.3-0.1c0.4-0.2,0.8-0.4,1.1-0.7c0.1-0.1,0.3-0.2,0.4-0.3
			c0.2-0.1,0.4-0.3,0.6-0.5c0-0.1,0-0.1,0-0.2c0,0,0-0.1-0.1-0.1c-0.1,0-0.1,0-0.1,0.1c-0.3,0.2-0.6,0.3-0.9,0.5
			c-0.4,0.2-0.9,0.5-1.3,0.7c-0.3,0.2-0.6,0.3-0.9,0.5c-0.6,0.3-1.3,0.5-1.9,0.8c-0.6,0.3-1.3,0.5-1.9,0.8c-0.3,0.1-0.6,0.2-0.9,0.4
			c-0.2,0.1-0.5,0.3-0.7,0.4c-0.6,0.3-1.3,0.6-1.9,0.9s-1.3,0.6-1.9,0.9c-0.5,0.2-1.1,0.5-1.6,0.7c-0.3,0.1-0.7,0.3-1,0.5
			c-0.3,0.1-0.5,0.3-0.8,0.4c-0.2,0.1-0.4,0.2-0.7,0.3C11.1,82.8,11.1,82.8,11.1,83L11.1,83z M27.7,76.2c0-0.1,0-0.2,0.1-0.3
			c0,0,0-0.1,0-0.1c0,0-0.1,0-0.1,0c-0.1,0-0.1,0.1-0.1,0.1c-0.4,0.3-0.8,0.5-1.2,0.7c-0.3,0.2-0.7,0.4-1,0.6
			c-0.4,0.2-0.8,0.5-1.3,0.7c-0.1,0-0.2,0.1-0.3,0.1c-0.3,0.1-0.7,0.3-1,0.4c-0.2,0.1-0.4,0.2-0.7,0.3c-0.4,0.2-0.8,0.3-1.2,0.5
			c-0.5,0.3-1,0.5-1.5,0.7c-0.1,0-0.2,0.1-0.3,0.2c-0.5,0.3-1,0.5-1.5,0.8c-0.5,0.2-0.9,0.4-1.4,0.7c-0.2,0.1-0.4,0.2-0.6,0.3
			c-0.5,0.2-0.9,0.4-1.4,0.6c-0.6,0.3-1.3,0.5-1.9,0.7c-0.3,0.1-0.6,0.2-0.9,0.3c-0.1,0-0.1,0.1-0.1,0.2c0,0.1,0,0.2,0,0.3
			c0,0.3,0.1,0.4,0.4,0.3c0.1,0,0.2-0.1,0.3-0.1c0.2-0.1,0.4-0.2,0.7-0.3c0.5-0.2,1.1-0.4,1.6-0.7c0.3-0.2,0.6-0.3,0.8-0.4
			c0.2-0.1,0.3-0.1,0.4-0.2c0.2-0.1,0.4-0.3,0.7-0.3c0.4-0.1,0.9-0.3,1.3-0.5c0.4-0.2,0.8-0.4,1.2-0.6c0.4-0.3,0.9-0.5,1.3-0.8
			c0.2-0.1,0.4-0.2,0.6-0.3c0.4-0.3,0.9-0.6,1.4-0.8c0.5-0.3,1-0.5,1.6-0.8c0.3-0.1,0.6-0.3,0.9-0.4c0.5-0.2,1-0.4,1.5-0.7
			C26.5,77,27.2,76.7,27.7,76.2L27.7,76.2L27.7,76.2z M29.7,64.9c0.2,0.1,0.3,0.2,0.5,0.3c0.6,0.3,1.2,0.6,1.9,0.9
			c0.7,0.3,1.3,0.5,2,0.7c0,0,0.1,0,0.1,0c0.1,0,0.1-0.1,0.1-0.2c0-0.1,0-0.1-0.1-0.1c-0.2,0-0.4,0-0.5-0.1
			c-0.2-0.1-0.4-0.1-0.5-0.1c-0.1,0-0.1,0-0.2-0.1c-0.8-0.3-1.5-0.7-2.2-1.1c-0.2-0.1-0.5-0.2-0.6-0.4c-0.1-0.1-0.2-0.1-0.3-0.2
			c-0.2-0.1-0.4-0.3-0.6-0.4c-0.2-0.2-0.4-0.4-0.6-0.6c0,0-0.1,0-0.1,0c-0.1,0.1-0.3,0.2-0.3,0.4c0,0.1,0,0.2-0.1,0.2
			c-0.2,0.1-0.4,0.2-0.6,0.3s-0.4,0.2-0.7,0.3c-0.3,0.1-0.6,0.2-0.9,0.4c-0.2,0.1-0.4,0.2-0.6,0.4c-0.8,0.4-1.5,0.8-2.3,1.1
			c-0.9,0.4-1.9,0.9-2.8,1.3c-0.3,0.1-0.6,0.3-0.9,0.4c-0.1,0-0.1,0.1-0.1,0.2c0,0.1-0.1,0.3,0,0.4c0,0,0,0.1,0.1,0.1
			c0.1,0,0.1,0,0.2,0c0.4-0.2,0.8-0.3,1.2-0.5c0.4-0.2,0.7-0.3,1.1-0.5c0.7-0.3,1.4-0.6,2.1-1c0.3-0.2,0.6-0.3,0.9-0.4
			c0.4-0.1,0.7-0.3,1.1-0.5c0.6-0.3,1.3-0.7,1.9-1c0.1-0.1,0.3-0.1,0.4-0.3c0.1-0.1,0.2-0.1,0.3-0.1c0.1,0,0.1,0,0.1-0.1
			c0-0.1,0-0.1,0.1-0.1c0-0.1,0.2,0,0.2,0s0,0.1,0.1,0.2c0,0.1,0.1,0.1,0.1,0.2c0.2,0.1,0.3,0.2,0.5,0.4c0,0,0.1,0,0.2,0
			C29.6,64.9,29.6,64.9,29.7,64.9L29.7,64.9L29.7,64.9z M28.1,71.3c-0.2,0.1-0.4,0.1-0.6,0.2c-0.6,0.3-1.1,0.6-1.7,0.8
			c-0.1,0.1-0.3,0.1-0.4,0.2c-0.2,0.2-0.5,0.3-0.8,0.3c-0.1,0-0.2,0.1-0.4,0.1c-0.2,0.1-0.4,0.2-0.7,0.3c-0.5,0.2-1,0.4-1.5,0.6
			c-0.3,0.1-0.6,0.3-0.9,0.4s-0.6,0.3-0.9,0.4c-0.4,0.2-0.9,0.4-1.3,0.6c-0.1,0-0.1,0.1-0.2,0.1c-0.1,0.3-0.1,0.5-0.2,0.8
			c0,0.1,0,0.1,0,0.2c0,0,0,0.1,0.1,0.1c0.1,0,0.1,0,0.2-0.1c0.4-0.2,0.8-0.3,1.2-0.5c0.7-0.3,1.3-0.6,2-0.9
			c0.6-0.2,1.2-0.5,1.7-0.8c0.5-0.3,1.1-0.6,1.7-0.9c0.3-0.1,0.6-0.3,0.9-0.5c0.4-0.2,0.7-0.5,1.1-0.7c0.2-0.2,0.4-0.3,0.7-0.5
			c0,0,0.1-0.1,0.1-0.1C28.2,71.5,28.2,71.4,28.1,71.3L28.1,71.3z M11.3,67.7C11.3,67.7,11.3,67.7,11.3,67.7c0,0.1,0.1,0.2,0.2,0.2
			c0.1,0,0.2,0,0.3-0.1c0.5-0.2,1.1-0.3,1.6-0.5c0.2-0.1,0.3-0.1,0.5-0.2c0.1,0,0.1-0.1,0.1-0.2c0-0.1,0.1-0.2,0.1-0.2h0
			c0.2,0,0.3-0.1,0.5-0.1c0.2-0.1,0.4-0.2,0.6-0.2c0.6-0.1,1.2-0.2,1.7-0.5c0,0,0.1,0,0.1,0c0.3-0.1,0.5-0.2,0.8-0.3
			c0.3-0.1,0.5-0.2,0.8-0.3c0.2-0.1,0.5-0.2,0.8-0.3c0.1,0,0.2-0.1,0.3-0.1c0.4-0.2,0.8-0.4,1.2-0.5c0.3-0.1,0.5-0.2,0.8-0.3
			c0.2-0.1,0.4-0.1,0.6-0.2c0.1,0,0.2-0.1,0.2-0.1c0,0,0-0.1,0-0.1c0,0,0,0,0,0c-0.5-0.1-1-0.1-1.5-0.1c-0.1,0-0.1,0-0.2,0
			c-0.6,0.3-1.2,0.5-1.8,0.8c-0.3,0.1-0.5,0.2-0.7,0.4c-0.1,0.1-0.3,0.1-0.4,0.2c-0.7,0.4-1.4,0.6-2,1c-0.3,0.1-0.5,0.2-0.8,0.3
			c-0.7,0.3-1.4,0.5-2,0.8c-0.4,0.2-0.8,0.3-1.3,0.4c-0.1,0-0.1,0.1-0.1,0.1C11.3,67.5,11.3,67.6,11.3,67.7L11.3,67.7L11.3,67.7z
			 M28.4,67.8c0.1-0.1,0.1-0.2,0.2-0.4c0-0.1,0-0.1,0-0.2c0,0,0-0.1,0-0.1c0,0-0.1,0-0.1,0c-0.2,0.1-0.3,0.1-0.5,0.2
			c-0.6,0.3-1.2,0.6-1.8,0.9c-0.8,0.4-1.6,0.8-2.4,1.2c-0.7,0.3-1.4,0.7-2.2,0.9c-0.6,0.3-1.3,0.5-1.9,0.8c-0.7,0.3-0.6,0.1-0.6,0.9
			c0,0.1,0.1,0.2,0.2,0.1c0.2-0.1,0.3-0.1,0.5-0.2c0.4-0.2,0.8-0.4,1.2-0.5c0.5-0.2,1.1-0.4,1.6-0.6c0.3-0.1,0.5-0.3,0.8-0.4
			c0.7-0.3,1.3-0.6,2-1c0.4-0.2,0.8-0.4,1.2-0.6c0.2-0.1,0.4-0.2,0.6-0.3C27.5,68.3,28,68.1,28.4,67.8L28.4,67.8z M19.1,72.5
			c-0.1,0.2-0.1,0.4,0,0.6c0,0.1,0.1,0.1,0.1,0.1c0.1,0,0.1,0,0.2-0.1c0.8-0.3,1.5-0.6,2.2-0.9c0.9-0.4,1.9-0.8,2.8-1.2
			c0.5-0.2,1-0.5,1.5-0.7c0.3-0.2,0.6-0.4,1-0.5c0.5-0.2,0.9-0.6,1.3-1c0.1-0.1,0.2-0.3,0.2-0.5c0-0.1-0.1-0.2-0.2-0.2
			c-0.3,0.1-0.6,0.3-0.9,0.4c-0.3,0.2-0.5,0.3-0.8,0.5c-0.6,0.4-1.3,0.7-1.9,1c-0.2,0.1-0.5,0.2-0.7,0.4c-0.3,0.1-0.6,0.3-0.9,0.4
			c-0.3,0.2-0.7,0.3-1,0.4c-0.6,0.3-1.2,0.4-1.8,0.8c-0.2,0.1-0.5,0.2-0.7,0.3C19.3,72.4,19.2,72.5,19.1,72.5L19.1,72.5L19.1,72.5z
			 M11.6,84.7c0.2,0,0.4-0.1,0.6-0.1c0.2-0.1,0.5-0.2,0.7-0.3c0.2-0.1,0.3-0.1,0.5-0.2c0.4-0.1,0.9-0.2,1.2-0.5
			c0.1-0.1,0.2-0.1,0.3-0.1c0.6-0.3,1.3-0.6,1.9-0.9c0.3-0.1,0.5-0.2,0.8-0.3c0.3-0.1,0.5-0.2,0.8-0.4c0.1,0,0.1-0.1,0.2-0.1
			c0.6-0.3,1.2-0.6,1.8-0.9c0.5-0.3,1-0.6,1.5-0.8c0.5-0.3,1-0.5,1.5-0.7c0.2-0.1,0.3-0.1,0.5-0.2c0.3-0.1,0.6-0.3,0.9-0.4
			c0.5-0.2,0.9-0.4,1.4-0.6c0.4-0.2,0.8-0.4,1.2-0.7c0.1-0.1,0.1-0.1,0.1-0.2c0-0.1,0-0.1,0-0.2c0,0,0-0.1-0.1-0.1c0,0,0,0-0.1,0
			c-0.3,0.2-0.7,0.4-1,0.6c-0.5,0.3-1.1,0.6-1.7,0.8c-0.1,0-0.2,0.1-0.4,0.1c-0.3,0.1-0.6,0.3-0.9,0.4c-0.3,0.1-0.6,0.3-0.8,0.4
			c-0.6,0.4-1.3,0.7-1.9,1.1c-0.5,0.3-1,0.6-1.5,0.9c-0.3,0.2-0.7,0.4-1,0.6c-0.3,0.2-0.7,0.3-1,0.5c-0.2,0.1-0.4,0.2-0.6,0.3
			l-0.7,0.2c0,0,0,0-0.1,0c-0.2,0.1-0.4,0.2-0.6,0.3c-0.2,0.1-0.4,0.1-0.6,0.3c-0.2,0.1-0.4,0.2-0.6,0.3c-0.2,0.1-0.3,0.1-0.5,0.2
			c-0.7,0.3-1.4,0.6-2.1,0.8c-0.1,0-0.1,0-0.2,0.1c0,0,0,0.1-0.1,0.1c0,0,0,0.1,0.1,0.1C11.4,84.7,11.5,84.7,11.6,84.7L11.6,84.7z
			 M33.2,83.3c-0.1-0.1-0.2-0.2-0.3-0.2c-0.4-0.3-0.9-0.6-1.3-1c-0.8-0.6-1.5-1.1-2.2-1.7c-0.1-0.1-0.3-0.2-0.4-0.3
			c-0.2-0.2-0.4-0.3-0.6-0.5c-0.3-0.2-0.5-0.5-0.8-0.8c0,0-0.1,0-0.1,0c0,0-0.1,0.1-0.1,0.1c-0.1,0.5-0.1,0.6,0.3,0.9
			c0.1,0.1,0.2,0.2,0.3,0.3c0.2,0.2,0.4,0.4,0.6,0.6c0.1,0.1,0.2,0.2,0.3,0.3c0.3,0.3,0.6,0.6,1,0.9c0.5,0.4,1,0.8,1.5,1.3
			c0.2,0.1,0.3,0.2,0.5,0.3c0.3,0.2,0.6,0.3,0.9,0.4s0.5,0,0.5-0.3C33.3,83.5,33.3,83.4,33.2,83.3L33.2,83.3L33.2,83.3z M28.4,69.4
			C28.4,69.3,28.3,69.3,28.4,69.4c-0.1-0.1-0.1-0.1-0.1-0.1c-0.1,0-0.1,0.1-0.2,0.1c-0.3,0.3-0.7,0.5-1.1,0.7
			c-0.2,0.1-0.3,0.2-0.5,0.3c-0.5,0.3-1.1,0.6-1.7,0.8c-1,0.4-2.1,0.8-3.1,1.3c-0.1,0.1-0.2,0.1-0.4,0.1c-0.6,0.3-1.3,0.5-1.9,0.8
			c-0.1,0-0.1,0-0.2,0.1c-0.1,0-0.1,0.1-0.1,0.2c0,0.2-0.1,0.4-0.1,0.6c0,0,0,0,0,0.1c0,0.1,0.1,0.1,0.1,0.1
			c0.3-0.1,0.6-0.2,0.9-0.3c0.7-0.2,1.3-0.5,2-0.8c0.1-0.1,0.2-0.1,0.4-0.2c0.2-0.1,0.4-0.2,0.6-0.3c0.8-0.4,1.5-0.8,2.2-1.2
			c0.4-0.3,0.9-0.5,1.3-0.7c0.4-0.2,0.8-0.5,1.2-0.7c0.1-0.1,0.2-0.2,0.4-0.3C28.3,69.7,28.4,69.5,28.4,69.4L28.4,69.4L28.4,69.4z
			 M19.2,67.5c0.2-0.1,0.5-0.1,0.7-0.2c0.6-0.2,1.3-0.4,1.9-0.7c0.6-0.2,1.2-0.4,1.7-0.7c0.6-0.3,1.3-0.7,1.9-1
			c0.2-0.1,0.4-0.1,0.6-0.2c0.3-0.2,0.7-0.4,1-0.5c0.4-0.2,0.8-0.5,1.1-0.8c0,0,0-0.1,0-0.1c0,0,0,0,0,0c-0.3,0-0.5-0.1-0.8,0
			c-0.2,0-0.4,0.1-0.5,0.2c-0.1,0.1-0.2,0.2-0.4,0.3c-0.2,0.1-0.3,0.2-0.4,0.2c-0.2,0.1-0.5,0.2-0.7,0.3c-0.2,0.1-0.4,0.2-0.5,0.3
			c-0.7,0.3-1.4,0.6-2.1,0.9c-0.4,0.2-0.9,0.4-1.3,0.6c-0.3,0.2-0.6,0.3-1,0.4c-0.2,0.1-0.5,0.2-0.7,0.3c-0.2,0.1-0.3,0.2-0.5,0.2
			c0,0-0.1,0.1-0.1,0.1C19.1,67.3,19.1,67.4,19.2,67.5L19.2,67.5L19.2,67.5z M28.8,65.4c-0.2,0.1-0.4,0.2-0.7,0.3
			c-0.2,0.1-0.3,0.2-0.5,0.2c-0.3,0.1-0.5,0.3-0.9,0.4c-0.1,0-0.2,0.1-0.3,0.2c-0.1,0.1-0.3,0.2-0.4,0.2c-1.1,0.5-2.2,1-3.3,1.5
			c-0.2,0.1-0.5,0.2-0.7,0.4c-0.2,0.1-0.4,0.3-0.7,0.4c-0.5,0.2-1.1,0.5-1.6,0.7c-0.1,0.1-0.3,0.1-0.4,0.2c-0.1,0-0.2,0.2-0.2,0.3
			c0,0.1,0,0.1,0,0.2c0,0.1,0.1,0.1,0.1,0.1c0.3-0.1,0.6-0.2,0.9-0.4c0.2-0.1,0.4-0.2,0.5-0.3c0.8-0.3,1.5-0.7,2.2-1
			c0.1,0,0.1-0.1,0.2-0.1c0.3-0.1,0.6-0.3,0.9-0.4c0.3-0.1,0.6-0.3,1-0.4c0.2-0.1,0.3-0.2,0.5-0.2c0.4-0.2,0.8-0.4,1.2-0.6
			c0.2-0.1,0.5-0.3,0.7-0.4c0.4-0.2,0.8-0.4,1.2-0.6c0.1-0.1,0.2-0.1,0.2-0.3C28.8,65.6,28.9,65.5,28.8,65.4L28.8,65.4L28.8,65.4z
			 M16,87.8c0.2,0,0.4,0,0.6-0.2c0.3-0.1,0.5-0.2,0.7-0.4c0.1-0.1,0.2-0.2,0.4-0.2c0.1-0.1,0.2-0.1,0.3-0.2c0.9-0.6,1.8-1.3,2.6-2
			c0.3-0.2,0.6-0.4,0.9-0.6c0.5-0.3,1-0.7,1.4-1c0,0,0,0,0,0c0.4-0.4,0.8-0.7,1.2-1c0.5-0.4,1-0.8,1.4-1.3c0.4-0.4,0.9-0.8,1.3-1.3
			c0,0,0-0.1,0-0.1c0,0-0.1,0-0.1,0c-0.4,0.3-0.9,0.6-1.3,1c-0.1,0.1-0.2,0.1-0.3,0.2c-0.5,0.4-1,0.7-1.5,1.1
			c-0.1,0.1-0.2,0.2-0.3,0.3c-0.2,0.3-0.5,0.5-0.8,0.7c-0.1,0.1-0.3,0.2-0.4,0.3c-0.5,0.5-1.1,0.9-1.6,1.3c-0.8,0.6-1.7,1.2-2.5,1.9
			c-0.2,0.2-0.5,0.3-0.7,0.4c-0.1,0.1-0.2,0.1-0.3,0.2l-0.7,0.4c-0.2,0.1-0.4,0.2-0.6,0.3c0,0-0.1,0.1-0.1,0.1c0,0,0,0,0,0.1
			C15.8,87.8,15.9,87.8,16,87.8L16,87.8z M28.2,74.1c0,0.2,0,0.3,0,0.4c0.1,0.1,0.1,0.2,0.1,0.3c0.1,0.1,0.2,0.2,0.3,0.3
			c0.1,0.1,0.2,0.2,0.3,0.3c0.7,0.6,1.4,1.1,2,1.7c0.2,0.2,0.4,0.3,0.6,0.4c0.2,0.1,0.3,0.2,0.5,0.3c0.4,0.3,1,0.5,1.4,0.8
			c0.1,0,0.1,0,0.2,0c0,0,0.1,0,0.1-0.1c0-0.1,0-0.2,0-0.3c0-0.2-0.1-0.4-0.3-0.4c-0.1,0-0.2-0.1-0.2-0.1c-0.5-0.4-1-0.8-1.5-1.2
			c-0.2-0.2-0.4-0.3-0.6-0.4c-0.5-0.4-1-0.8-1.5-1.2c-0.2-0.2-0.4-0.3-0.7-0.5c-0.2-0.2-0.4-0.3-0.6-0.5c0,0-0.1,0-0.1,0
			c0,0,0,0,0,0C28.2,74,28.2,74.1,28.2,74.1L28.2,74.1L28.2,74.1z M27.2,79.7c-0.1,0.1-0.1,0.2-0.1,0.3c-0.1,0.1-0.1,0.3,0,0.4
			c0,0.3,0.2,0.5,0.4,0.7c0.1,0.1,0.2,0.2,0.2,0.3c0.3,0.4,0.7,0.7,1,1.1c0.2,0.2,0.5,0.4,0.7,0.6c0.2,0.1,0.4,0.2,0.6,0.3
			c0.7,0.4,1.3,0.8,2,1.2c0.1,0.1,0.3,0.1,0.4,0.2c0.1,0,0.1,0,0.2,0c0.1,0,0.1-0.1,0.2-0.1c0.1-0.1,0.1-0.2,0-0.3
			c-0.2-0.1-0.3-0.2-0.5-0.2c-0.3-0.1-0.7-0.3-0.9-0.6c-0.1-0.1-0.1-0.1-0.2-0.1c-0.8-0.6-1.6-1.3-2.3-2c-0.3-0.3-0.7-0.6-0.9-1
			c-0.1-0.2-0.3-0.3-0.4-0.5C27.3,79.7,27.2,79.7,27.2,79.7L27.2,79.7z M33.6,80.3c-0.5-0.4-1.1-0.8-1.6-1.1
			c-0.4-0.3-0.9-0.6-1.3-0.9c-0.2-0.2-0.5-0.3-0.7-0.5c-0.2-0.1-0.4-0.3-0.6-0.4c-0.5-0.3-0.9-0.6-1.2-1c0,0-0.1-0.1-0.1-0.1
			c0,0-0.1,0-0.1,0c0,0-0.1,0-0.1,0.1c0,0.2,0,0.3,0,0.5c0,0,0,0.1,0,0.1c0.2,0.2,0.3,0.4,0.5,0.6c0.5,0.4,1,0.8,1.5,1.1
			c0.7,0.5,1.4,0.9,2.1,1.4c0.4,0.3,0.9,0.5,1.4,0.8c0,0,0,0,0.1,0c0,0,0.1,0,0.1-0.1l0,0C33.6,80.7,33.7,80.5,33.6,80.3L33.6,80.3
			L33.6,80.3z M28.2,75.1c-0.1,0.1-0.1,0.2-0.2,0.4c0,0.1,0,0.2,0,0.3c0.3,0.4,0.6,0.8,1,1.1c0.2,0.1,0.3,0.2,0.5,0.3
			c0.4,0.3,0.7,0.5,1.1,0.8c0.6,0.4,1.1,0.7,1.7,1.1c0.4,0.2,0.7,0.4,1.1,0.6c0.1,0,0.1,0,0.1,0c0-0.2,0.1-0.3,0.1-0.5
			c0-0.1-0.1-0.2-0.1-0.2c0,0-0.1,0-0.1,0c-0.1,0-0.3-0.1-0.3-0.2c-0.1-0.1-0.1-0.1-0.2-0.2c-0.5-0.3-1-0.6-1.5-0.9
			c-0.2-0.2-0.5-0.3-0.7-0.5c-0.2-0.2-0.4-0.3-0.6-0.5c-0.5-0.4-1.1-0.9-1.6-1.3C28.5,75.3,28.4,75.2,28.2,75.1L28.2,75.1L28.2,75.1
			z M33.7,76.9c-0.2-0.1-0.4-0.3-0.6-0.4c-0.5-0.5-1.2-0.8-1.7-1.3c-0.1,0-0.1-0.1-0.2-0.1c-0.7-0.4-1.3-1-1.9-1.5
			c-0.3-0.3-0.6-0.5-0.9-0.8c0,0-0.1-0.1-0.1,0c-0.1,0-0.1,0.1-0.1,0.1c0,0.1,0,0.3,0,0.4c0,0.1,0,0.2,0.1,0.3
			c0.2,0.3,0.5,0.6,0.8,0.8c0.3,0.3,0.7,0.5,1,0.7c0.1,0.1,0.1,0.1,0.2,0.2c0.4,0.3,0.8,0.6,1.2,0.9c0.1,0.1,0.3,0.2,0.4,0.3
			c0.3,0.3,0.7,0.5,1.1,0.8c0.1,0.1,0.2,0.1,0.3,0.2c0.3,0.2,0.4,0.1,0.4-0.2C33.7,77.1,33.7,77,33.7,76.9L33.7,76.9z M28.7,66.5
			c0-0.2-0.1-0.2-0.2-0.2c-0.1,0-0.1,0-0.2,0.1c-0.3,0.1-0.6,0.3-0.9,0.4c-0.2,0.1-0.5,0.2-0.7,0.4c-0.3,0.2-0.7,0.4-1,0.5
			c-0.3,0.1-0.5,0.2-0.8,0.3c-0.2,0.1-0.4,0.2-0.6,0.3c-0.4,0.1-0.8,0.4-1.2,0.5c-0.6,0.3-1.2,0.6-1.8,0.8l-1.9,0.9
			c-0.2,0.1-0.2,0.2-0.3,0.4c0,0,0,0.1,0.1,0.1c0.2-0.1,0.3-0.1,0.5-0.2c0.5-0.2,0.9-0.3,1.4-0.5c0.9-0.4,1.8-0.8,2.7-1.2
			c0.3-0.1,0.7-0.3,1-0.5c0.6-0.3,1.3-0.7,2-1c0.3-0.1,0.5-0.2,0.7-0.4c0.2-0.1,0.4-0.3,0.6-0.3c0.2-0.1,0.3-0.2,0.5-0.3
			C28.7,66.6,28.7,66.6,28.7,66.5L28.7,66.5L28.7,66.5z M34.5,41.4c0.2-0.6,0.2-0.5,0.2-1c0-0.1,0-0.3,0-0.4
			c0.1-0.3,0.1-0.5,0.1-0.8c0-0.2,0-0.4,0-0.6c0-0.2,0-0.3,0-0.5c0-0.1-0.1-0.1-0.1-0.1h0c-0.2,0.1-0.4,0.3-0.6,0.4
			c-0.2,0.1-0.3,0.1-0.5,0.2c-0.1,0-0.2,0.1-0.2,0.1c-0.1,0.1-0.3,0.2-0.4,0.3c-0.2,0.1-0.3,0-0.5,0c-0.1,0-0.1,0.1-0.1,0.2
			c0,0.1,0,0.2,0.1,0.2c0.2,0.1,0.4,0.3,0.6,0.4c0.4,0.4,0.8,0.9,1.1,1.4c0,0.1,0,0.1,0.1,0.1c0.1,0.2,0.3,0.4,0.4,0.6
			c0,0,0.1,0,0.1,0c0,0,0,0,0-0.1C34.7,41.8,34.6,41.6,34.5,41.4L34.5,41.4L34.5,41.4z M28.7,69C28.7,69.1,28.7,69.1,28.7,69
			c0.6,0.8,1.2,1.4,1.9,2c0.2,0.2,0.4,0.3,0.6,0.5c0.2,0.1,0.3,0.3,0.5,0.4c0.1,0.1,0.2,0.2,0.3,0.3c0.4,0.3,0.7,0.5,1.1,0.8
			c0.2,0.1,0.4,0.2,0.6,0.2c0,0,0.1,0,0.1,0c0.1-0.2,0.1-0.4,0-0.5c0,0,0-0.1-0.1-0.1c-0.2-0.1-0.3-0.2-0.4-0.3
			c-0.1-0.1-0.1-0.1-0.2-0.2c-0.3-0.2-0.6-0.5-0.9-0.8c-0.5-0.4-1.1-0.9-1.6-1.3c-0.4-0.3-0.9-0.7-1.3-1.1c-0.2-0.2-0.3-0.3-0.5-0.5
			c0,0,0,0,0,0c0,0,0,0.1-0.1,0.1C28.8,68.7,28.8,68.8,28.7,69C28.7,69,28.7,69,28.7,69L28.7,69L28.7,69z M33.4,82.5
			c0-0.2,0-0.2-0.1-0.3c-0.4-0.3-0.8-0.6-1.2-0.9c-0.4-0.3-0.8-0.6-1.3-0.9c-0.3-0.2-0.5-0.3-0.8-0.5c-0.2-0.2-0.5-0.3-0.7-0.5
			c-0.5-0.4-1.1-0.8-1.6-1.2c0,0-0.1,0-0.1,0c0,0,0,0.1,0,0.2c0,0.1,0.1,0.3,0.2,0.4c0.3,0.4,0.7,0.7,1.1,1c0.3,0.3,0.7,0.5,1,0.7
			c0.9,0.7,1.8,1.4,2.7,2c0.2,0.1,0.3,0.2,0.5,0.3c0.1,0,0.1,0,0.2,0c0,0,0.1,0,0.1-0.1C33.4,82.6,33.4,82.5,33.4,82.5L33.4,82.5
			L33.4,82.5z M10.6,78.9c0,0,0,0.1,0,0.3c0,0.2,0.1,0.2,0.3,0.2c0.3,0,0.5-0.1,0.8-0.1c0.2-0.1,0.4-0.1,0.6-0.2
			c0.7-0.1,1.4-0.5,2.1-0.8c0.1-0.1,0.2-0.1,0.3-0.2c0,0,0.1-0.1,0.1-0.1c0-0.2-0.1-0.5-0.2-0.7c0,0-0.1-0.1-0.1-0.1
			c-0.1,0-0.1,0-0.2,0c-0.2,0.1-0.5,0.2-0.7,0.3c-0.6,0.2-1.2,0.4-1.8,0.6c-0.3,0.1-0.6,0.2-0.8,0.3c-0.1,0-0.1,0.1-0.2,0.1
			c-0.1,0-0.1,0.1-0.1,0.2C10.6,78.8,10.6,78.8,10.6,78.9L10.6,78.9L10.6,78.9z M33.8,75.2v-0.3c0-0.1-0.1-0.2-0.1-0.2
			c-0.2-0.1-0.3-0.2-0.5-0.3c-0.3-0.2-0.6-0.3-0.9-0.6c-0.1-0.1-0.2-0.1-0.3-0.2c-0.7-0.4-1.2-1-1.8-1.5c-0.3-0.3-0.6-0.6-0.8-0.9
			c-0.2-0.3-0.5-0.5-0.8-0.8c0,0-0.1,0-0.1,0c0,0-0.1,0.1-0.1,0.1c-0.1,0.2,0,0.3,0,0.5c0,0.2,0.1,0.3,0.2,0.4c0.3,0.3,0.6,0.7,1,1
			c0.5,0.5,1,0.9,1.6,1.3c0.1,0.1,0.2,0.2,0.4,0.3c0.4,0.4,0.9,0.7,1.3,1c0.3,0.2,0.5,0.2,0.8,0.3C33.8,75.3,33.8,75.3,33.8,75.2
			C33.8,75.2,33.8,75.2,33.8,75.2L33.8,75.2z M18.4,63.1c-0.1,0-0.2,0-0.2,0.1c-0.4,0.2-1,0.3-1.4,0.5c-0.6,0.2-1.2,0.4-1.8,0.6
			c-0.6,0.2-1.1,0.5-1.7,0.7c-0.5,0.2-0.9,0.4-1.4,0.5c-0.1,0-0.2,0.1-0.3,0.1c-0.1,0-0.1,0.1-0.1,0.2c0,0.1,0,0.1,0,0.2
			c0,0.1,0.1,0.2,0.2,0.1c0.6-0.1,1.2-0.3,1.8-0.5c0.5-0.2,1-0.4,1.5-0.6c0.3-0.1,0.5-0.2,0.8-0.3c0.4-0.2,0.9-0.4,1.3-0.6
			c0.5-0.2,0.9-0.4,1.4-0.6c0.1,0,0.2-0.1,0.3-0.1c0,0,0.1-0.1,0.1-0.1c0,0,0-0.1,0-0.1C18.7,63.1,18.5,63.1,18.4,63.1z M31.7,84.9
			c0.1,0,0.1,0,0.2,0c0,0,0.1,0,0.1,0c0,0,0,0,0,0c0,0,0,0,0-0.1c-0.3-0.2-0.6-0.4-1-0.6c-0.5-0.3-1.1-0.7-1.6-0.9
			c-0.4-0.2-0.8-0.5-1.1-0.8c-0.4-0.4-0.8-0.9-1.2-1.3c-0.1-0.1-0.1-0.1-0.2-0.2c0,0-0.1,0-0.1,0l0,0c-0.1,0.3-0.2,0.6,0.1,0.9
			c0.1,0.1,0.2,0.2,0.3,0.3c0.2,0.2,0.5,0.5,0.7,0.7c0.6,0.5,1.1,1,1.8,1.4c0.2,0.1,0.4,0.2,0.6,0.3C30.8,84.8,31.3,84.9,31.7,84.9
			L31.7,84.9L31.7,84.9z M29,66.9c0,0.1-0.1,0.2-0.1,0.3c0,0.1,0,0.3,0.1,0.3c0.1,0.1,0.2,0.2,0.3,0.3c0.5,0.5,1,1,1.6,1.4
			c0.7,0.5,1.4,1,2.1,1.3c0.2,0.1,0.4,0.2,0.7,0.3c0.1,0,0.1,0,0.2,0c0.1,0,0.1,0,0.1-0.1c0-0.2,0-0.3,0-0.6
			c-0.1-0.1-0.2-0.1-0.3-0.2c-0.6-0.4-1.2-0.8-1.8-1.1c-0.1,0-0.1-0.1-0.2-0.1c-0.2-0.2-0.4-0.3-0.6-0.4c-0.5-0.3-1-0.7-1.4-1
			c-0.1-0.1-0.2-0.2-0.3-0.3C29.2,67,29.1,66.9,29,66.9L29,66.9L29,66.9z M20,88c0.3,0,0.4,0,0.6-0.1c0.2-0.2,0.5-0.3,0.7-0.5
			c0.4-0.4,0.9-0.7,1.4-1.1c0.1-0.1,0.2-0.2,0.3-0.2c0.5-0.4,1-0.9,1.5-1.4c0.1-0.1,0.1-0.1,0.1-0.2c0.5-0.6,1-1.1,1.4-1.7
			c0,0,0.1-0.1,0.1-0.1c0.1-0.1,0.1-0.2,0.1-0.3c0,0,0-0.1,0-0.1c0,0,0,0,0,0c-0.1,0.1-0.2,0.3-0.4,0.3c-0.1,0-0.1,0.1-0.1,0.1
			c-0.6,0.6-1.2,1.2-1.8,1.7c-0.6,0.5-1.1,1.1-1.7,1.5c0,0-0.1,0.1-0.1,0.1c-0.4,0.4-0.9,0.8-1.3,1.2c-0.3,0.2-0.5,0.4-0.8,0.6
			c0,0,0,0,0,0c0,0,0,0.1,0.1,0.1C19.9,88,20,88,20,88z M11.4,66.7L11.4,66.7v0.1c0,0.1,0.1,0.2,0.1,0.2h0c0.1,0,0.2,0,0.3-0.1
			c0.5-0.2,1-0.3,1.6-0.6c0.3-0.1,0.6-0.2,0.9-0.4c0.8-0.3,1.5-0.6,2.3-1c0.1,0,0.2-0.1,0.3-0.1c0.2-0.1,0.4-0.2,0.6-0.3
			c0.1-0.1,0.2-0.1,0.2-0.1c0.4-0.1,0.8-0.3,1.1-0.6c0.1-0.1,0.2-0.1,0.3-0.1c0.2-0.1,0.5-0.2,0.7-0.3c0,0,0.1-0.1,0-0.1
			c0,0,0-0.1-0.1-0.1c-0.1,0-0.3,0-0.4,0c-0.3,0.2-0.7,0.4-1,0.5c-0.6,0.3-1.3,0.5-1.9,0.8c-0.6,0.3-1.2,0.5-1.8,0.7
			c-0.1,0-0.2,0.1-0.3,0.1c-0.7,0.3-1.4,0.6-2.1,0.8c-0.3,0.1-0.6,0.2-0.8,0.3C11.4,66.4,11.4,66.5,11.4,66.7
			C11.4,66.7,11.4,66.7,11.4,66.7L11.4,66.7z M33.8,73.8c-0.1-0.1-0.3-0.1-0.4-0.2c-0.1-0.1-0.3-0.2-0.4-0.3
			c-0.1-0.1-0.2-0.2-0.4-0.3c-0.3-0.2-0.7-0.5-1-0.8c-0.5-0.4-1-0.8-1.5-1.3c-0.2-0.1-0.3-0.3-0.5-0.5c-0.3-0.3-0.6-0.6-0.9-0.9
			c0,0,0,0-0.1,0c0,0-0.1,0-0.1,0c-0.1,0.1-0.1,0.2,0,0.3c0.1,0.2,0.2,0.4,0.4,0.6c0.2,0.2,0.5,0.5,0.7,0.7c0.3,0.4,0.7,0.8,1.1,1.2
			c0.3,0.3,0.6,0.6,0.9,0.8c0.3,0.2,0.5,0.4,0.8,0.6c0.3,0.2,0.6,0.4,0.9,0.6c0.4,0.2,0.5,0.3,0.5-0.3
			C33.8,73.9,33.8,73.8,33.8,73.8L33.8,73.8z M10.7,80c0,0.2,0.1,0.4,0.1,0.6c0,0.1,0.1,0.2,0.2,0.1h0c0.4-0.1,0.7-0.2,1-0.3
			c0.7-0.3,1.4-0.6,2.1-0.9c0.3-0.1,0.6-0.3,1-0.4c0.1,0,0.2-0.1,0.2-0.1c0,0,0-0.1,0-0.1c-0.1-0.1-0.2-0.2-0.3-0.3
			c-0.1-0.1-0.2-0.1-0.3-0.1c-0.3,0.1-0.6,0.2-0.9,0.3c-0.9,0.4-1.8,0.7-2.8,0.9c-0.1,0-0.2,0.1-0.3,0.1c-0.1,0-0.1,0.1-0.1,0.1
			C10.7,79.9,10.7,79.9,10.7,80L10.7,80z M10.1,11C10.1,11,10.2,11,10.1,11c0.1-0.1,0.1-0.2,0.2-0.2c0.1-0.1,0.1-0.3,0.1-0.4
			c0-0.1-0.1-0.2-0.1-0.3c0-0.2-0.2-0.3-0.2-0.5c0-0.2,0-0.4,0-0.6c0-0.3,0-0.5,0-0.8c0-0.7,0-1.3,0.1-2C10.3,5,10.9,3.9,11.8,3
			c0.1-0.1,0.2-0.2,0.2-0.2c0.1-0.1,0.2-0.2,0.4-0.3c0.1-0.1,0.3-0.2,0.4-0.2c0,0,0.1-0.1,0.1-0.1c0,0,0,0,0,0s0,0,0,0
			c-0.1,0-0.1,0-0.2,0c-0.3,0.1-0.6,0.3-0.8,0.5c-0.2,0.1-0.3,0.2-0.4,0.4c-0.2,0.2-0.3,0.5-0.5,0.7c-0.3,0.4-0.5,0.8-0.7,1.3
			C10,5.3,9.9,5.9,9.8,6.4C9.7,6.9,9.6,7.4,9.6,8c0,0.7,0.1,1.3,0.2,2c0,0.1,0,0.1,0,0.2C9.9,10.4,10,10.7,10.1,11L10.1,11z
			 M15.7,79.1c-0.1,0-0.1,0-0.2,0.1c-0.6,0.3-1.2,0.6-1.9,0.8c-0.1,0-0.2,0.1-0.3,0.1c-0.7,0.3-1.5,0.6-2.2,0.9
			c-0.3,0.1-0.3,0.2-0.3,0.4c0,0.1,0,0.1,0,0.2c0,0.1,0.1,0.1,0.2,0.1c0,0,0,0,0,0c0.2-0.1,0.3-0.1,0.5-0.2c0.6-0.2,1.2-0.4,1.8-0.7
			c0.5-0.2,1-0.4,1.5-0.7c0.2-0.1,0.4-0.2,0.6-0.3c0.2-0.1,0.4-0.2,0.6-0.3c0.1-0.1,0.2-0.1,0.4-0.2c0,0,0.1-0.1,0.1-0.1L15.7,79.1
			L15.7,79.1z M33.8,75.8c-0.1-0.2-0.4-0.2-0.5-0.3c-0.2-0.2-0.4-0.3-0.5-0.4c-0.2-0.1-0.5-0.3-0.7-0.5c-0.3-0.2-0.6-0.5-1-0.7
			c-0.9-0.6-1.7-1.4-2.5-2.3c0,0-0.1-0.1-0.1-0.1c0,0-0.1,0.1-0.1,0.2c0,0.3,0.1,0.6,0.3,0.8c0.1,0.1,0.3,0.3,0.4,0.4
			c0.3,0.3,0.7,0.6,1,0.9c0.3,0.2,0.5,0.4,0.7,0.6c0.4,0.3,0.7,0.6,1.1,0.8c0.3,0.2,0.6,0.4,0.8,0.6c0.2,0.1,0.3,0.3,0.5,0.4
			c0.1,0.1,0.2,0.1,0.3,0.1c0.1,0,0.1,0,0.1-0.1C33.8,76.1,33.8,76,33.8,75.8L33.8,75.8L33.8,75.8z M26.4,63.4
			C26.4,63.4,26.4,63.3,26.4,63.4c-0.1-0.1-0.2-0.1-0.2-0.1c-0.3,0-0.6,0.1-0.8,0.2c-0.4,0.2-0.8,0.4-1.2,0.5
			c-0.6,0.2-1.1,0.5-1.7,0.7c-0.3,0.1-0.6,0.3-0.8,0.4c-0.5,0.2-0.9,0.4-1.3,0.7c-0.3,0.2-0.6,0.3-0.9,0.4c-0.1,0-0.1,0.1-0.2,0.1
			c-0.1,0-0.1,0.1-0.1,0.2c0,0.1,0,0.1,0,0.2c0,0,0.1,0.1,0.1,0l0,0c0.4-0.2,0.9-0.3,1.3-0.5c0.2-0.1,0.3-0.1,0.5-0.2
			c0.9-0.5,1.9-0.9,2.9-1.3c0.4-0.2,0.9-0.4,1.3-0.7c0.2-0.1,0.3-0.2,0.5-0.2C26,63.7,26.2,63.6,26.4,63.4
			C26.4,63.4,26.4,63.4,26.4,63.4L26.4,63.4L26.4,63.4z M28.3,70.3c0-0.1,0-0.1,0-0.1c0,0,0-0.1-0.1-0.1c0,0,0,0,0,0
			c-0.3,0.2-0.7,0.4-1,0.6c-0.2,0.1-0.4,0.3-0.7,0.4c-0.5,0.3-1.1,0.6-1.6,0.9c-0.9,0.5-1.7,1-2.6,1.4c-0.2,0.1-0.5,0.2-0.7,0.3
			c-0.5,0.2-1,0.4-1.5,0.6c-0.3,0.1-0.6,0.2-0.9,0.3c-0.1,0-0.2,0.1-0.2,0.3c0,0.1,0,0.1,0.1,0.1c0,0,0,0,0,0
			c0.2-0.1,0.4-0.2,0.6-0.3c0.1-0.1,0.2-0.1,0.3-0.2c0.7-0.3,1.4-0.6,2.1-0.9c0.3-0.1,0.5-0.2,0.8-0.3c0.6-0.3,1.3-0.5,1.9-0.8
			c0.2-0.1,0.4-0.2,0.6-0.3c0.4-0.2,0.7-0.4,1.1-0.6c0.3-0.1,0.6-0.3,0.9-0.4c0.1-0.1,0.3-0.1,0.4-0.2c0.1-0.1,0.2-0.1,0.3-0.2
			c0.1,0,0.1-0.1,0.1-0.1C28.3,70.6,28.3,70.4,28.3,70.3L28.3,70.3L28.3,70.3z M31.5,85.3c-0.1-0.1-0.2-0.2-0.4-0.2
			c-0.1,0-0.2-0.1-0.3-0.1c-0.2,0-0.4-0.1-0.6-0.2c-0.4-0.2-0.8-0.5-1.2-0.8c-0.2-0.1-0.4-0.3-0.6-0.5c-0.1-0.1-0.2-0.2-0.3-0.3
			c-0.3-0.3-0.6-0.6-0.9-0.8c-0.1-0.1-0.2-0.1-0.3-0.2c-0.1-0.1-0.3-0.1-0.3,0.1c0,0.1,0,0.2-0.1,0.3c0,0.2,0,0.3,0.1,0.4
			c0.1,0.1,0.3,0.3,0.4,0.4c0.8,0.6,1.6,1.2,2.4,1.8c0.1,0.1,0.2,0.1,0.3,0.2c0.2,0.1,0.4,0.1,0.6,0.2
			C30.8,85.6,31.1,85.6,31.5,85.3L31.5,85.3z M17.6,62.9c-0.2,0-0.3-0.1-0.4-0.1c-0.3,0-0.5,0-0.8,0.1c-0.1,0-0.3,0.1-0.4,0.1
			c-0.2,0.1-0.5,0.1-0.7,0.2c-0.4,0.2-0.8,0.4-1.2,0.5c-0.8,0.3-1.6,0.7-2.3,1c-0.2,0.1-0.3,0.2-0.2,0.4c0,0,0,0.1,0.1,0.1
			c0.2,0,0.4,0,0.5-0.1c0.3-0.1,0.7-0.2,1-0.3c0.2-0.1,0.5-0.2,0.7-0.3c0.5-0.2,1-0.4,1.5-0.6c0.2-0.1,0.4-0.2,0.7-0.3
			c0.5-0.2,1-0.4,1.5-0.6C17.6,63.1,17.6,63,17.6,62.9L17.6,62.9z M29.6,65.4c0,0,0,0.1,0.1,0.1c0.3,0.3,0.5,0.5,0.9,0.7
			c0.1,0.1,0.3,0.2,0.4,0.3c0.2,0.1,0.4,0.3,0.6,0.4c0.5,0.2,0.9,0.5,1.3,0.8c0.3,0.2,0.6,0.3,0.9,0.5c0.1,0.1,0.2,0.1,0.3,0
			c0-0.2,0.1-0.5,0.1-0.7c0-0.1,0-0.1-0.1-0.2c-0.3-0.2-0.5-0.3-0.8-0.4c-0.4-0.1-0.9-0.3-1.3-0.5c-0.5-0.2-1-0.4-1.5-0.7
			c-0.1-0.1-0.3-0.1-0.5-0.2C29.8,65.4,29.7,65.4,29.6,65.4L29.6,65.4L29.6,65.4z M10.1,45.9c0.1,0,0.3,0,0.4-0.1
			c0.1,0,0.2-0.1,0.2-0.2c0-0.2-0.1-0.4-0.2-0.5c0,0-0.1,0-0.1,0c-0.1,0.2-0.3,0.2-0.5,0.1c-0.3-0.1-0.6-0.1-1-0.2
			c-0.1,0-0.2,0-0.3-0.1c-0.6-0.2-1.1-0.4-1.7-0.5c-0.1,0-0.1,0-0.2-0.1c-0.4-0.2-0.7-0.4-1.1-0.6c-0.5-0.3-0.9-0.5-1.4-0.8
			c-0.6-0.3-1.1-0.6-1.6-0.9c0,0-0.1,0-0.1,0c-0.1,0-0.1,0.1-0.1,0.1c0,0.1,0,0.1,0.1,0.2c0.3,0.3,0.7,0.5,1,0.6
			c0.9,0.5,1.8,0.8,2.6,1.3c0.3,0.1,0.6,0.2,0.9,0.3C7.4,44.9,7.7,45,8,45.1c0.4,0.2,0.9,0.4,1.4,0.5c0.2,0,0.3,0.1,0.4,0.2
			C9.9,45.9,10,45.9,10.1,45.9L10.1,45.9L10.1,45.9z M21.5,87.5C21.5,87.5,21.5,87.6,21.5,87.5c0.2,0.1,0.3,0.1,0.4,0.1
			c0.1,0,0.3,0,0.4-0.1c0.4-0.2,0.8-0.5,1.1-0.8c0.6-0.5,1.2-1.1,1.7-1.6c0.2-0.3,0.4-0.5,0.6-0.8c0.1-0.2,0.2-0.5,0.2-0.7
			c0,0,0,0,0,0c0,0,0,0-0.1,0c-0.3,0.3-0.6,0.6-0.8,0.9c-0.2,0.2-0.4,0.4-0.6,0.6c-0.1,0.1-0.2,0.2-0.3,0.3
			c-0.4,0.5-0.9,0.9-1.4,1.3C22.3,86.8,21.9,87.1,21.5,87.5L21.5,87.5L21.5,87.5z M29.6,63.1c-0.2,0-0.4,0-0.6,0
			c-0.1,0-0.1,0.1-0.1,0.1c0,0,0,0,0,0c0.1,0.1,0.1,0.2,0.2,0.3c0.4,0.4,0.8,0.7,1.3,1.1c0.1,0.1,0.2,0.1,0.3,0.2
			c0.6,0.3,1.3,0.6,1.9,0.9c0.3,0.1,0.6,0.2,0.9,0.3c0.2,0,0.5,0,0.7,0.1c0,0,0.1,0,0.1-0.1c0,0,0-0.1,0-0.1c0,0-0.1-0.1-0.1-0.1
			c-0.3-0.1-0.6-0.2-0.9-0.4c-0.1-0.1-0.3-0.1-0.4-0.2c-0.4-0.2-0.8-0.4-1.2-0.6c-0.1,0-0.1-0.1-0.2-0.1c-0.5-0.3-1-0.6-1.4-0.9
			c-0.1,0-0.1-0.1-0.2-0.1C29.8,63.4,29.7,63.2,29.6,63.1L29.6,63.1z M27.8,77.4C27.8,77.4,27.8,77.4,27.8,77.4c0,0.3,0,0.5,0.2,0.6
			c0.6,0.5,1.1,1,1.8,1.4c0.7,0.4,1.4,0.9,2.1,1.4c0.3,0.2,0.6,0.4,0.9,0.7c0.2,0.1,0.4,0.2,0.6,0.3c0.1,0,0.1,0,0.1,0l0,0
			c0-0.1,0-0.2,0.1-0.3c0-0.1,0-0.2-0.1-0.2c0,0-0.1,0-0.1-0.1c-0.7-0.4-1.3-0.8-2-1.2c-0.8-0.6-1.7-1.1-2.5-1.7
			C28.5,77.9,28.2,77.7,27.8,77.4C27.9,77.4,27.8,77.4,27.8,77.4L27.8,77.4L27.8,77.4z M28.7,65c0,0,0-0.1,0-0.1
			c-0.1-0.2-0.1-0.2-0.3-0.1c-0.8,0.4-1.5,0.8-2.2,1.2c-0.4,0.2-0.7,0.4-1.1,0.5c-0.5,0.2-1,0.5-1.5,0.7c-0.2,0.1-0.4,0.2-0.5,0.3
			c-0.5,0.2-0.9,0.4-1.4,0.6c-0.7,0.3-1.4,0.6-2.1,0.9c-0.1,0-0.2,0.1-0.3,0.1c-0.1,0.1-0.1,0.1-0.1,0.2c0,0.1,0.1,0.1,0.1,0.1
			c0.1,0,0.1,0,0.2,0c0.3-0.1,0.7-0.3,1-0.4c0.5-0.2,1-0.4,1.4-0.8c0.2-0.1,0.4-0.3,0.6-0.4c0.5-0.2,1-0.4,1.5-0.6
			c0.9-0.4,1.7-0.7,2.5-1.2c0.1,0,0.2-0.1,0.3-0.1c0.6-0.2,1.1-0.5,1.7-0.8C28.5,65.2,28.6,65.1,28.7,65L28.7,65L28.7,65z
			 M33.9,71.3c-0.3-0.2-0.6-0.3-0.9-0.5c-0.3-0.2-0.7-0.4-1-0.6c-1.1-0.7-2.1-1.4-2.9-2.3c0,0-0.1-0.1-0.1-0.1c0,0-0.1,0-0.1,0
			c0,0-0.1,0.1-0.1,0.1c0,0.1,0.1,0.1,0.1,0.1c0.1,0.3,0.3,0.5,0.6,0.7c0.1,0.1,0.1,0.1,0.2,0.2c0.3,0.3,0.6,0.6,1,0.8
			c0.8,0.6,1.5,1.1,2.2,1.8c0.3,0.2,0.5,0.4,0.8,0.6c0.1,0,0.1,0,0.2,0c0,0,0,0,0,0C33.9,71.8,33.9,71.6,33.9,71.3L33.9,71.3
			L33.9,71.3z M10.6,76L10.6,76c0,0.1,0,0.1,0,0.2c0,0.1,0.1,0.1,0.2,0.1c0.1,0,0.1,0,0.2,0c0.5-0.1,1-0.3,1.5-0.4
			c0.6-0.2,1.1-0.4,1.6-0.6c0.1,0,0.1-0.1,0.2-0.1s0.1-0.1,0.1-0.2c0-0.1,0-0.3,0-0.4c0-0.1-0.1-0.2-0.2-0.1c0,0,0,0-0.1,0
			c-0.8,0.3-1.7,0.5-2.6,0.8c-0.3,0.1-0.5,0.2-0.8,0.3c-0.1,0-0.1,0.1-0.1,0.2C10.6,75.8,10.6,75.9,10.6,76z M30.5,63.1h-0.3
			c-0.1,0-0.1,0-0.1,0.1c0,0.1,0,0.1,0,0.1c0.1,0.1,0.2,0.1,0.3,0.2c0.4,0.2,0.7,0.5,1.1,0.7c0.3,0.2,0.7,0.4,1,0.6
			c0.5,0.3,1.1,0.4,1.7,0.7c0.1,0,0.1,0,0.2,0c0,0,0.1,0,0.1-0.1c0-0.1,0-0.2,0.1-0.3c0,0,0-0.1,0-0.1c-0.2-0.1-0.5-0.2-0.7-0.3
			c-0.3-0.1-0.5-0.2-0.8-0.4c-0.2-0.1-0.4-0.3-0.6-0.4c-0.4-0.2-0.7-0.4-1.1-0.7C30.9,63,31,63.1,30.5,63.1L30.5,63.1L30.5,63.1z
			 M10.9,77.2c0.2,0,0.4,0,0.5-0.1c0.1-0.1,0.2-0.1,0.4-0.1c0.4-0.1,0.7-0.2,1.1-0.2c0.5-0.1,0.9-0.3,1.4-0.4
			c0.2-0.1,0.3-0.1,0.2-0.4c0-0.1,0-0.3-0.1-0.4c0,0-0.1-0.1-0.1-0.1c-0.1,0-0.1,0-0.2,0c-1,0.4-2,0.8-3.1,1.1
			c-0.1,0-0.2,0.1-0.4,0.2c0,0-0.1,0.1-0.1,0.1c0,0.1,0,0.2,0,0.3c0,0,0,0.1,0.1,0.1C10.8,77.2,10.8,77.2,10.9,77.2L10.9,77.2z
			 M29.1,86c0.1-0.1,0.3-0.1,0.4-0.2c0,0,0.1,0,0.1-0.1c0,0,0-0.1,0-0.1c0,0,0,0,0,0c-0.1-0.1-0.3-0.1-0.4-0.2
			c-0.3-0.2-0.6-0.5-1-0.7c-0.2-0.1-0.3-0.2-0.4-0.3c-0.3-0.3-0.6-0.5-1-0.8c-0.3-0.2-0.4-0.1-0.5,0.2c0,0.1,0,0.3,0.1,0.4
			c0.3,0.3,0.6,0.6,0.9,0.8c0.1,0.1,0.3,0.3,0.5,0.3c0.2,0.1,0.4,0.2,0.5,0.3C28.6,85.8,28.8,85.9,29.1,86L29.1,86z M14.4,72.2
			c0-0.1,0-0.2,0-0.3c0-0.1-0.1-0.2-0.3-0.1c-0.6,0.2-1.1,0.4-1.7,0.6c-0.4,0.2-0.9,0.4-1.4,0.5c-0.1,0-0.1,0-0.2,0.1
			c-0.1,0-0.1,0.1-0.1,0.2c0,0.1,0,0.2,0,0.3c0,0.1,0.1,0.1,0.1,0.1c0.2,0,0.4,0,0.5-0.1c0.5-0.2,1-0.3,1.4-0.4
			c0.4-0.1,0.9-0.3,1.3-0.4C14.3,72.5,14.4,72.4,14.4,72.2L14.4,72.2z M29.1,65.5c0,0,0,0.1,0,0.1c0.1,0.1,0.2,0.2,0.2,0.4
			c0,0.1,0.1,0.2,0.2,0.3c0.4,0.3,0.7,0.5,1.1,0.8c0.3,0.2,0.5,0.4,0.9,0.6c0.4,0.2,0.8,0.5,1.2,0.7c0.3,0.2,0.7,0.3,1,0.5
			c0.1,0,0.1,0,0.2,0c0.1,0,0.1,0,0.1-0.1c0-0.1,0-0.2-0.1-0.3s-0.2-0.1-0.3-0.2c-0.4-0.2-0.9-0.4-1.3-0.7c-0.2-0.2-0.5-0.3-0.7-0.4
			c-0.2-0.1-0.4-0.2-0.6-0.3c-0.6-0.4-1.2-0.8-1.8-1.3C29.3,65.5,29.2,65.5,29.1,65.5C29.2,65.5,29.2,65.5,29.1,65.5L29.1,65.5
			L29.1,65.5z M10.6,77.5c-0.1,0.2,0,0.3,0,0.5c0,0.1,0.1,0.2,0.2,0.1c0.2-0.1,0.5-0.1,0.7-0.2c0.6-0.2,1.1-0.3,1.7-0.5
			c0.4-0.1,0.9-0.3,1.3-0.5c0.1,0,0.1-0.1,0.1-0.2c0-0.1,0-0.1-0.1-0.2c0,0-0.1-0.1-0.1-0.1c-0.1,0-0.1,0-0.2,0.1
			c-0.4,0.1-0.8,0.3-1.2,0.4c-0.4,0.1-0.8,0.2-1.2,0.3c-0.1,0-0.2,0.1-0.4,0.1s-0.2,0.1-0.4,0.1C10.9,77.5,10.8,77.5,10.6,77.5
			L10.6,77.5z M14.3,74c0-0.2,0-0.4,0-0.6c0,0,0,0,0,0c-0.2,0-0.4,0.1-0.6,0.2c-1,0.4-2,0.8-3.1,1.1c-0.1,0.1-0.1,0.3,0,0.4
			c0,0,0,0.1,0.1,0.1c0.1,0,0.2,0,0.3-0.1c0.3-0.1,0.6-0.2,0.8-0.3c0.6-0.1,1.2-0.3,1.7-0.5C13.9,74.3,14.1,74.2,14.3,74L14.3,74z
			 M34,69.6c0-0.2,0-0.2-0.2-0.4c-0.1-0.1-0.2-0.1-0.3-0.2c-0.3-0.1-0.5-0.2-0.8-0.4c-0.2-0.1-0.4-0.2-0.5-0.3
			c-0.5-0.3-0.9-0.5-1.3-0.9c-0.5-0.4-1.1-0.7-1.6-1.2c0,0,0,0,0,0c0,0,0,0-0.1,0c0,0,0,0.1,0,0.1c0.1,0.2,0.2,0.4,0.4,0.5
			c0.4,0.4,0.9,0.7,1.3,1c0,0,0,0,0,0c0.2,0.1,0.4,0.3,0.6,0.4c0.1,0.1,0.3,0.2,0.4,0.3c0.5,0.3,1,0.6,1.5,0.9
			c0.1,0.1,0.3,0.1,0.4,0.1c0.1,0,0.1,0,0.1-0.1C34,69.6,34,69.6,34,69.6L34,69.6L34,69.6z M11,70.8v0.2c0,0.1,0.1,0.1,0.1,0.1
			c0.1,0,0.2,0,0.3,0c0.3-0.1,0.6-0.2,0.9-0.3c0.3-0.1,0.7-0.3,1-0.4c0.2-0.1,0.5-0.1,0.7-0.2c0.1,0,0.2-0.1,0.2-0.3
			c0-0.1,0-0.2,0-0.3c0-0.1-0.1-0.1-0.2-0.1h0c-0.4,0.1-0.7,0.2-1.1,0.3c-0.6,0.2-1.2,0.4-1.8,0.4c0,0,0,0-0.1,0
			c0,0-0.1,0.1-0.1,0.1C11,70.6,11,70.7,11,70.8L11,70.8z M16.9,114.5c0.3,0,0.5,0,0.7,0c0.6-0.2,1.3-0.2,1.9-0.1
			c0.2,0.1,0.5,0.1,0.7,0.2c0.2,0,0.3,0.1,0.5,0.1c0.2,0,0.2-0.1,0.2-0.2c0-0.1-0.1-0.2-0.3-0.3c-0.4-0.1-0.8-0.2-1.2-0.3
			c-0.3-0.1-0.6-0.2-0.9-0.1c-0.5,0-1,0.1-1.5,0.3L16.9,114.5L16.9,114.5z M14.3,72.8L13.7,73c-0.3,0.1-0.6,0.2-0.8,0.2
			c-0.4,0.1-0.7,0.2-1.1,0.3c-0.3,0.1-0.6,0.3-1,0.3c-0.1,0-0.1,0.1-0.1,0.1c0,0.1,0,0.1,0,0.2c0,0.2,0,0.3,0.2,0.2
			c0.2,0,0.4-0.1,0.5-0.1c0.3-0.1,0.5-0.2,0.8-0.3c0.7-0.2,1.4-0.5,2-0.8c0,0,0,0,0.1,0c0.1,0,0.1-0.1,0.1-0.2
			C14.4,72.9,14.4,72.8,14.3,72.8L14.3,72.8z M14,68.1c-0.2,0-0.3,0.1-0.5,0.1c-0.5,0.2-1,0.3-1.5,0.4c-0.2,0-0.4,0.1-0.6,0.2
			c-0.1,0-0.1,0.1-0.1,0.2c0,0.1,0,0.2,0,0.3c0,0.1,0.1,0.1,0.1,0.1c0.4,0,0.8-0.1,1.1-0.2c0.5-0.1,0.9-0.3,1.3-0.5
			c0.1,0,0.1-0.1,0.2-0.1c0,0,0.1-0.1,0.1-0.1C14.1,68.4,14.1,68.2,14,68.1L14,68.1z M16,62.7c-0.1-0.1-0.2-0.1-0.3-0.1
			c-0.1,0-0.1,0-0.2,0c-0.1,0-0.1,0-0.1,0.1c-0.2,0.2-0.4,0.3-0.7,0.3c-0.3,0.1-0.6,0.2-0.9,0.3c-0.2,0.1-0.5,0.2-0.7,0.3
			c-0.4,0.1-0.8,0.3-1.2,0.4c-0.1,0-0.1,0.1-0.1,0.1c-0.1,0.1-0.1,0.2,0,0.3c0,0,0.1,0.1,0.1,0.1c0.1,0,0.3-0.1,0.4-0.1
			c0.6-0.2,1.2-0.5,1.8-0.7c0.3-0.1,0.7-0.3,1-0.4c0.2-0.1,0.5-0.2,0.8-0.3C15.8,62.9,15.9,62.8,16,62.7L16,62.7L16,62.7z
			 M11.8,63.6l1.2-0.4c0.2-0.1,0.3-0.1,0.5-0.2c0.3-0.1,0.7-0.2,1-0.4c0.1,0,0.2-0.1,0.3-0.1c0,0,0.1-0.1,0.1-0.1c0,0,0-0.1-0.1-0.1
			c-0.4-0.2-0.8-0.2-1.2,0c-0.4,0.2-0.8,0.4-1.2,0.5c-0.2,0.1-0.4,0.2-0.6,0.4c0,0-0.1,0.1-0.1,0.1C11.7,63.5,11.8,63.6,11.8,63.6
			L11.8,63.6z M28.6,86.2c0,0,0-0.1,0-0.1c-0.3-0.2-0.5-0.4-0.9-0.6c-0.2-0.1-0.4-0.2-0.5-0.4c-0.1-0.1-0.2-0.1-0.3-0.2
			c-0.1-0.1-0.2-0.1-0.3-0.1c-0.1,0-0.1,0-0.1-0.1c-0.1-0.1-0.1-0.2-0.2-0.2c0,0-0.1,0-0.1,0c0,0,0,0,0,0c-0.1,0.1-0.1,0.3-0.1,0.4
			c0.1,0.3,0.3,0.6,0.6,0.7c0.4,0.2,0.8,0.4,1.3,0.6L28.6,86.2L28.6,86.2z M32.6,63c-0.3,0-0.5,0-0.7,0c-0.1,0-0.2,0-0.3,0.1
			c0,0,0,0,0,0.1c0,0,0,0,0,0c0,0.1,0.1,0.1,0.2,0.1c0.4,0.2,0.7,0.4,1.1,0.7c0.4,0.3,0.9,0.4,1.4,0.7c0.1,0,0.1,0,0.2,0
			c0,0,0.1,0,0.1,0c0,0,0.1-0.1,0.1-0.1c0,0,0-0.1,0-0.1c-0.1-0.1-0.1-0.1-0.2-0.1c-0.1-0.1-0.3-0.1-0.4-0.2
			C33.5,63.8,33,63.6,32.6,63L32.6,63L32.6,63z M11,71.9c0.1,0,0.1,0,0.2,0c0.3-0.1,0.5-0.1,0.8-0.2c0.2,0,0.3-0.1,0.5-0.1
			c0.5-0.2,1-0.4,1.5-0.6c0.1-0.1,0.2-0.1,0.1-0.3c0-0.1-0.1-0.2-0.2-0.2c-0.3,0.1-0.6,0.2-0.9,0.3c-0.5,0.2-1,0.4-1.5,0.5
			c-0.3,0.1-0.5,0.3-0.8,0.3c0,0,0,0,0,0c0,0,0,0.1,0,0.1C10.9,71.8,10.9,71.8,11,71.9C11,71.9,11,71.9,11,71.9L11,71.9L11,71.9z
			 M11.1,69.9V70c0,0.1,0.1,0.1,0.1,0.1h0c0.6-0.2,1.2-0.2,1.8-0.5c0.1,0,0.1,0,0.2-0.1c0.3-0.1,0.5-0.2,0.8-0.3
			c0,0,0.1-0.1,0.1-0.1c0-0.1,0-0.1,0-0.2c0-0.1-0.1-0.2-0.2-0.2c-0.2,0.1-0.4,0.2-0.6,0.2c-0.5,0.2-1,0.4-1.5,0.4
			c-0.2,0-0.4,0.1-0.5,0.1C11.1,69.7,11.1,69.7,11.1,69.9C11.1,69.9,11.1,69.9,11.1,69.9L11.1,69.9L11.1,69.9z M25.8,84.8
			c-0.2,0.2-0.3,0.3-0.5,0.4c-0.6,0.6-1.2,1.2-1.8,1.7c-0.2,0.2-0.4,0.3-0.6,0.5c0,0,0,0,0,0.1c0,0,0,0.1,0.1,0.1h0
			c0.3,0,0.6-0.1,0.8-0.3c0.4-0.4,0.8-0.7,1.2-1.1C25.4,85.8,25.6,85.3,25.8,84.8L25.8,84.8z M21.9,25.6c0.1,0.1,0.1,0.3,0.2,0.4
			c0.1,0.2,0.2,0.4,0.3,0.7c0,0.1,0.1,0.1,0.1,0.2c0,0,0.1,0,0.1,0c0,0,0,0,0,0c0-0.3,0.1-0.7,0.1-1c0-0.3,0-0.7,0-1
			c0-0.3-0.1-0.5-0.1-0.8c0,0,0,0,0-0.1c0,0,0-0.1-0.1-0.1c0,0-0.1,0-0.1,0.1c0,0.3-0.1,0.5-0.2,0.7C22.2,25.1,22.1,25.3,21.9,25.6
			L21.9,25.6z M14.6,67.2c0.4,0,0.7,0,0.9,0c0.3,0,0.6,0,0.8-0.1c0.4-0.1,0.7-0.2,1.1-0.4c0.1,0,0.2-0.1,0.3-0.1
			c0.1,0,0.1-0.1,0.1-0.2c0,0,0-0.1,0-0.1c0,0,0,0-0.1,0c-0.2,0-0.4,0-0.5,0.1c-0.4,0.1-0.9,0.1-1.3,0.3c-0.1,0.1-0.2,0.1-0.4,0.1
			C15.3,66.9,15,67,14.6,67.2L14.6,67.2L14.6,67.2z M14.3,71.3c0-0.1-0.1-0.1-0.1-0.1c0,0-0.1,0-0.1,0c-0.2,0.1-0.4,0.1-0.6,0.2
			c-0.5,0.2-1.1,0.4-1.7,0.5c-0.2,0-0.5,0.1-0.7,0.1c-0.2,0-0.3,0.1-0.3,0.3c0,0.1,0,0.2,0.1,0.2h0c0.5-0.1,0.9-0.2,1.3-0.4
			c0.2-0.1,0.4-0.2,0.6-0.3c0.4-0.1,0.8-0.3,1.2-0.4c0.1,0,0.1-0.1,0.2-0.1C14.3,71.4,14.3,71.4,14.3,71.3L14.3,71.3L14.3,71.3z
			 M14,67.6c0,0,0-0.1,0-0.2c0-0.1-0.1-0.1-0.1-0.1c-0.4,0.1-0.9,0.3-1.4,0.4c-0.3,0.1-0.7,0.3-1,0.3c-0.1,0-0.1,0-0.1,0.1
			c-0.1,0.1-0.1,0.1-0.1,0.2c0,0,0.1,0.1,0.1,0.1c0.1,0,0.2-0.1,0.3-0.1c0.4-0.1,0.8-0.1,1.2-0.3c0.3-0.1,0.5-0.1,0.7-0.2
			c0.1,0,0.2-0.1,0.3-0.1C14,67.8,14,67.8,14,67.6L14,67.6L14,67.6z M12,12.3c0.1-0.2,0.1-0.3,0.1-0.4c0-0.1,0.1-0.2,0.3-0.2
			c0.1,0,0.3,0,0.3,0.2c0,0.1,0.1,0.2,0.1,0.3c0.1,0.2,0.1,0.4,0.2,0.6c0,0.1,0.1,0.1,0.1,0.1c0,0,0,0,0,0c0,0,0.1,0,0.1-0.1
			c0-0.1,0-0.3-0.1-0.4c-0.1-0.1,0-0.3-0.1-0.4c0-0.1-0.1-0.3-0.1-0.4c0,0,0-0.1-0.1-0.1c-0.2-0.3-0.4-0.5-0.8-0.5
			c-0.1,0-0.1,0-0.2,0c-0.1,0-0.1,0.1-0.2,0.1c-0.1,0-0.1,0.1-0.1,0.2c0,0.2,0.1,0.4,0.1,0.6C11.9,12.1,12,12.2,12,12.3L12,12.3z
			 M19.8,118c0.3,0,0.5-0.1,0.8-0.2c0.1,0,0.2-0.1,0.2-0.2c0-0.1,0-0.2-0.1-0.2c-0.3-0.1-0.6-0.1-0.9-0.2c-0.2,0-0.4,0-0.6,0.1
			c-0.1,0-0.1,0.1-0.1,0.1c-0.1,0.2,0,0.5,0.3,0.5c0,0,0.1,0,0.1,0C19.6,118,19.7,118,19.8,118z M37.6,109.5
			c-0.1,0.3-0.1,0.5-0.1,0.8c0.3,0.2,0.5,0.2,0.7,0c0.1-0.1,0.3-0.3,0.4-0.5c0-0.1,0-0.1,0-0.2c0-0.2-0.2-0.4-0.4-0.3
			c-0.1,0.1-0.3,0.1-0.5,0.1C37.7,109.5,37.6,109.5,37.6,109.5L37.6,109.5L37.6,109.5z M33.1,63c0,0.1,0,0.1,0,0.2
			c0.4,0.4,0.8,0.7,1.3,0.9c0,0,0,0,0.1,0c0.1,0,0.1,0,0.1-0.1s0-0.1,0.1-0.2c0-0.1,0-0.2-0.1-0.2c-0.1-0.1-0.2-0.1-0.3-0.2
			c-0.1-0.1-0.2-0.1-0.3-0.2c-0.1-0.1-0.1-0.2-0.2-0.2C33.6,63,33.4,63,33.1,63L33.1,63L33.1,63z M11.8,62.5c0,0.1,0,0.1,0,0.2
			c0,0.1,0.1,0.2,0.2,0.2c0.1,0,0.2,0,0.3-0.1c0.4-0.1,0.8-0.4,1.2-0.6c0,0,0.1-0.1,0.1-0.1c-0.1-0.1-0.3-0.2-0.5-0.1
			c-0.3,0.1-0.6,0.2-0.8,0.3c-0.1,0.1-0.2,0.1-0.2,0.1C12,62.4,11.9,62.4,11.8,62.5L11.8,62.5L11.8,62.5z M12.5,14.5
			c-0.1,0.1-0.1,0.2-0.1,0.3c-0.1,0.3-0.1,0.6,0,0.9c0,0.1,0,0.2,0.1,0.3c0,0.1,0.1,0.2,0.2,0.2c0,0,0.1,0,0.1,0
			c0.1,0,0.2-0.1,0.2-0.2c0-0.2-0.1-0.4-0.1-0.6c0-0.1-0.1-0.2-0.1-0.3C12.7,14.8,12.6,14.6,12.5,14.5L12.5,14.5L12.5,14.5z
			 M26.1,85.7c0,0.1,0,0.1,0,0.2c0.1,0.2,0.2,0.3,0.2,0.6c0,0.1,0.1,0.1,0.1,0.1c0.1,0.1,0.2,0.1,0.4,0.1c0.2,0,0.3-0.1,0.5-0.1
			c0,0,0.1,0,0.1-0.1c0,0,0-0.1,0-0.1c-0.1-0.1-0.2-0.1-0.3-0.1c-0.3-0.1-0.7-0.2-0.9-0.5C26.2,85.7,26.2,85.7,26.1,85.7L26.1,85.7
			L26.1,85.7z M17.2,73c-0.1-0.2-0.2-0.3-0.3-0.4c-0.2-0.2-0.3-0.2-0.5-0.1c0,0-0.1,0-0.1,0.1c-0.1,0-0.1,0.1-0.1,0.2c0,0,0,0,0,0
			c0.1,0.2,0.3,0.3,0.4,0.5c0,0,0.1,0,0.1,0C16.9,73.2,17.1,73.2,17.2,73z M16.6,75.3C16.7,75.3,16.7,75.3,16.6,75.3
			c-0.1-0.2-0.3-0.4-0.5-0.6c0,0-0.1,0-0.1,0c-0.2,0-0.3,0.1-0.4,0.2c0,0,0,0.2,0,0.2c0.2,0.1,0.4,0.2,0.5,0.4
			c0.1,0.1,0.1,0.1,0.2,0C16.5,75.4,16.5,75.4,16.6,75.3C16.6,75.3,16.6,75.3,16.6,75.3L16.6,75.3L16.6,75.3z M15.7,72
			c0.1,0,0.2-0.1,0.4-0.1c0.1,0,0.1-0.1,0.1-0.2c0,0,0,0,0-0.1c-0.1-0.1-0.2-0.2-0.3-0.3c0,0-0.1,0-0.1,0c-0.1,0-0.3,0.1-0.4,0.1
			c0,0.1-0.1,0.1,0,0.2C15.4,71.7,15.5,71.9,15.7,72z M17.5,67.9c0,0,0-0.1,0-0.2c0-0.1-0.1-0.1-0.1-0.1c0,0,0,0,0,0
			c-0.2,0.3-0.5,0.5-0.8,0.7c0,0,0,0.1-0.1,0.1c0,0,0,0,0,0.1c0,0,0,0,0,0c0,0,0.1,0,0.1,0c0.3-0.1,0.6-0.2,0.9-0.4
			c0,0,0-0.1,0.1-0.1C17.5,68,17.5,68,17.5,67.9L17.5,67.9z M17.4,76c-0.1,0.1-0.2,0.1-0.3,0.2c0,0,0,0.1,0,0.1
			c0.1,0.2,0.3,0.4,0.5,0.5c0.1,0,0.2,0,0.2-0.1c0,0,0,0,0,0c0-0.1,0-0.3,0-0.4L17.4,76L17.4,76z M17.1,71.2
			c-0.1-0.1-0.2-0.3-0.3-0.3c0,0,0,0-0.1,0c-0.2,0-0.3,0.1-0.4,0.2c0,0,0,0.1,0,0.1c0.1,0.1,0.2,0.2,0.3,0.3c0,0,0.1,0,0.1,0
			C16.8,71.5,17,71.4,17.1,71.2C17.1,71.3,17.1,71.2,17.1,71.2L17.1,71.2z M18.7,117.5c0,0-0.1,0-0.1-0.1c-0.1-0.1-0.3-0.1-0.4,0
			c-0.1,0-0.1,0.1-0.1,0.2c0,0.1,0.1,0.2,0.2,0.3c0.1,0,0.3,0,0.4,0.1c0,0,0.1,0,0.1-0.1c0,0,0,0,0,0
			C18.8,117.7,18.8,117.6,18.7,117.5L18.7,117.5z M17.7,73.7c0-0.1-0.1-0.3-0.2-0.4c-0.1-0.1-0.2,0-0.3,0c-0.1,0-0.1,0.1-0.2,0.1
			c0,0-0.1,0.1,0,0.1c0.1,0.1,0.1,0.2,0.2,0.3C17.3,74,17.6,73.9,17.7,73.7C17.7,73.7,17.7,73.7,17.7,73.7L17.7,73.7L17.7,73.7z
			 M17.7,74.9c-0.2-0.2-0.3-0.3-0.4-0.5c0,0-0.1-0.1-0.1-0.1c-0.1,0-0.2,0-0.3,0.1c0,0,0,0.1,0,0.2c0.1,0.1,0.2,0.3,0.4,0.4
			c0.1,0.1,0.2,0.1,0.3,0C17.5,75,17.6,74.9,17.7,74.9L17.7,74.9L17.7,74.9z M17.4,68.5c-0.2,0.1-0.5,0.2-0.7,0.3
			c-0.1,0-0.1,0.1,0,0.2c0,0,0,0,0,0c0,0,0.1,0,0.1,0.1c0.1,0.1,0.2,0.1,0.3,0c0.1-0.1,0.3-0.1,0.4-0.2c0.1-0.1,0.1-0.2,0.1-0.2
			C17.5,68.6,17.5,68.5,17.4,68.5L17.4,68.5L17.4,68.5z M15.5,72.9c0.1,0.2,0.2,0.4,0.4,0.5c0.1,0.1,0.3,0.1,0.3,0c0,0,0-0.1,0-0.1
			c-0.1-0.2-0.3-0.4-0.5-0.6c0,0-0.1,0-0.1,0C15.6,72.8,15.6,72.8,15.5,72.9L15.5,72.9z M16.1,69.5c0.1,0,0.2-0.1,0.3-0.1
			c0.1-0.1,0.1-0.2,0-0.3C16.4,69,16.3,69,16.1,69c-0.1,0-0.2,0.1-0.4,0.1c0,0-0.1,0.1,0,0.1c0.1,0.1,0.1,0.1,0.2,0.2
			C16,69.5,16.1,69.5,16.1,69.5L16.1,69.5L16.1,69.5z M12.7,61.7c-0.1,0-0.1-0.1-0.2-0.1c-0.3,0-0.5,0.1-0.7,0.2c0,0-0.1,0.1,0,0.1
			c0,0.1,0.1,0.1,0.1,0.1c0.3-0.1,0.5-0.2,0.8-0.3C12.7,61.8,12.7,61.7,12.7,61.7z M17.1,69.8c0,0,0-0.1-0.1-0.1
			c-0.1-0.2-0.3-0.2-0.5-0.1c-0.1,0-0.2,0.1-0.2,0.1c0,0,0,0.1,0,0.1c0,0.1,0.2,0.3,0.3,0.2C16.8,70,17,70,17.1,69.8L17.1,69.8z
			 M15.2,69.3c0,0-0.1,0-0.1,0c-0.1,0-0.2,0.1-0.1,0.2c0,0,0,0,0,0.1c0.1,0.1,0.1,0.1,0.2,0.2c0,0,0.1,0,0.1,0.1
			c0.1,0,0.3,0,0.4-0.1c0,0,0,0,0,0c-0.1-0.2-0.2-0.3-0.3-0.3C15.3,69.3,15.2,69.3,15.2,69.3L15.2,69.3L15.2,69.3z M17.7,72.4
			c0-0.1-0.1-0.2-0.1-0.3c0-0.1-0.1-0.1-0.1-0.1c-0.1,0-0.2,0.1-0.3,0.1c-0.1,0-0.1,0.1-0.1,0.2c0.1,0.2,0.2,0.3,0.4,0.4
			c0,0,0.1,0,0.1-0.1C17.7,72.5,17.7,72.5,17.7,72.4L17.7,72.4z M12.5,12C12.4,12,12.4,12,12.5,12c-0.2,0.2-0.2,0.3-0.1,0.5
			c0.1,0.1,0.1,0.1,0.1,0.2c0,0.1,0,0.2,0.1,0.3c0,0,0.1,0,0.1,0c0,0,0.1,0,0.1-0.1c0,0,0-0.1,0-0.1C12.7,12.5,12.6,12.3,12.5,12
			C12.5,12,12.5,12,12.5,12L12.5,12z M12.4,14.1c0,0,0-0.1,0-0.1c0-0.3-0.2-0.7-0.2-1c0,0-0.1-0.1-0.1-0.1c0,0,0,0,0,0
			c0,0-0.1,0-0.1,0.1c0,0.1,0,0.3,0,0.4C12.2,13.6,12.3,13.8,12.4,14.1L12.4,14.1z M17.1,75.8c0-0.1-0.1-0.1-0.2-0.2
			c0,0-0.1,0-0.1,0c-0.1,0.1-0.2,0.1-0.3,0.2c0,0,0,0.1,0,0.1c0.1,0.1,0.1,0.1,0.2,0.2c0,0,0.1,0,0.1,0C16.9,76,17.1,76,17.1,75.8
			C17.1,75.8,17.1,75.8,17.1,75.8L17.1,75.8L17.1,75.8z M15.9,69.9c-0.1,0-0.2,0.1-0.3,0.1c-0.1,0-0.1,0.1,0,0.2
			c0,0.1,0.1,0.1,0.2,0.1c0.2,0,0.3-0.1,0.4-0.2C16.1,70,16,70,15.9,69.9L15.9,69.9L15.9,69.9z M27.9,41.1c0-0.1,0-0.1,0-0.2
			c0,0,0-0.1-0.1-0.1c-0.1-0.1-0.3,0-0.3,0.1c0,0.1,0,0.3-0.1,0.4c0,0.1,0.1,0.2,0.2,0.2c0,0,0.1,0,0.1,0c0.1,0,0.1-0.1,0.1-0.1
			C27.9,41.2,27.9,41.2,27.9,41.1L27.9,41.1L27.9,41.1z M16.6,74.1c0,0,0.1,0,0.1-0.1c0.1,0,0.1-0.1,0.1-0.2c0-0.1-0.1-0.1-0.2-0.2
			c0,0,0,0,0,0c-0.1-0.1-0.3,0-0.3,0.1c0,0,0,0,0,0.1C16.3,74,16.4,74.1,16.6,74.1L16.6,74.1L16.6,74.1z M15.9,70.6c0,0,0,0.1,0,0.1
			c0.1,0.1,0.1,0.2,0.3,0.1c0.1,0,0.2-0.1,0.3-0.1c0.1,0,0.1-0.1,0-0.2c-0.1-0.1-0.1-0.1-0.2-0.1C16.1,70.4,16,70.5,15.9,70.6
			L15.9,70.6z M15.6,74.5c0.1,0,0.1,0,0.2-0.1c0.1-0.1,0.1-0.1,0.1-0.2c-0.1-0.1-0.1-0.1-0.2-0.2c0,0-0.1-0.1-0.1-0.1
			c-0.1,0-0.1,0.1-0.1,0.2c0,0.1,0,0.2,0,0.3C15.6,74.5,15.6,74.5,15.6,74.5L15.6,74.5L15.6,74.5z M16,72.3C16,72.3,16,72.3,16,72.3
			c0.2,0,0.4-0.1,0.5-0.2c0,0,0-0.1,0-0.1c0,0,0-0.1-0.1-0.1c0,0,0,0-0.1,0c-0.1,0-0.3,0.1-0.4,0.1c0,0,0,0.1,0,0.1
			C15.9,72.3,15.9,72.3,16,72.3L16,72.3L16,72.3z M17,117.1c0-0.1,0-0.2-0.1-0.3c0-0.1-0.1-0.1-0.2-0.1c0,0-0.1,0.1-0.1,0.1
			c0,0.1,0.1,0.3,0.1,0.4c0,0,0,0,0.1,0c0,0,0.1,0,0.1-0.1C17,117.2,17,117.2,17,117.1L17,117.1L17,117.1z M17.2,69.4
			c0.1,0.1,0.2,0.1,0.2,0.2c0,0,0.1,0,0.1,0c0,0,0,0,0-0.1c0-0.1,0-0.3-0.1-0.4C17.4,69.1,17.2,69.2,17.2,69.4L17.2,69.4z
			 M17.4,70.1c0,0-0.1,0-0.1,0c-0.1,0.1-0.3,0.1-0.4,0.2c0,0,0,0.1,0,0.1c0,0,0,0.1,0.1,0.1c0,0,0.1,0,0.1,0c0.2,0,0.3-0.1,0.5-0.2
			c0,0,0-0.1,0-0.1C17.4,70.1,17.4,70.1,17.4,70.1L17.4,70.1L17.4,70.1z M17.5,71.7c0-0.1-0.1-0.1-0.1-0.1c-0.2,0-0.4,0.1-0.5,0.2
			c0,0,0,0.1,0,0.1c0,0,0,0.1,0.1,0.1C17.1,71.9,17.3,71.8,17.5,71.7L17.5,71.7L17.5,71.7z M34.8,63.2c0-0.1-0.1-0.2-0.2-0.2
			c-0.1,0-0.1,0-0.2,0c0,0-0.1,0-0.1,0.1c0,0,0,0,0,0.1c0.1,0.1,0.2,0.2,0.3,0.2c0,0,0.1,0,0.1,0C34.8,63.3,34.8,63.2,34.8,63.2
			L34.8,63.2L34.8,63.2z M10.6,11.7c0-0.2,0-0.4-0.1-0.5c0,0-0.1,0-0.1,0c0,0,0,0,0,0c0,0.2,0,0.4,0.1,0.5
			C10.5,11.8,10.5,11.8,10.6,11.7L10.6,11.7z M17.5,70.6c-0.1,0-0.2,0-0.3,0.1c0,0,0,0.1,0,0.1c0,0.1,0.1,0.2,0.2,0.2
			c0,0,0.1,0,0.1,0c0,0,0-0.1,0-0.1C17.6,70.8,17.6,70.7,17.5,70.6L17.5,70.6L17.5,70.6z M15.4,68.9c0,0,0.1,0.1,0.1,0.1
			c0.2-0.1,0.3-0.1,0.4-0.2c0,0,0,0,0-0.1c0,0,0,0,0,0c-0.2,0-0.4,0.1-0.5,0.1C15.4,68.8,15.4,68.8,15.4,68.9L15.4,68.9L15.4,68.9z
			 M17.9,117.8c-0.1-0.1-0.1-0.2-0.3-0.3c0,0-0.1,0-0.1,0c0,0,0,0,0,0c0,0,0,0.1,0,0.1C17.6,117.8,17.7,117.9,17.9,117.8L17.9,117.8
			L17.9,117.8z M17.9,75.4c0-0.1-0.1-0.2-0.2-0.2c-0.1,0-0.1,0.1-0.1,0.1C17.6,75.5,17.7,75.5,17.9,75.4
			C17.8,75.5,17.8,75.5,17.9,75.4C17.9,75.5,17.9,75.4,17.9,75.4L17.9,75.4L17.9,75.4z M15.5,70.9C15.5,70.9,15.4,70.9,15.5,70.9
			c-0.1-0.1-0.2-0.1-0.3-0.1c0,0-0.1,0.1,0,0.2c0.1,0.1,0.1,0.1,0.2,0C15.4,71,15.4,71,15.5,70.9C15.5,70.9,15.5,70.9,15.5,70.9
			L15.5,70.9L15.5,70.9z M12.1,61.4C12.1,61.4,12.1,61.4,12.1,61.4c-0.1-0.1-0.1-0.1-0.2-0.1c-0.1,0-0.1,0-0.1,0.1
			c0,0.1,0,0.1,0.1,0.1h0C11.9,61.4,12,61.4,12.1,61.4C12,61.4,12.1,61.4,12.1,61.4z M17.8,74.4c0-0.1,0-0.1,0-0.1
			c0-0.1-0.1-0.1-0.1-0.1c0,0,0,0-0.1,0c0,0,0,0-0.1,0.1C17.6,74.3,17.6,74.3,17.8,74.4L17.8,74.4z M25.4,86.9
			c-0.1,0-0.2,0.1-0.2,0.2c0,0,0,0.1,0,0.1c0,0,0,0,0,0c0,0,0,0,0.1,0C25.4,87.1,25.5,87.1,25.4,86.9L25.4,86.9z M20.6,67.4
			C20.6,67.4,20.5,67.4,20.6,67.4c-0.1,0-0.1,0-0.1,0c0,0-0.1,0.1-0.1,0.1C20.4,67.5,20.4,67.5,20.6,67.4
			C20.5,67.4,20.5,67.4,20.6,67.4L20.6,67.4L20.6,67.4z M23.5,8.7C23.5,8.7,23.5,8.7,23.5,8.7c0.1,0.1,0.1,0.2,0.1,0.1c0,0,0,0,0,0
			c0,0,0-0.1,0-0.1c0,0,0-0.1-0.1-0.1C23.6,8.6,23.6,8.6,23.5,8.7C23.5,8.6,23.5,8.6,23.5,8.7C23.5,8.7,23.5,8.7,23.5,8.7z M14.9,69
			C14.9,69,14.9,69.1,14.9,69l0.1,0.1c0,0,0,0,0,0C15,69,15,69,14.9,69L14.9,69C14.9,69,14.9,69,14.9,69L14.9,69z M24,17.5
			C24,17.5,24,17.5,24,17.5c-0.1-0.1-0.1-0.1-0.2-0.1c0,0-0.1,0.1,0,0.1C23.9,17.5,24,17.5,24,17.5C24,17.5,24,17.5,24,17.5z
			 M15.4,72.5c0,0,0.1,0,0.1,0c0,0,0-0.1,0-0.1c0,0-0.1,0-0.1-0.1c0,0,0,0,0,0C15.4,72.4,15.4,72.5,15.4,72.5L15.4,72.5z
			 M37.6,109.1L37.6,109.1C37.6,109,37.6,109,37.6,109.1C37.6,109,37.5,109,37.6,109.1C37.5,109.1,37.5,109.1,37.6,109.1z"/>
		<path d="M24.3,9.7c0.1,0,0.1,0.1,0.1,0.2l0,0c0,0-0.1,0-0.1-0.1C24.4,9.8,24.4,9.7,24.3,9.7L24.3,9.7L24.3,9.7z"/>
		<path d="M25.5,12c0.1,0,0.1,0,0.1,0.1c0,0.1,0,0.1,0,0.1l0,0C25.6,12.2,25.5,12.1,25.5,12L25.5,12L25.5,12z"/>
		<path d="M19.6,41.2c-0.3,0-0.5,0-0.8-0.1c-0.1,0-0.3-0.1-0.4-0.1c-0.2-0.1-0.3-0.3-0.4-0.5c0-0.1,0-0.2,0.1-0.3c0,0,0.1,0,0.1,0
			c0,0,0.1,0,0.1,0.1c0,0.1,0,0.1,0,0.2c0,0.2,0.1,0.3,0.3,0.4c0.2,0.1,0.4,0.1,0.6,0.1c0.5,0,1,0.1,1.4-0.1c0,0,0.1,0,0.1,0.1
			c0,0,0,0,0,0.1c0,0,0,0,0,0C20.3,41.1,20,41.2,19.6,41.2L19.6,41.2z"/>
		<path d="M19.9,39.8C19.9,39.8,19.9,39.9,19.9,39.8c0,0.1-0.1,0.2-0.2,0.2c-0.1,0-0.1-0.1-0.2-0.1c0-0.1-0.1-0.1,0-0.2
			c0-0.1,0.1-0.1,0.2-0.1c0.1,0,0.1,0.1,0.1,0.1C19.9,39.7,19.9,39.8,19.9,39.8L19.9,39.8z"/>
		<path d="M19.1,9.2c0.6,0,1.1,0.1,1.6,0.4c0,0,0.1,0,0.1,0.1c0,0,0,0.1,0,0.1c0,0,0,0.1-0.1,0.1c-0.1,0-0.3,0-0.4-0.1
			c-0.3-0.1-0.6-0.2-1-0.3c-0.3,0-0.5,0-0.8,0c-0.1,0-0.1,0.1-0.2,0.1c0,0-0.1,0-0.1,0c0,0-0.1,0-0.1-0.1c0,0,0-0.1,0-0.1
			c0.1-0.1,0.2-0.2,0.4-0.2C18.8,9.1,18.9,9.1,19.1,9.2L19.1,9.2z"/>
		<path d="M19.1,10.4c0.2,0,0.5,0.1,0.7,0.1c0.1,0,0.1,0,0.1,0.1c0,0,0.1,0.1,0.1,0.1c0,0.1-0.1,0.3-0.2,0.3
			c-0.2,0.1-0.4,0.2-0.6,0.1c0,0,0-0.1,0-0.1c0,0,0,0,0,0c0.1-0.1,0.1-0.1,0.2-0.1c0-0.1-0.1-0.2-0.2-0.2c-0.1,0-0.1,0-0.1-0.1
			c0,0-0.1-0.1,0-0.1C19.1,10.4,19.1,10.4,19.1,10.4L19.1,10.4L19.1,10.4z"/>
		<path d="M19.1,10.3c-0.2,0.1-0.4,0.2-0.6,0.2c-0.1,0-0.1,0-0.1-0.1c0,0,0-0.1,0-0.1c0.3-0.1,0.6-0.3,0.9-0.3c0.2,0,0.4,0,0.5,0.1
			c0.2,0.1,0.3,0.1,0.5,0.2c0,0,0,0,0,0.1c0,0-0.1,0-0.1,0c-0.1,0-0.2,0-0.3-0.1c-0.1,0-0.2-0.1-0.3-0.1
			C19.6,10.2,19.4,10.2,19.1,10.3C19.1,10.3,19.1,10.3,19.1,10.3L19.1,10.3L19.1,10.3z"/>
		<path d="M19.8,12.6c-0.1,0-0.1,0-0.2,0c-0.1,0-0.1-0.1-0.2-0.1c0,0,0-0.1,0-0.1c0,0,0,0,0,0c0,0,0.1,0,0.1,0
			c0.2,0.1,0.5,0.1,0.7,0c0.1,0,0.2-0.1,0.3-0.1c0,0,0,0,0,0c0,0,0,0,0,0c-0.1,0.1-0.3,0.2-0.4,0.3C20.1,12.6,20,12.6,19.8,12.6
			L19.8,12.6z"/>
		<path d="M21.6,18.8C21.7,18.8,21.7,18.8,21.6,18.8c0.1,0,0.2,0.1,0.3,0.1c0,0,0,0,0,0c0,0,0,0-0.1,0.1c-0.1,0-0.2,0-0.2-0.1
			C21.6,18.9,21.6,18.9,21.6,18.8C21.6,18.8,21.6,18.8,21.6,18.8z"/>
		<path d="M18.6,89.3c-0.2,0-0.3-0.1-0.4-0.2c-0.1-0.1-0.1-0.2-0.1-0.2c0-0.1,0-0.1,0-0.1c0,0,0.1,0,0.1,0c0.1,0.1,0.1,0.2,0.2,0.3
			c0.1,0.1,0.2,0.1,0.3,0.2c0,0,0,0.1,0,0.1C18.7,89.3,18.7,89.3,18.6,89.3C18.7,89.3,18.7,89.3,18.6,89.3L18.6,89.3z"/>
		<path d="M28.9,107.5c0,0,0,0.1-0.1,0.1c0,0-0.1,0-0.1,0c0,0,0-0.1-0.1-0.1c0-0.2-0.1-0.4-0.3-0.4c-0.1,0-0.1-0.1-0.2-0.2
			c0-0.1,0-0.1,0-0.1c0,0,0.1-0.1,0.1,0c0.1,0,0.2,0.1,0.2,0.1c0.1,0.2,0.2,0.4,0.3,0.5C28.9,107.5,28.9,107.5,28.9,107.5z"/>
		<path d="M27.2,88.7c0-0.2,0.1-0.4,0.2-0.6c0,0,0,0,0,0c0.1-0.1,0.2-0.1,0.2-0.1c0.1,0,0.1,0.1,0.1,0.2c0,0.1-0.1,0.1-0.1,0.1
			c-0.2,0.1-0.2,0.3-0.3,0.5c0,0,0,0-0.1,0.1C27.2,88.8,27.2,88.8,27.2,88.7C27.2,88.7,27.2,88.7,27.2,88.7L27.2,88.7z"/>
		<path d="M27.8,41.2C27.8,41.2,27.8,41.2,27.8,41.2c0,0.1,0,0.1-0.1,0.1c-0.1,0-0.1,0-0.1-0.1c0-0.1,0-0.1,0-0.2
			c0-0.1,0.1-0.1,0.1-0.1C27.7,41,27.8,41.1,27.8,41.2C27.8,41.1,27.8,41.2,27.8,41.2L27.8,41.2z"/>
	</g>
</g>
</svg>
