<?xml version="1.0" encoding="utf-8"?>
<!-- Generator: Adobe Illustrator 27.7.0, SVG Export Plug-In . SVG Version: 6.00 Build 0)  -->
<svg version="1.1" id="Capa_2" xmlns="http://www.w3.org/2000/svg" xmlns:xlink="http://www.w3.org/1999/xlink" x="0px" y="0px"
	 viewBox="0 0 120 120" style="enable-background:new 0 0 120 120;" xml:space="preserve" width="120px" height="120px">
<style type="text/css">
	.st0{fill:#FFFFFF;}
	.st1{fill:#FF0000;stroke:#FF0000;stroke-miterlimit:10;}
</style>
<g id="Capa_1-2">
	<path class="st0" d="M34.2,42.5c0.5,0.8,0.9,1.7,1.2,2.5c0.2,0.4,0.3,0.9,0.5,1.3c0.4,0.9,0.6,1.8,0.8,2.7c0.1,0.3,0.1,0.6,0.2,1
		c0,0.2,0,0.3,0.1,0.5c0.1,0.3,0.1,0.6,0.1,1c0,0.9,0,1.8,0,2.7c0,0.4,0,0.8,0,1.1s0,0.6,0.1,0.8c0,0.2,0.1,0.4,0.1,0.7
		c0,0.6,0,1.1-0.2,1.7c-0.1,0.5-0.3,1-0.5,1.6c-0.1,0.2-0.2,0.4-0.2,0.7c-0.1,0.4-0.3,0.9-0.6,1.3c-0.3-0.1-0.4,0.1-0.4,0.4
		c-0.1,0.1-0.3,0.2-0.5,0.2c-0.2,0.1-0.4,0.3-0.4,0.5c-0.1,0.3-0.1,0.6-0.2,1l0.1,0.3c0,0,0,0.1-0.1,0.1c-0.1,0.1-0.2,0.2-0.2,0.3
		c-0.1,0.6-0.2,1.2-0.3,1.8c0,0.3-0.1,0.7-0.2,1c-0.1,0.4-0.1,0.8-0.1,1.2c0,0.3,0,0.6,0,0.9c0,0.2,0,0.4,0,0.6c0,0.3,0,0.6,0,1
		c0,0.2,0,0.3-0.1,0.5c0,0.1,0,0.2,0,0.3c0,0.7,0,1.3,0,2s0,1.3-0.1,2v0.1c0.1,0.4,0,0.9,0,1.3c0,0.2,0,0.5,0,0.7s0,0.4,0,0.6
		c-0.1,0.4-0.1,0.8-0.1,1.3s0,0.9-0.1,1.4C33,82.1,33,82.5,33,82.8c-0.1,0.3-0.1,0.7-0.2,1c-0.1,0.3-0.3,0.5-0.5,0.7
		c-0.3,0.3-0.6,0.6-1,0.8c-0.3,0.1-0.5,0.3-0.7,0.4s-0.2,0.2-0.2,0.4c0.1,0.4,0.1,0.7,0.1,1.1c0,0.3,0.1,0.6,0.1,0.9
		c0,0.1,0,0.3,0,0.4c0,0.3-0.1,0.7-0.1,1c0,0.2-0.1,0.4-0.1,0.6c0,0.4-0.1,0.8-0.2,1.2c-0.1,0.2-0.1,0.5-0.1,0.7
		c-0.1,0.7-0.4,1.4-0.6,2.1c-0.1,0.4-0.3,0.8-0.4,1.1c-0.2,0.6-0.3,1.3-0.4,1.9c0,0.4,0,0.7-0.1,1.1c0,0.3,0,0.6,0,1
		c0,0.2,0,0.4,0,0.7v5.3c0,0.4,0.2,0.7,0.5,0.8c0.2,0.1,0.5,0.1,0.7,0.3c0.3,0,0.5,0.2,0.7,0.3c0.3,0.1,0.5,0.3,0.8,0.4
		c0.1,0,0.2,0.1,0.4,0.1s0.4,0,0.5,0.1c0.5,0.2,1,0.4,1.5,0.5c0.1,0,0.1,0,0.2,0c0.3,0,0.5,0,0.8,0.1c0.1,0,0.2,0.1,0.4,0.1
		c0.4,0.2,0.9,0.4,1.3,0.6c0.2,0.1,0.3,0.1,0.5,0.1c0.1,0,0.3,0,0.4,0.1c0.1,0.1,0.2,0.1,0.3,0.1c0.5,0.2,0.6,0.7,0.3,1.1
		c-0.1,0.1-0.1,0.1-0.1,0.2s-0.1,0.1-0.1,0.2c0.1,0,0.1,0.1,0.1,0.1c0,0.1,0.1,0.1,0,0.2c-0.1,0.2-0.1,0.5-0.2,0.7
		c-0.1,0.3-0.3,0.6-0.7,0.6h-0.2c-0.4,0-0.8,0-1.3,0c-0.3,0-0.5-0.1-0.7-0.2c-0.5-0.1-0.9-0.2-1.4-0.3c-0.6-0.1-1.2-0.2-1.8-0.2
		c-0.1,0-0.2,0-0.3,0c-0.5,0-1,0-1.5-0.2c-0.1,0-0.1,0-0.2,0c-0.3,0-0.6,0-0.8-0.1c-0.3-0.1-0.5-0.1-0.8-0.1c-0.2,0-0.5,0-0.7-0.1
		h-0.1c-0.6,0.1-1.1-0.2-1.7-0.2c-0.3,0-0.6-0.2-0.9-0.3c0,0-0.1,0-0.1-0.1c-0.2-0.3-0.3-0.6-0.3-1c0.1-0.3,0.1-0.5,0.1-0.8
		c0-0.4,0.1-0.8,0.2-1.2c0.1-0.5,0.2-1,0.3-1.5c0.1-0.6,0.2-1.2,0.4-1.7c0.1-0.4,0.1-0.8,0.1-1.2c0-0.8,0-1.5-0.1-2.3
		c0-0.5-0.1-0.9-0.1-1.4c0-0.3-0.1-0.5-0.1-0.8c0-0.2,0-0.4-0.1-0.6c0-0.5-0.1-1-0.1-1.4c0-0.1,0-0.2,0-0.3c0-0.4-0.1-0.8-0.1-1.2
		c-0.1-0.4-0.1-0.9-0.2-1.3c-0.1-0.7,0-1.3,0-2c0-0.1,0-0.1,0-0.2c0-0.4,0-0.8,0.1-1.2c0-0.1,0-0.3,0-0.4c0-0.7,0-1.3,0-2
		c0-0.1,0-0.2,0-0.3c-0.1,0-0.2,0-0.2,0c-0.3,0.1-0.6,0.2-0.9,0.2c-0.2,0-0.5,0.1-0.7,0.1s-0.5,0.1-0.7,0.1c-0.3,0-0.6,0.1-0.9,0.1
		c-0.1,0-0.1,0-0.2,0c0.5,0.4,0.5,0.5,0.5,0.7c0,0.4,0,0.8-0.1,1.2c-0.1,0.6-0.1,1.2-0.1,1.8c0,0.7,0,1.4,0,2.1c0,0.3,0,0.6-0.1,0.8
		c-0.1,0.5-0.2,1.1-0.2,1.6c0,0.3-0.1,0.5-0.1,0.8c0,0.4-0.1,0.8-0.1,1.2c-0.1,0.5-0.1,1.1-0.2,1.6c0,0.1,0,0.2-0.1,0.3
		c-0.1,0.4-0.1,0.8-0.2,1.2c0,0.3-0.1,0.7-0.1,1c-0.1,0.6-0.1,1.2-0.2,1.8c0,0.1,0,0.2-0.1,0.3c-0.1,0.6-0.2,1.1-0.3,1.7
		c-0.1,0.8-0.1,1.6-0.2,2.3v0.1c0.1,0.5,0,0.9,0,1.4v1.4c0,0.1,0,0.3,0,0.4c0.3,0.1,0.4,0.2,0.5,0.4c0.3,0.3,0.5,0.7,0.8,1
		c0.2,0.2,0.3,0.5,0.4,0.8c0.1,0.2,0.2,0.4,0.3,0.5s0.1,0.2,0.1,0.3c0.1,0.6,0.1,1.1-0.1,1.7c-0.1,0.3-0.2,0.5-0.3,0.8
		c-0.1,0.2-0.2,0.5-0.2,0.7s-0.1,0.4-0.2,0.6c-0.1,0.3-0.2,0.5-0.3,0.8c-0.2,0.1-0.3,0.1-0.5,0.1s-0.4,0-0.6,0.1
		c-0.2,0-0.4,0.1-0.7,0.1c-0.4,0-0.7,0.1-1.1,0.1c-0.2,0-0.3,0-0.5-0.1c-0.2,0-0.4-0.2-0.5-0.4c0-0.1-0.1-0.2-0.1-0.3
		c-0.1-0.4-0.3-0.8-0.5-1.2c-0.1-0.3-0.2-0.6-0.3-0.9c-0.1-0.6-0.1-1.3,0-1.9c0-0.1,0-0.2,0-0.3c0-0.2,0-0.5,0.1-0.7
		s0.2-0.4,0.1-0.6V113c0.2-0.4,0.4-0.9,0.8-1.2c0.1-0.1,0.2-0.2,0.1-0.3c0-0.2,0-0.4-0.1-0.6c-0.1-0.6-0.2-1.2-0.3-1.9
		c0-0.1,0-0.1,0-0.2c0.1-0.6,0.1-1.3,0.1-1.9c0-0.2,0-0.4,0.1-0.7c0.1-0.6,0.1-1.2,0.2-1.8c0-0.3,0-0.6,0-1c0-0.7,0-1.3,0-2
		c0-0.3,0-0.5,0-0.8c0-0.7-0.1-1.3-0.2-2c0-0.1-0.1-0.3-0.1-0.4c0-0.7-0.2-1.4-0.3-2.1c-0.1-0.5-0.1-1.1-0.2-1.6
		c-0.1-0.7-0.2-1.5-0.4-2.2c0-0.1,0-0.2,0-0.3c0-0.2-0.1-0.4-0.1-0.5c0.1-0.3,0.1-0.7,0.1-1s0-0.7-0.1-1v-0.1c0.1-0.3,0.1-0.5,0-0.8
		c0-0.1,0-0.2,0-0.3c-0.1-0.1-0.3-0.1-0.5-0.1c-0.6,0-1.1,0-1.7,0.1c-0.3,0-0.6,0-0.8,0c-0.3,0-0.6,0-0.8,0c-0.1,0-0.2,0.1-0.4,0.2
		c-0.2-0.1-0.3-0.3-0.4-0.4c0-0.1-0.1-0.1-0.1-0.2c0-0.2,0-0.4,0-0.6c0-0.5,0-0.9-0.1-1.4c0-0.2,0-0.4,0-0.6c0-0.4-0.1-0.7-0.1-1.1
		c0-0.5-0.1-1-0.1-1.5c0-0.2,0-0.4-0.2-0.6c0.1-0.3,0.1-0.6,0-0.9c0-0.1,0-0.1,0-0.2c0-0.4-0.1-0.7-0.1-1.1c0-0.3,0-0.7-0.1-1
		c-0.1-0.5,0-1,0-1.5s0-1,0-1.5c0-0.3,0-0.6,0-0.8c0-0.6,0-1.3,0.1-1.9c0.1-0.4,0.1-0.9,0.1-1.3c0-0.1,0-0.1,0-0.2
		c0.1-0.5,0.1-1,0.2-1.5c0-0.5,0.1-1,0.2-1.5c0-0.2,0-0.3-0.1-0.5c0.2-0.2,0.2-0.5,0.2-0.8c0-0.5,0.1-1.1,0.2-1.6c0-0.1,0-0.3,0-0.4
		c0-0.3,0.1-0.5,0.1-0.8s0-0.5,0-0.8c-0.1-0.5,0.1-1.1-0.1-1.6c0-0.1,0-0.3,0-0.4c0-0.4-0.1-0.7-0.2-1.1c-0.1-0.2-0.1-0.4-0.1-0.6
		c0-0.2,0-0.3,0-0.5c0-0.4-0.1-0.8-0.1-1.3c0-0.4-0.1-0.8-0.1-1.2c0-0.3,0-0.6,0-0.8s-0.1-0.4-0.1-0.6h-0.1c-0.4,0-0.8,0-1.3-0.1
		c-0.4,0-0.9-0.1-1.3-0.2c-0.6-0.1-1.1-0.2-1.7-0.5c-0.4-0.2-0.9-0.4-1.3-0.6c-0.1-0.1-0.3-0.1-0.4-0.2c-0.5-0.3-1-0.7-1.5-1
		c-0.4-0.2-0.7-0.4-1.1-0.7c0-0.3-0.1-0.4-0.4-0.6c-0.1,0-0.1-0.1-0.2-0.2c-0.1-0.3-0.2-0.5-0.3-0.8c0-0.2-0.1-0.5-0.1-0.7
		s0-0.4,0-0.6c0.1-0.3,0.1-0.7,0.2-1s0.1-0.6,0.2-0.9c0-0.1,0-0.2,0.1-0.2c0.3-0.5,0.3-1,0.6-1.5c0-0.4,0.3-0.7,0.4-1
		c0.2-0.6,0.2-1.2,0.1-1.7c0-0.1,0-0.2,0-0.3c-0.1-0.1-0.2-0.2-0.3-0.3s-0.1-0.3-0.1-0.5c0.1-0.3,0.2-0.7,0.1-1
		c-0.1-0.6-0.2-1.3-0.2-1.9c-0.1-0.8-0.2-1.6-0.4-2.4C1.1,36.2,1,35.6,0.9,35c0-0.1,0-0.2,0-0.3c0-0.7-0.1-1.3-0.1-2
		c0-0.6,0.1-1.1,0.2-1.7c0.1-0.5,0.2-1,0.3-1.5c0.1-0.7,0.3-1.4,0.6-2.1c0-0.1,0.1-0.2,0.1-0.3c0.1-0.4,0.4-0.7,0.7-1
		c0.2-0.2,0.3-0.3,0.5-0.5S3.6,25.1,4,25l0,0c0.4-0.5,1.1-0.7,1.6-1.2c0.1-0.1,0.2-0.2,0.3-0.2c0.2-0.2,0.5-0.4,0.7-0.6
		c0.1-0.1,0.3-0.2,0.4-0.3c0.1-0.1,0.2-0.1,0.2-0.2c0.3-0.3,0.6-0.5,1-0.8c0.1-0.1,0.1-0.1,0.2-0.1c0.2-0.1,0.3-0.2,0.4-0.4
		C8.9,21,9,20.9,9.2,20.9c0.1,0,0.1,0,0.1-0.1c0.1-0.1,0.1-0.1,0.1-0.2c0-0.3,0-0.6-0.1-0.8c-0.1-0.5-0.3-1-0.3-1.6
		c-0.1-0.6-0.2-1.2-0.1-1.8c0.1-0.6,0.2-1.3,0.2-2c0-0.1,0-0.1,0.1-0.2c0.2-0.4,0.4-0.8,0.5-1.2c0.1-0.2,0.1-0.4,0.1-0.6
		c0-0.2,0-0.3-0.2-0.5c-0.1-0.1-0.2-0.3-0.3-0.5C9.2,11,9,10.7,8.9,10.3c-0.1-0.2-0.1-0.4-0.1-0.6c-0.1-0.5-0.1-1-0.2-1.5
		c0-0.4,0-0.7,0.1-1.1C8.8,6.5,9,5.9,9.1,5.3c0.2-0.7,0.4-1.4,0.9-2c0.2-0.2,0.3-0.4,0.4-0.6c0.3-0.3,0.6-0.6,1-0.8
		c0.2-0.1,0.5-0.2,0.8-0.2c0.3,0.1,0.6,0,0.8-0.2c0.1-0.1,0.3-0.2,0.4-0.3c0.1,0,0.1-0.1,0.2-0.1c0.2,0,0.4-0.1,0.6-0.2
		c0.1,0,0.3-0.1,0.4-0.1h0.1c0.7-0.1,1.2-0.1,1.7-0.1h0.1c0.3-0.2,0.6-0.2,0.9-0.2c0.1,0,0.2,0,0.2,0c0.1,0,0.2,0,0.3,0
		c0.2,0.1,0.5,0.1,0.7,0c0.3,0,0.6,0,0.8,0.1c0.4,0.1,0.7,0.3,1.1,0.5c0.2,0.1,0.4,0.2,0.5,0.4c0.1,0.1,0.1,0.1,0.2,0.2
		c0.4,0.1,0.7,0.3,1,0.6c0.3,0.4,0.6,0.8,0.7,1.3c0.2,0.6,0.4,1.2,0.5,1.9v0.1c0.1,0.6,0.2,1.2,0.1,1.8c0,0.1,0,0.1,0,0.2
		c-0.1,0.3-0.1,0.6-0.1,0.8s0,0.3-0.1,0.5c0.3,0.3,0.4,0.8,0.6,1.2c0.2,0.6,0.5,1.2,0.9,1.7s0.6,1.1,0.9,1.7c0.1,0.1,0,0.3-0.1,0.3
		c-0.1,0.1-0.2,0.2-0.3,0.3c-0.4,0.2-0.8,0.4-1.3,0.3v0.3c0,0.1,0,0.2,0,0.3c0,0.5,0,1-0.1,1.4c-0.1,0.5-0.1,1.1,0,1.6
		c0.1,0.3,0.1,0.7,0.1,1c0,0.2,0,0.4,0,0.6s0.1,0.3,0.3,0.3c0.2,0.1,0.5,0.2,0.7,0.2c0.4,0.1,0.7,0.2,1.1,0.3c0.5,0.2,1,0.4,1.5,0.5
		c0.2,0.1,0.5,0.2,0.7,0.4c0.3,0.2,0.6,0.4,0.8,0.6c0.1,0.1,0.3,0.2,0.4,0.3c0.6,0.5,1.1,1.1,1.5,1.7c0.3,0.5,0.6,0.9,0.8,1.4
		c0.2,0.4,0.3,0.8,0.4,1.2c0,0.1,0.1,0.2,0.1,0.3s0.2,0.2,0.2,0.3c0.1,0.5,0.2,1,0.3,1.5C32.9,29,33,29.5,33,30
		c0,0.3,0.1,0.6,0.1,0.9c0.1,0.6,0.2,1.1,0.3,1.7c0,0.1,0,0.2,0.1,0.2c0.2,0.7,0.4,1.3,0.6,2c0.1,0.3,0.1,0.6,0.2,0.9l0,0
		c0,0.5,0.1,0.9,0.1,1.4s0,1,0,1.5c0,0.4,0,0.8-0.1,1.3c0,0.1,0,0.2,0,0.3c0,0.4-0.1,0.9-0.2,1.3c0,0.1,0,0.2,0,0.3
		C34.2,42.1,34.2,42.3,34.2,42.5L34.2,42.5z"/>
	<g>
		<path d="M23.2,4.8c0.1,0.2,0.2,0.4,0.2,0.6c0.1,0.5,0.1,1.1,0.1,1.6c0,0.2,0,0.3,0,0.5c0,0.3-0.1,0.6,0,0.9c0,0.1,0,0.1-0.1,0.2
			c-0.1,0.1-0.2,0.3-0.3,0.5l0.1,0.2h0.1c0.1,0,0.1-0.1,0.2-0.1c0.2,0.1,0.3,0.3,0.3,0.5l0,0l-0.2-0.1c0,0.2,0.1,0.3,0.2,0.5
			c0.1,0,0.1-0.1,0.1-0.2l0,0c0.1,0.1,0.1,0.3,0.2,0.4c0.3,0.5,0.5,1,0.9,1.5c0,0.1,0.1,0.1,0,0.2l0,0c-0.2-0.1-0.4-0.2-0.5-0.5
			c0-0.1-0.1-0.1-0.2-0.2c-0.2-0.3-0.4-0.5-0.6-0.8c-0.1-0.1-0.1-0.2-0.2-0.3c-0.2-0.4-0.4-0.7-0.6-1c-0.1-0.1-0.2-0.3-0.3-0.4
			c-0.1-0.1-0.1-0.1-0.1-0.2c0.2-0.2,0.3-0.4,0.4-0.6c0-0.1,0.1-0.2,0.1-0.3c0-0.3,0-0.6-0.1-0.9c0-0.1-0.1-0.2-0.1-0.4
			c0-0.1,0-0.1,0-0.2c0.1-0.2,0-0.5,0-0.7c-0.1-0.5-0.2-0.9-0.4-1.4c-0.1-0.3-0.2-0.6-0.3-0.9s-0.2-0.5-0.3-0.8
			c-0.2-0.4-0.6-0.7-0.9-1c0,0-0.1-0.1-0.2-0.1c-0.6,0.1-1-0.1-1.3-0.3c-0.2-0.1-0.4-0.2-0.6-0.2s-0.4,0-0.7,0
			c-0.2-0.1-0.4,0-0.6,0.1C17.3,1,17.2,1,17,1.1c-0.3,0.2-0.6,0.3-0.9,0.4c-0.3,0.1-0.6,0.2-0.9,0.4h-0.1c-0.2-0.1-0.3,0-0.4,0.1
			c-0.3,0.2-0.6,0.4-0.9,0.7C13.7,2.9,13.5,3,13.2,3c-0.1,0-0.2,0.1-0.3,0.2c-0.2,0.3-0.4,0.6-0.5,1c-0.2,0.4-0.4,0.9-0.6,1.4
			c-0.1,0.2-0.2,0.5-0.3,0.7C11.2,7.1,11,8,10.9,8.9c0,0.2-0.1,0.4-0.1,0.6c0,0,0,0.1-0.1,0.1c0-0.1,0-0.2,0-0.3
			c0-0.3,0.1-0.5,0.1-0.8c0-0.1,0-0.1,0-0.2C10.9,7.9,11,7.4,11.1,7c0-0.1,0-0.2,0.1-0.3c0-0.1,0.1-0.2,0.1-0.2
			c0.1-0.3,0.2-0.4,0.1-0.5c0-0.1,0-0.1-0.1-0.1c0.1,0,0.3,0,0.3-0.2c0.2-0.4,0.4-0.8,0.5-1.2V4.4c-0.1,0-0.1,0.2-0.3,0.2
			c0-0.1,0-0.2,0.1-0.3c0.3-0.3,0.5-0.6,0.7-0.9c0.1-0.1,0.2-0.3,0.3-0.4c0.1-0.2,0.2-0.3,0.3-0.4c0,0,0.1-0.1,0.1,0
			c0.1,0,0.1,0.1,0.2,0.1c0,0,0.1,0,0.1-0.1c0.5-0.4,1-0.8,1.5-1.2l0.1-0.1V1.2c0,0,0.1,0.1,0.1,0h-0.1c-0.2,0.1-0.4,0.1-0.6,0.1
			c-0.1,0-0.3,0.1-0.4,0.1c-0.1,0.1-0.2,0.1-0.4,0.1c-0.1,0-0.2,0.1-0.3,0.2c-0.1,0.2-0.4,0.3-0.7,0.4c-0.4,0.2-0.7,0.4-1,0.7
			c-0.1,0.1-0.2,0.2-0.3,0.3c-0.2,0.3-0.3,0.5-0.4,0.8c0,0.1,0,0.1,0,0.2l0,0h-0.2l-0.1-0.3c0,0,0,0-0.1,0c0,0-0.1,0-0.1,0.1
			C10.2,4.5,9.8,5.2,9.7,6c0,0.2-0.1,0.4-0.1,0.6c0,0.3-0.1,0.7-0.1,1c0,0.1,0,0.1,0.1,0.1s0.1,0,0.1-0.1s0-0.2,0.1-0.3
			c0-0.1,0.1-0.2,0.1-0.3c0,0,0,0,0,0.1v0.1c-0.1,0.5-0.3,1-0.3,1.5c-0.1,0.4,0,0.8,0.1,1.3c0-0.1,0.1-0.1,0.1-0.2
			c0-0.2,0.1-0.4,0.1-0.6C10,8.8,10.1,8.4,10.2,8c0.2-0.3,0.4-0.6,0.6-1C10.9,6.8,11,6.6,11,6.3c0.1-0.4,0.2-0.8,0.4-1.1
			c0.1-0.2,0.2-0.5,0.4-0.6h0.1c0,0.1,0,0.1,0,0.2c-0.2,0.3-0.4,0.6-0.5,1c0,0.1,0,0.1,0,0.2c-0.1,0-0.1,0.1-0.1,0.2l0,0
			c0,0.1,0.1,0.2,0.1,0.3c-0.1,0-0.1,0-0.1,0.1l0,0c0,0.1,0,0.1,0,0.1c-0.1,0-0.1,0-0.2,0.1l0,0c-0.2,0.5-0.4,1-0.6,1.5
			s-0.3,1.1-0.3,1.7c0,0.2,0,0.4,0,0.6l0,0l-0.1-0.1l0,0c-0.1,0.3,0,0.7,0.1,1c0,0,0,0.1,0.1,0.1c0.1,0.1,0.1,0.2,0.1,0.3
			s0,0.2,0,0.3c0.1,0.3,0.2,0.6,0.3,0.8s0.3,0.4,0.5,0.6c0,0,0,0,0.1,0l0,0c0-0.1,0-0.1,0-0.2c0-0.1,0.1-0.3,0-0.4
			c0-0.1-0.1-0.3-0.2-0.4c0-0.1-0.1-0.2-0.1-0.3c-0.1-0.2-0.1-0.5,0-0.7s0-0.4,0-0.5c-0.1-0.1-0.1-0.3-0.1-0.4v-0.1H11
			c0,0.2,0.1,0.3,0.1,0.5c0,0.1,0.1,0.2,0.2,0.1c0.1-0.1,0.3-0.1,0.4-0.1s0.1,0,0.2,0c0.3,0.1,0.6,0.3,0.7,0.6
			c0.1,0.2,0.2,0.4,0.3,0.6c0.1,0.3,0.3,0.5,0.5,0.6V13c-0.1,0-0.1,0.1-0.2,0.1c0,0.1,0.1,0.1,0.1,0.1c0.1,0.1,0.2,0.2,0.2,0.4
			c0.1,0.2,0.1,0.4,0.1,0.6c0,0.1,0,0.1,0,0.2c0,0.1-0.1,0.2-0.3,0.3C13,14.9,13,14.9,13,15.1s0.1,0.5,0.2,0.6
			c0.1,0,0.1-0.1,0.1-0.2c0-0.2,0.1-0.3,0.1-0.5c0,0,0-0.1,0.1-0.1c0,0,0.1,0,0.1,0.1s0,0.1,0,0.2c0,0.3-0.2,0.7-0.4,0.9
			c0.1,0.4,0,0.8,0.2,1.2c0,0.1,0,0.1,0,0.2s-0.1,0.2-0.1,0.2c-0.1,0.1-0.3,0.1-0.4,0.2c-0.1,0-0.2,0-0.2-0.1l0,0
			c0-0.2-0.1-0.4-0.1-0.6s0-0.4,0-0.7c0-0.1-0.1-0.2-0.2-0.2c-0.2,0.1-0.3,0-0.5-0.2c-0.1-0.2-0.2-0.4-0.3-0.6c0-0.3-0.1-0.6,0-0.9
			c0.1-0.3,0-0.5-0.1-0.8c0-0.1-0.1-0.2-0.2-0.2s-0.2-0.1-0.2-0.1c-0.3-0.2-0.5-0.4-0.6-0.8c0-0.1-0.1-0.2-0.2-0.3
			c-0.3,0.2-0.4,0.5-0.4,0.8s-0.1,0.7-0.1,1v0.1c0,0.1-0.1,0.1-0.1,0.1s-0.1,0-0.1-0.1s0-0.2,0-0.3s0-0.3,0-0.4c0,0,0-0.1-0.1-0.1
			s-0.1,0-0.1,0.1c-0.1,0.3-0.2,0.5-0.3,0.8c-0.1,0.7-0.2,1.4-0.3,2.1c0,0.1,0,0.1,0,0.2c0.1,0.3,0.1,0.7,0.1,1s0.1,0.6,0.3,0.9
			c0.1,0.1,0.2,0.2,0.3,0.3L9.6,19l0,0c-0.2,0-0.2-0.2-0.4-0.1c0,0.2,0,0.4,0.1,0.5c0.1,0.2,0.1,0.4,0.1,0.5
			c0.2,0.2,0.4,0.4,0.7,0.5l0,0l0,0c0,0,0,0-0.1,0c-0.2-0.1-0.4-0.1-0.7-0.2c0,0.1,0,0.2-0.1,0.2c0,0.1-0.1,0.3-0.1,0.4H9
			c0,0-0.1,0-0.1-0.1c-0.1,0-0.1,0-0.1,0c0,0.1,0,0.2-0.1,0.3c-0.1,0.1-0.1,0.2,0,0.3c0.1,0.2,0.2,0.3,0.4,0.4
			c0.2,0.2,0.5,0.3,0.7,0.4c0.4,0.2,0.9,0.4,1.3,0.5c0.3,0.1,0.5,0.2,0.8,0.3c0.7,0.2,1.3,0.4,2,0.6c0.3,0.1,0.7,0.2,1.1,0.3
			c0.5,0.1,1,0.3,1.5,0.5c0.4,0.2,0.9,0.3,1.3,0.3c0.2,0,0.5,0.1,0.7,0.1c0.3,0.1,0.6,0.1,0.9,0.1s0.5,0,0.8,0.1c0.1,0,0.2,0,0.3,0
			c0.2,0,0.3-0.1,0.4-0.3c0.2-0.4,0.4-0.8,0.4-1.3c0-0.1,0-0.1,0-0.2c-0.1-0.2-0.1-0.4-0.2-0.6c-0.1,0-0.2-0.1-0.2-0.1
			c-0.1,0-0.1-0.2,0-0.2c0.3-0.2,0.5-0.4,0.7-0.7v-0.1c0,0,0-0.1-0.1-0.1s-0.3,0-0.4,0c0,0-0.1,0-0.1-0.1v-0.1
			c0.1-0.1,0.2-0.1,0.3-0.1c0.3,0,0.5-0.1,0.8-0.3c0.1-0.1,0.1-0.1,0.2-0.1c0.2-0.1,0.3-0.2,0.4-0.3c0.4-0.3,0.7-0.7,0.7-1.2V19
			c0-0.1,0-0.3,0.1-0.4c0.1-0.4,0-0.8,0-1.1c0,0,0,0,0-0.1c-0.1-0.2-0.1-0.2-0.3-0.2c-0.1,0.1-0.3,0.1-0.4,0.1c-0.1,0-0.3,0-0.4,0
			c-0.2-0.1-0.5,0-0.7,0c-0.1,0-0.2,0.1-0.3,0.2c0,0.1,0,0.2,0,0.3c0,0.1-0.1,0.1-0.1,0.1l-0.1-0.1c0-0.3,0-0.5,0.3-0.6
			c0.1,0,0.1-0.1,0.2-0.1c0.3-0.2,0.6-0.3,1-0.2c0.2,0,0.3,0,0.4-0.1c0.3-0.2,0.5-0.5,0.6-0.8c0.1-0.2,0.1-0.3,0.1-0.5s0-0.4,0-0.7
			c0-0.2,0-0.4,0-0.6c0-0.1-0.1-0.2-0.2-0.1c-0.2,0.1-0.4,0.2-0.5,0.3c-0.3,0.6-0.5,0.7-0.7,0.6c-0.2,0-0.5-0.1-0.7-0.1
			c-0.1,0-0.2-0.1-0.2-0.1c-0.1-0.1-0.1-0.2-0.3-0.2c-0.3,0.1-0.5,0.4-0.6,0.7c-0.1,0.2-0.2,0.4-0.2,0.7c0,0,0,0.1-0.1,0.1
			S20.2,16,20.2,16v-0.1c0.1-0.3,0.2-0.7,0.4-1c0.1-0.1,0.2-0.3,0.3-0.3c0.2-0.1,0.3-0.3,0.3-0.5c0,0,0-0.1,0.1-0.1
			c0.2-0.2,0.4-0.4,0.6-0.6c0,0,0,0,0.1,0h0.1l0,0c-0.2,0.2-0.3,0.4-0.5,0.7c-0.1,0.1-0.1,0.2-0.1,0.3v0.1c0.1,0.1,0.2,0.2,0.3,0.3
			c0.2,0.1,0.5,0.1,0.7,0.2h0.1c0.2,0,0.4-0.1,0.6-0.3v-0.1l0,0c-0.1,0-0.2,0-0.3,0.1s-0.2,0.1-0.3,0l-0.1-0.1v-0.1
			c0.1-0.1,0.3-0.2,0.5-0.3c0.1,0,0.3,0.1,0.5,0.1s0.4,0.1,0.5,0.1s0.3,0,0.4,0c0.3-0.1,0.6-0.2,0.9-0.4c0,0,0.1,0,0.1-0.1l0.1-0.1
			c-0.1-0.4-0.1-0.8-0.6-1.1l0,0v-0.1c0.1,0,0.1-0.1,0.1-0.1l0,0c0,0,0.1,0,0.1,0.1c0.2,0.3,0.4,0.7,0.5,1c0,0.1,0.1,0.2,0.1,0.3
			c-0.1-0.1-0.1,0.1-0.3,0.1c-0.4,0.2-0.8,0.4-1.3,0.4c0,0-0.1,0-0.1,0.1s0,0.3,0,0.4c0,0.5,0,1.1-0.1,1.6c0,0.3-0.1,0.6-0.1,0.9
			c0,0.1,0,0.1,0,0.2c0.1,0.2,0.1,0.4,0.1,0.5c0.1,0.4,0.1,0.7,0.1,1.1c0,0.1,0,0.2,0,0.3c0.1,0.6-0.1,0.5,0.6,0.7
			c0.1,0,0.2,0.1,0.4,0.1c0.4,0.1,0.8,0.2,1.2,0.4c0.3,0.1,0.6,0.2,0.8,0.3c0.2,0.1,0.4,0.2,0.6,0.2c0.2,0.1,0.5,0.2,0.7,0.4
			c0.2,0.1,0.4,0.3,0.6,0.4c0.4,0.3,0.8,0.6,1.1,0.9c0.4,0.4,0.7,0.9,1.1,1.3c0.2,0.3,0.4,0.7,0.6,1c0.2,0.4,0.3,0.7,0.5,1.1
			c0,0.1,0.1,0.2,0.1,0.3c0,0.1,0.1,0.3,0.2,0.3c0.1,0.1,0.1,0.1,0.1,0.2c0.1,0.5,0.2,1,0.3,1.6c0.1,0.4,0.2,0.9,0.2,1.4
			c0.1,0.4,0.1,0.9,0.2,1.3c0.1,0.3,0.1,0.6,0.2,1c0,0.2,0.1,0.4,0.2,0.6c0.1,0.5,0.3,0.9,0.4,1.4c0.1,0.3,0.1,0.6,0.2,0.9
			c0,0.2,0.1,0.4,0.1,0.5c0.1,0.4,0,0.8,0.1,1.1c0,0.1,0,0.2,0,0.3c0,0.2-0.1,0.3-0.1,0.5s0,0.4,0.1,0.5c0,0.2,0,0.3,0,0.5
			c0,0.4,0,0.9-0.1,1.3c0,0.1,0,0.1,0,0.2c0,0.4-0.1,0.9-0.1,1.3c0,0.1,0,0.2,0,0.3s0,0.2,0,0.3s0,0.2-0.1,0.2
			c0.3,0.6,0.6,1.1,0.8,1.7c0.3,0.7,0.6,1.3,0.8,2c0.1,0.2,0.2,0.4,0.3,0.7c0.3,0.8,0.5,1.7,0.7,2.6c0,0.3,0.1,0.5,0.1,0.8
			c0,0.1,0,0.2,0,0.3c0.1,0.3,0.1,0.7,0.1,1c0,0.6,0,1.1,0,1.7c0,0.5,0,1,0,1.4c0,0.6,0,1.1,0.1,1.7c0.1,0.4,0.1,0.7,0,1.1
			c0,0.1,0,0.3,0,0.4c0,0.3-0.1,0.7-0.2,1c-0.1,0.5-0.3,1-0.5,1.5c-0.1,0.2-0.1,0.3-0.1,0.5c-0.1,0.4-0.3,0.9-0.6,1.3
			c-0.1,0.1-0.1,0.3-0.2,0.4c0,0.2-0.1,0.3-0.2,0.3c-0.1,0-0.2,0.1-0.3,0.1c-0.2,0.1-0.3,0.3-0.4,0.5c-0.1,0.3-0.1,0.6-0.2,0.9
			c0,0.1,0,0.1,0,0.2c0.1,0.1,0.1,0.2-0.1,0.3c-0.1,0.1-0.1,0.1-0.1,0.2c-0.1,0.6-0.2,1.2-0.3,1.8c0,0.1,0,0.2-0.1,0.3
			c-0.1,0.5-0.2,1-0.2,1.6c0,0.2,0,0.4-0.1,0.6c0,0.1,0,0.1,0,0.2c0.1,0.4,0,0.8,0,1.3c0,0.4,0,0.9-0.1,1.3c0,0.1,0,0.2,0,0.3
			c0,0.6,0,1.2,0,1.8c0,0.6,0,1.3,0,1.9c0,0.3,0,0.6,0,0.8c0,0.3-0.1,0.5-0.1,0.8c0,0.2,0,0.4,0,0.6c0,0.4,0,0.9-0.1,1.3
			c0,0.1,0,0.2,0,0.3c0.1,0.7,0,1.3-0.1,2C33,82.3,33,82.7,33,83s-0.1,0.6-0.2,0.9c-0.1,0.2-0.1,0.4-0.3,0.5
			c-0.2,0.2-0.3,0.4-0.5,0.6c0,0.1,0,0.1-0.1,0.1c-0.3,0.2-0.7,0.4-1,0.6c-0.1,0-0.2,0.1-0.2,0.1c-0.1,0-0.1,0.1-0.1,0.2
			s0,0.1,0,0.2c0.1,0.3,0.1,0.6,0.1,0.9c0,0.4,0.1,0.8,0.1,1.1c0,0.1,0,0.2,0,0.3c-0.1,0.3,0,0.7-0.1,1c0,0.2-0.1,0.4-0.1,0.7
			c0,0.3,0,0.6-0.1,0.9c-0.1,0.4-0.1,0.9-0.2,1.3c-0.1,0.6-0.3,1.2-0.5,1.7c-0.1,0.3-0.3,0.7-0.4,1c-0.1,0.3-0.2,0.5-0.2,0.8
			c-0.2,0.9-0.3,1.9-0.3,2.8c0,0.1,0,0.3,0,0.4c0.1,0.4,0.1,0.8,0.1,1.3c0,0.9,0,1.7,0,2.6c0,0.2,0,0.5,0,0.7c0,0.1,0,0.2,0,0.3
			c0.1,0.4,0,0.8,0,1.3c0,0.1,0,0.3,0.1,0.4s0.2,0.3,0.3,0.3s0.2,0.1,0.2,0.1c0.2,0.1,0.4,0.1,0.5,0.3l0,0c0.3,0,0.5,0.2,0.7,0.3
			c0.1,0,0.1,0.1,0.2,0.1c0.1,0,0.2,0.1,0.4,0.2s0.4,0.2,0.7,0.2c0.1,0,0.3,0,0.4,0.1c0.2,0.1,0.5,0.2,0.7,0.3
			c0.2,0.1,0.4,0.2,0.6,0.2c0.2,0.1,0.4,0.2,0.7,0.1c0.2,0,0.4,0,0.5,0.1c0.1,0,0.1,0,0.2,0.1c0.5,0.2,0.9,0.4,1.4,0.6
			c0.1,0.1,0.2,0.1,0.3,0.1s0.2,0,0.3,0.1c0.1,0,0.2,0.1,0.3,0.1s0.1,0.1,0.2,0.1h0.1c0.3,0.1,0.4,0.3,0.4,0.6v0.1v0.1
			c-0.1,0.2-0.2,0.3-0.4,0.5c0,0,0,0.1,0,0.2l0,0c0.1,0.1,0.1,0.2,0.1,0.3c-0.1,0.3-0.1,0.6-0.2,0.9c-0.1,0-0.1,0.1-0.2,0.1
			c-0.2,0.2-0.5,0.2-0.7,0.2c-0.1,0-0.3,0-0.4,0c-0.2,0-0.5,0-0.7,0c-0.1,0-0.1,0-0.2,0c-0.2-0.1-0.3-0.1-0.5-0.2
			c-0.7-0.1-1.3-0.3-2-0.3c-0.3,0-0.7-0.1-1-0.1c-0.2,0-0.4,0-0.5,0c-0.4,0-0.7,0-1-0.1c-0.5-0.1-1.1-0.1-1.6-0.2
			c-0.1,0-0.3,0-0.4,0c-0.3,0-0.7,0-1-0.1c-0.1,0-0.1,0-0.2,0s-0.1,0-0.2,0c-0.5-0.1-0.9-0.1-1.4-0.2c-0.2,0-0.3-0.1-0.5-0.2
			s-0.3-0.2-0.4-0.4c0-0.1-0.1-0.2-0.1-0.3c-0.1-0.1-0.1-0.3,0-0.4c0.1-0.3,0.1-0.7,0.1-1c0-0.4,0.1-0.8,0.2-1.2
			c0.1-0.3,0.1-0.6,0.2-0.9c0.1-0.8,0.3-1.5,0.5-2.3c0.1-0.2,0.1-0.5,0.1-0.7c0-0.8,0-1.5,0-2.3c0-0.2,0-0.4,0-0.6
			c0-0.1,0-0.3,0-0.4c0-0.5-0.1-1-0.1-1.5c0-0.1,0-0.3,0-0.4c0-0.6-0.1-1.3-0.1-1.9s-0.1-1.2-0.2-1.8c-0.1-0.5-0.1-1-0.1-1.5
			c0-0.1,0-0.2,0-0.3c0-0.4,0-0.8,0.1-1.3c0-0.3,0.1-0.7,0.1-1c0-0.2,0.1-0.4,0-0.6c0-0.2,0-0.4,0-0.7c0-0.4,0-0.8,0-1.2
			c0-0.1,0-0.1,0-0.2l-0.1-0.1c-0.1,0-0.1,0-0.2,0c-0.3,0.1-0.7,0.2-1,0.2c-0.1,0-0.1,0-0.2,0c-0.4,0-0.7,0.1-1,0.1
			c-0.3,0-0.7,0-1,0c-0.1,0-0.2,0.1-0.2,0.2l0,0c0.1,0.6-0.1,1.2-0.1,1.8c0,0.6,0,1.1,0,1.7c0,0.4,0,0.8-0.1,1.3c0,0.1,0,0.2,0,0.3
			c0,0.4-0.1,0.7-0.1,1.1c-0.1,0.8-0.2,1.6-0.3,2.4c-0.1,0.7-0.2,1.4-0.3,2.1c-0.1,0.6-0.2,1.2-0.3,1.8s-0.1,1.2-0.2,1.8
			c-0.1,0.5-0.1,1.1-0.2,1.6c-0.1,0.7-0.2,1.3-0.3,2c0,0.1,0,0.3,0,0.4c0,0.4-0.1,0.8-0.1,1.2c0,0.3-0.1,0.7,0,1c0,0.1,0,0.2,0,0.3
			c-0.1,0.8,0,1.5-0.1,2.3c0,0.1,0,0.1,0,0.2s0,0.1,0.1,0.1c0.2,0.1,0.3,0.2,0.4,0.4c0.2,0.4,0.6,0.7,0.8,1.1
			c0.1,0.1,0.2,0.2,0.3,0.4c0,0.1,0.1,0.3,0.1,0.4c0,0.2,0.1,0.3,0.3,0.5c0.1,0.1,0.2,0.2,0.2,0.3c0,0.4,0,0.7,0,1
			c0,0.2-0.1,0.4-0.1,0.5c0,0.2-0.1,0.5-0.3,0.7c-0.1,0.1-0.1,0.3-0.2,0.4c0,0.1-0.1,0.2-0.1,0.3c-0.1,0.6-0.3,1.1-0.5,1.5
			c-0.1,0-0.2,0.1-0.3,0.1c-0.4,0-0.7,0.1-1.1,0.1c-0.4,0.1-0.8,0.1-1.3,0.1c-0.2,0-0.4,0-0.7-0.1c-0.2-0.1-0.4-0.2-0.5-0.5
			c0-0.1-0.1-0.2-0.1-0.3c-0.1-0.4-0.3-0.7-0.4-1.1c-0.2-0.3-0.3-0.7-0.3-1.1c-0.1-0.6,0-1.2,0-1.8c0-0.1,0-0.1,0-0.2
			c0-0.2,0-0.5,0.1-0.7s0.1-0.4,0.1-0.6v-0.1c0.2-0.2,0.2-0.5,0.4-0.7c0.2-0.2,0.3-0.4,0.5-0.6c0-0.2,0-0.5,0-0.7
			c0-0.1,0-0.1-0.1-0.2c0-0.4-0.1-0.8-0.2-1.3c0-0.3,0-0.7,0-1s0-0.6,0-0.9V107c0-0.4,0-0.8,0.1-1.3c0-0.1,0-0.2,0-0.3
			c0-0.3,0-0.5,0.1-0.8c0.1-0.5,0.1-1.1,0-1.6c0-0.1,0-0.1,0-0.2c0.1-0.9,0-1.7,0.1-2.6c0-0.6-0.1-1.1-0.2-1.6
			c0-0.2-0.1-0.3-0.1-0.5c-0.1-0.5-0.1-1.1-0.3-1.6c-0.1,0-0.1-0.2-0.2-0.5c-0.1-0.4-0.1-0.9-0.2-1.3c-0.1-0.7-0.2-1.4-0.4-2.1
			c0-0.2-0.1-0.3-0.1-0.5s-0.1-0.5-0.1-0.7c-0.1-0.3-0.1-0.5-0.1-0.8c0-0.4,0-0.8-0.1-1.2c0-0.1,0-0.1,0-0.2c0.1-0.4,0-0.7,0-1.1
			c-0.1,0-0.1,0-0.2-0.1c-0.2,0-0.4,0-0.6,0c-0.3,0-0.6,0-0.8,0c-0.7,0.1-1.4,0-2.1,0c-0.1,0-0.3,0-0.4,0s-0.2,0-0.3,0
			c-0.1-0.1-0.2-0.2-0.2-0.4c0-0.1,0-0.3,0-0.4c0-0.4,0-0.8,0-1.3c0-0.1,0-0.1,0-0.2c-0.1-0.6-0.1-1.1-0.2-1.7
			c0-0.4-0.1-0.8-0.1-1.2c0-0.2,0-0.4,0-0.6c0-0.1,0-0.3-0.1-0.4s-0.1-0.1,0-0.2c0.1-0.2,0-0.4,0-0.5c-0.1-0.2-0.1-0.5-0.1-0.8
			c-0.1-0.4-0.1-0.8-0.1-1.1c0-0.4-0.1-0.8-0.1-1.3s0-1,0-1.5s0-0.9,0.1-1.4c0-0.1,0-0.1,0-0.2c0-0.9,0.1-1.8,0.2-2.7
			c0-0.3,0.1-0.7,0.2-1c0-0.1,0-0.2,0-0.3c0-0.4,0-0.8,0.1-1.2c0-0.1,0-0.3,0-0.4c0-0.3,0.1-0.5,0.1-0.8c0-0.1,0-0.2,0-0.3
			c0,0,0-0.1,0-0.2c0.1-0.2,0.1-0.3,0.1-0.5c0-0.4,0.1-0.8,0.1-1.2c0-0.4,0.1-0.9,0.1-1.3c0-0.3,0.1-0.7,0-1c0-0.1,0-0.1,0-0.2
			c0-0.1,0-0.2,0-0.3s0-0.1,0-0.2c0.1-0.2,0-0.4,0-0.6c0-0.5-0.1-1-0.1-1.4c0-0.2-0.1-0.4-0.2-0.6c-0.1-0.2-0.1-0.4-0.1-0.5
			c0-0.2,0-0.3,0-0.5c0-0.1,0-0.3-0.1-0.4c0-0.5-0.1-1.1-0.1-1.6c0-0.4-0.1-0.9-0.1-1.3c0-0.2-0.1-0.4-0.1-0.6c-0.1,0-0.1,0-0.2-0.1
			c-0.2,0-0.4,0-0.6,0c-0.6,0-1.3-0.1-1.9-0.2c-0.5-0.1-1.1-0.3-1.6-0.5c-0.4-0.2-0.8-0.3-1.2-0.5C4.4,54.2,4.2,54.1,4,54
			c-0.8-0.5-1.5-1.1-2.4-1.5c-0.1-0.1-0.2-0.2-0.2-0.3s0-0.2-0.1-0.2l-0.1-0.1c-0.4-0.2-0.5-0.6-0.6-1c0-0.1-0.1-0.3-0.1-0.4
			c-0.1-0.3-0.1-0.5-0.1-0.8c0.1-0.3,0.1-0.6,0.2-1c0-0.2,0.1-0.4,0.2-0.6c0.1-0.4,0.2-0.8,0.3-1.2c0-0.1,0.1-0.2,0.1-0.3
			c0.1-0.2,0.1-0.4,0.2-0.6c0-0.1,0.1-0.2,0.1-0.3s0.1-0.2,0.1-0.4c0.3-0.5,0.4-1,0.3-1.6c0-0.3,0-0.6,0-0.9
			c-0.1-0.1-0.2-0.2-0.3-0.4c-0.1-0.1-0.1-0.2,0-0.4c0.1-0.1,0-0.3,0.1-0.5c0-0.1,0-0.2,0-0.3s0-0.2,0-0.3c-0.1-0.7-0.2-1.5-0.2-2.2
			c0-0.1,0-0.2,0-0.3c-0.1-0.5-0.2-1-0.2-1.5c0-0.3-0.1-0.5-0.2-0.8C1.1,36,1,35.8,1,35.7c-0.1-0.4-0.1-0.8-0.2-1.3
			c-0.1-0.6-0.1-1.2-0.1-1.8s0-1.2,0.2-1.8c0-0.1,0-0.2,0-0.3c0.1-0.7,0.2-1.3,0.4-1.9c0.2-0.7,0.4-1.3,0.7-2c0-0.1,0.1-0.1,0.1-0.2
			c0.1-0.1,0.2-0.3,0.4-0.4c0.2-0.2,0.3-0.3,0.5-0.5c0.1-0.2,0.3-0.4,0.6-0.5c0.2-0.1,0.3-0.2,0.4-0.3c0.1-0.1,0.3-0.3,0.5-0.4
			C4.8,24.2,5,24,5.2,23.8c0.2-0.2,0.4-0.3,0.6-0.4c0.1,0,0.2-0.1,0.3-0.2c0.4-0.4,0.9-0.7,1.3-1.1c0.2,0,0.3-0.1,0.3-0.1
			c0.3-0.1,0.4-0.4,0.7-0.5c0.1-0.1,0.2-0.2,0.3-0.3c0.1-0.2,0.2-0.3,0.4-0.3c0.1,0,0.1-0.1,0.1-0.1c0.1-0.1,0.1-0.1,0.1-0.2
			c0-0.3,0-0.6-0.1-0.9c-0.1-0.4-0.2-0.8-0.3-1.2c0-0.2-0.1-0.4-0.1-0.7c0-0.2,0-0.4-0.1-0.6c0-0.2-0.1-0.4,0-0.6
			c0.1-0.7,0.1-1.4,0.2-2c0-0.2,0.1-0.3,0.1-0.5c0.2-0.4,0.3-0.8,0.5-1.2c0.1-0.3,0.1-0.5,0.1-0.8c-0.1-0.1-0.1-0.2-0.2-0.2
			c-0.1-0.1-0.1-0.2-0.2-0.3c-0.1-0.4-0.3-0.8-0.4-1.2C9,10.1,9,10,8.9,9.8c0-0.5-0.1-1.1-0.1-1.6c0-0.4,0-0.8,0.1-1.2
			C9,6.4,9.2,5.8,9.3,5.2c0.1-0.3,0.1-0.6,0.2-0.8c0.1-0.3,0.2-0.6,0.4-0.8c0.3-0.4,0.6-0.7,0.9-1.1c0.2-0.3,0.5-0.4,0.8-0.6
			c0.2-0.1,0.4-0.1,0.5-0.1s0.1,0,0.2,0c0.2,0,0.5,0,0.7-0.2c0.1-0.1,0.3-0.1,0.4-0.2s0.3-0.1,0.4-0.1s0.2,0,0.3-0.1
			C14.4,1.1,14.7,1,15,0.9c0,0,0,0,0.1,0c0.3-0.1,0.6-0.2,1-0.2c0.3,0,0.5-0.1,0.7-0.2c0.1,0,0.2-0.1,0.3-0.1c0.2,0,0.4,0.1,0.7,0
			h0.1c0.2,0.1,0.4,0.1,0.6,0c0.1,0,0.2,0,0.3,0c0.2,0,0.5,0,0.7,0.1c0.3,0.2,0.7,0.3,1.1,0.5c0.2,0.1,0.4,0.2,0.5,0.4
			c0.1,0.1,0.2,0.1,0.3,0.2c0.4,0.1,0.7,0.3,0.9,0.6c0.3,0.3,0.5,0.7,0.6,1s0.3,0.8,0.4,1.1C23.2,4.5,23.3,4.6,23.2,4.8
			c0-0.1-0.1-0.1-0.1-0.2c-0.1-0.2-0.2-0.5-0.2-0.7c-0.2-0.5-0.3-1-0.6-1.4C22.2,2.3,22,2.2,21.8,2h-0.1l0,0c0,0.1,0.1,0.2,0.1,0.2
			c0.2,0.3,0.3,0.6,0.4,0.9c0.1,0.3,0.2,0.6,0.3,0.9c0.2,0.4,0.3,0.8,0.4,1.2c0,0.3,0.1,0.5,0.2,0.8c0.1,0.2,0.1,0.4,0.1,0.6
			c0,0.3,0,0.6,0.1,0.9c0,0,0,0.1,0.1,0.1l0,0c0-0.1,0-0.2,0-0.3c0-0.4,0-0.8,0-1.3c-0.1-0.3-0.1-0.6-0.2-1
			C23.2,5,23.1,4.9,23.2,4.8L23.2,4.8z M26.3,79C26.2,79,26.2,79,26.3,79c-0.2,0.1-0.2,0.1-0.3,0.1c-0.2,0.2-0.5,0.3-0.7,0.5
			c-0.5,0.3-1,0.6-1.5,1c-0.3,0.2-0.6,0.4-0.9,0.6c-0.4,0.3-0.9,0.5-1.3,0.8c-0.2,0.1-0.4,0.3-0.6,0.4s-0.3,0.2-0.5,0.3
			c-0.3,0.2-0.6,0.4-0.9,0.7c-0.3,0.2-0.5,0.4-0.8,0.5c-0.1,0-0.2,0.1-0.2,0.1c-0.5,0.3-0.9,0.7-1.4,1c-0.5,0.4-1,0.7-1.6,1
			c-0.5,0.3-1,0.6-1.5,0.9c-0.4,0.3-0.9,0.6-1.3,0.8c0,0,0,0,0,0.1l0.1,0.1c0.3,0.1,0.6,0,0.8,0s0.4-0.1,0.6-0.2
			c0.3-0.1,0.5-0.3,0.8-0.3c0.1,0,0.2-0.1,0.3-0.1c0.5-0.3,1-0.6,1.5-0.9c0.3-0.1,0.5-0.3,0.7-0.5c0.3-0.2,0.6-0.4,0.9-0.6
			s0.7-0.5,1-0.7c0.9-0.7,1.7-1.4,2.6-2.1c0.1-0.1,0.2-0.1,0.3-0.2c0.2-0.2,0.4-0.4,0.7-0.6c0.8-0.6,1.6-1.2,2.4-1.9
			c0.2-0.2,0.4-0.3,0.6-0.5c0-0.1,0.1-0.1,0.1-0.2C26.2,79,26.3,79,26.3,79L26.3,79L26.3,79C26.5,78.9,26.5,78.9,26.3,79L26.3,79
			C26.3,78.8,26.3,78.9,26.3,79L26.3,79L26.3,79z M16.9,78.8L16.9,78.8L16.9,78.8c0-0.1,0-0.2,0.1-0.2c0.1,0.1,0.2,0.1,0.3,0
			c0.3-0.2,0.6-0.3,1-0.5s0.9-0.4,1.3-0.7c0.6-0.4,1.3-0.6,1.9-1.1c0.5-0.3,1.1-0.5,1.6-0.8c0.4-0.2,0.8-0.4,1.2-0.6
			c0.1-0.1,0.2-0.1,0.4-0.2c0.3-0.1,0.6-0.3,1-0.4c0.2-0.1,0.5-0.2,0.7-0.3c0.2-0.1,0.3-0.1,0.5-0.2s0.3-0.1,0.5-0.3
			c0-0.2,0-0.4,0.1-0.6C27.4,73,27.4,73,27.3,73l0,0c-0.1,0-0.1,0-0.2,0.1c-0.6,0.2-1.2,0.6-1.8,0.9s-1.2,0.7-1.8,1
			s-1.1,0.6-1.6,0.9c-0.8,0.4-1.6,0.8-2.3,1.2c-0.3,0.2-0.6,0.3-1,0.5c-0.2,0.1-0.5,0.2-0.7,0.3c-0.1,0.1-0.2,0.2-0.3,0.3
			c-0.1,0.2-0.3,0.3-0.4,0.5c0,0,0,0-0.1,0C17,78.7,16.9,78.8,16.9,78.8L16.9,78.8L16.9,78.8z M10.1,22.9
			C10.1,22.8,10.1,22.8,10.1,22.9L10.1,22.9l0.3,0.1c0.1,0.1,0.1,0.2,0.3,0.2c0.3,0.1,0.5,0.2,0.8,0.3c0.7,0.3,1.3,0.6,2,0.8
			c0.2,0.1,0.4,0.1,0.6,0.2s0.5,0.1,0.7,0.2c0.3,0.1,0.7,0.3,1,0.3c0.1,0,0.2,0,0.3,0.1c0.6,0.2,1.2,0.3,1.8,0.5
			c0.4,0.1,0.9,0.2,1.3,0.3c0.1,0,0.1,0,0.2,0.1c0.6,0.3,1.2,0.4,1.8,0.7c0.2,0.1,0.4,0.2,0.5,0.3h0.1v-0.1c0-0.2-0.1-0.4-0.2-0.5
			c-0.1-0.2-0.2-0.3-0.3-0.5c0-0.1-0.1-0.2-0.1-0.2c-0.2,0-0.4-0.1-0.6-0.1s-0.3,0-0.5-0.1c-0.3,0-0.6-0.1-0.9-0.1
			c-0.3-0.1-0.7-0.2-1-0.2s-0.7-0.1-1-0.3c-0.2-0.1-0.4-0.2-0.7-0.3c-0.2-0.1-0.5-0.1-0.7-0.2c-0.6-0.2-1.1-0.3-1.7-0.5
			s-1.1-0.3-1.7-0.5c-0.3-0.1-0.7-0.2-1-0.3c-0.2-0.1-0.4-0.2-0.6-0.2c-0.1,0-0.1,0-0.2,0c0-0.1,0-0.1-0.1-0.1
			C10.2,22.9,10.2,22.9,10.1,22.9L10.1,22.9z M25.2,78.7c0,0.1-0.1,0.1-0.2,0.1s-0.1,0-0.1,0c-0.1,0-0.1,0-0.2,0.1l0,0
			c-0.1,0-0.1,0-0.2,0c-0.2,0.1-0.4,0.2-0.7,0.3c-0.4,0.2-0.8,0.4-1.3,0.6c-0.1,0-0.2,0.1-0.3,0.1c-0.5,0.2-0.9,0.5-1.4,0.7
			c-0.4,0.2-0.8,0.4-1.2,0.7c-0.2,0.1-0.4,0.2-0.6,0.3c-0.4,0.2-0.8,0.5-1.2,0.6c-0.4,0.3-0.9,0.4-1.3,0.6c-0.3,0.1-0.5,0.2-0.8,0.4
			c-0.1,0-0.2,0.1-0.3,0.1c-0.5,0.2-1,0.4-1.5,0.7c-0.3,0.2-0.6,0.3-1,0.4c-0.2,0-0.4,0.1-0.5,0.2c-0.5,0.2-1,0.5-1.6,0.7
			c-0.1,0-0.2,0.1-0.2,0.1c0,0.1,0,0.1,0,0.2c0.1,0.3,0.1,0.5,0.1,0.8c0,0.1,0.1,0.1,0.1,0.1s0,0,0.1,0c0.4-0.2,0.8-0.4,1.1-0.5
			c0.1,0,0.1,0,0.2-0.1c0.6-0.3,1.2-0.6,1.7-0.8c0.6-0.3,1.1-0.6,1.7-0.9c0.4-0.2,0.8-0.3,1.1-0.5c0.2-0.1,0.4-0.2,0.6-0.3
			c0.5-0.3,1-0.6,1.5-0.8c0.7-0.4,1.4-0.8,2.1-1.2c0.8-0.4,1.5-0.9,2.2-1.3c0.1-0.1,0.2-0.1,0.3-0.2c0.3-0.2,0.6-0.4,0.9-0.6
			c0.1,0,0.1-0.1,0.2-0.1c0,0,0,0,0-0.1l0.3-0.1C25.1,78.7,25.2,78.6,25.2,78.7C25.2,78.6,25.2,78.6,25.2,78.7L25.2,78.7L25.2,78.7z
			 M25.7,78.3l0.3-0.1l0,0l0,0C25.9,78.2,25.8,78.2,25.7,78.3L25.7,78.3L25.7,78.3L25.7,78.3z M20,1.1L20,1.1L20,1.1
			C19.9,1.1,19.9,1.1,20,1.1C19.9,1.1,19.9,1,20,1.1C20,1,20,1.1,20,1.1z M25.2,73.5c0.1,0,0.1,0,0.2,0s0.1,0,0.1-0.1l0,0
			c0.1,0,0.1,0,0.2,0c0.1,0,0.2-0.1,0.3-0.2c0.2-0.1,0.5-0.2,0.7-0.3c0.3-0.1,0.5-0.3,0.7-0.4c0.1,0,0.1-0.1,0-0.2
			c0,0-0.1-0.1-0.1,0c-0.1,0.1-0.3,0.2-0.4,0.2c-0.5,0.3-0.9,0.6-1.4,0.9C25.4,73.4,25.3,73.5,25.2,73.5
			C25.3,73.5,25.3,73.5,25.2,73.5L25.2,73.5L25.2,73.5z M25,73.8L25,73.8c-0.2,0-0.2,0-0.3,0l0,0c-0.1,0-0.2,0-0.2,0.1
			c-0.1,0-0.1,0-0.2,0c-0.2,0.1-0.4,0.2-0.6,0.3c-0.7,0.4-1.5,0.8-2.2,1.1c-0.3,0.1-0.7,0.3-1,0.4c-0.5,0.2-1,0.4-1.5,0.6
			c-0.2,0.1-0.5,0.2-0.7,0.3c-0.2,0.1-0.4,0.3-0.5,0.5c0,0,0,0,0,0.1s0,0,0,0.1s0,0.1,0.1,0.1l0,0c0.3-0.1,0.6-0.2,0.9-0.4
			c0.7-0.4,1.5-0.8,2.2-1.1c0.3-0.2,0.6-0.3,1-0.5s0.8-0.4,1.1-0.6s0.6-0.4,0.9-0.5c0.2-0.1,0.3-0.2,0.5-0.3v-0.1
			c0.1,0,0.2,0,0.2-0.1H25L25,73.8L25,73.8L25,73.8z M9.4,22.6C9.5,22.6,9.5,22.6,9.4,22.6c0.1,0,0.1,0,0.1,0
			C9.5,22.5,9.5,22.6,9.4,22.6v-0.1c-0.1-0.1-0.1-0.1-0.2-0.2c-0.1,0-0.2-0.1-0.4,0c0-0.1,0.1-0.1,0.1-0.2s-0.1-0.2-0.2-0.3l0,0
			c0,0,0,0.1-0.1,0.1c0,0.1,0,0.1,0.1,0.1c0.1,0.1,0.1,0.2,0.2,0.2s0.1,0,0.2,0s0.1,0,0.2-0.1c-0.1,0.1-0.1,0.2,0,0.2
			C9.3,22.5,9.4,22.5,9.4,22.6z M19.4,67.7c-0.1,0-0.1,0-0.2,0c-0.2,0-0.4,0.1-0.6,0.2V68c0,0,0,0.1,0.1,0l0,0
			C18.9,67.9,19.1,67.8,19.4,67.7L19.4,67.7c0-0.1,0.1-0.1,0.1-0.1S19.5,67.6,19.4,67.7C19.4,67.6,19.3,67.6,19.4,67.7L19.4,67.7
			C19.3,67.7,19.3,67.7,19.4,67.7L19.4,67.7z M32.6,38.3c-0.2,0-0.5,0.1-0.7,0.2c0,0,0,0,0,0.1l0,0C32.2,38.7,32.4,38.6,32.6,38.3
			C32.6,38.4,32.6,38.4,32.6,38.3c0.1,0,0.2,0,0.2-0.1c0.1,0,0.1,0,0.2,0c0.1-0.1,0.3-0.1,0.4-0.2c0.2-0.1,0.4-0.2,0.6-0.4
			c0.1-0.1,0.1-0.1,0-0.2c0.1,0,0.1-0.1,0.2-0.2l0,0l0,0c-0.1,0.1-0.1,0.1-0.1,0.2c-0.1,0-0.1,0-0.2,0c-0.2,0.1-0.4,0.3-0.6,0.4
			c-0.1,0.1-0.3,0.2-0.4,0.3v0.1C32.7,38.2,32.6,38.2,32.6,38.3L32.6,38.3z M15.4,1.4c0.1,0.1,0.3,0.1,0.5,0.1
			C16.3,1.4,16.7,1.2,17,1c0,0,0,0,0-0.1l0,0c-0.1,0-0.1,0-0.2,0C16.6,1,16.5,1,16.3,1.1c-0.2,0-0.3,0.1-0.5,0.2
			C15.7,1.2,15.6,1.3,15.4,1.4L15.4,1.4L15.4,1.4L15.4,1.4L15.4,1.4z M24.8,86.3c-0.1,0-0.1,0-0.2,0c-0.1,0-0.1,0.1-0.2,0.1
			c-0.3,0.3-0.5,0.6-0.8,0.8c-0.1,0.1-0.1,0.1-0.1,0.2v0.1c0.1,0,0.3,0,0.4-0.1C24.2,87.1,24.5,86.7,24.8,86.3
			C24.7,86.3,24.7,86.3,24.8,86.3s0.2-0.1,0.2-0.2V86l0,0C24.8,86.1,24.8,86.1,24.8,86.3C24.7,86.2,24.8,86.2,24.8,86.3L24.8,86.3z
			 M31.2,109.7c0.1,0.1,0.3,0.1,0.4,0c0.2-0.2,0.4-0.4,0.6-0.6c0.2-0.2,0.4-0.5,0.5-0.8c0-0.1,0-0.1-0.1-0.2h-0.1
			c0,0.1-0.1,0.2-0.1,0.2c-0.1,0.2-0.3,0.4-0.4,0.6C31.7,109.1,31.5,109.4,31.2,109.7C31.2,109.7,31.3,109.7,31.2,109.7L31.2,109.7
			L31.2,109.7L31.2,109.7z M24.2,63.5c-0.1,0-0.3,0-0.4,0c-0.3,0-0.5,0-0.8,0s-0.6,0.1-0.9,0.2c-0.1,0-0.1,0.1-0.1,0.1
			c-0.2,0.2-0.5,0.3-0.8,0.3c-0.4,0.1-0.7,0.2-1,0.4c-0.3,0.1-0.5,0.3-0.8,0.3c-0.3,0.1-0.6,0.3-0.9,0.4c-0.1,0-0.1,0.1-0.2,0.1v0.1
			c0.1,0.2,0.1,0.4,0.1,0.5s0.1,0.1,0.2,0.1l0,0c0.2-0.1,0.4-0.2,0.6-0.3c0.5-0.3,1.1-0.6,1.7-0.8c0.3-0.1,0.6-0.3,1-0.4
			c0.4-0.2,0.8-0.4,1.2-0.5C23.4,63.9,23.8,63.7,24.2,63.5L24.2,63.5L24.2,63.5L24.2,63.5z M25.8,81.2c-0.2,0.3-0.4,0.5-0.7,0.6
			c-0.4,0.2-0.7,0.5-1,0.8c-0.1,0.1-0.3,0.2-0.4,0.3c-0.2,0.2-0.5,0.4-0.7,0.6c-0.3,0.2-0.5,0.5-0.8,0.7c-0.5,0.4-1,0.9-1.5,1.3
			c-0.4,0.4-0.8,0.8-1.3,1.1c-0.1,0-0.1,0.1-0.2,0.1c-0.2,0.2-0.4,0.3-0.6,0.5s-0.4,0.4-0.6,0.5v0.1h0.5c0.2-0.1,0.3-0.3,0.5-0.4
			c0.3-0.2,0.6-0.4,0.9-0.7c0.4-0.3,0.7-0.7,1.1-1c0.1-0.1,0.1-0.1,0.2-0.2c0.3-0.2,0.6-0.5,0.8-0.7c0.2-0.1,0.3-0.3,0.5-0.4
			c0.4-0.4,0.8-0.8,1.1-1.1c0.5-0.5,1-1,1.6-1.6c0.1-0.1,0.2-0.2,0.3-0.2c0.1-0.1,0.1-0.2,0.1-0.3C25.8,81.3,25.8,81.2,25.8,81.2
			L25.8,81.2L25.8,81.2L25.8,81.2z M26,80.2c-0.5,0.4-0.9,0.8-1.3,1.2c-0.1,0.1-0.2,0.2-0.4,0.3c-0.5,0.4-1,0.8-1.5,1.3
			c-0.3,0.3-0.7,0.6-1.1,0.9c-0.3,0.2-0.7,0.5-1,0.7c-0.6,0.4-1.1,0.8-1.7,1.3c-0.5,0.4-1,0.8-1.5,1.1c-0.1,0.1-0.3,0.2-0.4,0.3
			c-0.1,0.1-0.2,0.1-0.3,0.2c-0.1,0.1-0.2,0.2-0.3,0.3c0,0,0,0.1,0.1,0.1C16.8,88,17,88,17.2,88c0.1,0,0.1,0,0.1-0.1
			c0.1-0.1,0.2-0.2,0.3-0.2c0.2-0.1,0.5-0.2,0.7-0.4c0.1-0.1,0.2-0.2,0.3-0.2c0.4-0.3,0.8-0.7,1.2-1c0.4-0.3,0.8-0.7,1.2-1.1
			c0.2-0.2,0.5-0.4,0.7-0.6c0.9-0.8,1.8-1.5,2.7-2.3c0.3-0.3,0.6-0.5,0.9-0.8c0.2-0.2,0.4-0.4,0.6-0.7C26.1,80.5,26.1,80.3,26,80.2
			L26,80.2L26,80.2L26,80.2z M34.6,62.5c0.1-0.1,0.1-0.2,0.2-0.3c0.3-0.3,0.5-0.7,0.7-1.1c0.1-0.2,0.1-0.3,0.2-0.5
			c0.2-0.3,0.3-0.7,0.5-1c0.2-0.4,0.3-0.8,0.4-1.2c0-0.1,0-0.2,0.1-0.3c0.2-0.5,0.2-1.1,0.1-1.6c0-0.5-0.1-1-0.1-1.5
			c0-0.4,0-0.8,0-1.3c0-0.3,0-0.7,0-1c0-0.6,0-1.2,0-1.8c0-0.3-0.1-0.5-0.1-0.8c0-0.5-0.1-1-0.3-1.5c-0.1-0.3-0.2-0.7-0.3-1
			c-0.2-0.9-0.6-1.7-0.9-2.6c0-0.1-0.1-0.2-0.2-0.4c-0.1-0.3-0.3-0.6-0.4-0.9c-0.2-0.5-0.5-1-0.8-1.5c-0.2-0.4-0.5-0.8-0.7-1.2
			c-0.1-0.3-0.3-0.5-0.6-0.8c-0.2-0.2-0.4-0.4-0.5-0.6c-0.1-0.1-0.1-0.1-0.2-0.2c-0.2-0.1-0.5-0.2-0.7-0.3c-0.1,0-0.3-0.1-0.4,0
			c-0.2,0-0.4,0-0.6,0.1h-0.1c0,0-0.1,0-0.1-0.1l0,0c0-0.1,0-0.1,0.1-0.1c0.4-0.2,0.8-0.2,1.2-0.1c0.1,0,0.1,0,0.2,0.1l0.1-0.1
			c0-0.1,0-0.3-0.1-0.4c0-0.2,0.1-0.3,0.1-0.4V38c0-0.4,0-0.8,0.1-1.2c0,0,0,0,0-0.1s-0.1-0.1-0.2-0.1s-0.1,0-0.2,0.1
			s-0.3,0.1-0.4,0.2c-0.1,0-0.1,0-0.2,0c-0.1,0-0.1,0-0.1-0.1c0,0,0-0.1,0.1-0.1c0.2-0.1,0.4-0.2,0.6-0.3c0.1-0.1,0.3-0.2,0.3-0.4
			c0.1-0.1,0.1-0.3,0.1-0.4c0-0.3,0-0.7-0.1-1c0-0.1-0.1-0.2-0.1-0.3s0-0.3,0-0.4c0.1-0.2,0.1-0.4,0.1-0.5c0-0.2-0.1-0.4-0.1-0.6
			c-0.1-0.2-0.1-0.5-0.1-0.7c0-0.1,0-0.1,0-0.2s0-0.3-0.1-0.4c-0.1-0.2-0.3-0.4-0.4-0.7c-0.1-0.3-0.3-0.5-0.5-0.7c0,0,0,0,0-0.1l0,0
			h0.1c0.1,0,0.2,0.1,0.3,0.2s0.2,0.2,0.2,0.3c0.3,0.4,0.5,0.9,0.8,1.3c0.3,0.5,0.4,1.1,0.4,1.6c0,0.3,0,0.6,0.1,0.9
			c0.1,0.4,0,0.8,0,1.3c0,0.2-0.1,0.3-0.2,0.4c-0.1,0-0.1,0.1-0.1,0.2c0,0.1,0,0.1,0,0.2c0,0.5,0,0.9-0.1,1.4V38c0,0,0.1,0,0.1,0.1
			h0.1c0.6-0.2,1.1-0.5,1.6-0.9c0.2-0.2,0.4-0.4,0.5-0.7V36c0-0.1,0-0.3,0-0.4c-0.2-0.7-0.3-1.5-0.5-2.2c-0.1-0.3-0.2-0.7-0.3-1
			c-0.1-0.4-0.1-0.8-0.2-1.2c-0.1-0.3-0.1-0.5-0.1-0.8c-0.1-0.6-0.2-1.2-0.3-1.9c-0.1-0.3-0.1-0.5-0.3-0.8c0-0.1-0.1-0.1-0.1-0.2
			c0-0.2-0.1-0.4-0.2-0.6c-0.1-0.4-0.3-0.9-0.5-1.3s-0.4-0.8-0.6-1.1c-0.2-0.3-0.4-0.5-0.5-0.8c-0.2-0.3-0.4-0.5-0.6-0.7
			c-0.4-0.5-0.9-0.9-1.5-1.2c-0.1-0.1-0.2-0.1-0.3-0.2c-0.2-0.1-0.3-0.2-0.5-0.3c-0.2-0.1-0.4-0.2-0.6-0.2c-0.5-0.1-1-0.3-1.5-0.5
			c-0.2-0.1-0.3-0.1-0.5-0.1s-0.4-0.1-0.6-0.2c-0.1,0-0.2-0.1-0.3,0c-0.1,0-0.1,0-0.1,0.1c-0.1,0.1-0.1,0.2-0.2,0.3
			c-0.3,0.4-0.6,0.7-1,0.9c-0.2,0.1-0.3,0.2-0.4,0.3c-0.1,0.2-0.3,0.5-0.5,0.7c-0.1,0.1-0.1,0.2-0.2,0.2c0,0.2,0.1,0.3,0.2,0.3
			c0.1,0.1,0.2,0.2,0.3,0.3c0.2,0.3,0.2,0.6,0.3,0.9c0,0.4,0,0.8,0.1,1.2c0,0.1,0,0.2,0,0.3c0,0.5-0.1,0.9-0.1,1.4
			c0,0.1,0,0.2,0,0.3c0,0.1-0.1,0.2-0.2,0.3c0,0-0.1,0-0.2,0c0,0-0.1,0-0.1-0.1c-0.1-0.2-0.2-0.3-0.4-0.4c-0.4-0.2-0.8-0.4-1.2-0.6
			c-0.7-0.2-1.3-0.6-2-0.7h-0.1c-0.9-0.3-1.9-0.5-2.8-0.8c-0.3-0.1-0.6-0.2-0.9-0.3c-0.1-0.1-0.3-0.1-0.4-0.1
			c-0.4-0.1-0.8-0.2-1.2-0.4c-0.6-0.3-1.1-0.5-1.7-0.8c-0.1,0-0.1,0-0.2-0.1c-0.3-0.1-0.5-0.2-0.8-0.3C10,23,9.7,22.9,9.4,22.8
			c-0.2-0.1-0.3-0.1-0.5-0.3c-0.1-0.1-0.3-0.2-0.4-0.3c-0.1,0-0.2-0.1-0.4-0.2c-0.2,0.1-0.4,0.3-0.6,0.4c-0.6,0.5-1.2,1-1.9,1.5
			c-0.1,0.1-0.2,0.2-0.4,0.3c-0.4,0.4-0.9,0.7-1.4,1c0,0-0.1,0-0.1,0.1c-0.1,0.1-0.2,0.2-0.3,0.3c-0.3,0.3-0.6,0.6-0.8,1
			c-0.1,0.1-0.2,0.2-0.3,0.4c-0.3,0.4-0.4,0.8-0.6,1.2c-0.3,0.7-0.4,1.4-0.5,2.1v0.1c-0.1,0.5-0.1,0.9-0.2,1.4c-0.1,0.8,0,1.6,0,2.4
			c0,0.1,0,0.1,0,0.2c0.1,0.3,0.1,0.7,0.1,1c0.1,0.5,0.1,1.1,0.3,1.6c0.2,0.8,0.3,1.7,0.3,2.6c0,0.1,0,0.2,0,0.3
			c0.1,0.6,0.2,1.2,0.2,1.8c0,0.1,0,0.2,0.1,0.3c0.2,0,0.4,0.2,0.5,0.3c0.3,0.2,0.6,0.3,0.9,0.5c0.7,0.4,1.3,0.7,2,1
			c0.4,0.2,0.9,0.4,1.4,0.6c0.1,0,0.2,0,0.3,0.1c0.3,0.2,0.7,0.2,1,0.4L9.3,45c0,0,0,0,0.1,0s0.1-0.1,0.2-0.1c0-0.1,0.1-0.1,0.1-0.2
			c0-0.2,0.1-0.4,0.3-0.5c0.1-0.1,0.2-0.2,0.3-0.3c0.1-0.2,0.1-0.4,0.3-0.7c0.2-0.4,0.5-0.9,0.6-1.3c0-0.1,0.1-0.2,0.1-0.3
			c0.2-0.5,0.4-0.9,0.6-1.4c0.1-0.3,0.2-0.7,0.4-1c0.1-0.2,0.1-0.3,0.1-0.5c0.1-0.3,0.2-0.7,0.2-1c0.1-0.4,0.2-0.7,0.4-1
			c0,0,0,0,0.1,0c0,0.1,0,0.2,0,0.3c-0.1,0.3-0.2,0.6-0.3,0.9c-0.1,0.3-0.1,0.6-0.2,0.9c-0.1,0.5-0.2,0.9-0.4,1.4
			c0,0.1-0.1,0.1-0.1,0.2c-0.2,0.6-0.4,1.2-0.7,1.7c0,0.1-0.1,0.2-0.1,0.3c-0.2,0.4-0.4,0.9-0.6,1.3c-0.1,0.1-0.1,0.3-0.2,0.4
			c0,0.1,0,0.1,0.1,0.1s0.2,0,0.3,0c0.6-0.1,1.3-0.1,1.9,0c0.3,0,0.7,0.1,1,0.1c0.4,0,0.7,0,1.1,0.1c0.7,0.1,1.5,0.2,2.2,0.4
			c0.1,0,0.2,0,0.3,0.1c0.5,0,1,0.2,1.5,0.3c0.6,0.2,1.3,0.3,2,0.3c0.3,0,0.6,0.1,0.9,0.1s0.6,0.1,1,0.2c0.1,0,0.3,0.1,0.4,0.1
			c0.1,0,0.2,0,0.2,0c0.2-0.2,0.3-0.4,0.3-0.6c0-0.2,0.1-0.3,0.3-0.4c0.1-0.1,0.1-0.1,0.2-0.2c0.1-0.1,0.2-0.2,0.3-0.4
			c0.1-0.3,0.3-0.5,0.4-0.8c0.1-0.1,0.1-0.1,0.1-0.2c0-0.2-0.1-0.3-0.2-0.5c-0.1-0.2-0.2-0.3-0.3-0.5s-0.1-0.3,0.1-0.5
			s0.4-0.4,0.7-0.6c0.2-0.1,0.4-0.3,0.5-0.5h-0.1c-0.2,0.1-0.5,0.2-0.7,0.2c-0.3,0.1-0.5,0.2-0.8,0.3h-0.1l0,0c0,0,0,0,0-0.1
			s0.1-0.1,0.2-0.1c0.3-0.1,0.6-0.2,0.9-0.3c0.3-0.1,0.7-0.2,1-0.3s0.6-0.2,0.9-0.3c0.2-0.1,0.3-0.1,0.5-0.2
			c0.2-0.1,0.4-0.1,0.7,0.1c0.2,0.2,0.4,0.2,0.6,0.1c0.2-0.1,0.4-0.1,0.6-0.2h0.1V40c-0.1,0.1-0.2,0.1-0.3,0.1s-0.2,0.1-0.3,0.1
			s-0.2,0.1-0.4,0.1c0,0.1,0.1,0.2,0.1,0.3c0.1,0.2,0.2,0.4,0.4,0.4c0.1,0,0.1,0.1,0.1,0.2c0.1,0.2,0.3,0.5,0.4,0.7
			c0.1,0.1,0.1,0.2,0.1,0.3s0,0.2,0,0.3l0.1,0.1c0,0,0.1,0,0.1,0.1c0.1,0.1,0.2,0.2,0.2,0.4c0,0.3,0,0.6,0,0.9c0,0.1,0,0.3,0.2,0.3
			c0.2,0.1,0.3,0.3,0.3,0.5s0.1,0.4,0.1,0.6c0.1,0.1,0.1,0.2,0.2,0.2c0.1,0.2,0.2,0.4,0.2,0.6c0.1,0.4,0.1,0.7,0,1.1
			C31,47.5,31,47.8,31.2,48c0.1,0.1,0.1,0.2,0.1,0.4s0.1,0.3,0,0.5c0,0.2-0.1,0.3-0.3,0.4c-0.6,0.4-1.1,0.8-1.7,1.1
			c-0.2,0.1-0.3,0.2-0.4,0.3c-0.2,0.2-0.4,0.3-0.6,0.5c-0.2,0.1-0.4,0.1-0.7,0c0,0-0.1,0-0.1-0.1s0-0.1-0.1-0.2
			c-0.1-0.2-0.1-0.4-0.2-0.6c0-0.1-0.1-0.1-0.2-0.1s-0.1,0-0.2,0c-0.2,0-0.4,0-0.6,0.1c-0.1,0.1-0.2,0.1-0.3,0.2
			c-0.4,0.3-0.9,0.6-1.3,0.8c-0.8,0.5-1.6,1.1-2.5,1.5c-0.1,0-0.1,0.1-0.2,0.1c-0.2,0.1-0.4,0.3-0.6,0.3c-0.2,0.1-0.3,0.1-0.4,0.2
			c-0.2,0.1-0.5,0.3-0.7,0.4C20,54,19.7,54,19.4,54.1c-0.1,0-0.2,0.1-0.3,0.1c-0.6,0.3-1.1,0.5-1.7,0.6c-0.8,0.2-1.6,0.4-2.4,0.5
			c-0.5,0.1-1,0.1-1.5,0.1c-0.8,0.1-1.7,0.1-2.5,0.2c-0.1,0-0.2,0-0.3,0c0,0.2,0,0.3,0,0.5s0,0.4,0,0.6c0,0.2,0,0.4,0,0.6
			c0.1,0.3,0.1,0.6,0.1,0.9c0,0.5,0,1,0.1,1.5c0,0.4,0.1,0.8,0.3,1.1c0,0,0,0.1,0.1,0.1c0.4,0.2,0.8,0.4,1.2,0.6
			c0.2,0.1,0.5,0.2,0.7,0.3c0.1,0,0.3,0.1,0.4,0.1S13.8,62,14,62c0.4,0.1,0.7,0.2,1.1,0.3c0.2,0.1,0.4,0.1,0.5,0.1
			c0.3,0,0.6,0,0.9,0.1c0.5,0,1,0.2,1.5,0.3c0.6,0.1,1.2,0.2,1.8,0.2c0.1,0,0.2,0,0.3,0c0.1-0.1,0.2-0.1,0.3,0
			c0.1,0.1,0.3,0.1,0.4,0.1c0.8,0,1.6,0,2.4,0c0.1,0,0.2,0,0.3,0c0.4,0,0.7-0.1,1.1-0.1c0.3,0,0.6,0,0.9-0.2c0.1,0,0.1,0,0.2,0
			c0.3,0.1,0.5,0.1,0.8,0c0.4-0.1,0.9-0.1,1.3-0.1c0.2,0,0.4,0,0.7,0c0.3-0.1,0.6-0.1,0.9-0.1c0.2,0,0.4,0,0.6,0s0.3,0,0.5,0
			s0.4,0,0.5,0c0.5,0,1,0,1.4-0.1c0.3,0,0.5,0,0.8,0C33.6,62.7,34.1,62.7,34.6,62.5L34.6,62.5L34.6,62.5z M25.2,43.3
			c-0.2,0.1-0.3,0.3-0.4,0.5c0,0.1-0.1,0.3-0.2,0.4c-0.1,0.2-0.2,0.3-0.3,0.4c-0.1,0.1-0.2,0.2-0.3,0.3s-0.1,0.3-0.2,0.4
			c0,0.1,0,0.1,0,0.2c0,0.1,0,0.1,0.1,0.1c0.2,0,0.3,0.1,0.5,0.1c0.1,0,0.2,0,0.3,0l0,0c0,0,0,0-0.1,0.1c-0.2,0-0.4,0.1-0.7,0
			c-0.5,0-1-0.1-1.4-0.2c-0.6-0.1-1.2-0.2-1.9-0.3c-0.6-0.1-1.2-0.2-1.8-0.3c-0.4-0.1-0.8-0.2-1.2-0.3c-0.5-0.1-0.9-0.2-1.4-0.3
			c-0.4-0.1-0.8-0.1-1.2-0.2c-1-0.1-1.9-0.1-2.9-0.2c-0.2,0-0.4,0-0.6,0c-0.3,0-0.6,0.1-0.9,0.1c-0.1,0-0.2,0-0.3,0.1
			c-0.1,0-0.2,0.1-0.2,0.2c0,0.3-0.1,0.7,0,1c0,0.2,0,0.4-0.1,0.5S9.9,46,9.8,46s-0.1,0-0.2,0c-0.3,0-0.5-0.1-0.8-0.1
			c-0.1-0.1-0.2-0.1-0.3-0.2c-0.2-0.1-0.4-0.1-0.6-0.2c-0.1,0-0.2-0.1-0.4-0.1c-0.3-0.2-0.7-0.3-1.1-0.4c-0.5-0.1-0.9-0.3-1.4-0.6
			c-0.1-0.1-0.2-0.1-0.3-0.2C3.9,43.8,3,43.4,2.2,43c-0.1,0-0.1,0-0.2,0.1c0,0,0,0,0,0.1c0,0.2,0,0.3,0,0.5c0,0.4,0,0.9-0.2,1.3
			c0,0.1-0.1,0.2-0.1,0.3c-0.1,0.2-0.1,0.3-0.2,0.5c-0.1,0.4-0.3,0.8-0.4,1.2c-0.1,0.3-0.2,0.6-0.3,0.8c0,0.3-0.1,0.5-0.2,0.8
			c-0.2,0.7-0.2,1.4-0.1,2.1c0.1,0.4,0.2,0.7,0.5,0.9c0.1,0,0.1,0,0.2-0.1c0.1,0,0.1-0.1,0.1-0.2c0-0.1-0.1-0.1-0.1-0.1s0,0-0.1,0
			c-0.2,0-0.2-0.1-0.2-0.2c0-0.1,0-0.3,0-0.4c0,0,0,0,0-0.1c0,0,0.1,0,0.1-0.1l0,0c0.1,0.1,0.1,0.3,0.2,0.4h0.1l0,0l0,0
			c0-0.2,0-0.4,0-0.6l0,0h0.1c0,0.1,0,0.1,0,0.2c0,0.3,0,0.5,0,0.8s0,0.6-0.3,0.8c0,0.1,0,0.1,0,0.2c0.3,0.2,0.6,0.4,0.9,0.6
			c0.5,0.3,0.9,0.6,1.4,0.9c0.2,0.2,0.5,0.3,0.7,0.4c0.3,0.1,0.6,0.3,1,0.4c0.4,0.1,0.6,0.3,1,0.4c0.1,0,0.3,0.1,0.4,0.1
			c0.3,0.1,0.6,0.1,0.9,0.2c0.2,0,0.3,0.1,0.5,0.1c0.6,0.1,1.2,0.1,1.9,0.1c0.2,0,0.5,0,0.7,0c0.8-0.1,1.5-0.1,2.3-0.2
			c0.7-0.1,1.4-0.1,2.1-0.3c0.6-0.1,1.2-0.2,1.7-0.4c0.5-0.1,0.9-0.3,1.4-0.5c0.2-0.1,0.5-0.2,0.7-0.2c0.1,0,0.2-0.1,0.2-0.1
			c0.1-0.1,0.2-0.2,0.3-0.1c0.1,0,0.3,0,0.4-0.1c0.2-0.1,0.4-0.2,0.6-0.3c0.4-0.2,0.8-0.3,1.2-0.6l0,0c0.5-0.2,0.9-0.5,1.3-0.8
			c0.4-0.2,0.8-0.5,1.2-0.8c0.6-0.5,1.3-0.9,2-1.2c0.1,0,0.2-0.1,0.3,0c0.2,0.1,0.5,0.1,0.7,0c0.6-0.2,1.2-0.4,1.8-0.8
			c0.2-0.1,0.3-0.2,0.5-0.3c0.2-0.2,0.5-0.3,0.6-0.6c0.1-0.2,0.3-0.5,0.4-0.7s0.1-0.5,0.1-0.7s0-0.4-0.1-0.7c0-0.1-0.1-0.3-0.2-0.4
			h-0.1c-0.1,0.1-0.2,0.2-0.3,0.3c-0.1,0.3-0.3,0.6-0.5,0.8c-0.2,0.3-0.5,0.6-0.8,0.8c-0.2,0.1-0.4,0.2-0.6,0.3c-0.1,0-0.1,0-0.2,0
			s-0.1,0-0.1-0.1s0-0.1,0-0.1s0,0,0.1,0c0.4-0.1,0.7-0.3,0.9-0.6l0.1-0.1c0.4-0.4,0.7-0.9,0.9-1.4c0.1-0.1,0.1-0.3,0.2-0.5
			c0-0.1,0-0.3,0-0.4c0-0.1-0.1-0.2-0.2-0.2c-0.1,0-0.1,0.1-0.2,0.2c0,0.1,0,0.1-0.1,0.2c-0.1,0.3-0.3,0.5-0.5,0.6s-0.4,0.3-0.6,0.4
			c-0.1,0.1-0.2,0.2-0.3,0.3s-0.3,0.2-0.4,0.3c-0.1,0-0.1,0-0.2,0l0,0l0,0c0.1-0.1,0.2-0.2,0.4-0.3c0.1-0.1,0.3-0.3,0.4-0.5
			c0.1-0.1,0.2-0.3,0.3-0.3c0.1-0.1,0.2-0.1,0.3-0.2c0.1-0.1,0.2-0.2,0.3-0.4c0-0.1,0.1-0.2,0.1-0.4c0.2-0.4,0.2-0.7,0.2-1.1
			c0-0.2-0.1-0.4-0.3-0.5c-0.1,0-0.1-0.1-0.2-0.1c-0.2,0-0.4,0.1-0.5,0.2c0,0.1,0,0.1-0.1,0.2c-0.1,0.6-0.5,1.1-0.8,1.5
			c-0.1,0.1-0.1,0.1-0.2,0.1s-0.1,0-0.2,0s-0.1,0-0.1-0.1v-0.1c0.3-0.2,0.5-0.4,0.6-0.7c0-0.1,0.1-0.1,0.1-0.2
			c0.2-0.4,0.5-0.7,0.6-1.1c0.1-0.1,0.3-0.2,0.4-0.3c1,0.1,1-0.1,1-0.2c0-0.2-0.1-0.3-0.3-0.4c-0.1-0.1-0.3-0.1-0.4,0
			c-0.1,0.1-0.2,0.1-0.2,0.2c-0.2,0.2-0.3,0.5-0.4,0.8c-0.1,0.4-0.3,0.7-0.5,1c-0.1,0.2-0.3,0.4-0.5,0.5c-0.1,0.1-0.2,0.2-0.3,0.3
			s-0.3,0.3-0.5,0.4c-0.1,0.1-0.2,0.1-0.3,0c-0.1-0.2-0.2-0.3-0.3-0.4c-0.1-0.1-0.1-0.2-0.2-0.3c0-0.1,0-0.2-0.1-0.3
			C25.3,43.5,25.3,43.4,25.2,43.3L25.2,43.3z M19.1,112.6c0-0.1,0-0.2,0-0.3c0-0.1,0-0.3,0-0.4c0-0.3,0-0.6,0-0.9
			c0-0.6,0.1-1.3,0-1.9c0-0.1,0-0.2,0-0.3c0-0.6,0.1-1.1,0.1-1.7c0-0.2,0-0.5,0.1-0.7c0.1-0.3,0.2-0.7,0.2-1c0-0.1,0-0.1,0-0.2
			c0.1-0.7,0.2-1.4,0.3-2.1c0-0.1,0-0.1,0-0.2c0.1-0.6,0.2-1.2,0.2-1.8c0.1-0.7,0.2-1.4,0.3-2.1c0.1-0.6,0.2-1.3,0.3-2
			c0.1-0.8,0.2-1.6,0.3-2.4c0.1-1,0.2-2,0.2-3v-0.7c0-0.3,0-0.6,0-0.8c0-0.4,0.1-0.9,0-1.3c0-0.1,0-0.3-0.1-0.4
			c0-0.1-0.1-0.1-0.2-0.1c-0.3,0-0.7,0-1,0.1c-0.1,0-0.2,0-0.3,0c-0.1,0-0.1,0-0.2,0c-0.4,0-0.9-0.1-1.3,0c-0.4,0-0.8,0-1.2-0.1
			c-0.3-0.1-0.6-0.1-0.9-0.1c-0.6,0-0.5,0-0.5,0.5c0,0.3,0,0.6,0,0.8c0,0.4,0,0.8,0.1,1.3c0,0.1,0,0.2,0,0.3c0.2,0.7,0.3,1.3,0.4,2
			c0.1,0.4,0.1,0.7,0.2,1.1c0.1,0.5,0.2,1.1,0.2,1.6c0,0.1,0,0.3,0.1,0.4c0.1,0.6,0.2,1.1,0.3,1.7c0.1,0.4,0.1,0.8,0.2,1.1
			c0.1,0.4,0.1,0.8,0.1,1.2c0,0.6,0,1.1,0,1.7s0,1.3,0,1.9c0,0.2,0,0.4,0,0.6c0,0.5-0.1,1-0.1,1.4c0,0.2,0,0.3-0.1,0.5
			c-0.1,0.3-0.1,0.6-0.1,0.9c0,0.6,0,1.2-0.1,1.8c0,0.2,0,0.4,0,0.6s0.1,0.4,0.1,0.7c0,0.2,0.1,0.4,0.1,0.5c0.1,0.1,0.1,0.2,0.1,0.3
			c0,0.4,0.1,0.8,0.1,1.2v0.1c0.1,0.2,0.3,0.4,0.5,0.4c0.1,0,0.2,0,0.3,0c0.2,0,0.4,0,0.6,0.1c0.1,0,0.2,0,0.3,0
			C19,112.7,19,112.7,19.1,112.6L19.1,112.6L19.1,112.6z M26.1,87.3c-0.1,0.1-0.2,0.3-0.3,0.3s-0.1,0.1-0.1,0.2
			c0,0.2-0.1,0.5-0.1,0.7c0,0.4,0,0.8,0,1.2c0,0.2,0,0.4-0.1,0.6c-0.1,0.5-0.1,1-0.2,1.5c0,1-0.1,1.9,0.1,2.9c0,0.2,0.1,0.4,0.1,0.6
			c0,0.3,0.1,0.5,0.1,0.8c0,0.1,0,0.2,0,0.3c0,0.2,0.1,0.4,0,0.7c0,0.5,0,1,0.1,1.4s0.1,0.8,0.1,1.3c0,0.2,0,0.3,0,0.5
			c0,0.3,0,0.7,0.1,1c0,0.3,0,0.7,0.1,1c0,0.3,0,0.7,0,1c0,0.1,0,0.3-0.1,0.4c0,0.2-0.1,0.5-0.1,0.7c-0.1,0.4-0.2,0.9-0.2,1.4
			c-0.1,0.4-0.1,0.8-0.3,1.2v0.1c0,0.1,0,0.1,0.1,0.2c0.3,0.3,0.7,0.7,0.9,1.1c0,0.1,0.1,0.1,0.2,0.2c0.2,0,0.3,0.1,0.5,0.2
			c0.3,0.1,0.5,0.1,0.8-0.1c0.2-0.1,0.4-0.2,0.5-0.3c0.2-0.2,0.4-0.3,0.6-0.5c0.1-0.1,0.3-0.3,0.4-0.4c0.2-0.1,0.3-0.2,0.5-0.3
			l0.1-0.1c0.1-0.1,0.1-0.2,0-0.3l0,0c-0.1,0-0.1-0.1-0.2-0.1c-0.2-0.1-0.4-0.2-0.6-0.3c-0.1-0.1-0.2-0.1-0.2-0.2
			c-0.1-0.1-0.1-0.3-0.2-0.4c0-0.3-0.1-0.7-0.1-1c0-0.4,0-0.8,0.1-1.2c0-0.4,0-0.8,0-1.2c0-0.6,0-1.2,0-1.8c0-0.4,0-0.8-0.1-1.2
			c0-0.3-0.1-0.6-0.1-0.8c0-0.8,0.1-1.6,0.2-2.4c0.1-0.5,0.2-0.9,0.4-1.4c0.3-0.8,0.6-1.7,0.8-2.5c0.2-0.9,0.4-1.7,0.4-2.6
			c0-0.3,0-0.5,0.1-0.8c0-0.3,0-0.5,0-0.8s-0.1-0.5-0.1-0.8c0-0.4-0.1-0.8-0.2-1.2c0-0.1-0.1-0.1-0.2-0.1c-0.2,0-0.4,0.1-0.6,0.1
			c-0.1,0-0.2,0-0.3,0.1c-0.5,0.2-1,0.4-1.5,0.6C27.1,86.9,26.6,87.1,26.1,87.3L26.1,87.3L26.1,87.3z M10.8,86.7c0,0.3,0,0.5,0,0.8
			c0,0.1,0.1,0.2,0.2,0.3c0.3,0.1,0.7,0.1,1-0.1c0.2-0.1,0.5-0.3,0.8-0.3c0.1,0,0.2-0.1,0.3-0.1c0.3-0.2,0.6-0.3,0.8-0.5
			c0.5-0.3,1-0.6,1.5-0.9s1-0.6,1.5-1s1.1-0.8,1.6-1.1c0.4-0.2,0.7-0.5,1-0.7c0.5-0.3,0.9-0.7,1.3-1c0.5-0.3,1-0.6,1.5-1
			c0.3-0.2,0.5-0.3,0.7-0.5c1-0.6,1.8-1.1,2.8-1.8c0.2-0.2,0.4-0.3,0.6-0.5v-0.1l0,0c-0.2,0.1-0.4,0.2-0.6,0.4
			c-0.6,0.3-1.3,0.7-1.8,1.1c-0.3,0.2-0.6,0.4-0.9,0.6c-0.4,0.2-0.7,0.4-1,0.6c-0.5,0.4-1.1,0.7-1.7,1c-1.3,0.7-2.5,1.4-3.8,2.1
			c-0.2,0.1-0.4,0.2-0.6,0.3c-0.3,0.2-0.7,0.3-1,0.5c-0.2,0.1-0.4,0.3-0.7,0.4c-0.5,0.2-0.9,0.4-1.4,0.7c-0.4,0.2-0.8,0.5-1.3,0.6
			C11.4,86.5,11.1,86.6,10.8,86.7L10.8,86.7L10.8,86.7z M27.3,74.3L27.3,74.3c0-0.2-0.1-0.2-0.1-0.2l0,0c-0.4,0.2-0.7,0.3-1.1,0.5
			c-0.3,0.1-0.7,0.3-1,0.4c-0.2,0.1-0.5,0.2-0.7,0.3c-0.1,0.1-0.3,0.1-0.4,0.2c-0.6,0.3-1.3,0.6-1.9,0.9c-0.2,0.1-0.4,0.2-0.6,0.4
			c-0.3,0.2-0.6,0.3-0.9,0.5c-0.2,0.1-0.3,0.2-0.5,0.3c-0.3,0.2-0.6,0.3-1,0.5l-0.4,0.2c-0.3,0.2-0.6,0.3-0.9,0.5
			c-0.3,0.1-0.5,0.3-0.8,0.4c-0.3,0.2-0.7,0.4-1.1,0.5c-0.4,0.2-0.8,0.4-1.2,0.6c-0.4,0.2-0.8,0.4-1.1,0.5c-1,0.3-1.9,0.8-2.9,1.1
			c-0.3,0.1-0.3,0.2-0.3,0.2c0,0.1,0,0.2,0,0.3c0,0.1,0.1,0.1,0.2,0.1l0,0c0.4-0.1,0.8-0.3,1.2-0.5s0.8-0.4,1.1-0.5
			c0.7-0.3,1.3-0.5,2-0.9c1.1-0.6,2.2-1.1,3.4-1.6c0.2-0.1,0.5-0.2,0.7-0.4c0.2-0.1,0.5-0.2,0.7-0.3c0.4-0.1,0.8-0.3,1.2-0.5
			c0.3-0.2,0.7-0.3,1-0.4c0.1-0.1,0.2-0.1,0.4-0.1c0.2-0.1,0.4-0.1,0.6-0.2c0.2-0.1,0.3-0.2,0.5-0.2c0.5-0.2,1-0.4,1.4-0.7
			c0.6-0.3,1.2-0.6,1.8-1c0.2-0.1,0.3-0.2,0.5-0.3c0.1,0,0.1-0.1,0.1-0.2C27.3,74.5,27.3,74.4,27.3,74.3L27.3,74.3L27.3,74.3z
			 M10.5,83C10.5,83,10.5,83.1,10.5,83c0,0.1,0.1,0.2,0.1,0.2l0,0c0.1,0,0.2-0.1,0.4-0.1c0.6-0.1,1.1-0.3,1.7-0.5
			c0.3-0.1,0.5-0.2,0.8-0.3c0.7-0.3,1.4-0.6,2.1-0.9c0.3-0.1,0.5-0.3,0.8-0.4c0.4-0.2,0.9-0.4,1.3-0.6c0.1,0,0.1-0.1,0.2-0.1
			c0.1-0.1,0.2-0.1,0.3-0.2c0.4-0.2,0.8-0.4,1.2-0.5c0.1-0.1,0.3-0.1,0.4-0.2c0.2-0.1,0.4-0.2,0.5-0.3c0.5-0.2,1-0.4,1.6-0.7
			c0.2-0.1,0.4-0.2,0.6-0.2c0.3-0.1,0.5-0.2,0.8-0.3c0.5-0.3,1-0.5,1.5-0.8C24.9,77,25,77,25.1,77c0.4-0.2,0.8-0.4,1.1-0.7
			c0.1-0.1,0.3-0.2,0.4-0.3c0.2-0.1,0.4-0.3,0.6-0.5c0-0.1,0-0.1,0-0.2c0,0,0-0.1-0.1-0.1s-0.1,0-0.1,0.1c-0.3,0.2-0.6,0.3-0.9,0.5
			c-0.4,0.2-0.9,0.5-1.3,0.7c-0.3,0.2-0.6,0.3-0.9,0.5c-0.6,0.3-1.3,0.5-1.9,0.8c-0.6,0.3-1.3,0.5-1.9,0.8c-0.3,0.1-0.6,0.2-0.9,0.4
			c-0.2,0.1-0.5,0.3-0.7,0.4c-0.6,0.3-1.3,0.6-1.9,0.9s-1.3,0.6-1.9,0.9c-0.5,0.2-1.1,0.5-1.6,0.7c-0.3,0.1-0.7,0.3-1,0.5
			c-0.3,0.1-0.5,0.3-0.8,0.4c-0.2,0.1-0.4,0.2-0.7,0.3C10.5,82.8,10.5,82.8,10.5,83L10.5,83z M27.1,76.2c0-0.1,0-0.2,0.1-0.3v-0.1
			h-0.1c-0.1,0-0.1,0.1-0.1,0.1c-0.4,0.3-0.8,0.5-1.2,0.7c-0.3,0.2-0.7,0.4-1,0.6c-0.4,0.2-0.8,0.5-1.3,0.7c-0.1,0-0.2,0.1-0.3,0.1
			c-0.3,0.1-0.7,0.3-1,0.4c-0.2,0.1-0.4,0.2-0.7,0.3c-0.4,0.2-0.8,0.3-1.2,0.5c-0.5,0.3-1,0.5-1.5,0.7c-0.1,0-0.2,0.1-0.3,0.2
			c-0.5,0.3-1,0.5-1.5,0.8c-0.5,0.2-0.9,0.4-1.4,0.7c-0.2,0.1-0.4,0.2-0.6,0.3c-0.5,0.2-0.9,0.4-1.4,0.6c-0.6,0.3-1.3,0.5-1.9,0.7
			c-0.3,0.1-0.6,0.2-0.9,0.3c-0.1,0-0.1,0.1-0.1,0.2s0,0.2,0,0.3c0,0.3,0.1,0.4,0.4,0.3c0.1,0,0.2-0.1,0.3-0.1
			c0.2-0.1,0.4-0.2,0.7-0.3c0.5-0.2,1.1-0.4,1.6-0.7c0.3-0.2,0.6-0.3,0.8-0.4c0.2-0.1,0.3-0.1,0.4-0.2c0.2-0.1,0.4-0.3,0.7-0.3
			c0.4-0.1,0.9-0.3,1.3-0.5s0.8-0.4,1.2-0.6c0.4-0.3,0.9-0.5,1.3-0.8c0.2-0.1,0.4-0.2,0.6-0.3c0.4-0.3,0.9-0.6,1.4-0.8
			c0.5-0.3,1-0.5,1.6-0.8c0.3-0.1,0.6-0.3,0.9-0.4c0.5-0.2,1-0.4,1.5-0.7C25.9,77,26.6,76.7,27.1,76.2L27.1,76.2L27.1,76.2z
			 M29.1,64.9c0.2,0.1,0.3,0.2,0.5,0.3c0.6,0.3,1.2,0.6,1.9,0.9s1.3,0.5,2,0.7h0.1c0.1,0,0.1-0.1,0.1-0.2s0-0.1-0.1-0.1
			c-0.2,0-0.4,0-0.5-0.1c-0.2-0.1-0.4-0.1-0.5-0.1s-0.1,0-0.2-0.1c-0.8-0.3-1.5-0.7-2.2-1.1c-0.2-0.1-0.5-0.2-0.6-0.4
			c-0.1-0.1-0.2-0.1-0.3-0.2c-0.2-0.1-0.4-0.3-0.6-0.4c-0.2-0.2-0.4-0.4-0.6-0.6H28c-0.1,0.1-0.3,0.2-0.3,0.4c0,0.1,0,0.2-0.1,0.2
			c-0.2,0.1-0.4,0.2-0.6,0.3s-0.4,0.2-0.7,0.3c-0.3,0.1-0.6,0.2-0.9,0.4c-0.2,0.1-0.4,0.2-0.6,0.4c-0.8,0.4-1.5,0.8-2.3,1.1
			c-0.9,0.4-1.9,0.9-2.8,1.3c-0.3,0.1-0.6,0.3-0.9,0.4c-0.1,0-0.1,0.1-0.1,0.2s-0.1,0.3,0,0.4c0,0,0,0.1,0.1,0.1s0.1,0,0.2,0
			c0.4-0.2,0.8-0.3,1.2-0.5c0.4-0.2,0.7-0.3,1.1-0.5c0.7-0.3,1.4-0.6,2.1-1c0.3-0.2,0.6-0.3,0.9-0.4c0.4-0.1,0.7-0.3,1.1-0.5
			c0.6-0.3,1.3-0.7,1.9-1c0.1-0.1,0.3-0.1,0.4-0.3c0.1-0.1,0.2-0.1,0.3-0.1s0.1,0,0.1-0.1s0-0.1,0.1-0.1c0-0.1,0.2,0,0.2,0
			s0,0.1,0.1,0.2c0,0.1,0.1,0.1,0.1,0.2c0.2,0.1,0.3,0.2,0.5,0.4c0,0,0.1,0,0.2,0C29,64.9,29,64.9,29.1,64.9L29.1,64.9L29.1,64.9z
			 M27.5,71.3c-0.2,0.1-0.4,0.1-0.6,0.2c-0.6,0.3-1.1,0.6-1.7,0.8c-0.1,0.1-0.3,0.1-0.4,0.2c-0.2,0.2-0.5,0.3-0.8,0.3
			c-0.1,0-0.2,0.1-0.4,0.1c-0.2,0.1-0.4,0.2-0.7,0.3c-0.5,0.2-1,0.4-1.5,0.6c-0.3,0.1-0.6,0.3-0.9,0.4s-0.6,0.3-0.9,0.4
			c-0.4,0.2-0.9,0.4-1.3,0.6c-0.1,0-0.1,0.1-0.2,0.1c-0.1,0.3-0.1,0.5-0.2,0.8c0,0.1,0,0.1,0,0.2c0,0,0,0.1,0.1,0.1s0.1,0,0.2-0.1
			c0.4-0.2,0.8-0.3,1.2-0.5c0.7-0.3,1.3-0.6,2-0.9c0.6-0.2,1.2-0.5,1.7-0.8s1.1-0.6,1.7-0.9c0.3-0.1,0.6-0.3,0.9-0.5
			c0.4-0.2,0.7-0.5,1.1-0.7c0.2-0.2,0.4-0.3,0.7-0.5l0.1-0.1C27.6,71.5,27.6,71.4,27.5,71.3L27.5,71.3z M10.7,67.7L10.7,67.7
			c0,0.1,0.1,0.2,0.2,0.2s0.2,0,0.3-0.1c0.5-0.2,1.1-0.3,1.6-0.5c0.2-0.1,0.3-0.1,0.5-0.2c0.1,0,0.1-0.1,0.1-0.2s0.1-0.2,0.1-0.2
			l0,0c0.2,0,0.3-0.1,0.5-0.1c0.2-0.1,0.4-0.2,0.6-0.2c0.6-0.1,1.2-0.2,1.7-0.5h0.1c0.3-0.1,0.5-0.2,0.8-0.3
			c0.3-0.1,0.5-0.2,0.8-0.3c0.2-0.1,0.5-0.2,0.8-0.3c0.1,0,0.2-0.1,0.3-0.1c0.4-0.2,0.8-0.4,1.2-0.5c0.3-0.1,0.5-0.2,0.8-0.3
			c0.2-0.1,0.4-0.1,0.6-0.2c0.1,0,0.2-0.1,0.2-0.1v-0.1l0,0c-0.5-0.1-1-0.1-1.5-0.1c-0.1,0-0.1,0-0.2,0c-0.6,0.3-1.2,0.5-1.8,0.8
			c-0.3,0.1-0.5,0.2-0.7,0.4c-0.1,0.1-0.3,0.1-0.4,0.2c-0.7,0.4-1.4,0.6-2,1c-0.3,0.1-0.5,0.2-0.8,0.3c-0.7,0.3-1.4,0.5-2,0.8
			c-0.4,0.2-0.8,0.3-1.3,0.4c-0.1,0-0.1,0.1-0.1,0.1C10.7,67.5,10.7,67.6,10.7,67.7L10.7,67.7L10.7,67.7z M27.8,67.8
			c0.1-0.1,0.1-0.2,0.2-0.4c0-0.1,0-0.1,0-0.2v-0.1h-0.1c-0.2,0.1-0.3,0.1-0.5,0.2c-0.6,0.3-1.2,0.6-1.8,0.9
			c-0.8,0.4-1.6,0.8-2.4,1.2c-0.7,0.3-1.4,0.7-2.2,0.9c-0.6,0.3-1.3,0.5-1.9,0.8c-0.7,0.3-0.6,0.1-0.6,0.9c0,0.1,0.1,0.2,0.2,0.1
			c0.2-0.1,0.3-0.1,0.5-0.2c0.4-0.2,0.8-0.4,1.2-0.5c0.5-0.2,1.1-0.4,1.6-0.6c0.3-0.1,0.5-0.3,0.8-0.4c0.7-0.3,1.3-0.6,2-1
			c0.4-0.2,0.8-0.4,1.2-0.6c0.2-0.1,0.4-0.2,0.6-0.3C26.9,68.3,27.4,68.1,27.8,67.8L27.8,67.8z M18.5,72.5c-0.1,0.2-0.1,0.4,0,0.6
			c0,0.1,0.1,0.1,0.1,0.1c0.1,0,0.1,0,0.2-0.1c0.8-0.3,1.5-0.6,2.2-0.9c0.9-0.4,1.9-0.8,2.8-1.2c0.5-0.2,1-0.5,1.5-0.7
			c0.3-0.2,0.6-0.4,1-0.5c0.5-0.2,0.9-0.6,1.3-1c0.1-0.1,0.2-0.3,0.2-0.5c0-0.1-0.1-0.2-0.2-0.2c-0.3,0.1-0.6,0.3-0.9,0.4
			c-0.3,0.2-0.5,0.3-0.8,0.5c-0.6,0.4-1.3,0.7-1.9,1c-0.2,0.1-0.5,0.2-0.7,0.4c-0.3,0.1-0.6,0.3-0.9,0.4c-0.3,0.2-0.7,0.3-1,0.4
			c-0.6,0.3-1.2,0.4-1.8,0.8c-0.2,0.1-0.5,0.2-0.7,0.3C18.7,72.4,18.6,72.5,18.5,72.5L18.5,72.5L18.5,72.5z M11,84.7
			c0.2,0,0.4-0.1,0.6-0.1c0.2-0.1,0.5-0.2,0.7-0.3c0.2-0.1,0.3-0.1,0.5-0.2c0.4-0.1,0.9-0.2,1.2-0.5c0.1-0.1,0.2-0.1,0.3-0.1
			c0.6-0.3,1.3-0.6,1.9-0.9c0.3-0.1,0.5-0.2,0.8-0.3c0.3-0.1,0.5-0.2,0.8-0.4c0.1,0,0.1-0.1,0.2-0.1c0.6-0.3,1.2-0.6,1.8-0.9
			c0.5-0.3,1-0.6,1.5-0.8c0.5-0.3,1-0.5,1.5-0.7c0.2-0.1,0.3-0.1,0.5-0.2c0.3-0.1,0.6-0.3,0.9-0.4c0.5-0.2,0.9-0.4,1.4-0.6
			c0.4-0.2,0.8-0.4,1.2-0.7c0.1-0.1,0.1-0.1,0.1-0.2s0-0.1,0-0.2c0,0,0-0.1-0.1-0.1c0,0,0,0-0.1,0c-0.3,0.2-0.7,0.4-1,0.6
			c-0.5,0.3-1.1,0.6-1.7,0.8c-0.1,0-0.2,0.1-0.4,0.1c-0.3,0.1-0.6,0.3-0.9,0.4s-0.6,0.3-0.8,0.4c-0.6,0.4-1.3,0.7-1.9,1.1
			c-0.5,0.3-1,0.6-1.5,0.9c-0.3,0.2-0.7,0.4-1,0.6s-0.7,0.3-1,0.5c-0.2,0.1-0.4,0.2-0.6,0.3L15.2,83c0,0,0,0-0.1,0
			c-0.2,0.1-0.4,0.2-0.6,0.3c-0.2,0.1-0.4,0.1-0.6,0.3c-0.2,0.1-0.4,0.2-0.6,0.3C13.1,84,13,84,12.8,84.1c-0.7,0.3-1.4,0.6-2.1,0.8
			c-0.1,0-0.1,0-0.2,0.1c0,0,0,0.1-0.1,0.1c0,0,0,0.1,0.1,0.1C10.8,84.7,10.9,84.7,11,84.7L11,84.7z M32.6,83.3
			c-0.1-0.1-0.2-0.2-0.3-0.2c-0.4-0.3-0.9-0.6-1.3-1c-0.8-0.6-1.5-1.1-2.2-1.7c-0.1-0.1-0.3-0.2-0.4-0.3c-0.2-0.2-0.4-0.3-0.6-0.5
			c-0.3-0.2-0.5-0.5-0.8-0.8h-0.1l-0.1,0.1c-0.1,0.5-0.1,0.6,0.3,0.9c0.1,0.1,0.2,0.2,0.3,0.3c0.2,0.2,0.4,0.4,0.6,0.6
			c0.1,0.1,0.2,0.2,0.3,0.3c0.3,0.3,0.6,0.6,1,0.9c0.5,0.4,1,0.8,1.5,1.3c0.2,0.1,0.3,0.2,0.5,0.3c0.3,0.2,0.6,0.3,0.9,0.4
			s0.5,0,0.5-0.3C32.7,83.5,32.7,83.4,32.6,83.3L32.6,83.3L32.6,83.3z M27.8,69.4C27.8,69.3,27.7,69.3,27.8,69.4
			C27.7,69.3,27.7,69.3,27.8,69.4c-0.2-0.1-0.2,0-0.3,0c-0.3,0.3-0.7,0.5-1.1,0.7c-0.2,0.1-0.3,0.2-0.5,0.3
			c-0.5,0.3-1.1,0.6-1.7,0.8c-1,0.4-2.1,0.8-3.1,1.3c-0.1,0.1-0.2,0.1-0.4,0.1c-0.6,0.3-1.3,0.5-1.9,0.8c-0.1,0-0.1,0-0.2,0.1
			c-0.1,0-0.1,0.1-0.1,0.2c0,0.2-0.1,0.4-0.1,0.6c0,0,0,0,0,0.1s0.1,0.1,0.1,0.1c0.3-0.1,0.6-0.2,0.9-0.3c0.7-0.2,1.3-0.5,2-0.8
			c0.1-0.1,0.2-0.1,0.4-0.2s0.4-0.2,0.6-0.3c0.8-0.4,1.5-0.8,2.2-1.2c0.4-0.3,0.9-0.5,1.3-0.7s0.8-0.5,1.2-0.7
			c0.1-0.1,0.2-0.2,0.4-0.3C27.7,69.7,27.8,69.5,27.8,69.4L27.8,69.4L27.8,69.4z M18.6,67.5c0.2-0.1,0.5-0.1,0.7-0.2
			c0.6-0.2,1.3-0.4,1.9-0.7c0.6-0.2,1.2-0.4,1.7-0.7c0.6-0.3,1.3-0.7,1.9-1c0.2-0.1,0.4-0.1,0.6-0.2c0.3-0.2,0.7-0.4,1-0.5
			c0.4-0.2,0.8-0.5,1.1-0.8v-0.1l0,0c-0.3,0-0.5-0.1-0.8,0c-0.2,0-0.4,0.1-0.5,0.2c-0.1,0.1-0.2,0.2-0.4,0.3S25.5,64,25.4,64
			c-0.2,0.1-0.5,0.2-0.7,0.3c-0.2,0.1-0.4,0.2-0.5,0.3c-0.7,0.3-1.4,0.6-2.1,0.9c-0.4,0.2-0.9,0.4-1.3,0.6c-0.3,0.2-0.6,0.3-1,0.4
			c-0.2,0.1-0.5,0.2-0.7,0.3c-0.2,0.1-0.3,0.2-0.5,0.2l-0.1,0.1C18.5,67.3,18.5,67.4,18.6,67.5L18.6,67.5L18.6,67.5z M28.2,65.4
			c-0.2,0.1-0.4,0.2-0.7,0.3c-0.2,0.1-0.3,0.2-0.5,0.2c-0.3,0.1-0.5,0.3-0.9,0.4c-0.1,0-0.2,0.1-0.3,0.2s-0.3,0.2-0.4,0.2
			c-1.1,0.5-2.2,1-3.3,1.5c-0.2,0.1-0.5,0.2-0.7,0.4c-0.2,0.1-0.4,0.3-0.7,0.4c-0.5,0.2-1.1,0.5-1.6,0.7c-0.1,0.1-0.3,0.1-0.4,0.2
			c-0.1,0-0.2,0.2-0.2,0.3c0,0.1,0,0.1,0,0.2s0.1,0.1,0.1,0.1c0.3-0.1,0.6-0.2,0.9-0.4c0.2-0.1,0.4-0.2,0.5-0.3
			c0.8-0.3,1.5-0.7,2.2-1c0.1,0,0.1-0.1,0.2-0.1c0.3-0.1,0.6-0.3,0.9-0.4c0.3-0.1,0.6-0.3,1-0.4c0.2-0.1,0.3-0.2,0.5-0.2
			c0.4-0.2,0.8-0.4,1.2-0.6c0.2-0.1,0.5-0.3,0.7-0.4c0.4-0.2,0.8-0.4,1.2-0.6c0.1-0.1,0.2-0.1,0.2-0.3
			C28.2,65.6,28.3,65.5,28.2,65.4L28.2,65.4L28.2,65.4z M15.4,87.8c0.2,0,0.4,0,0.6-0.2c0.3-0.1,0.5-0.2,0.7-0.4
			c0.1-0.1,0.2-0.2,0.4-0.2c0.1-0.1,0.2-0.1,0.3-0.2c0.9-0.6,1.8-1.3,2.6-2c0.3-0.2,0.6-0.4,0.9-0.6c0.5-0.3,1-0.7,1.4-1l0,0
			c0.4-0.4,0.8-0.7,1.2-1c0.5-0.4,1-0.8,1.4-1.3c0.4-0.4,0.9-0.8,1.3-1.3v-0.1h-0.1c-0.4,0.3-0.9,0.6-1.3,1
			c-0.1,0.1-0.2,0.1-0.3,0.2c-0.5,0.4-1,0.7-1.5,1.1c-0.1,0.1-0.2,0.2-0.3,0.3c-0.2,0.3-0.5,0.5-0.8,0.7c-0.1,0.1-0.3,0.2-0.4,0.3
			c-0.5,0.5-1.1,0.9-1.6,1.3c-0.8,0.6-1.7,1.2-2.5,1.9c-0.2,0.2-0.5,0.3-0.7,0.4c-0.1,0.1-0.2,0.1-0.3,0.2l-0.7,0.4
			c-0.2,0.1-0.4,0.2-0.6,0.3L15,87.8c0,0,0,0,0,0.1C15.2,87.8,15.3,87.8,15.4,87.8L15.4,87.8z M27.6,74.1c0,0.2,0,0.3,0,0.4
			c0.1,0.1,0.1,0.2,0.1,0.3c0.1,0.1,0.2,0.2,0.3,0.3c0.1,0.1,0.2,0.2,0.3,0.3c0.7,0.6,1.4,1.1,2,1.7c0.2,0.2,0.4,0.3,0.6,0.4
			s0.3,0.2,0.5,0.3c0.4,0.3,1,0.5,1.4,0.8c0.1,0,0.1,0,0.2,0c0,0,0.1,0,0.1-0.1s0-0.2,0-0.3c0-0.2-0.1-0.4-0.3-0.4
			c-0.1,0-0.2-0.1-0.2-0.1c-0.5-0.4-1-0.8-1.5-1.2c-0.2-0.2-0.4-0.3-0.6-0.4c-0.5-0.4-1-0.8-1.5-1.2c-0.2-0.2-0.4-0.3-0.7-0.5
			c-0.2-0.2-0.4-0.3-0.6-0.5h-0.1l0,0C27.6,74,27.6,74.1,27.6,74.1L27.6,74.1L27.6,74.1z M26.6,79.7c-0.1,0.1-0.1,0.2-0.1,0.3
			c-0.1,0.1-0.1,0.3,0,0.4c0,0.3,0.2,0.5,0.4,0.7c0.1,0.1,0.2,0.2,0.2,0.3c0.3,0.4,0.7,0.7,1,1.1c0.2,0.2,0.5,0.4,0.7,0.6
			c0.2,0.1,0.4,0.2,0.6,0.3c0.7,0.4,1.3,0.8,2,1.2c0.1,0.1,0.3,0.1,0.4,0.2c0.1,0,0.1,0,0.2,0c0.1,0,0.1-0.1,0.2-0.1
			c0.1-0.1,0.1-0.2,0-0.3c-0.2-0.1-0.3-0.2-0.5-0.2c-0.3-0.1-0.7-0.3-0.9-0.6c-0.1-0.1-0.1-0.1-0.2-0.1c-0.8-0.6-1.6-1.3-2.3-2
			c-0.3-0.3-0.7-0.6-0.9-1c-0.1-0.2-0.3-0.3-0.4-0.5C26.7,79.7,26.6,79.7,26.6,79.7L26.6,79.7z M33,80.3c-0.5-0.4-1.1-0.8-1.6-1.1
			c-0.4-0.3-0.9-0.6-1.3-0.9c-0.2-0.2-0.5-0.3-0.7-0.5c-0.2-0.1-0.4-0.3-0.6-0.4c-0.5-0.3-0.9-0.6-1.2-1l-0.1-0.1h-0.1
			c0,0-0.1,0-0.1,0.1c0,0.2,0,0.3,0,0.5V77c0.2,0.2,0.3,0.4,0.5,0.6c0.5,0.4,1,0.8,1.5,1.1c0.7,0.5,1.4,0.9,2.1,1.4
			c0.4,0.3,0.9,0.5,1.4,0.8c0,0,0,0,0.1,0c0,0,0.1,0,0.1-0.1l0,0C33,80.7,33.1,80.5,33,80.3L33,80.3L33,80.3z M27.6,75.1
			c-0.1,0.1-0.1,0.2-0.2,0.4c0,0.1,0,0.2,0,0.3c0.3,0.4,0.6,0.8,1,1.1c0.2,0.1,0.3,0.2,0.5,0.3c0.4,0.3,0.7,0.5,1.1,0.8
			c0.6,0.4,1.1,0.7,1.7,1.1c0.4,0.2,0.7,0.4,1.1,0.6c0.1,0,0.1,0,0.1,0c0-0.2,0.1-0.3,0.1-0.5c0-0.1-0.1-0.2-0.1-0.2h-0.1
			c-0.1,0-0.3-0.1-0.3-0.2c-0.1-0.1-0.1-0.1-0.2-0.2c-0.5-0.3-1-0.6-1.5-0.9c-0.2-0.2-0.5-0.3-0.7-0.5s-0.4-0.3-0.6-0.5
			c-0.5-0.4-1.1-0.9-1.6-1.3C27.9,75.3,27.8,75.2,27.6,75.1L27.6,75.1L27.6,75.1z M33.1,76.9c-0.2-0.1-0.4-0.3-0.6-0.4
			c-0.5-0.5-1.2-0.8-1.7-1.3c-0.1,0-0.1-0.1-0.2-0.1c-0.7-0.4-1.3-1-1.9-1.5c-0.3-0.3-0.6-0.5-0.9-0.8c0,0-0.1-0.1-0.1,0
			c-0.1,0-0.1,0.1-0.1,0.1c0,0.1,0,0.3,0,0.4s0,0.2,0.1,0.3c0.2,0.3,0.5,0.6,0.8,0.8c0.3,0.3,0.7,0.5,1,0.7c0.1,0.1,0.1,0.1,0.2,0.2
			c0.4,0.3,0.8,0.6,1.2,0.9c0.1,0.1,0.3,0.2,0.4,0.3c0.3,0.3,0.7,0.5,1.1,0.8c0.1,0.1,0.2,0.1,0.3,0.2c0.3,0.2,0.4,0.1,0.4-0.2
			C33.1,77.1,33.1,77,33.1,76.9L33.1,76.9z M28.1,66.5c0-0.2-0.1-0.2-0.2-0.2s-0.1,0-0.2,0.1c-0.3,0.1-0.6,0.3-0.9,0.4
			c-0.2,0.1-0.5,0.2-0.7,0.4c-0.3,0.2-0.7,0.4-1,0.5s-0.5,0.2-0.8,0.3c-0.2,0.1-0.4,0.2-0.6,0.3c-0.4,0.1-0.8,0.4-1.2,0.5
			c-0.6,0.3-1.2,0.6-1.8,0.8l-1.9,0.9c-0.2,0.1-0.2,0.2-0.3,0.4c0,0,0,0.1,0.1,0.1c0.2-0.1,0.3-0.1,0.5-0.2c0.5-0.2,0.9-0.3,1.4-0.5
			c0.9-0.4,1.8-0.8,2.7-1.2c0.3-0.1,0.7-0.3,1-0.5c0.6-0.3,1.3-0.7,2-1c0.3-0.1,0.5-0.2,0.7-0.4c0.2-0.1,0.4-0.3,0.6-0.3
			c0.2-0.1,0.3-0.2,0.5-0.3C28.1,66.6,28.1,66.6,28.1,66.5L28.1,66.5L28.1,66.5z M33.9,41.4c0.2-0.6,0.2-0.5,0.2-1
			c0-0.1,0-0.3,0-0.4c0.1-0.3,0.1-0.5,0.1-0.8c0-0.2,0-0.4,0-0.6c0-0.2,0-0.3,0-0.5c0-0.1-0.1-0.1-0.1-0.1l0,0
			c-0.2,0.1-0.4,0.3-0.6,0.4c-0.2,0.1-0.3,0.1-0.5,0.2c-0.1,0-0.2,0.1-0.2,0.1c-0.1,0.1-0.3,0.2-0.4,0.3c-0.2,0.1-0.3,0-0.5,0
			c-0.1,0-0.1,0.1-0.1,0.2c0,0.1,0,0.2,0.1,0.2c0.2,0.1,0.4,0.3,0.6,0.4c0.4,0.4,0.8,0.9,1.1,1.4c0,0.1,0,0.1,0.1,0.1
			c0.1,0.2,0.3,0.4,0.4,0.6h0.1c0,0,0,0,0-0.1C34.1,41.8,34,41.6,33.9,41.4L33.9,41.4L33.9,41.4z M28.1,69
			C28.1,69.1,28.1,69.1,28.1,69c0.6,0.8,1.2,1.4,1.9,2c0.2,0.2,0.4,0.3,0.6,0.5c0.2,0.1,0.3,0.3,0.5,0.4c0.1,0.1,0.2,0.2,0.3,0.3
			c0.4,0.3,0.7,0.5,1.1,0.8c0.2,0.1,0.4,0.2,0.6,0.2h0.1c0.1-0.2,0.1-0.4,0-0.5c0,0,0-0.1-0.1-0.1c-0.2-0.1-0.3-0.2-0.4-0.3
			c-0.1-0.1-0.1-0.1-0.2-0.2c-0.3-0.2-0.6-0.5-0.9-0.8c-0.5-0.4-1.1-0.9-1.6-1.3c-0.4-0.3-0.9-0.7-1.3-1.1c-0.2-0.2-0.3-0.3-0.5-0.5
			l0,0c0,0,0,0.1-0.1,0.1C28.2,68.7,28.2,68.8,28.1,69L28.1,69L28.1,69L28.1,69z M32.8,82.5c0-0.2,0-0.2-0.1-0.3
			c-0.4-0.3-0.8-0.6-1.2-0.9s-0.8-0.6-1.3-0.9c-0.3-0.2-0.5-0.3-0.8-0.5c-0.2-0.2-0.5-0.3-0.7-0.5c-0.5-0.4-1.1-0.8-1.6-1.2H27
			c0,0,0,0.1,0,0.2s0.1,0.3,0.2,0.4c0.3,0.4,0.7,0.7,1.1,1c0.3,0.3,0.7,0.5,1,0.7c0.9,0.7,1.8,1.4,2.7,2c0.2,0.1,0.3,0.2,0.5,0.3
			c0.1,0,0.1,0,0.2,0c0,0,0.1,0,0.1-0.1S32.8,82.5,32.8,82.5L32.8,82.5L32.8,82.5z M10,78.9c0,0,0,0.1,0,0.3c0,0.2,0.1,0.2,0.3,0.2
			c0.3,0,0.5-0.1,0.8-0.1c0.2-0.1,0.4-0.1,0.6-0.2c0.7-0.1,1.4-0.5,2.1-0.8c0.1-0.1,0.2-0.1,0.3-0.2l0.1-0.1c0-0.2-0.1-0.5-0.2-0.7
			l-0.1-0.1c-0.1,0-0.1,0-0.2,0c-0.2,0.1-0.5,0.2-0.7,0.3c-0.6,0.2-1.2,0.4-1.8,0.6c-0.3,0.1-0.6,0.2-0.8,0.3
			c-0.1,0-0.1,0.1-0.2,0.1s-0.1,0.1-0.1,0.2C10,78.8,10,78.8,10,78.9L10,78.9L10,78.9z M33.2,75.2v-0.3c0-0.1-0.1-0.2-0.1-0.2
			c-0.2-0.1-0.3-0.2-0.5-0.3c-0.3-0.2-0.6-0.3-0.9-0.6c-0.1-0.1-0.2-0.1-0.3-0.2c-0.7-0.4-1.2-1-1.8-1.5c-0.3-0.3-0.6-0.6-0.8-0.9
			s-0.5-0.5-0.8-0.8h-0.1l-0.1,0.1c-0.1,0.2,0,0.3,0,0.5s0.1,0.3,0.2,0.4c0.3,0.3,0.6,0.7,1,1c0.5,0.5,1,0.9,1.6,1.3
			c0.1,0.1,0.2,0.2,0.4,0.3c0.4,0.4,0.9,0.7,1.3,1c0.3,0.2,0.5,0.2,0.8,0.3C33.2,75.3,33.2,75.3,33.2,75.2L33.2,75.2L33.2,75.2z
			 M17.8,63.1c-0.1,0-0.2,0-0.2,0.1c-0.4,0.2-1,0.3-1.4,0.5c-0.6,0.2-1.2,0.4-1.8,0.6c-0.6,0.2-1.1,0.5-1.7,0.7
			c-0.5,0.2-0.9,0.4-1.4,0.5c-0.1,0-0.2,0.1-0.3,0.1c-0.1,0-0.1,0.1-0.1,0.2s0,0.1,0,0.2s0.1,0.2,0.2,0.1c0.6-0.1,1.2-0.3,1.8-0.5
			c0.5-0.2,1-0.4,1.5-0.6c0.3-0.1,0.5-0.2,0.8-0.3c0.4-0.2,0.9-0.4,1.3-0.6c0.5-0.2,0.9-0.4,1.4-0.6c0.1,0,0.2-0.1,0.3-0.1l0.1-0.1
			v-0.1C18.1,63.1,17.9,63.1,17.8,63.1z M31.1,84.9c0.1,0,0.1,0,0.2,0h0.1l0,0c0,0,0,0,0-0.1c-0.3-0.2-0.6-0.4-1-0.6
			c-0.5-0.3-1.1-0.7-1.6-0.9c-0.4-0.2-0.8-0.5-1.1-0.8c-0.4-0.4-0.8-0.9-1.2-1.3c-0.1-0.1-0.1-0.1-0.2-0.2h-0.1l0,0
			c-0.1,0.3-0.2,0.6,0.1,0.9c0.1,0.1,0.2,0.2,0.3,0.3c0.2,0.2,0.5,0.5,0.7,0.7c0.6,0.5,1.1,1,1.8,1.4c0.2,0.1,0.4,0.2,0.6,0.3
			C30.2,84.8,30.7,84.9,31.1,84.9L31.1,84.9L31.1,84.9z M28.4,66.9c0,0.1-0.1,0.2-0.1,0.3c0,0.1,0,0.3,0.1,0.3
			c0.1,0.1,0.2,0.2,0.3,0.3c0.5,0.5,1,1,1.6,1.4c0.7,0.5,1.4,1,2.1,1.3c0.2,0.1,0.4,0.2,0.7,0.3c0.1,0,0.1,0,0.2,0
			c0.1,0,0.1,0,0.1-0.1c0-0.2,0-0.3,0-0.6c-0.1-0.1-0.2-0.1-0.3-0.2c-0.6-0.4-1.2-0.8-1.8-1.1c-0.1,0-0.1-0.1-0.2-0.1
			c-0.2-0.2-0.4-0.3-0.6-0.4c-0.5-0.3-1-0.7-1.4-1c-0.1-0.1-0.2-0.2-0.3-0.3C28.6,67,28.5,66.9,28.4,66.9L28.4,66.9L28.4,66.9z
			 M19.4,88c0.3,0,0.4,0,0.6-0.1c0.2-0.2,0.5-0.3,0.7-0.5c0.4-0.4,0.9-0.7,1.4-1.1c0.1-0.1,0.2-0.2,0.3-0.2c0.5-0.4,1-0.9,1.5-1.4
			c0.1-0.1,0.1-0.1,0.1-0.2c0.5-0.6,1-1.1,1.4-1.7l0.1-0.1c0.1-0.1,0.1-0.2,0.1-0.3v-0.1l0,0c-0.1,0.1-0.2,0.3-0.4,0.3
			c-0.1,0-0.1,0.1-0.1,0.1c-0.6,0.6-1.2,1.2-1.8,1.7s-1.1,1.1-1.7,1.5L21.5,86c-0.4,0.4-0.9,0.8-1.3,1.2c-0.3,0.2-0.5,0.4-0.8,0.6
			l0,0c0,0,0,0.1,0.1,0.1C19.3,88,19.4,88,19.4,88z M10.8,66.7L10.8,66.7L10.8,66.7c0,0.2,0.1,0.3,0.1,0.3l0,0c0.1,0,0.2,0,0.3-0.1
			c0.5-0.2,1-0.3,1.6-0.6c0.3-0.1,0.6-0.2,0.9-0.4c0.8-0.3,1.5-0.6,2.3-1c0.1,0,0.2-0.1,0.3-0.1c0.2-0.1,0.4-0.2,0.6-0.3
			c0.1-0.1,0.2-0.1,0.2-0.1c0.4-0.1,0.8-0.3,1.1-0.6c0.1-0.1,0.2-0.1,0.3-0.1c0.2-0.1,0.5-0.2,0.7-0.3c0,0,0.1-0.1,0-0.1
			c0,0,0-0.1-0.1-0.1s-0.3,0-0.4,0c-0.3,0.2-0.7,0.4-1,0.5c-0.6,0.3-1.3,0.5-1.9,0.8S14.6,65,14,65.2c-0.1,0-0.2,0.1-0.3,0.1
			c-0.7,0.3-1.4,0.6-2.1,0.8c-0.3,0.1-0.6,0.2-0.8,0.3C10.8,66.4,10.8,66.5,10.8,66.7L10.8,66.7L10.8,66.7z M33.2,73.8
			c-0.1-0.1-0.3-0.1-0.4-0.2c-0.1-0.1-0.3-0.2-0.4-0.3c-0.1-0.1-0.2-0.2-0.4-0.3c-0.3-0.2-0.7-0.5-1-0.8c-0.5-0.4-1-0.8-1.5-1.3
			c-0.2-0.1-0.3-0.3-0.5-0.5c-0.3-0.3-0.6-0.6-0.9-0.9c0,0,0,0-0.1,0h-0.1c-0.1,0.1-0.1,0.2,0,0.3c0.1,0.2,0.2,0.4,0.4,0.6
			s0.5,0.5,0.7,0.7c0.3,0.4,0.7,0.8,1.1,1.2c0.3,0.3,0.6,0.6,0.9,0.8c0.3,0.2,0.5,0.4,0.8,0.6s0.6,0.4,0.9,0.6
			c0.4,0.2,0.5,0.3,0.5-0.3C33.2,73.9,33.2,73.8,33.2,73.8L33.2,73.8z M10.1,80c0,0.2,0.1,0.4,0.1,0.6c0,0.1,0.1,0.2,0.2,0.1l0,0
			c0.4-0.1,0.7-0.2,1-0.3c0.7-0.3,1.4-0.6,2.1-0.9c0.3-0.1,0.6-0.3,1-0.4c0.1,0,0.2-0.1,0.2-0.1v-0.1c-0.1-0.1-0.2-0.2-0.3-0.3
			c-0.1-0.1-0.2-0.1-0.3-0.1c-0.3,0.1-0.6,0.2-0.9,0.3c-0.9,0.4-1.8,0.7-2.8,0.9c-0.1,0-0.2,0.1-0.3,0.1c-0.1,0-0.1,0.1-0.1,0.1
			C10.1,79.9,10.1,79.9,10.1,80L10.1,80z M9.5,11C9.5,11,9.6,11,9.5,11c0.1-0.1,0.1-0.2,0.2-0.2c0.1-0.1,0.1-0.3,0.1-0.4
			c0-0.1-0.1-0.2-0.1-0.3c0-0.2-0.2-0.3-0.2-0.5s0-0.4,0-0.6c0-0.3,0-0.5,0-0.8c0-0.7,0-1.3,0.1-2C9.7,5,10.3,3.9,11.2,3
			c0.1-0.1,0.2-0.2,0.2-0.2c0.1-0.1,0.2-0.2,0.4-0.3c0.1-0.1,0.3-0.2,0.4-0.2l0.1-0.1l0,0l0,0c-0.1,0-0.1,0-0.2,0
			c-0.3,0.1-0.6,0.3-0.8,0.5c-0.2,0.1-0.3,0.2-0.4,0.4c-0.2,0.2-0.3,0.5-0.5,0.7c-0.3,0.4-0.5,0.8-0.7,1.3C9.4,5.3,9.3,5.9,9.2,6.4
			S9,7.4,9,8c0,0.7,0.1,1.3,0.2,2c0,0.1,0,0.1,0,0.2C9.3,10.4,9.4,10.7,9.5,11L9.5,11z M15.1,79.1c-0.1,0-0.1,0-0.2,0.1
			c-0.6,0.3-1.2,0.6-1.9,0.8c-0.1,0-0.2,0.1-0.3,0.1c-0.7,0.3-1.5,0.6-2.2,0.9c-0.3,0.1-0.3,0.2-0.3,0.4c0,0.1,0,0.1,0,0.2
			s0.1,0.1,0.2,0.1l0,0c0.2-0.1,0.3-0.1,0.5-0.2c0.6-0.2,1.2-0.4,1.8-0.7c0.5-0.2,1-0.4,1.5-0.7c0.2-0.1,0.4-0.2,0.6-0.3
			c0.2-0.1,0.4-0.2,0.6-0.3c0.1-0.1,0.2-0.1,0.4-0.2l0.1-0.1L15.1,79.1L15.1,79.1z M33.2,75.8c-0.1-0.2-0.4-0.2-0.5-0.3
			c-0.2-0.2-0.4-0.3-0.5-0.4c-0.2-0.1-0.5-0.3-0.7-0.5c-0.3-0.2-0.6-0.5-1-0.7c-0.9-0.6-1.7-1.4-2.5-2.3l-0.1-0.1
			c0,0-0.1,0.1-0.1,0.2c0,0.3,0.1,0.6,0.3,0.8c0.1,0.1,0.3,0.3,0.4,0.4c0.3,0.3,0.7,0.6,1,0.9c0.3,0.2,0.5,0.4,0.7,0.6
			c0.4,0.3,0.7,0.6,1.1,0.8c0.3,0.2,0.6,0.4,0.8,0.6c0.2,0.1,0.3,0.3,0.5,0.4c0.1,0.1,0.2,0.1,0.3,0.1s0.1,0,0.1-0.1
			C33.2,76.1,33.2,76,33.2,75.8L33.2,75.8L33.2,75.8z M25.8,63.4C25.8,63.4,25.8,63.3,25.8,63.4c-0.1-0.1-0.2-0.1-0.2-0.1
			c-0.3,0-0.6,0.1-0.8,0.2C24.4,63.8,24,64,23.6,64c-0.6,0.2-1.1,0.5-1.7,0.7c-0.3,0.1-0.6,0.3-0.8,0.4c-0.5,0.2-0.9,0.4-1.3,0.7
			c-0.3,0.2-0.6,0.3-0.9,0.4c-0.1,0-0.1,0.1-0.2,0.1s-0.1,0.1-0.1,0.2s0,0.1,0,0.2c0,0,0.1,0.1,0.1,0l0,0c0.4-0.2,0.9-0.3,1.3-0.5
			c0.2-0.1,0.3-0.1,0.5-0.2c0.9-0.5,1.9-0.9,2.9-1.3c0.4-0.2,0.9-0.4,1.3-0.7c0.2-0.1,0.3-0.2,0.5-0.2
			C25.4,63.7,25.6,63.6,25.8,63.4L25.8,63.4L25.8,63.4L25.8,63.4z M27.7,70.3C27.7,70.2,27.7,70.2,27.7,70.3c0-0.1,0-0.2-0.1-0.2
			l0,0c-0.3,0.2-0.7,0.4-1,0.6c-0.2,0.1-0.4,0.3-0.7,0.4c-0.5,0.3-1.1,0.6-1.6,0.9c-0.9,0.5-1.7,1-2.6,1.4c-0.2,0.1-0.5,0.2-0.7,0.3
			c-0.5,0.2-1,0.4-1.5,0.6c-0.3,0.1-0.6,0.2-0.9,0.3c-0.1,0-0.2,0.1-0.2,0.3c0,0.1,0,0.1,0.1,0.1l0,0c0.2-0.1,0.4-0.2,0.6-0.3
			c0.1-0.1,0.2-0.1,0.3-0.2c0.7-0.3,1.4-0.6,2.1-0.9c0.3-0.1,0.5-0.2,0.8-0.3c0.6-0.3,1.3-0.5,1.9-0.8c0.2-0.1,0.4-0.2,0.6-0.3
			c0.4-0.2,0.7-0.4,1.1-0.6c0.3-0.1,0.6-0.3,0.9-0.4c0.1-0.1,0.3-0.1,0.4-0.2s0.2-0.1,0.3-0.2c0.1,0,0.1-0.1,0.1-0.1
			C27.7,70.6,27.7,70.4,27.7,70.3L27.7,70.3L27.7,70.3z M30.9,85.3c-0.1-0.1-0.2-0.2-0.4-0.2c-0.1,0-0.2-0.1-0.3-0.1
			c-0.2,0-0.4-0.1-0.6-0.2c-0.4-0.2-0.8-0.5-1.2-0.8c-0.2-0.1-0.4-0.3-0.6-0.5c-0.1-0.1-0.2-0.2-0.3-0.3c-0.3-0.3-0.6-0.6-0.9-0.8
			c-0.1-0.1-0.2-0.1-0.3-0.2S26,82.1,26,82.3c0,0.1,0,0.2-0.1,0.3c0,0.2,0,0.3,0.1,0.4s0.3,0.3,0.4,0.4c0.8,0.6,1.6,1.2,2.4,1.8
			c0.1,0.1,0.2,0.1,0.3,0.2c0.2,0.1,0.4,0.1,0.6,0.2C30.2,85.6,30.5,85.6,30.9,85.3L30.9,85.3z M17,62.9c-0.2,0-0.3-0.1-0.4-0.1
			c-0.3,0-0.5,0-0.8,0.1c-0.1,0-0.3,0.1-0.4,0.1c-0.2,0.1-0.5,0.1-0.7,0.2c-0.4,0.2-0.8,0.4-1.2,0.5c-0.8,0.3-1.6,0.7-2.3,1
			c-0.2,0.1-0.3,0.2-0.2,0.4c0,0,0,0.1,0.1,0.1c0.2,0,0.4,0,0.5-0.1c0.3-0.1,0.7-0.2,1-0.3c0.2-0.1,0.5-0.2,0.7-0.3
			c0.5-0.2,1-0.4,1.5-0.6c0.2-0.1,0.4-0.2,0.7-0.3C16,63.4,16.5,63.2,17,62.9C17,63.1,17,63,17,62.9L17,62.9z M29,65.4
			C29,65.4,29,65.5,29,65.4c0.4,0.4,0.6,0.6,1,0.8c0.1,0.1,0.3,0.2,0.4,0.3c0.2,0.1,0.4,0.3,0.6,0.4c0.5,0.2,0.9,0.5,1.3,0.8
			c0.3,0.2,0.6,0.3,0.9,0.5c0.1,0.1,0.2,0.1,0.3,0c0-0.2,0.1-0.5,0.1-0.7c0-0.1,0-0.1-0.1-0.2c-0.3-0.2-0.5-0.3-0.8-0.4
			c-0.4-0.1-0.9-0.3-1.3-0.5c-0.5-0.2-1-0.4-1.5-0.7c-0.1-0.1-0.3-0.1-0.5-0.2C29.2,65.4,29.1,65.4,29,65.4L29,65.4L29,65.4z
			 M9.5,45.9c0.1,0,0.3,0,0.4-0.1c0.1,0,0.2-0.1,0.2-0.2c0-0.2-0.1-0.4-0.2-0.5H9.8c-0.1,0.2-0.3,0.2-0.5,0.1
			c-0.3-0.1-0.6-0.1-1-0.2c-0.1,0-0.2,0-0.3-0.1c-0.6-0.2-1.1-0.4-1.7-0.5c-0.1,0-0.1,0-0.2-0.1c-0.4-0.2-0.7-0.4-1.1-0.6
			c-0.5-0.3-0.9-0.5-1.4-0.8C3,42.7,2.5,42.4,2,42H1.9c-0.1,0-0.1,0.1-0.1,0.1c0,0.1,0,0.1,0.1,0.2c0.3,0.3,0.7,0.5,1,0.6
			c0.9,0.5,1.8,0.8,2.6,1.3c0.3,0.1,0.6,0.2,0.9,0.3c0.4,0.4,0.7,0.5,1,0.6c0.4,0.2,0.9,0.4,1.4,0.5c0.2,0,0.3,0.1,0.4,0.2
			C9.3,45.9,9.4,45.9,9.5,45.9L9.5,45.9L9.5,45.9z M20.9,87.5C20.9,87.5,20.9,87.6,20.9,87.5c0.2,0.1,0.3,0.1,0.4,0.1s0.3,0,0.4-0.1
			c0.4-0.2,0.8-0.5,1.1-0.8c0.6-0.5,1.2-1.1,1.7-1.6c0.2-0.3,0.4-0.5,0.6-0.8c0.1-0.2,0.2-0.5,0.2-0.7l0,0c0,0,0,0-0.1,0
			c-0.3,0.3-0.6,0.6-0.8,0.9c-0.2,0.2-0.4,0.4-0.6,0.6c-0.1,0.1-0.2,0.2-0.3,0.3c-0.4,0.5-0.9,0.9-1.4,1.3
			C21.7,86.8,21.3,87.1,20.9,87.5L20.9,87.5L20.9,87.5z M29,63.1c-0.2,0-0.4,0-0.6,0c-0.1,0-0.1,0.1-0.1,0.1l0,0
			c0.1,0.1,0.1,0.2,0.2,0.3c0.4,0.4,0.8,0.7,1.3,1.1c0.1,0.1,0.2,0.1,0.3,0.2c0.6,0.3,1.3,0.6,1.9,0.9c0.3,0.1,0.6,0.2,0.9,0.3
			c0.2,0,0.5,0,0.7,0.1c0,0,0.1,0,0.1-0.1v-0.1l-0.1-0.1c-0.3-0.1-0.6-0.2-0.9-0.4c-0.1-0.1-0.3-0.1-0.4-0.2
			c-0.4-0.2-0.8-0.4-1.2-0.6c-0.1,0-0.1-0.1-0.2-0.1c-0.5-0.3-1-0.6-1.4-0.9c-0.1,0-0.1-0.1-0.2-0.1C29.2,63.4,29.1,63.2,29,63.1
			L29,63.1z M27.2,77.4L27.2,77.4c0,0.3,0,0.5,0.2,0.6c0.6,0.5,1.1,1,1.8,1.4s1.4,0.9,2.1,1.4c0.3,0.2,0.6,0.4,0.9,0.7
			c0.2,0.1,0.4,0.2,0.6,0.3c0.1,0,0.1,0,0.1,0l0,0c0-0.1,0-0.2,0.1-0.3c0-0.1,0-0.2-0.1-0.2c0,0-0.1,0-0.1-0.1
			c-0.7-0.4-1.3-0.8-2-1.2c-0.8-0.6-1.7-1.1-2.5-1.7C27.9,77.9,27.6,77.7,27.2,77.4C27.3,77.4,27.2,77.4,27.2,77.4L27.2,77.4
			L27.2,77.4z M28.1,65L28.1,65c-0.1-0.3-0.1-0.3-0.3-0.2c-0.8,0.4-1.5,0.8-2.2,1.2c-0.4,0.2-0.7,0.4-1.1,0.5
			c-0.5,0.2-1,0.5-1.5,0.7c-0.2,0.1-0.4,0.2-0.5,0.3c-0.5,0.2-0.9,0.4-1.4,0.6c-0.7,0.3-1.4,0.6-2.1,0.9c-0.1,0-0.2,0.1-0.3,0.1
			c-0.1,0.1-0.1,0.1-0.1,0.2s0.1,0.1,0.1,0.1c0.1,0,0.1,0,0.2,0c0.3-0.1,0.7-0.3,1-0.4c0.5-0.2,1-0.4,1.4-0.8
			c0.2-0.1,0.4-0.3,0.6-0.4c0.5-0.2,1-0.4,1.5-0.6c0.9-0.4,1.7-0.7,2.5-1.2c0.1,0,0.2-0.1,0.3-0.1c0.6-0.2,1.1-0.5,1.7-0.8
			C27.9,65.2,28,65.1,28.1,65L28.1,65L28.1,65z M33.3,71.3c-0.3-0.2-0.6-0.3-0.9-0.5c-0.3-0.2-0.7-0.4-1-0.6
			c-1.1-0.7-2.1-1.4-2.9-2.3l-0.1-0.1h-0.1l-0.1,0.1c0,0.1,0.1,0.1,0.1,0.1c0.1,0.3,0.3,0.5,0.6,0.7c0.1,0.1,0.1,0.1,0.2,0.2
			c0.3,0.3,0.6,0.6,1,0.8c0.8,0.6,1.5,1.1,2.2,1.8c0.3,0.2,0.5,0.4,0.8,0.6c0.1,0,0.1,0,0.2,0l0,0C33.3,71.8,33.3,71.6,33.3,71.3
			L33.3,71.3L33.3,71.3z M10,76L10,76c0,0.1,0,0.1,0,0.2s0.1,0.1,0.2,0.1s0.1,0,0.2,0c0.5-0.1,1-0.3,1.5-0.4
			c0.6-0.2,1.1-0.4,1.6-0.6c0.1,0,0.1-0.1,0.2-0.1s0.1-0.1,0.1-0.2s0-0.3,0-0.4s-0.1-0.2-0.2-0.1c0,0,0,0-0.1,0
			c-0.8,0.3-1.7,0.5-2.6,0.8c-0.3,0.1-0.5,0.2-0.8,0.3c-0.1,0-0.1,0.1-0.1,0.2C10,75.8,10,75.9,10,76z M29.9,63.1h-0.3
			c-0.1,0-0.1,0-0.1,0.1s0,0.1,0,0.1c0.1,0.1,0.2,0.1,0.3,0.2c0.4,0.2,0.7,0.5,1.1,0.7c0.3,0.2,0.7,0.4,1,0.6
			c0.5,0.3,1.1,0.4,1.7,0.7c0.1,0,0.1,0,0.2,0c0,0,0.1,0,0.1-0.1s0-0.2,0.1-0.3V65c-0.2-0.1-0.5-0.2-0.7-0.3
			c-0.3-0.1-0.5-0.2-0.8-0.4c-0.2-0.1-0.4-0.3-0.6-0.4c-0.4-0.2-0.7-0.4-1.1-0.7C30.3,63,30.4,63.1,29.9,63.1L29.9,63.1L29.9,63.1z
			 M10.3,77.2c0.2,0,0.4,0,0.5-0.1S11,77,11.2,77c0.4-0.1,0.7-0.2,1.1-0.2c0.5-0.1,0.9-0.3,1.4-0.4c0.2-0.1,0.3-0.1,0.2-0.4
			c0-0.1,0-0.3-0.1-0.4l-0.1-0.1c-0.1,0-0.1,0-0.2,0c-1,0.4-2,0.8-3.1,1.1c-0.1,0-0.2,0.1-0.4,0.2l-0.1,0.1c0,0.1,0,0.2,0,0.3
			c0,0,0,0.1,0.1,0.1C10.2,77.2,10.2,77.2,10.3,77.2L10.3,77.2z M28.5,86c0.1-0.1,0.3-0.1,0.4-0.2c0,0,0.1,0,0.1-0.1v-0.1l0,0
			c-0.1-0.1-0.3-0.1-0.4-0.2c-0.3-0.2-0.6-0.5-1-0.7c-0.2-0.1-0.3-0.2-0.4-0.3c-0.3-0.3-0.6-0.5-1-0.8c-0.3-0.2-0.4-0.1-0.5,0.2
			c0,0.1,0,0.3,0.1,0.4c0.3,0.3,0.6,0.6,0.9,0.8c0.1,0.1,0.3,0.3,0.5,0.3c0.2,0.1,0.4,0.2,0.5,0.3C28,85.8,28.2,85.9,28.5,86
			L28.5,86z M13.8,72.2c0-0.1,0-0.2,0-0.3c0-0.1-0.1-0.2-0.3-0.1c-0.6,0.2-1.1,0.4-1.7,0.6c-0.4,0.2-0.9,0.4-1.4,0.5
			c-0.1,0-0.1,0-0.2,0.1c-0.1,0-0.1,0.1-0.1,0.2s0,0.2,0,0.3c0,0.1,0.1,0.1,0.1,0.1c0.2,0,0.4,0,0.5-0.1c0.5-0.2,1-0.3,1.4-0.4
			s0.9-0.3,1.3-0.4C13.7,72.5,13.8,72.4,13.8,72.2L13.8,72.2z M28.5,65.5L28.5,65.5c0.1,0.2,0.2,0.3,0.2,0.5c0,0.1,0.1,0.2,0.2,0.3
			c0.4,0.3,0.7,0.5,1.1,0.8c0.3,0.2,0.5,0.4,0.9,0.6s0.8,0.5,1.2,0.7c0.3,0.2,0.7,0.3,1,0.5c0.1,0,0.1,0,0.2,0c0.1,0,0.1,0,0.1-0.1
			s0-0.2-0.1-0.3s-0.2-0.1-0.3-0.2c-0.4-0.2-0.9-0.4-1.3-0.7c-0.2-0.2-0.5-0.3-0.7-0.4s-0.4-0.2-0.6-0.3
			C29.8,66.5,29.2,66.1,28.5,65.5C28.7,65.5,28.6,65.5,28.5,65.5C28.6,65.5,28.6,65.5,28.5,65.5L28.5,65.5L28.5,65.5z M10,77.5
			c-0.1,0.2,0,0.3,0,0.5c0,0.1,0.1,0.2,0.2,0.1c0.2-0.1,0.5-0.1,0.7-0.2c0.6-0.2,1.1-0.3,1.7-0.5c0.4-0.1,0.9-0.3,1.3-0.5
			c0.1,0,0.1-0.1,0.1-0.2s0-0.1-0.1-0.2l-0.1-0.1c-0.1,0-0.1,0-0.2,0.1c-0.4,0.1-0.8,0.3-1.2,0.4s-0.8,0.2-1.2,0.3
			c-0.1,0-0.2,0.1-0.4,0.1c-0.2,0-0.2,0.1-0.4,0.1C10.3,77.5,10.2,77.5,10,77.5L10,77.5z M13.7,74c0-0.2,0-0.4,0-0.6l0,0
			c-0.2,0-0.4,0.1-0.6,0.2c-1,0.4-2,0.8-3.1,1.1c-0.1,0.1-0.1,0.3,0,0.4c0,0,0,0.1,0.1,0.1s0.2,0,0.3-0.1c0.3-0.1,0.6-0.2,0.8-0.3
			c0.6-0.1,1.2-0.3,1.7-0.5C13.3,74.3,13.5,74.2,13.7,74L13.7,74z M33.4,69.6c0-0.2,0-0.2-0.2-0.4c-0.1-0.1-0.2-0.1-0.3-0.2
			c-0.3-0.1-0.5-0.2-0.8-0.4c-0.2-0.1-0.4-0.2-0.5-0.3c-0.5-0.3-0.9-0.5-1.3-0.9c-0.5-0.4-1.1-0.7-1.6-1.2l0,0c0,0,0,0-0.1,0v0.1
			c0.1,0.2,0.2,0.4,0.4,0.5c0.4,0.4,0.9,0.7,1.3,1l0,0c0.2,0.1,0.4,0.3,0.6,0.4c0.1,0.1,0.3,0.2,0.4,0.3c0.5,0.3,1,0.6,1.5,0.9
			c0.1,0.1,0.3,0.1,0.4,0.1c0.1,0,0.1,0,0.1-0.1C33.4,69.6,33.4,69.6,33.4,69.6L33.4,69.6L33.4,69.6z M10.4,70.8V71
			c0,0.1,0.1,0.1,0.1,0.1c0.1,0,0.2,0,0.3,0c0.3-0.1,0.6-0.2,0.9-0.3c0.3-0.1,0.7-0.3,1-0.4c0.2-0.1,0.5-0.1,0.7-0.2
			c0.1,0,0.2-0.1,0.2-0.3c0-0.1,0-0.2,0-0.3c0-0.1-0.1-0.1-0.2-0.1l0,0c-0.4,0.1-0.7,0.2-1.1,0.3c-0.6,0.2-1.2,0.4-1.8,0.4
			c0,0,0,0-0.1,0l-0.1,0.1C10.4,70.6,10.4,70.7,10.4,70.8L10.4,70.8z M16.3,114.5c0.3,0,0.5,0,0.7,0c0.6-0.2,1.3-0.2,1.9-0.1
			c0.2,0.1,0.5,0.1,0.7,0.2c0.2,0,0.3,0.1,0.5,0.1s0.2-0.1,0.2-0.2s-0.1-0.2-0.3-0.3c-0.4-0.1-0.8-0.2-1.2-0.3
			c-0.3-0.1-0.6-0.2-0.9-0.1c-0.5,0-1,0.1-1.5,0.3L16.3,114.5L16.3,114.5z M13.7,72.8L13.1,73c-0.3,0.1-0.6,0.2-0.8,0.2
			c-0.4,0.1-0.7,0.2-1.1,0.3c-0.3,0.1-0.6,0.3-1,0.3c-0.1,0-0.1,0.1-0.1,0.1c0,0.1,0,0.1,0,0.2c0,0.2,0,0.3,0.2,0.2
			c0.2,0,0.4-0.1,0.5-0.1c0.3-0.1,0.5-0.2,0.8-0.3c0.7-0.2,1.4-0.5,2-0.8c0,0,0,0,0.1,0s0.1-0.1,0.1-0.2
			C13.8,72.9,13.8,72.8,13.7,72.8L13.7,72.8z M13.4,68.1c-0.2,0-0.3,0.1-0.5,0.1c-0.5,0.2-1,0.3-1.5,0.4c-0.2,0-0.4,0.1-0.6,0.2
			c-0.1,0-0.1,0.1-0.1,0.2s0,0.2,0,0.3c0,0.1,0.1,0.1,0.1,0.1c0.4,0,0.8-0.1,1.1-0.2c0.5-0.1,0.9-0.3,1.3-0.5c0.1,0,0.1-0.1,0.2-0.1
			l0.1-0.1C13.5,68.4,13.5,68.2,13.4,68.1L13.4,68.1z M15.4,62.7c-0.1-0.1-0.2-0.1-0.3-0.1c-0.1,0-0.1,0-0.2,0s-0.1,0-0.1,0.1
			c-0.2,0.2-0.4,0.3-0.7,0.3c-0.3,0.1-0.6,0.2-0.9,0.3c-0.2,0.1-0.5,0.2-0.7,0.3c-0.4,0.1-0.8,0.3-1.2,0.4c-0.1,0-0.1,0.1-0.1,0.1
			c-0.1,0.1-0.1,0.2,0,0.3l0.1,0.1c0.1,0,0.3-0.1,0.4-0.1c0.6-0.2,1.2-0.5,1.8-0.7c0.3-0.1,0.7-0.3,1-0.4c0.2-0.1,0.5-0.2,0.8-0.3
			C15.2,62.9,15.3,62.8,15.4,62.7L15.4,62.7L15.4,62.7z M11.2,63.6l1.2-0.4c0.2-0.1,0.3-0.1,0.5-0.2c0.3-0.1,0.7-0.2,1-0.4
			c0.1,0,0.2-0.1,0.3-0.1l0.1-0.1c0,0,0-0.1-0.1-0.1c-0.4-0.2-0.8-0.2-1.2,0s-0.8,0.4-1.2,0.5c-0.2,0.1-0.4,0.2-0.6,0.4l-0.1,0.1
			C11.1,63.5,11.2,63.6,11.2,63.6L11.2,63.6z M28,86.2L28,86.2c-0.3-0.3-0.5-0.5-0.9-0.7c-0.2-0.1-0.4-0.2-0.5-0.4
			c-0.1-0.1-0.2-0.1-0.3-0.2s-0.2-0.1-0.3-0.1s-0.1,0-0.1-0.1c-0.1-0.1-0.1-0.2-0.2-0.2h-0.1l0,0c-0.1,0.1-0.1,0.3-0.1,0.4
			c0.1,0.3,0.3,0.6,0.6,0.7c0.4,0.2,0.8,0.4,1.3,0.6L28,86.2L28,86.2z M32,63c-0.3,0-0.5,0-0.7,0c-0.1,0-0.2,0-0.3,0.1
			c0,0,0,0,0,0.1l0,0c0,0.1,0.1,0.1,0.2,0.1c0.4,0.2,0.7,0.4,1.1,0.7c0.4,0.3,0.9,0.4,1.4,0.7c0.1,0,0.1,0,0.2,0H34l0.1-0.1v-0.1
			c-0.1-0.1-0.1-0.1-0.2-0.1c-0.1-0.1-0.3-0.1-0.4-0.2C32.9,63.8,32.4,63.6,32,63L32,63L32,63z M10.4,71.9c0.1,0,0.1,0,0.2,0
			c0.3-0.1,0.5-0.1,0.8-0.2c0.2,0,0.3-0.1,0.5-0.1c0.5-0.2,1-0.4,1.5-0.6c0.1-0.1,0.2-0.1,0.1-0.3c0-0.1-0.1-0.2-0.2-0.2
			c-0.3,0.1-0.6,0.2-0.9,0.3c-0.5,0.2-1,0.4-1.5,0.5c-0.3,0.1-0.5,0.3-0.8,0.3l0,0v0.1C10.3,71.8,10.3,71.8,10.4,71.9L10.4,71.9
			L10.4,71.9L10.4,71.9z M10.5,69.9L10.5,69.9c0,0.2,0.1,0.2,0.1,0.2l0,0c0.6-0.2,1.2-0.2,1.8-0.5c0.1,0,0.1,0,0.2-0.1
			c0.3-0.1,0.5-0.2,0.8-0.3l0.1-0.1c0-0.1,0-0.1,0-0.2s-0.1-0.2-0.2-0.2c-0.2,0.1-0.4,0.2-0.6,0.2c-0.5,0.2-1,0.4-1.5,0.4
			c-0.2,0-0.4,0.1-0.5,0.1C10.5,69.7,10.5,69.7,10.5,69.9L10.5,69.9L10.5,69.9L10.5,69.9z M25.2,84.8c-0.2,0.2-0.3,0.3-0.5,0.4
			c-0.6,0.6-1.2,1.2-1.8,1.7c-0.2,0.2-0.4,0.3-0.6,0.5c0,0,0,0,0,0.1c0,0,0,0.1,0.1,0.1l0,0c0.3,0,0.6-0.1,0.8-0.3
			c0.4-0.4,0.8-0.7,1.2-1.1C24.8,85.8,25,85.3,25.2,84.8L25.2,84.8z M21.3,25.6c0.1,0.1,0.1,0.3,0.2,0.4c0.1,0.2,0.2,0.4,0.3,0.7
			c0,0.1,0.1,0.1,0.1,0.2H22l0,0c0-0.3,0.1-0.7,0.1-1s0-0.7,0-1S22,24.4,22,24.1c0,0,0,0,0-0.1c0,0,0-0.1-0.1-0.1c0,0-0.1,0-0.1,0.1
			c0,0.3-0.1,0.5-0.2,0.7C21.6,25.1,21.5,25.3,21.3,25.6L21.3,25.6z M14,67.2c0.4,0,0.7,0,0.9,0c0.3,0,0.6,0,0.8-0.1
			c0.4-0.1,0.7-0.2,1.1-0.4c0.1,0,0.2-0.1,0.3-0.1c0.1,0,0.1-0.1,0.1-0.2v-0.1c0,0,0,0-0.1,0c-0.2,0-0.4,0-0.5,0.1
			c-0.4,0.1-0.9,0.1-1.3,0.3c-0.1,0.1-0.2,0.1-0.4,0.1C14.7,66.9,14.4,67,14,67.2L14,67.2L14,67.2z M13.7,71.3
			C13.7,71.2,13.6,71.2,13.7,71.3l-0.2-0.1c-0.2,0.1-0.4,0.1-0.6,0.2c-0.5,0.2-1.1,0.4-1.7,0.5c-0.2,0-0.5,0.1-0.7,0.1
			s-0.3,0.1-0.3,0.3c0,0.1,0,0.2,0.1,0.2l0,0c0.5-0.1,0.9-0.2,1.3-0.4c0.2-0.1,0.4-0.2,0.6-0.3c0.4-0.1,0.8-0.3,1.2-0.4
			C13.5,71.4,13.5,71.3,13.7,71.3C13.7,71.4,13.7,71.4,13.7,71.3L13.7,71.3L13.7,71.3z M13.4,67.6c0,0,0-0.1,0-0.2s-0.1-0.1-0.1-0.1
			c-0.4,0.1-0.9,0.3-1.4,0.4c-0.3,0.1-0.7,0.3-1,0.3c-0.1,0-0.1,0-0.1,0.1c-0.1,0.1-0.1,0.1-0.1,0.2l0.1,0.1c0.1,0,0.2-0.1,0.3-0.1
			c0.4-0.1,0.8-0.1,1.2-0.3c0.3-0.1,0.5-0.1,0.7-0.2c0.1,0,0.2-0.1,0.3-0.1C13.4,67.8,13.4,67.8,13.4,67.6L13.4,67.6L13.4,67.6z
			 M11.4,12.3c0.1-0.2,0.1-0.3,0.1-0.4c0-0.1,0.1-0.2,0.3-0.2c0.1,0,0.3,0,0.3,0.2c0,0.1,0.1,0.2,0.1,0.3c0.1,0.2,0.1,0.4,0.2,0.6
			c0,0.1,0.1,0.1,0.1,0.1l0,0c0,0,0.1,0,0.1-0.1s0-0.3-0.1-0.4c-0.1-0.1,0-0.3-0.1-0.4c0-0.1-0.1-0.3-0.1-0.4c0,0,0-0.1-0.1-0.1
			C12,11.2,11.8,11,11.4,11c-0.1,0-0.1,0-0.2,0s-0.1,0.1-0.2,0.1s-0.1,0.1-0.1,0.2c0,0.2,0.1,0.4,0.1,0.6
			C11.3,12.1,11.4,12.2,11.4,12.3L11.4,12.3z M19.2,118c0.3,0,0.5-0.1,0.8-0.2c0.1,0,0.2-0.1,0.2-0.2s0-0.2-0.1-0.2
			c-0.3-0.1-0.6-0.1-0.9-0.2c-0.2,0-0.4,0-0.6,0.1c-0.1,0-0.1,0.1-0.1,0.1c-0.1,0.2,0,0.5,0.3,0.5h0.1C19,118,19.1,118,19.2,118z
			 M37,109.5c-0.1,0.3-0.1,0.5-0.1,0.8c0.3,0.2,0.5,0.2,0.7,0c0.1-0.1,0.3-0.3,0.4-0.5c0-0.1,0-0.1,0-0.2c0-0.2-0.2-0.4-0.4-0.3
			c-0.1,0.1-0.3,0.1-0.5,0.1C37.1,109.5,37,109.5,37,109.5L37,109.5L37,109.5z M32.5,63c0,0.1,0,0.1,0,0.2c0.4,0.4,0.8,0.7,1.3,0.9
			c0,0,0,0,0.1,0s0.1,0,0.1-0.1s0-0.1,0.1-0.2c0-0.1,0-0.2-0.1-0.2c-0.1-0.1-0.2-0.1-0.3-0.2c-0.1-0.1-0.2-0.1-0.3-0.2
			c-0.1-0.1-0.1-0.2-0.2-0.2C33,63,32.8,63,32.5,63L32.5,63L32.5,63z M11.2,62.5c0,0.1,0,0.1,0,0.2c0,0.1,0.1,0.2,0.2,0.2
			s0.2,0,0.3-0.1c0.4-0.1,0.8-0.4,1.2-0.6l0.1-0.1c-0.1-0.1-0.3-0.2-0.5-0.1c-0.3,0.1-0.6,0.2-0.8,0.3c-0.1,0.1-0.2,0.1-0.2,0.1
			C11.4,62.4,11.3,62.4,11.2,62.5L11.2,62.5L11.2,62.5z M11.9,14.5c-0.1,0.1-0.1,0.2-0.1,0.3c-0.1,0.3-0.1,0.6,0,0.9
			c0,0.1,0,0.2,0.1,0.3c0,0.1,0.1,0.2,0.2,0.2h0.1c0.1,0,0.2-0.1,0.2-0.2c0-0.2-0.1-0.4-0.1-0.6c0-0.1-0.1-0.2-0.1-0.3
			C12.1,14.8,12,14.6,11.9,14.5L11.9,14.5L11.9,14.5z M25.5,85.7c0,0.1,0,0.1,0,0.2c0.1,0.2,0.2,0.3,0.2,0.6c0,0.1,0.1,0.1,0.1,0.1
			c0.1,0.1,0.2,0.1,0.4,0.1s0.3-0.1,0.5-0.1c0,0,0.1,0,0.1-0.1v-0.1c-0.1-0.1-0.2-0.1-0.3-0.1C26.2,86.2,25.8,86.1,25.5,85.7
			C25.6,85.7,25.6,85.7,25.5,85.7L25.5,85.7L25.5,85.7z M16.6,73c-0.1-0.2-0.2-0.3-0.3-0.4c-0.2-0.2-0.3-0.2-0.5-0.1
			c0,0-0.1,0-0.1,0.1c-0.1,0-0.1,0.1-0.1,0.2l0,0c0.1,0.2,0.3,0.3,0.4,0.5h0.1C16.3,73.2,16.5,73.2,16.6,73z M16,75.3
			C16.1,75.3,16.1,75.3,16,75.3c-0.1-0.2-0.3-0.4-0.5-0.6h-0.1c-0.2,0-0.3,0.1-0.4,0.2v0.2c0.2,0.1,0.4,0.2,0.5,0.4
			c0.1,0.1,0.1,0.1,0.2,0C15.9,75.4,15.9,75.4,16,75.3L16,75.3L16,75.3L16,75.3z M15.1,72c0.1,0,0.2-0.1,0.4-0.1
			c0.1,0,0.1-0.1,0.1-0.2c0,0,0,0,0-0.1c-0.1-0.1-0.2-0.2-0.3-0.3h-0.1c-0.1,0-0.3,0.1-0.4,0.1c0,0.1-0.1,0.1,0,0.2
			C14.8,71.7,14.9,71.9,15.1,72z M16.9,67.9c0,0,0-0.1,0-0.2s-0.1-0.1-0.1-0.1l0,0c-0.2,0.3-0.5,0.5-0.8,0.7c0,0,0,0.1-0.1,0.1
			c0,0,0,0,0,0.1l0,0H16c0.3-0.1,0.6-0.2,0.9-0.4c0,0,0-0.1,0.1-0.1C16.9,68,16.9,68,16.9,67.9L16.9,67.9z M16.8,76
			c-0.1,0.1-0.2,0.1-0.3,0.2v0.1c0.1,0.2,0.3,0.4,0.5,0.5c0.1,0,0.2,0,0.2-0.1l0,0c0-0.1,0-0.3,0-0.4L16.8,76L16.8,76z M16.5,71.2
			c-0.1-0.1-0.2-0.3-0.3-0.3c0,0,0,0-0.1,0c-0.2,0-0.3,0.1-0.4,0.2v0.1c0.1,0.1,0.2,0.2,0.3,0.3h0.1C16.2,71.5,16.4,71.4,16.5,71.2
			C16.5,71.3,16.5,71.2,16.5,71.2L16.5,71.2z M18.1,117.5c0,0-0.1,0-0.1-0.1c-0.1-0.1-0.3-0.1-0.4,0c-0.1,0-0.1,0.1-0.1,0.2
			s0.1,0.2,0.2,0.3c0.1,0,0.3,0,0.4,0.1c0,0,0.1,0,0.1-0.1l0,0C18.2,117.7,18.2,117.6,18.1,117.5L18.1,117.5z M17.1,73.7
			c0-0.1-0.1-0.3-0.2-0.4s-0.2,0-0.3,0c-0.1,0-0.1,0.1-0.2,0.1c0,0-0.1,0.1,0,0.1c0.1,0.1,0.1,0.2,0.2,0.3
			C16.7,74,17,73.9,17.1,73.7L17.1,73.7L17.1,73.7L17.1,73.7z M17.1,74.9c-0.2-0.2-0.3-0.3-0.4-0.5l-0.1-0.1c-0.1,0-0.2,0-0.3,0.1
			c0,0,0,0.1,0,0.2c0.1,0.1,0.2,0.3,0.4,0.4c0.1,0.1,0.2,0.1,0.3,0C16.9,75,17,74.9,17.1,74.9L17.1,74.9L17.1,74.9z M16.8,68.5
			c-0.2,0.1-0.5,0.2-0.7,0.3c-0.1,0-0.1,0.1,0,0.2l0,0c0,0,0.1,0,0.1,0.1c0.1,0.1,0.2,0.1,0.3,0c0.1-0.1,0.3-0.1,0.4-0.2
			s0.1-0.2,0.1-0.2C16.9,68.6,16.9,68.5,16.8,68.5L16.8,68.5L16.8,68.5z M14.9,72.9c0.1,0.2,0.2,0.4,0.4,0.5c0.1,0.1,0.3,0.1,0.3,0
			v-0.1c-0.1-0.2-0.3-0.4-0.5-0.6H15C15,72.8,15,72.8,14.9,72.9L14.9,72.9z M15.5,69.5c0.1,0,0.2-0.1,0.3-0.1c0.1-0.1,0.1-0.2,0-0.3
			c0-0.1-0.1-0.1-0.3-0.1c-0.1,0-0.2,0.1-0.4,0.1c0,0-0.1,0.1,0,0.1c0.1,0.1,0.1,0.1,0.2,0.2C15.4,69.5,15.5,69.5,15.5,69.5
			L15.5,69.5L15.5,69.5z M12.1,61.7c-0.1,0-0.1-0.1-0.2-0.1c-0.3,0-0.5,0.1-0.7,0.2c0,0-0.1,0.1,0,0.1c0,0.1,0.1,0.1,0.1,0.1
			C11.6,61.9,11.8,61.8,12.1,61.7C12.1,61.8,12.1,61.7,12.1,61.7z M16.5,69.8c0,0,0-0.1-0.1-0.1c-0.1-0.2-0.3-0.2-0.5-0.1
			c-0.1,0-0.2,0.1-0.2,0.1v0.1c0,0.1,0.2,0.3,0.3,0.2C16.2,70,16.4,70,16.5,69.8L16.5,69.8z M14.6,69.3h-0.1c-0.1,0-0.2,0.1-0.1,0.2
			c0,0,0,0,0,0.1c0.1,0.1,0.1,0.1,0.2,0.2c0,0,0.1,0,0.1,0.1c0.1,0,0.3,0,0.4-0.1l0,0c-0.1-0.2-0.2-0.3-0.3-0.3
			C14.7,69.3,14.6,69.3,14.6,69.3L14.6,69.3L14.6,69.3z M17.1,72.4c0-0.1-0.1-0.2-0.1-0.3c0-0.1-0.1-0.1-0.1-0.1
			c-0.1,0-0.2,0.1-0.3,0.1c-0.1,0-0.1,0.1-0.1,0.2c0.1,0.2,0.2,0.3,0.4,0.4c0,0,0.1,0,0.1-0.1C17.1,72.5,17.1,72.5,17.1,72.4
			L17.1,72.4z M11.9,12C11.8,12,11.8,12,11.9,12c-0.2,0.2-0.2,0.3-0.1,0.5c0.1,0.1,0.1,0.1,0.1,0.2c0,0.1,0,0.2,0.1,0.3h0.1
			c0,0,0.1,0,0.1-0.1v-0.1C12.1,12.5,12,12.3,11.9,12L11.9,12L11.9,12z M11.8,14.1V14c0-0.3-0.2-0.7-0.2-1l-0.1-0.1l0,0
			c0,0-0.1,0-0.1,0.1s0,0.3,0,0.4C11.6,13.6,11.7,13.8,11.8,14.1L11.8,14.1z M16.5,75.8c0-0.1-0.1-0.1-0.2-0.2h-0.1
			c-0.1,0.1-0.2,0.1-0.3,0.2v0.1C16,76,16,76,16.1,76.1h0.1C16.3,76,16.5,76,16.5,75.8L16.5,75.8L16.5,75.8L16.5,75.8z M15.3,69.9
			c-0.1,0-0.2,0.1-0.3,0.1c-0.1,0-0.1,0.1,0,0.2c0,0.1,0.1,0.1,0.2,0.1c0.2,0,0.3-0.1,0.4-0.2C15.5,70,15.4,70,15.3,69.9L15.3,69.9
			L15.3,69.9z M27.3,41.1c0-0.1,0-0.1,0-0.2c0,0,0-0.1-0.1-0.1c-0.1-0.1-0.3,0-0.3,0.1s0,0.3-0.1,0.4c0,0.1,0.1,0.2,0.2,0.2h0.1
			c0.1,0,0.1-0.1,0.1-0.1C27.3,41.2,27.3,41.2,27.3,41.1L27.3,41.1L27.3,41.1z M16,74.1c0,0,0.1,0,0.1-0.1c0.1,0,0.1-0.1,0.1-0.2
			s-0.1-0.1-0.2-0.2l0,0c-0.1-0.1-0.3,0-0.3,0.1c0,0,0,0,0,0.1C15.7,74,15.8,74.1,16,74.1L16,74.1L16,74.1z M15.3,70.6L15.3,70.6
			c0.1,0.2,0.1,0.3,0.3,0.2c0.1,0,0.2-0.1,0.3-0.1c0.1,0,0.1-0.1,0-0.2s-0.1-0.1-0.2-0.1C15.5,70.4,15.4,70.5,15.3,70.6L15.3,70.6z
			 M15,74.5c0.1,0,0.1,0,0.2-0.1s0.1-0.1,0.1-0.2c-0.1-0.1-0.1-0.1-0.2-0.2L15,74c-0.1,0-0.1,0.1-0.1,0.2s0,0.2,0,0.3
			C15,74.5,15,74.5,15,74.5L15,74.5L15,74.5z M15.4,72.3L15.4,72.3c0.2,0,0.4-0.1,0.5-0.2V72c0,0,0-0.1-0.1-0.1c0,0,0,0-0.1,0
			S15.4,72,15.3,72v0.1C15.3,72.3,15.3,72.3,15.4,72.3L15.4,72.3L15.4,72.3z M16.4,117.1c0-0.1,0-0.2-0.1-0.3c0-0.1-0.1-0.1-0.2-0.1
			l-0.1,0.1c0,0.1,0.1,0.3,0.1,0.4c0,0,0,0,0.1,0c0,0,0.1,0,0.1-0.1C16.4,117.2,16.4,117.2,16.4,117.1L16.4,117.1L16.4,117.1z
			 M16.6,69.4c0.1,0.1,0.2,0.1,0.2,0.2h0.1c0,0,0,0,0-0.1s0-0.3-0.1-0.4C16.8,69.1,16.6,69.2,16.6,69.4L16.6,69.4z M16.8,70.1h-0.1
			c-0.1,0.1-0.3,0.1-0.4,0.2v0.1c0,0,0,0.1,0.1,0.1h0.1c0.2,0,0.3-0.1,0.5-0.2v-0.1C16.8,70.1,16.8,70.1,16.8,70.1L16.8,70.1
			L16.8,70.1z M16.9,71.7c0-0.1-0.1-0.1-0.1-0.1c-0.2,0-0.4,0.1-0.5,0.2v0.1c0,0,0,0.1,0.1,0.1C16.5,71.9,16.7,71.8,16.9,71.7
			L16.9,71.7L16.9,71.7z M34.2,63.2c0-0.1-0.1-0.2-0.2-0.2c-0.1,0-0.1,0-0.2,0c0,0-0.1,0-0.1,0.1c0,0,0,0,0,0.1
			c0.1,0.1,0.2,0.2,0.3,0.2h0.1C34.2,63.3,34.2,63.2,34.2,63.2L34.2,63.2L34.2,63.2z M10,11.7c0-0.2,0-0.4-0.1-0.5H9.8l0,0
			c0,0.2,0,0.4,0.1,0.5C9.9,11.8,9.9,11.8,10,11.7L10,11.7z M16.9,70.6c-0.1,0-0.2,0-0.3,0.1v0.1c0,0.1,0.1,0.2,0.2,0.2h0.1v-0.1
			C17,70.8,17,70.7,16.9,70.6L16.9,70.6L16.9,70.6z M14.8,68.9l0.1,0.1c0.2-0.1,0.3-0.1,0.4-0.2c0,0,0,0,0-0.1l0,0
			C15.1,68.8,14.9,68.8,14.8,68.9C14.8,68.8,14.8,68.8,14.8,68.9L14.8,68.9L14.8,68.9z M17.3,117.8c-0.1-0.1-0.1-0.2-0.3-0.3h-0.1
			l0,0v0.1C17,117.8,17.1,117.9,17.3,117.8L17.3,117.8L17.3,117.8z M17.3,75.4c0-0.1-0.1-0.2-0.2-0.2S17,75.3,17,75.3
			C17,75.5,17.1,75.5,17.3,75.4C17.2,75.5,17.2,75.5,17.3,75.4C17.3,75.5,17.3,75.4,17.3,75.4L17.3,75.4L17.3,75.4z M14.9,70.9
			C14.9,70.9,14.8,70.9,14.9,70.9c-0.1-0.1-0.2-0.1-0.3-0.1c0,0-0.1,0.1,0,0.2S14.7,71.1,14.9,70.9C14.8,71,14.8,71,14.9,70.9
			L14.9,70.9L14.9,70.9L14.9,70.9z M11.5,61.4L11.5,61.4c-0.1-0.1-0.1-0.1-0.2-0.1s-0.1,0-0.1,0.1s0,0.1,0.1,0.1l0,0
			C11.3,61.4,11.4,61.4,11.5,61.4C11.4,61.4,11.5,61.4,11.5,61.4z M17.2,74.4C17.2,74.3,17.2,74.3,17.2,74.4c0-0.2-0.1-0.2-0.1-0.2
			s0,0-0.1,0c0,0,0,0-0.1,0.1C17,74.3,17,74.3,17.2,74.4L17.2,74.4z M24.8,86.9c-0.1,0-0.2,0.1-0.2,0.2v0.1l0,0c0,0,0,0,0.1,0
			C24.8,87.1,24.9,87.1,24.8,86.9L24.8,86.9z M20,67.4C20,67.4,19.9,67.4,20,67.4c-0.1,0-0.1,0-0.1,0l-0.1,0.1
			C19.8,67.5,19.8,67.5,20,67.4C19.9,67.4,19.9,67.4,20,67.4L20,67.4L20,67.4z M22.9,8.7L22.9,8.7C23,8.8,23,8.9,23,8.8l0,0
			L22.9,8.7c0.1,0,0.1-0.1,0-0.1C23,8.6,23,8.6,22.9,8.7C22.9,8.6,22.9,8.6,22.9,8.7L22.9,8.7z M14.3,69C14.3,69,14.3,69.1,14.3,69
			l0.1,0.1l0,0C14.4,69,14.4,69,14.3,69L14.3,69L14.3,69L14.3,69z M23.4,17.5L23.4,17.5c-0.1-0.1-0.1-0.1-0.2-0.1c0,0-0.1,0.1,0,0.1
			S23.4,17.5,23.4,17.5L23.4,17.5z M14.8,72.5h0.1v-0.1c0,0-0.1,0-0.1-0.1l0,0C14.8,72.4,14.8,72.5,14.8,72.5L14.8,72.5z M37,109.1
			L37,109.1C37,109,37,109,37,109.1C37,109,36.9,109,37,109.1C36.9,109.1,36.9,109.1,37,109.1z"/>
		<path d="M23.7,9.7c0.1,0,0.1,0.1,0.1,0.2l0,0C23.8,9.9,23.7,9.9,23.7,9.7C23.8,9.8,23.8,9.7,23.7,9.7L23.7,9.7L23.7,9.7z"/>
		<path d="M24.9,12c0.1,0,0.1,0,0.1,0.1s0,0.1,0,0.1l0,0C25,12.2,24.9,12.1,24.9,12L24.9,12L24.9,12z"/>
		<path d="M19,41.2c-0.3,0-0.5,0-0.8-0.1c-0.1,0-0.3-0.1-0.4-0.1c-0.2-0.1-0.3-0.3-0.4-0.5c0-0.1,0-0.2,0.1-0.3h0.1
			c0,0,0.1,0,0.1,0.1s0,0.1,0,0.2c0,0.2,0.1,0.3,0.3,0.4c0.2,0.1,0.4,0.1,0.6,0.1c0.5,0,1,0.1,1.4-0.1c0,0,0.1,0,0.1,0.1
			c0,0,0,0,0,0.1l0,0C19.7,41.1,19.4,41.2,19,41.2L19,41.2z"/>
		<path d="M19.3,39.8C19.3,39.8,19.3,39.9,19.3,39.8c0,0.1-0.1,0.2-0.2,0.2s-0.1-0.1-0.2-0.1c0-0.1-0.1-0.1,0-0.2
			c0-0.1,0.1-0.1,0.2-0.1s0.1,0.1,0.1,0.1C19.3,39.7,19.3,39.8,19.3,39.8L19.3,39.8z"/>
		<path d="M18.5,9.2c0.6,0,1.1,0.1,1.6,0.4c0,0,0.1,0,0.1,0.1v0.1c0,0,0,0.1-0.1,0.1s-0.3,0-0.4-0.1c-0.3-0.1-0.6-0.2-1-0.3
			c-0.3,0-0.5,0-0.8,0c-0.1,0-0.1,0.1-0.2,0.1h-0.1c0,0-0.1,0-0.1-0.1V9.4c0.1-0.1,0.2-0.2,0.4-0.2C18.2,9.1,18.3,9.1,18.5,9.2
			L18.5,9.2z"/>
		<path d="M18.5,10.4c0.2,0,0.5,0.1,0.7,0.1c0.1,0,0.1,0,0.1,0.1l0.1,0.1c0,0.1-0.1,0.3-0.2,0.3c-0.2,0.1-0.4,0.2-0.6,0.1V11l0,0
			c0.1-0.1,0.1-0.1,0.2-0.1c0-0.1-0.1-0.2-0.2-0.2s-0.1,0-0.1-0.1C18.5,10.6,18.4,10.5,18.5,10.4C18.5,10.4,18.5,10.4,18.5,10.4
			L18.5,10.4L18.5,10.4z"/>
		<path d="M18.5,10.3c-0.2,0.1-0.4,0.2-0.6,0.2c-0.1,0-0.1,0-0.1-0.1v-0.1c0.3-0.1,0.6-0.3,0.9-0.3c0.2,0,0.4,0,0.5,0.1
			c0.2,0.1,0.3,0.1,0.5,0.2c0,0,0,0,0,0.1h-0.1c-0.1,0-0.2,0-0.3-0.1c-0.1,0-0.2-0.1-0.3-0.1C19,10.2,18.8,10.2,18.5,10.3L18.5,10.3
			L18.5,10.3L18.5,10.3z"/>
		<path d="M19.2,12.6c-0.1,0-0.1,0-0.2,0s-0.1-0.1-0.2-0.1v-0.1l0,0h0.1c0.2,0.1,0.5,0.1,0.7,0c0.1,0,0.2-0.1,0.3-0.1l0,0l0,0
			c-0.1,0.1-0.3,0.2-0.4,0.3C19.5,12.6,19.4,12.6,19.2,12.6L19.2,12.6z"/>
		<path d="M21,18.8C21.1,18.8,21.1,18.8,21,18.8c0.1,0,0.2,0.1,0.3,0.1l0,0c0,0,0,0-0.1,0.1c-0.1,0-0.2,0-0.2-0.1
			C21,18.9,21,18.9,21,18.8L21,18.8z"/>
		<path d="M18,89.3c-0.2,0-0.3-0.1-0.4-0.2S17.5,89,17.5,89c0-0.1,0-0.1,0-0.1h0.1c0.1,0.1,0.1,0.2,0.2,0.3c0.1,0.1,0.2,0.1,0.3,0.2
			v0.1C18.1,89.3,18.1,89.3,18,89.3C18.1,89.3,18.1,89.3,18,89.3L18,89.3z"/>
		<path d="M28.3,107.5C28.3,107.5,28.3,107.6,28.3,107.5l-0.2,0.1c0,0,0-0.1-0.1-0.1c0-0.2-0.1-0.4-0.3-0.4c-0.1,0-0.1-0.1-0.2-0.2
			c0-0.1,0-0.1,0-0.1s0.1-0.1,0.1,0c0.1,0,0.2,0.1,0.2,0.1c0.1,0.2,0.2,0.4,0.3,0.5C28.3,107.5,28.3,107.5,28.3,107.5z"/>
		<path d="M26.6,88.7c0-0.2,0.1-0.4,0.2-0.6l0,0C26.9,88,27,88,27,88c0.1,0,0.1,0.1,0.1,0.2S27,88.3,27,88.3
			c-0.2,0.1-0.2,0.3-0.3,0.5c0,0,0,0-0.1,0.1C26.6,88.8,26.6,88.8,26.6,88.7L26.6,88.7L26.6,88.7z"/>
		<path d="M27.2,41.2L27.2,41.2C27.2,41.3,27.2,41.3,27.2,41.2c-0.2,0.1-0.2,0.1-0.2,0s0-0.1,0-0.2c0-0.1,0.1-0.1,0.1-0.1
			C27.1,41,27.2,41.1,27.2,41.2C27.2,41.1,27.2,41.2,27.2,41.2L27.2,41.2z"/>
	</g>
</g>
<rect x="0.5" y="0.5" class="st1" width="6.6" height="7.9"/>
</svg>
