<?xml version="1.0" encoding="utf-8"?>
<!-- Generator: Adobe Illustrator 27.7.0, SVG Export Plug-In . SVG Version: 6.00 Build 0)  -->
<svg version="1.1" id="Capa_2" xmlns="http://www.w3.org/2000/svg" xmlns:xlink="http://www.w3.org/1999/xlink" x="0px" y="0px"
	 viewBox="11 0 120 120" style="enable-background:new 0 0 120 120;" xml:space="preserve" width="120px" height="120px">
<style type="text/css">
	.st012{fill:#FFFFFF;}
</style>
<g id="Capa_1-2">
	<path class="st012" d="M45.2,42.5c0.5,0.8,0.9,1.7,1.2,2.5c0.2,0.4,0.3,0.9,0.5,1.3c0.4,0.9,0.6,1.8,0.8,2.7c0.1,0.3,0.1,0.6,0.2,1
		c0,0.2,0,0.3,0.1,0.5c0.1,0.3,0.1,0.6,0.1,1c0,0.9,0,1.8,0,2.7c0,0.4,0,0.8,0,1.1s0,0.6,0.1,0.8c0,0.2,0.1,0.4,0.1,0.7
		c0,0.6,0,1.1-0.2,1.7c-0.1,0.5-0.3,1-0.5,1.6c-0.1,0.2-0.2,0.4-0.2,0.7c-0.1,0.4-0.3,0.9-0.6,1.3c-0.3-0.1-0.4,0.1-0.4,0.4
		c-0.1,0.1-0.3,0.2-0.5,0.2c-0.2,0.1-0.4,0.3-0.4,0.5c-0.1,0.3-0.1,0.6-0.2,1l0.1,0.3c0,0,0,0.1-0.1,0.1c-0.1,0.1-0.2,0.2-0.2,0.3
		c-0.1,0.6-0.2,1.2-0.3,1.8c0,0.3-0.1,0.7-0.2,1c-0.1,0.4-0.1,0.8-0.1,1.2c0,0.3,0,0.6,0,0.9c0,0.2,0,0.4,0,0.6c0,0.3,0,0.6,0,1
		c0,0.2,0,0.3-0.1,0.5c0,0.1,0,0.2,0,0.3c0,0.7,0,1.3,0,2s0,1.3-0.1,2v0.1c0.1,0.4,0,0.9,0,1.3c0,0.2,0,0.5,0,0.7s0,0.4,0,0.6
		c-0.1,0.4-0.1,0.8-0.1,1.3s0,0.9-0.1,1.4C44,82.1,44,82.5,44,82.8c-0.1,0.3-0.1,0.7-0.2,1c-0.1,0.3-0.3,0.5-0.5,0.7
		c-0.3,0.3-0.6,0.6-1,0.8c-0.3,0.1-0.5,0.3-0.7,0.4s-0.2,0.2-0.2,0.4c0.1,0.4,0.1,0.7,0.1,1.1c0,0.3,0.1,0.6,0.1,0.9
		c0,0.1,0,0.3,0,0.4c0,0.3-0.1,0.7-0.1,1c0,0.2-0.1,0.4-0.1,0.6c0,0.4-0.1,0.8-0.2,1.2c-0.1,0.2-0.1,0.5-0.1,0.7
		c-0.1,0.7-0.4,1.4-0.6,2.1c-0.1,0.4-0.3,0.8-0.4,1.1c-0.2,0.6-0.3,1.3-0.4,1.9c0,0.4,0,0.7-0.1,1.1c0,0.3,0,0.6,0,1
		c0,0.2,0,0.4,0,0.7v5.3c0,0.4,0.2,0.7,0.5,0.8c0.2,0.1,0.5,0.1,0.7,0.3c0.3,0,0.5,0.2,0.7,0.3c0.3,0.1,0.5,0.3,0.8,0.4
		c0.1,0,0.2,0.1,0.4,0.1s0.4,0,0.5,0.1c0.5,0.2,1,0.4,1.5,0.5c0.1,0,0.1,0,0.2,0c0.3,0,0.5,0,0.8,0.1c0.1,0,0.2,0.1,0.4,0.1
		c0.4,0.2,0.9,0.4,1.3,0.6c0.2,0.1,0.3,0.1,0.5,0.1c0.1,0,0.3,0,0.4,0.1c0.1,0.1,0.2,0.1,0.3,0.1c0.5,0.2,0.6,0.7,0.3,1.1
		c-0.1,0.1-0.1,0.1-0.1,0.2s-0.1,0.1-0.1,0.2c0.1,0,0.1,0.1,0.1,0.1c0,0.1,0.1,0.1,0,0.2c-0.1,0.2-0.1,0.5-0.2,0.7
		c-0.1,0.3-0.3,0.6-0.7,0.6h-0.2c-0.4,0-0.8,0-1.3,0c-0.3,0-0.5-0.1-0.7-0.2c-0.5-0.1-0.9-0.2-1.4-0.3c-0.6-0.1-1.2-0.2-1.8-0.2
		c-0.1,0-0.2,0-0.3,0c-0.5,0-1,0-1.5-0.2c-0.1,0-0.1,0-0.2,0c-0.3,0-0.6,0-0.8-0.1c-0.3-0.1-0.5-0.1-0.8-0.1c-0.2,0-0.5,0-0.7-0.1
		h-0.1c-0.6,0.1-1.1-0.2-1.7-0.2c-0.3,0-0.6-0.2-0.9-0.3c0,0-0.1,0-0.1-0.1c-0.2-0.3-0.3-0.6-0.3-1c0.1-0.3,0.1-0.5,0.1-0.8
		c0-0.4,0.1-0.8,0.2-1.2c0.1-0.5,0.2-1,0.3-1.5c0.1-0.6,0.2-1.2,0.4-1.7c0.1-0.4,0.1-0.8,0.1-1.2c0-0.8,0-1.5-0.1-2.3
		c0-0.5-0.1-0.9-0.1-1.4c0-0.3-0.1-0.5-0.1-0.8c0-0.2,0-0.4-0.1-0.6c0-0.5-0.1-1-0.1-1.4c0-0.1,0-0.2,0-0.3c0-0.4-0.1-0.8-0.1-1.2
		c-0.1-0.4-0.1-0.9-0.2-1.3c-0.1-0.7,0-1.3,0-2c0-0.1,0-0.1,0-0.2c0-0.4,0-0.8,0.1-1.2c0-0.1,0-0.3,0-0.4c0-0.7,0-1.3,0-2
		c0-0.1,0-0.2,0-0.3c-0.1,0-0.2,0-0.2,0c-0.3,0.1-0.6,0.2-0.9,0.2c-0.2,0-0.5,0.1-0.7,0.1s-0.5,0.1-0.7,0.1c-0.3,0-0.6,0.1-0.9,0.1
		c-0.1,0-0.1,0-0.2,0c0.5,0.4,0.5,0.5,0.5,0.7c0,0.4,0,0.8-0.1,1.2c-0.1,0.6-0.1,1.2-0.1,1.8c0,0.7,0,1.4,0,2.1c0,0.3,0,0.6-0.1,0.8
		c-0.1,0.5-0.2,1.1-0.2,1.6c0,0.3-0.1,0.5-0.1,0.8c0,0.4-0.1,0.8-0.1,1.2c-0.1,0.5-0.1,1.1-0.2,1.6c0,0.1,0,0.2-0.1,0.3
		c-0.1,0.4-0.1,0.8-0.2,1.2c0,0.3-0.1,0.7-0.1,1c-0.1,0.6-0.1,1.2-0.2,1.8c0,0.1,0,0.2-0.1,0.3c-0.1,0.6-0.2,1.1-0.3,1.7
		c-0.1,0.8-0.1,1.6-0.2,2.3v0.1c0.1,0.5,0,0.9,0,1.4v1.4c0,0.1,0,0.3,0,0.4c0.3,0.1,0.4,0.2,0.5,0.4c0.3,0.3,0.5,0.7,0.8,1
		c0.2,0.2,0.3,0.5,0.4,0.8c0.1,0.2,0.2,0.4,0.3,0.5c0.1,0.1,0.1,0.2,0.1,0.3c0.1,0.6,0.1,1.1-0.1,1.7c-0.1,0.3-0.2,0.5-0.3,0.8
		c-0.1,0.2-0.2,0.5-0.2,0.7s-0.1,0.4-0.2,0.6c-0.1,0.3-0.2,0.5-0.3,0.8c-0.2,0.1-0.3,0.1-0.5,0.1s-0.4,0-0.6,0.1
		c-0.2,0-0.4,0.1-0.7,0.1c-0.4,0-0.7,0.1-1.1,0.1c-0.2,0-0.3,0-0.5-0.1c-0.2,0-0.4-0.2-0.5-0.4c0-0.1-0.1-0.2-0.1-0.3
		c-0.1-0.4-0.3-0.8-0.5-1.2c-0.1-0.3-0.2-0.6-0.3-0.9c-0.1-0.6-0.1-1.3,0-1.9c0-0.1,0-0.2,0-0.3c0-0.2,0-0.5,0.1-0.7
		s0.2-0.4,0.1-0.6v-0.1c0.2-0.4,0.4-0.9,0.8-1.2c0.1-0.1,0.2-0.2,0.1-0.3c0-0.2,0-0.4-0.1-0.6c-0.1-0.6-0.2-1.2-0.3-1.9
		c0-0.1,0-0.1,0-0.2c0.1-0.6,0.1-1.3,0.1-1.9c0-0.2,0-0.4,0.1-0.7c0.1-0.6,0.1-1.2,0.2-1.8c0-0.3,0-0.6,0-1c0-0.7,0-1.3,0-2
		c0-0.3,0-0.5,0-0.8c0-0.7-0.1-1.3-0.2-2c0-0.1-0.1-0.3-0.1-0.4c0-0.7-0.2-1.4-0.3-2.1c-0.1-0.5-0.1-1.1-0.2-1.6
		c-0.1-0.7-0.2-1.5-0.4-2.2c0-0.1,0-0.2,0-0.3c0-0.2-0.1-0.4-0.1-0.5c0.1-0.3,0.1-0.7,0.1-1s0-0.7-0.1-1v-0.1c0.1-0.3,0.1-0.5,0-0.8
		c0-0.1,0-0.2,0-0.3c-0.1-0.1-0.3-0.1-0.5-0.1c-0.6,0-1.1,0-1.7,0.1c-0.3,0-0.6,0-0.8,0c-0.3,0-0.6,0-0.8,0c-0.1,0-0.2,0.1-0.4,0.2
		c-0.2-0.1-0.3-0.3-0.4-0.4c0-0.1-0.1-0.1-0.1-0.2c0-0.2,0-0.4,0-0.6c0-0.5,0-0.9-0.1-1.4c0-0.2,0-0.4,0-0.6c0-0.4-0.1-0.7-0.1-1.1
		c0-0.5-0.1-1-0.1-1.5c0-0.2,0-0.4-0.2-0.6c0.1-0.3,0.1-0.6,0-0.9c0-0.1,0-0.1,0-0.2c0-0.4-0.1-0.7-0.1-1.1c0-0.3,0-0.7-0.1-1
		c-0.1-0.5,0-1,0-1.5s0-1,0-1.5c0-0.3,0-0.6,0-0.8c0-0.6,0-1.3,0.1-1.9c0.1-0.4,0.1-0.9,0.1-1.3c0-0.1,0-0.1,0-0.2
		c0.1-0.5,0.1-1,0.2-1.5c0-0.5,0.1-1,0.2-1.5c0-0.2,0-0.3-0.1-0.5c0.2-0.2,0.2-0.5,0.2-0.8c0-0.5,0.1-1.1,0.2-1.6c0-0.1,0-0.3,0-0.4
		c0-0.3,0.1-0.5,0.1-0.8s0-0.5,0-0.8c-0.1-0.5,0.1-1.1-0.1-1.6c0-0.1,0-0.3,0-0.4c0-0.4-0.1-0.7-0.2-1.1c-0.1-0.2-0.1-0.4-0.1-0.6
		c0-0.2,0-0.3,0-0.5c0-0.4-0.1-0.8-0.1-1.3c0-0.4-0.1-0.8-0.1-1.2c0-0.3,0-0.6,0-0.8s-0.1-0.4-0.1-0.6h-0.1c-0.4,0-0.8,0-1.3-0.1
		c-0.4,0-0.9-0.1-1.3-0.2c-0.6-0.1-1.1-0.2-1.7-0.5c-0.4-0.2-0.9-0.4-1.3-0.6c-0.1-0.1-0.3-0.1-0.4-0.2c-0.5-0.3-1-0.7-1.5-1
		c-0.4-0.2-0.7-0.4-1.1-0.7c0-0.3-0.1-0.4-0.4-0.6c-0.1,0-0.1-0.1-0.2-0.2c-0.1-0.3-0.2-0.5-0.3-0.8c0-0.2-0.1-0.5-0.1-0.7
		s0-0.4,0-0.6c0.1-0.3,0.1-0.7,0.2-1s0.1-0.6,0.2-0.9c0-0.1,0-0.2,0.1-0.2c0.3-0.5,0.3-1,0.6-1.5c0-0.4,0.3-0.7,0.4-1
		c0.2-0.6,0.2-1.2,0.1-1.7c0-0.1,0-0.2,0-0.3c-0.1-0.1-0.2-0.2-0.3-0.3c-0.1-0.1-0.1-0.3-0.1-0.5c0.1-0.3,0.2-0.7,0.1-1
		c-0.1-0.6-0.2-1.3-0.2-1.9c-0.1-0.8-0.2-1.6-0.4-2.4c-0.1-0.6-0.2-1.2-0.3-1.8c0-0.1,0-0.2,0-0.3c0-0.7-0.1-1.3-0.1-2
		c0-0.6,0.1-1.1,0.2-1.7c0.1-0.5,0.2-1,0.3-1.5c0.1-0.7,0.3-1.4,0.6-2.1c0-0.1,0.1-0.2,0.1-0.3c0.1-0.4,0.4-0.7,0.7-1
		c0.2-0.2,0.3-0.3,0.5-0.5c0.2-0.2,0.4-0.5,0.8-0.6l0,0c0.4-0.5,1.1-0.7,1.6-1.2c0.1-0.1,0.2-0.2,0.3-0.2c0.2-0.2,0.5-0.4,0.7-0.6
		c0.1-0.1,0.3-0.2,0.4-0.3c0.1-0.1,0.2-0.1,0.2-0.2c0.3-0.3,0.6-0.5,1-0.8c0.1-0.1,0.1-0.1,0.2-0.1c0.2-0.1,0.3-0.2,0.4-0.4
		c0.1-0.2,0.2-0.3,0.4-0.3c0.1,0,0.1,0,0.1-0.1c0.1-0.1,0.1-0.1,0.1-0.2c0-0.3,0-0.6-0.1-0.8c-0.1-0.5-0.3-1-0.3-1.6
		c-0.1-0.6-0.2-1.2-0.1-1.8c0.1-0.6,0.2-1.3,0.2-2c0-0.1,0-0.1,0.1-0.2c0.2-0.4,0.4-0.8,0.5-1.2c0.1-0.2,0.1-0.4,0.1-0.6
		c0-0.2,0-0.3-0.2-0.5c-0.1-0.1-0.2-0.3-0.3-0.5c-0.1-0.4-0.3-0.7-0.4-1.1c-0.1-0.2-0.1-0.4-0.1-0.6c-0.1-0.5-0.1-1-0.2-1.5
		c0-0.4,0-0.7,0.1-1.1c0.1-0.6,0.3-1.2,0.4-1.8c0.2-0.7,0.4-1.4,0.9-2c0.2-0.2,0.3-0.4,0.4-0.6c0.3-0.3,0.6-0.6,1-0.8
		c0.2-0.1,0.5-0.2,0.8-0.2c0.3,0.1,0.6,0,0.8-0.2c0.1-0.1,0.3-0.2,0.4-0.3c0.1,0,0.1-0.1,0.2-0.1c0.2,0,0.4-0.1,0.6-0.2
		c0.1,0,0.3-0.1,0.4-0.1h0.1c0.7-0.1,1.2-0.1,1.7-0.1h0.1c0.3-0.2,0.6-0.2,0.9-0.2c0.1,0,0.2,0,0.2,0c0.1,0,0.2,0,0.3,0
		c0.2,0.1,0.5,0.1,0.7,0c0.3,0,0.6,0,0.8,0.1c0.4,0.1,0.7,0.3,1.1,0.5c0.2,0.1,0.4,0.2,0.5,0.4c0.1,0.1,0.1,0.1,0.2,0.2
		c0.4,0.1,0.7,0.3,1,0.6c0.3,0.4,0.6,0.8,0.7,1.3c0.2,0.6,0.4,1.2,0.5,1.9v0.1c0.1,0.6,0.2,1.2,0.1,1.8c0,0.1,0,0.1,0,0.2
		c-0.1,0.3-0.1,0.6-0.1,0.8s0,0.3-0.1,0.5c0.3,0.3,0.4,0.8,0.6,1.2c0.2,0.6,0.5,1.2,0.9,1.7s0.6,1.1,0.9,1.7c0.1,0.1,0,0.3-0.1,0.3
		c-0.1,0.1-0.2,0.2-0.3,0.3c-0.4,0.2-0.8,0.4-1.3,0.3v0.3c0,0.1,0,0.2,0,0.3c0,0.5,0,1-0.1,1.4c-0.1,0.5-0.1,1.1,0,1.6
		c0.1,0.3,0.1,0.7,0.1,1c0,0.2,0,0.4,0,0.6s0.1,0.3,0.3,0.3c0.2,0.1,0.5,0.2,0.7,0.2c0.4,0.1,0.7,0.2,1.1,0.3c0.5,0.2,1,0.4,1.5,0.5
		c0.2,0.1,0.5,0.2,0.7,0.4c0.3,0.2,0.6,0.4,0.8,0.6c0.1,0.1,0.3,0.2,0.4,0.3c0.6,0.5,1.1,1.1,1.5,1.7c0.3,0.5,0.6,0.9,0.8,1.4
		c0.2,0.4,0.3,0.8,0.4,1.2c0,0.1,0.1,0.2,0.1,0.3s0.2,0.2,0.2,0.3c0.1,0.5,0.2,1,0.3,1.5C43.9,29,44,29.5,44,30
		c0,0.3,0.1,0.6,0.1,0.9c0.1,0.6,0.2,1.1,0.3,1.7c0,0.1,0,0.2,0.1,0.2c0.2,0.7,0.4,1.3,0.6,2c0.1,0.3,0.1,0.6,0.2,0.9l0,0
		c0,0.5,0.1,0.9,0.1,1.4s0,1,0,1.5c0,0.4,0,0.8-0.1,1.3c0,0.1,0,0.2,0,0.3c0,0.4-0.1,0.9-0.2,1.3c0,0.1,0,0.2,0,0.3
		C45.2,42.1,45.2,42.3,45.2,42.5L45.2,42.5z"/>
	<g>
		<path d="M34.2,4.8c0.1,0.2,0.2,0.4,0.2,0.6c0.1,0.5,0.1,1.1,0.1,1.6c0,0.2,0,0.3,0,0.5c0,0.3-0.1,0.6,0,0.9c0,0.1,0,0.1-0.1,0.2
			c-0.1,0.1-0.2,0.3-0.3,0.5l0.1,0.2h0.1c0.1,0,0.1-0.1,0.2-0.1c0.2,0.1,0.3,0.3,0.3,0.5l0,0l-0.2-0.1c0,0.2,0.1,0.3,0.2,0.5
			c0.1,0,0.1-0.1,0.1-0.2l0,0c0.1,0.1,0.1,0.3,0.2,0.4c0.3,0.5,0.5,1,0.9,1.5c0,0.1,0.1,0.1,0,0.2l0,0c-0.2-0.1-0.4-0.2-0.5-0.5
			c0-0.1-0.1-0.1-0.2-0.2c-0.2-0.3-0.4-0.5-0.6-0.8c-0.1-0.1-0.1-0.2-0.2-0.3c-0.2-0.4-0.4-0.7-0.6-1c-0.1-0.1-0.2-0.3-0.3-0.4
			c-0.1-0.1-0.1-0.1-0.1-0.2c0.2-0.2,0.3-0.4,0.4-0.6c0-0.1,0.1-0.2,0.1-0.3c0-0.3,0-0.6-0.1-0.9c0-0.1-0.1-0.2-0.1-0.4
			c0-0.1,0-0.1,0-0.2c0.1-0.2,0-0.5,0-0.7c-0.1-0.5-0.2-0.9-0.4-1.4c-0.1-0.3-0.2-0.6-0.3-0.9s-0.2-0.5-0.3-0.8
			c-0.2-0.4-0.6-0.7-0.9-1c0,0-0.1-0.1-0.2-0.1c-0.6,0.1-1-0.1-1.3-0.3c-0.2-0.1-0.4-0.2-0.6-0.2s-0.4,0-0.7,0
			c-0.2-0.1-0.4,0-0.6,0.1C28.3,1,28.2,1,28,1.1c-0.3,0.2-0.6,0.3-0.9,0.4c-0.3,0.1-0.6,0.2-0.9,0.4h-0.1c-0.2-0.1-0.3,0-0.4,0.1
			c-0.3,0.2-0.6,0.4-0.9,0.7C24.7,2.9,24.5,3,24.2,3c-0.1,0-0.2,0.1-0.3,0.2c-0.2,0.3-0.4,0.6-0.5,1c-0.2,0.4-0.4,0.9-0.6,1.4
			c-0.1,0.2-0.2,0.5-0.3,0.7C22.2,7.1,22,8,21.9,8.9c0,0.2-0.1,0.4-0.1,0.6c0,0,0,0.1-0.1,0.1c0-0.1,0-0.2,0-0.3
			c0-0.3,0.1-0.5,0.1-0.8c0-0.1,0-0.1,0-0.2C21.9,7.9,22,7.4,22.1,7c0-0.1,0-0.2,0.1-0.3c0-0.1,0.1-0.2,0.1-0.2
			c0.1-0.3,0.2-0.4,0.1-0.5c0-0.1,0-0.1-0.1-0.1c0.1,0,0.3,0,0.3-0.2c0.2-0.4,0.4-0.8,0.5-1.2V4.4c-0.1,0-0.1,0.2-0.3,0.2
			c0-0.1,0-0.2,0.1-0.3c0.3-0.3,0.5-0.6,0.7-0.9c0.1-0.1,0.2-0.3,0.3-0.4c0.1-0.2,0.2-0.3,0.3-0.4c0,0,0.1-0.1,0.1,0
			c0.1,0,0.1,0.1,0.2,0.1c0,0,0.1,0,0.1-0.1c0.5-0.4,1-0.8,1.5-1.2l0.1-0.1V1.2c0,0,0.1,0.1,0.1,0h-0.1c-0.2,0.1-0.4,0.1-0.6,0.1
			c-0.1,0-0.3,0.1-0.4,0.1c-0.1,0.1-0.2,0.1-0.4,0.1c-0.1,0-0.2,0.1-0.3,0.2c-0.1,0.2-0.4,0.3-0.7,0.4c-0.4,0.2-0.7,0.4-1,0.7
			c-0.1,0.1-0.2,0.2-0.3,0.3c-0.2,0.3-0.3,0.5-0.4,0.8c0,0.1,0,0.1,0,0.2l0,0h-0.2l-0.1-0.3c0,0,0,0-0.1,0c0,0-0.1,0-0.1,0.1
			c-0.4,0.6-0.8,1.3-0.9,2.1c0,0.2-0.1,0.4-0.1,0.6c0,0.3-0.1,0.7-0.1,1c0,0.1,0,0.1,0.1,0.1s0.1,0,0.1-0.1s0-0.2,0.1-0.3
			c0-0.1,0.1-0.2,0.1-0.3c0,0,0,0,0,0.1v0.1c-0.1,0.5-0.3,1-0.3,1.5c-0.1,0.4,0,0.8,0.1,1.3c0-0.1,0.1-0.1,0.1-0.2
			c0-0.2,0.1-0.4,0.1-0.6C21,8.8,21.1,8.4,21.2,8c0.2-0.3,0.4-0.6,0.6-1C21.9,6.8,22,6.6,22,6.3c0.1-0.4,0.2-0.8,0.4-1.1
			c0.1-0.2,0.2-0.5,0.4-0.6h0.1c0,0.1,0,0.1,0,0.2c-0.2,0.3-0.4,0.6-0.5,1c0,0.1,0,0.1,0,0.2c-0.1,0-0.1,0.1-0.1,0.2l0,0
			c0,0.1,0.1,0.2,0.1,0.3c-0.1,0-0.1,0-0.1,0.1l0,0c0,0.1,0,0.1,0,0.1c-0.1,0-0.1,0-0.2,0.1l0,0c-0.2,0.5-0.4,1-0.6,1.5
			s-0.3,1.1-0.3,1.7c0,0.2,0,0.4,0,0.6l0,0l-0.1-0.1l0,0c-0.1,0.3,0,0.7,0.1,1c0,0,0,0.1,0.1,0.1c0.1,0.1,0.1,0.2,0.1,0.3
			s0,0.2,0,0.3c0.1,0.3,0.2,0.6,0.3,0.8s0.3,0.4,0.5,0.6c0,0,0,0,0.1,0l0,0c0-0.1,0-0.1,0-0.2c0-0.1,0.1-0.3,0-0.4
			c0-0.1-0.1-0.3-0.2-0.4c0-0.1-0.1-0.2-0.1-0.3c-0.1-0.2-0.1-0.5,0-0.7c0.1-0.2,0-0.4,0-0.5c-0.1-0.1-0.1-0.3-0.1-0.4v-0.1H22
			c0,0.2,0.1,0.3,0.1,0.5c0,0.1,0.1,0.2,0.2,0.1c0.1-0.1,0.3-0.1,0.4-0.1c0.1,0,0.1,0,0.2,0c0.3,0.1,0.6,0.3,0.7,0.6
			c0.1,0.2,0.2,0.4,0.3,0.6c0.1,0.3,0.3,0.5,0.5,0.6V13c-0.1,0-0.1,0.1-0.2,0.1c0,0.1,0.1,0.1,0.1,0.1c0.1,0.1,0.2,0.2,0.2,0.4
			c0.1,0.2,0.1,0.4,0.1,0.6c0,0.1,0,0.1,0,0.2c0,0.1-0.1,0.2-0.3,0.3C24,14.9,24,14.9,24,15.1s0.1,0.5,0.2,0.6
			c0.1,0,0.1-0.1,0.1-0.2c0-0.2,0.1-0.3,0.1-0.5c0,0,0-0.1,0.1-0.1c0,0,0.1,0,0.1,0.1s0,0.1,0,0.2c0,0.3-0.2,0.7-0.4,0.9
			c0.1,0.4,0,0.8,0.2,1.2c0,0.1,0,0.1,0,0.2s-0.1,0.2-0.1,0.2c-0.1,0.1-0.3,0.1-0.4,0.2c-0.1,0-0.2,0-0.2-0.1l0,0
			c0-0.2-0.1-0.4-0.1-0.6s0-0.4,0-0.7c0-0.1-0.1-0.2-0.2-0.2c-0.2,0.1-0.3,0-0.5-0.2c-0.1-0.2-0.2-0.4-0.3-0.6c0-0.3-0.1-0.6,0-0.9
			c0.1-0.3,0-0.5-0.1-0.8c0-0.1-0.1-0.2-0.2-0.2c-0.1,0-0.2-0.1-0.2-0.1c-0.3-0.2-0.5-0.4-0.6-0.8c0-0.1-0.1-0.2-0.2-0.3
			c-0.3,0.2-0.4,0.5-0.4,0.8s-0.1,0.7-0.1,1v0.1c0,0.1-0.1,0.1-0.1,0.1s-0.1,0-0.1-0.1s0-0.2,0-0.3s0-0.3,0-0.4c0,0,0-0.1-0.1-0.1
			c-0.1,0-0.1,0-0.1,0.1c-0.1,0.3-0.2,0.5-0.3,0.8c-0.1,0.7-0.2,1.4-0.3,2.1c0,0.1,0,0.1,0,0.2c0.1,0.3,0.1,0.7,0.1,1
			s0.1,0.6,0.3,0.9c0.1,0.1,0.2,0.2,0.3,0.3l0.1,0.1l0,0c-0.2,0-0.2-0.2-0.4-0.1c0,0.2,0,0.4,0.1,0.5c0.1,0.2,0.1,0.4,0.1,0.5
			c0.2,0.2,0.4,0.4,0.7,0.5l0,0l0,0c0,0,0,0-0.1,0c-0.2-0.1-0.4-0.1-0.7-0.2c0,0.1,0,0.2-0.1,0.2c0,0.1-0.1,0.3-0.1,0.4H20
			c0,0-0.1,0-0.1-0.1c-0.1,0-0.1,0-0.1,0c0,0.1,0,0.2-0.1,0.3c-0.1,0.1-0.1,0.2,0,0.3c0.1,0.2,0.2,0.3,0.4,0.4
			c0.2,0.2,0.5,0.3,0.7,0.4c0.4,0.2,0.9,0.4,1.3,0.5c0.3,0.1,0.5,0.2,0.8,0.3c0.7,0.2,1.3,0.4,2,0.6c0.3,0.1,0.7,0.2,1.1,0.3
			c0.5,0.1,1,0.3,1.5,0.5c0.4,0.2,0.9,0.3,1.3,0.3c0.2,0,0.5,0.1,0.7,0.1c0.3,0.1,0.6,0.1,0.9,0.1s0.5,0,0.8,0.1c0.1,0,0.2,0,0.3,0
			c0.2,0,0.3-0.1,0.4-0.3c0.2-0.4,0.4-0.8,0.4-1.3c0-0.1,0-0.1,0-0.2c-0.1-0.2-0.1-0.4-0.2-0.6c-0.1,0-0.2-0.1-0.2-0.1
			c-0.1,0-0.1-0.2,0-0.2c0.3-0.2,0.5-0.4,0.7-0.7v-0.1c0,0,0-0.1-0.1-0.1s-0.3,0-0.4,0c0,0-0.1,0-0.1-0.1v-0.1
			c0.1-0.1,0.2-0.1,0.3-0.1c0.3,0,0.5-0.1,0.8-0.3c0.1-0.1,0.1-0.1,0.2-0.1c0.2-0.1,0.3-0.2,0.4-0.3c0.4-0.3,0.7-0.7,0.7-1.2V19
			c0-0.1,0-0.3,0.1-0.4c0.1-0.4,0-0.8,0-1.1c0,0,0,0,0-0.1c-0.1-0.2-0.1-0.2-0.3-0.2c-0.1,0.1-0.3,0.1-0.4,0.1c-0.1,0-0.3,0-0.4,0
			c-0.2-0.1-0.5,0-0.7,0c-0.1,0-0.2,0.1-0.3,0.2c0,0.1,0,0.2,0,0.3c0,0.1-0.1,0.1-0.1,0.1l-0.1-0.1c0-0.3,0-0.5,0.3-0.6
			c0.1,0,0.1-0.1,0.2-0.1c0.3-0.2,0.6-0.3,1-0.2c0.2,0,0.3,0,0.4-0.1c0.3-0.2,0.5-0.5,0.6-0.8c0.1-0.2,0.1-0.3,0.1-0.5s0-0.4,0-0.7
			c0-0.2,0-0.4,0-0.6c0-0.1-0.1-0.2-0.2-0.1c-0.2,0.1-0.4,0.2-0.5,0.3c-0.3,0.6-0.5,0.7-0.7,0.6c-0.2,0-0.5-0.1-0.7-0.1
			c-0.1,0-0.2-0.1-0.2-0.1c-0.1-0.1-0.1-0.2-0.3-0.2c-0.3,0.1-0.5,0.4-0.6,0.7c-0.1,0.2-0.2,0.4-0.2,0.7c0,0,0,0.1-0.1,0.1
			S31.2,16,31.2,16v-0.1c0.1-0.3,0.2-0.7,0.4-1c0.1-0.1,0.2-0.3,0.3-0.3c0.2-0.1,0.3-0.3,0.3-0.5c0,0,0-0.1,0.1-0.1
			c0.2-0.2,0.4-0.4,0.6-0.6c0,0,0,0,0.1,0h0.1l0,0c-0.2,0.2-0.3,0.4-0.5,0.7c-0.1,0.1-0.1,0.2-0.1,0.3v0.1c0.1,0.1,0.2,0.2,0.3,0.3
			c0.2,0.1,0.5,0.1,0.7,0.2h0.1c0.2,0,0.4-0.1,0.6-0.3v-0.1l0,0c-0.1,0-0.2,0-0.3,0.1s-0.2,0.1-0.3,0l-0.1-0.1v-0.1
			c0.1-0.1,0.3-0.2,0.5-0.3c0.1,0,0.3,0.1,0.5,0.1s0.4,0.1,0.5,0.1s0.3,0,0.4,0c0.3-0.1,0.6-0.2,0.9-0.4c0,0,0.1,0,0.1-0.1l0.1-0.1
			c-0.1-0.4-0.1-0.8-0.6-1.1l0,0v-0.1c0.1,0,0.1-0.1,0.1-0.1l0,0c0,0,0.1,0,0.1,0.1c0.2,0.3,0.4,0.7,0.5,1c0,0.1,0.1,0.2,0.1,0.3
			c-0.1-0.1-0.1,0.1-0.3,0.1c-0.4,0.2-0.8,0.4-1.3,0.4c0,0-0.1,0-0.1,0.1s0,0.3,0,0.4c0,0.5,0,1.1-0.1,1.6c0,0.3-0.1,0.6-0.1,0.9
			c0,0.1,0,0.1,0,0.2c0.1,0.2,0.1,0.4,0.1,0.5c0.1,0.4,0.1,0.7,0.1,1.1c0,0.1,0,0.2,0,0.3c0.1,0.6-0.1,0.5,0.6,0.7
			c0.1,0,0.2,0.1,0.4,0.1c0.4,0.1,0.8,0.2,1.2,0.4c0.3,0.1,0.6,0.2,0.8,0.3c0.2,0.1,0.4,0.2,0.6,0.2c0.2,0.1,0.5,0.2,0.7,0.4
			c0.2,0.1,0.4,0.3,0.6,0.4c0.4,0.3,0.8,0.6,1.1,0.9c0.4,0.4,0.7,0.9,1.1,1.3c0.2,0.3,0.4,0.7,0.6,1c0.2,0.4,0.3,0.7,0.5,1.1
			c0,0.1,0.1,0.2,0.1,0.3c0,0.1,0.1,0.3,0.2,0.3c0.1,0.1,0.1,0.1,0.1,0.2c0.1,0.5,0.2,1,0.3,1.6c0.1,0.4,0.2,0.9,0.2,1.4
			c0.1,0.4,0.1,0.9,0.2,1.3c0.1,0.3,0.1,0.6,0.2,1c0,0.2,0.1,0.4,0.2,0.6c0.1,0.5,0.3,0.9,0.4,1.4c0.1,0.3,0.1,0.6,0.2,0.9
			c0,0.2,0.1,0.4,0.1,0.5c0.1,0.4,0,0.8,0.1,1.1c0,0.1,0,0.2,0,0.3c0,0.2-0.1,0.3-0.1,0.5s0,0.4,0.1,0.5c0,0.2,0,0.3,0,0.5
			c0,0.4,0,0.9-0.1,1.3c0,0.1,0,0.1,0,0.2c0,0.4-0.1,0.9-0.1,1.3c0,0.1,0,0.2,0,0.3s0,0.2,0,0.3s0,0.2-0.1,0.2
			c0.3,0.6,0.6,1.1,0.8,1.7c0.3,0.7,0.6,1.3,0.8,2c0.1,0.2,0.2,0.4,0.3,0.7c0.3,0.8,0.5,1.7,0.7,2.6c0,0.3,0.1,0.5,0.1,0.8
			c0,0.1,0,0.2,0,0.3c0.1,0.3,0.1,0.7,0.1,1c0,0.6,0,1.1,0,1.7c0,0.5,0,1,0,1.4c0,0.6,0,1.1,0.1,1.7c0.1,0.4,0.1,0.7,0,1.1
			c0,0.1,0,0.3,0,0.4c0,0.3-0.1,0.7-0.2,1c-0.1,0.5-0.3,1-0.5,1.5c-0.1,0.2-0.1,0.3-0.1,0.5c-0.1,0.4-0.3,0.9-0.6,1.3
			c-0.1,0.1-0.1,0.3-0.2,0.4c0,0.2-0.1,0.3-0.2,0.3c-0.1,0-0.2,0.1-0.3,0.1c-0.2,0.1-0.3,0.3-0.4,0.5c-0.1,0.3-0.1,0.6-0.2,0.9
			c0,0.1,0,0.1,0,0.2c0.1,0.1,0.1,0.2-0.1,0.3c-0.1,0.1-0.1,0.1-0.1,0.2c-0.1,0.6-0.2,1.2-0.3,1.8c0,0.1,0,0.2-0.1,0.3
			c-0.1,0.5-0.2,1-0.2,1.6c0,0.2,0,0.4-0.1,0.6c0,0.1,0,0.1,0,0.2c0.1,0.4,0,0.8,0,1.3c0,0.4,0,0.9-0.1,1.3c0,0.1,0,0.2,0,0.3
			c0,0.6,0,1.2,0,1.8c0,0.6,0,1.3,0,1.9c0,0.3,0,0.6,0,0.8c0,0.3-0.1,0.5-0.1,0.8c0,0.2,0,0.4,0,0.6c0,0.4,0,0.9-0.1,1.3
			c0,0.1,0,0.2,0,0.3c0.1,0.7,0,1.3-0.1,2C44,82.3,44,82.7,44,83c0,0.3-0.1,0.6-0.2,0.9c-0.1,0.2-0.1,0.4-0.3,0.5
			c-0.2,0.2-0.3,0.4-0.5,0.6c0,0.1,0,0.1-0.1,0.1c-0.3,0.2-0.7,0.4-1,0.6c-0.1,0-0.2,0.1-0.2,0.1c-0.1,0-0.1,0.1-0.1,0.2
			s0,0.1,0,0.2c0.1,0.3,0.1,0.6,0.1,0.9c0,0.4,0.1,0.8,0.1,1.1c0,0.1,0,0.2,0,0.3c-0.1,0.3,0,0.7-0.1,1c0,0.2-0.1,0.4-0.1,0.7
			c0,0.3,0,0.6-0.1,0.9c-0.1,0.4-0.1,0.9-0.2,1.3c-0.1,0.6-0.3,1.2-0.5,1.7c-0.1,0.3-0.3,0.7-0.4,1c-0.1,0.3-0.2,0.5-0.2,0.8
			c-0.2,0.9-0.3,1.9-0.3,2.8c0,0.1,0,0.3,0,0.4c0.1,0.4,0.1,0.8,0.1,1.3c0,0.9,0,1.7,0,2.6c0,0.2,0,0.5,0,0.7c0,0.1,0,0.2,0,0.3
			c0.1,0.4,0,0.8,0,1.3c0,0.1,0,0.3,0.1,0.4c0.1,0.1,0.2,0.3,0.3,0.3c0.1,0,0.2,0.1,0.2,0.1c0.2,0.1,0.4,0.1,0.5,0.3l0,0
			c0.3,0,0.5,0.2,0.7,0.3c0.1,0,0.1,0.1,0.2,0.1c0.1,0,0.2,0.1,0.4,0.2s0.4,0.2,0.7,0.2c0.1,0,0.3,0,0.4,0.1
			c0.2,0.1,0.5,0.2,0.7,0.3c0.2,0.1,0.4,0.2,0.6,0.2c0.2,0.1,0.4,0.2,0.7,0.1c0.2,0,0.4,0,0.5,0.1c0.1,0,0.1,0,0.2,0.1
			c0.5,0.2,0.9,0.4,1.4,0.6c0.1,0.1,0.2,0.1,0.3,0.1s0.2,0,0.3,0.1c0.1,0,0.2,0.1,0.3,0.1s0.1,0.1,0.2,0.1h0.1
			c0.3,0.1,0.4,0.3,0.4,0.6v0.1v0.1c-0.1,0.2-0.2,0.3-0.4,0.5c0,0,0,0.1,0,0.2l0,0c0.1,0.1,0.1,0.2,0.1,0.3
			c-0.1,0.3-0.1,0.6-0.2,0.9c-0.1,0-0.1,0.1-0.2,0.1c-0.2,0.2-0.5,0.2-0.7,0.2c-0.1,0-0.3,0-0.4,0c-0.2,0-0.5,0-0.7,0
			c-0.1,0-0.1,0-0.2,0c-0.2-0.1-0.3-0.1-0.5-0.2c-0.7-0.1-1.3-0.3-2-0.3c-0.3,0-0.7-0.1-1-0.1c-0.2,0-0.4,0-0.5,0
			c-0.4,0-0.7,0-1-0.1c-0.5-0.1-1.1-0.1-1.6-0.2c-0.1,0-0.3,0-0.4,0c-0.3,0-0.7,0-1-0.1c-0.1,0-0.1,0-0.2,0s-0.1,0-0.2,0
			c-0.5-0.1-0.9-0.1-1.4-0.2c-0.2,0-0.3-0.1-0.5-0.2c-0.2-0.1-0.3-0.2-0.4-0.4c0-0.1-0.1-0.2-0.1-0.3c-0.1-0.1-0.1-0.3,0-0.4
			c0.1-0.3,0.1-0.7,0.1-1c0-0.4,0.1-0.8,0.2-1.2c0.1-0.3,0.1-0.6,0.2-0.9c0.1-0.8,0.3-1.5,0.5-2.3c0.1-0.2,0.1-0.5,0.1-0.7
			c0-0.8,0-1.5,0-2.3c0-0.2,0-0.4,0-0.6c0-0.1,0-0.3,0-0.4c0-0.5-0.1-1-0.1-1.5c0-0.1,0-0.3,0-0.4c0-0.6-0.1-1.3-0.1-1.9
			s-0.1-1.2-0.2-1.8c-0.1-0.5-0.1-1-0.1-1.5c0-0.1,0-0.2,0-0.3c0-0.4,0-0.8,0.1-1.3c0-0.3,0.1-0.7,0.1-1c0-0.2,0.1-0.4,0-0.6
			c0-0.2,0-0.4,0-0.7c0-0.4,0-0.8,0-1.2c0-0.1,0-0.1,0-0.2l-0.1-0.1c-0.1,0-0.1,0-0.2,0c-0.3,0.1-0.7,0.2-1,0.2c-0.1,0-0.1,0-0.2,0
			c-0.4,0-0.7,0.1-1,0.1C33.7,88,33.3,88,33,88c-0.1,0-0.2,0.1-0.2,0.2l0,0c0.1,0.6-0.1,1.2-0.1,1.8c0,0.6,0,1.1,0,1.7
			c0,0.4,0,0.8-0.1,1.3c0,0.1,0,0.2,0,0.3c0,0.4-0.1,0.7-0.1,1.1c-0.1,0.8-0.2,1.6-0.3,2.4c-0.1,0.7-0.2,1.4-0.3,2.1
			c-0.1,0.6-0.2,1.2-0.3,1.8s-0.1,1.2-0.2,1.8c-0.1,0.5-0.1,1.1-0.2,1.6c-0.1,0.7-0.2,1.3-0.3,2c0,0.1,0,0.3,0,0.4
			c0,0.4-0.1,0.8-0.1,1.2c0,0.3-0.1,0.7,0,1c0,0.1,0,0.2,0,0.3c-0.1,0.8,0,1.5-0.1,2.3c0,0.1,0,0.1,0,0.2s0,0.1,0.1,0.1
			c0.2,0.1,0.3,0.2,0.4,0.4c0.2,0.4,0.6,0.7,0.8,1.1c0.1,0.1,0.2,0.2,0.3,0.4c0,0.1,0.1,0.3,0.1,0.4c0,0.2,0.1,0.3,0.3,0.5
			c0.1,0.1,0.2,0.2,0.2,0.3c0,0.4,0,0.7,0,1c0,0.2-0.1,0.4-0.1,0.5c0,0.2-0.1,0.5-0.3,0.7c-0.1,0.1-0.1,0.3-0.2,0.4
			c0,0.1-0.1,0.2-0.1,0.3c-0.1,0.6-0.3,1.1-0.5,1.5c-0.1,0-0.2,0.1-0.3,0.1c-0.4,0-0.7,0.1-1.1,0.1c-0.4,0.1-0.8,0.1-1.3,0.1
			c-0.2,0-0.4,0-0.7-0.1c-0.2-0.1-0.4-0.2-0.5-0.5c0-0.1-0.1-0.2-0.1-0.3c-0.1-0.4-0.3-0.7-0.4-1.1c-0.2-0.3-0.3-0.7-0.3-1.1
			c-0.1-0.6,0-1.2,0-1.8c0-0.1,0-0.1,0-0.2c0-0.2,0-0.5,0.1-0.7s0.1-0.4,0.1-0.6v-0.1c0.2-0.2,0.2-0.5,0.4-0.7
			c0.2-0.2,0.3-0.4,0.5-0.6c0-0.2,0-0.5,0-0.7c0-0.1,0-0.1-0.1-0.2c0-0.4-0.1-0.8-0.2-1.3c0-0.3,0-0.7,0-1s0-0.6,0-0.9v-0.5
			c0-0.4,0-0.8,0.1-1.3c0-0.1,0-0.2,0-0.3c0-0.3,0-0.5,0.1-0.8c0.1-0.5,0.1-1.1,0-1.6c0-0.1,0-0.1,0-0.2c0.1-0.9,0-1.7,0.1-2.6
			c0-0.6-0.1-1.1-0.2-1.6c0-0.2-0.1-0.3-0.1-0.5c-0.1-0.5-0.1-1.1-0.3-1.6c-0.1,0-0.1-0.2-0.2-0.5c-0.1-0.4-0.1-0.9-0.2-1.3
			c-0.1-0.7-0.2-1.4-0.4-2.1c0-0.2-0.1-0.3-0.1-0.5s-0.1-0.5-0.1-0.7c-0.1-0.3-0.1-0.5-0.1-0.8c0-0.4,0-0.8-0.1-1.2
			c0-0.1,0-0.1,0-0.2c0.1-0.4,0-0.7,0-1.1c-0.1,0-0.1,0-0.2-0.1c-0.2,0-0.4,0-0.6,0c-0.3,0-0.6,0-0.8,0c-0.7,0.1-1.4,0-2.1,0
			c-0.1,0-0.3,0-0.4,0s-0.2,0-0.3,0c-0.1-0.1-0.2-0.2-0.2-0.4c0-0.1,0-0.3,0-0.4c0-0.4,0-0.8,0-1.3c0-0.1,0-0.1,0-0.2
			c-0.1-0.6-0.1-1.1-0.2-1.7c0-0.4-0.1-0.8-0.1-1.2c0-0.2,0-0.4,0-0.6c0-0.1,0-0.3-0.1-0.4c-0.1-0.1-0.1-0.1,0-0.2
			c0.1-0.2,0-0.4,0-0.5c-0.1-0.2-0.1-0.5-0.1-0.8c-0.1-0.4-0.1-0.8-0.1-1.1c0-0.4-0.1-0.8-0.1-1.3s0-1,0-1.5s0-0.9,0.1-1.4
			c0-0.1,0-0.1,0-0.2c0-0.9,0.1-1.8,0.2-2.7c0-0.3,0.1-0.7,0.2-1c0-0.1,0-0.2,0-0.3c0-0.4,0-0.8,0.1-1.2c0-0.1,0-0.3,0-0.4
			c0-0.3,0.1-0.5,0.1-0.8c0-0.1,0-0.2,0-0.3c0,0,0-0.1,0-0.2c0.1-0.2,0.1-0.3,0.1-0.5c0-0.4,0.1-0.8,0.1-1.2c0-0.4,0.1-0.9,0.1-1.3
			c0-0.3,0.1-0.7,0-1c0-0.1,0-0.1,0-0.2c0-0.1,0-0.2,0-0.3s0-0.1,0-0.2c0.1-0.2,0-0.4,0-0.6c0-0.5-0.1-1-0.1-1.4
			c0-0.2-0.1-0.4-0.2-0.6c-0.1-0.2-0.1-0.4-0.1-0.5c0-0.2,0-0.3,0-0.5c0-0.1,0-0.3-0.1-0.4c0-0.5-0.1-1.1-0.1-1.6
			c0-0.4-0.1-0.9-0.1-1.3c0-0.2-0.1-0.4-0.1-0.6c-0.1,0-0.1,0-0.2-0.1c-0.2,0-0.4,0-0.6,0c-0.6,0-1.3-0.1-1.9-0.2
			c-0.5-0.1-1.1-0.3-1.6-0.5c-0.4-0.2-0.8-0.3-1.2-0.5c-0.3-0.2-0.5-0.3-0.7-0.4c-0.8-0.5-1.5-1.1-2.4-1.5c-0.1-0.1-0.2-0.2-0.2-0.3
			c0-0.1,0-0.2-0.1-0.2l-0.1-0.1c-0.4-0.2-0.5-0.6-0.6-1c0-0.1-0.1-0.3-0.1-0.4c-0.1-0.3-0.1-0.5-0.1-0.8c0.1-0.3,0.1-0.6,0.2-1
			c0-0.2,0.1-0.4,0.2-0.6c0.1-0.4,0.2-0.8,0.3-1.2c0-0.1,0.1-0.2,0.1-0.3c0.1-0.2,0.1-0.4,0.2-0.6c0-0.1,0.1-0.2,0.1-0.3
			s0.1-0.2,0.1-0.4c0.3-0.5,0.4-1,0.3-1.6c0-0.3,0-0.6,0-0.9c-0.1-0.1-0.2-0.2-0.3-0.4c-0.1-0.1-0.1-0.2,0-0.4
			c0.1-0.1,0-0.3,0.1-0.5c0-0.1,0-0.2,0-0.3s0-0.2,0-0.3c-0.1-0.7-0.2-1.5-0.2-2.2c0-0.1,0-0.2,0-0.3c-0.1-0.5-0.2-1-0.2-1.5
			c0-0.3-0.1-0.5-0.2-0.8c0-0.1-0.1-0.3-0.1-0.4c-0.1-0.4-0.1-0.8-0.2-1.3c-0.1-0.6-0.1-1.2-0.1-1.8s0-1.2,0.2-1.8
			c0-0.1,0-0.2,0-0.3c0.1-0.7,0.2-1.3,0.4-1.9c0.2-0.7,0.4-1.3,0.7-2c0-0.1,0.1-0.1,0.1-0.2c0.1-0.1,0.2-0.3,0.4-0.4
			c0.2-0.2,0.3-0.3,0.5-0.5c0.1-0.2,0.3-0.4,0.6-0.5c0.2-0.1,0.3-0.2,0.4-0.3c0.1-0.1,0.3-0.3,0.5-0.4c0.3-0.1,0.5-0.3,0.7-0.5
			c0.2-0.2,0.4-0.3,0.6-0.4c0.1,0,0.2-0.1,0.3-0.2c0.4-0.4,0.9-0.7,1.3-1.1c0.2,0,0.3-0.1,0.3-0.1c0.3-0.1,0.4-0.4,0.7-0.5
			c0.1-0.1,0.2-0.2,0.3-0.3c0.1-0.2,0.2-0.3,0.4-0.3c0.1,0,0.1-0.1,0.1-0.1c0.1-0.1,0.1-0.1,0.1-0.2c0-0.3,0-0.6-0.1-0.9
			c-0.1-0.4-0.2-0.8-0.3-1.2c0-0.2-0.1-0.4-0.1-0.7c0-0.2,0-0.4-0.1-0.6c0-0.2-0.1-0.4,0-0.6c0.1-0.7,0.1-1.4,0.2-2
			c0-0.2,0.1-0.3,0.1-0.5c0.2-0.4,0.3-0.8,0.5-1.2c0.1-0.3,0.1-0.5,0.1-0.8c-0.1-0.1-0.1-0.2-0.2-0.2c-0.1-0.1-0.1-0.2-0.2-0.3
			c-0.1-0.4-0.3-0.8-0.4-1.2C20,10.1,20,10,19.9,9.8c0-0.5-0.1-1.1-0.1-1.6c0-0.4,0-0.8,0.1-1.2c0.1-0.6,0.3-1.2,0.4-1.8
			c0.1-0.3,0.1-0.6,0.2-0.8c0.1-0.3,0.2-0.6,0.4-0.8c0.3-0.4,0.6-0.7,0.9-1.1c0.2-0.3,0.5-0.4,0.8-0.6c0.2-0.1,0.4-0.1,0.5-0.1
			s0.1,0,0.2,0c0.2,0,0.5,0,0.7-0.2c0.1-0.1,0.3-0.1,0.4-0.2s0.3-0.1,0.4-0.1c0.1,0,0.2,0,0.3-0.1C25.4,1.1,25.7,1,26,0.9
			c0,0,0,0,0.1,0c0.3-0.1,0.6-0.2,1-0.2c0.3,0,0.5-0.1,0.7-0.2c0.1,0,0.2-0.1,0.3-0.1c0.2,0,0.4,0.1,0.7,0h0.1
			c0.2,0.1,0.4,0.1,0.6,0c0.1,0,0.2,0,0.3,0c0.2,0,0.5,0,0.7,0.1c0.3,0.2,0.7,0.3,1.1,0.5c0.2,0.1,0.4,0.2,0.5,0.4
			c0.1,0.1,0.2,0.1,0.3,0.2c0.4,0.1,0.7,0.3,0.9,0.6c0.3,0.3,0.5,0.7,0.6,1C34,3.5,34.2,4,34.3,4.3C34.2,4.5,34.3,4.6,34.2,4.8
			c0-0.1-0.1-0.1-0.1-0.2c-0.1-0.2-0.2-0.5-0.2-0.7c-0.2-0.5-0.3-1-0.6-1.4C33.2,2.3,33,2.2,32.8,2h-0.1l0,0c0,0.1,0.1,0.2,0.1,0.2
			c0.2,0.3,0.3,0.6,0.4,0.9c0.1,0.3,0.2,0.6,0.3,0.9c0.2,0.4,0.3,0.8,0.4,1.2c0,0.3,0.1,0.5,0.2,0.8c0.1,0.2,0.1,0.4,0.1,0.6
			c0,0.3,0,0.6,0.1,0.9c0,0,0,0.1,0.1,0.1l0,0c0-0.1,0-0.2,0-0.3c0-0.4,0-0.8,0-1.3c-0.1-0.3-0.1-0.6-0.2-1
			C34.2,5,34.1,4.9,34.2,4.8L34.2,4.8z M37.3,79C37.2,79,37.2,79,37.3,79c-0.2,0.1-0.2,0.1-0.3,0.1c-0.2,0.2-0.5,0.3-0.7,0.5
			c-0.5,0.3-1,0.6-1.5,1c-0.3,0.2-0.6,0.4-0.9,0.6c-0.4,0.3-0.9,0.5-1.3,0.8c-0.2,0.1-0.4,0.3-0.6,0.4s-0.3,0.2-0.5,0.3
			c-0.3,0.2-0.6,0.4-0.9,0.7c-0.3,0.2-0.5,0.4-0.8,0.5c-0.1,0-0.2,0.1-0.2,0.1c-0.5,0.3-0.9,0.7-1.4,1c-0.5,0.4-1,0.7-1.6,1
			c-0.5,0.3-1,0.6-1.5,0.9c-0.4,0.3-0.9,0.6-1.3,0.8c0,0,0,0,0,0.1l0.1,0.1c0.3,0.1,0.6,0,0.8,0s0.4-0.1,0.6-0.2
			c0.3-0.1,0.5-0.3,0.8-0.3c0.1,0,0.2-0.1,0.3-0.1c0.5-0.3,1-0.6,1.5-0.9c0.3-0.1,0.5-0.3,0.7-0.5c0.3-0.2,0.6-0.4,0.9-0.6
			s0.7-0.5,1-0.7c0.9-0.7,1.7-1.4,2.6-2.1c0.1-0.1,0.2-0.1,0.3-0.2c0.2-0.2,0.4-0.4,0.7-0.6c0.8-0.6,1.6-1.2,2.4-1.9
			c0.2-0.2,0.4-0.3,0.6-0.5c0-0.1,0.1-0.1,0.1-0.2C37.2,79,37.3,79,37.3,79L37.3,79l0.1-0.1c0.1,0,0.1,0,0,0V79
			C37.3,78.8,37.3,78.9,37.3,79L37.3,79L37.3,79z M27.9,78.8L27.9,78.8L27.9,78.8c0-0.1,0-0.2,0.1-0.2c0.1,0.1,0.2,0.1,0.3,0
			c0.3-0.2,0.6-0.3,1-0.5s0.9-0.4,1.3-0.7c0.6-0.4,1.3-0.6,1.9-1.1c0.5-0.3,1.1-0.5,1.6-0.8c0.4-0.2,0.8-0.4,1.2-0.6
			c0.1-0.1,0.2-0.1,0.4-0.2c0.3-0.1,0.6-0.3,1-0.4c0.2-0.1,0.5-0.2,0.7-0.3c0.2-0.1,0.3-0.1,0.5-0.2s0.3-0.1,0.5-0.3
			c0-0.2,0-0.4,0.1-0.6C38.4,73,38.4,73,38.3,73l0,0c-0.1,0-0.1,0-0.2,0.1c-0.6,0.2-1.2,0.6-1.8,0.9s-1.2,0.7-1.8,1
			c-0.6,0.3-1.1,0.6-1.6,0.9c-0.8,0.4-1.6,0.8-2.3,1.2c-0.3,0.2-0.6,0.3-1,0.5c-0.2,0.1-0.5,0.2-0.7,0.3c-0.1,0.1-0.2,0.2-0.3,0.3
			c-0.1,0.2-0.3,0.3-0.4,0.5c0,0,0,0-0.1,0C28,78.7,27.9,78.8,27.9,78.8L27.9,78.8L27.9,78.8z M21.1,22.9
			C21.1,22.8,21.1,22.8,21.1,22.9L21.1,22.9l0.3,0.1c0.1,0.1,0.1,0.2,0.3,0.2c0.3,0.1,0.5,0.2,0.8,0.3c0.7,0.3,1.3,0.6,2,0.8
			c0.2,0.1,0.4,0.1,0.6,0.2s0.5,0.1,0.7,0.2c0.3,0.1,0.7,0.3,1,0.3c0.1,0,0.2,0,0.3,0.1c0.6,0.2,1.2,0.3,1.8,0.5
			c0.4,0.1,0.9,0.2,1.3,0.3c0.1,0,0.1,0,0.2,0.1c0.6,0.3,1.2,0.4,1.8,0.7c0.2,0.1,0.4,0.2,0.5,0.3h0.1v-0.1c0-0.2-0.1-0.4-0.2-0.5
			c-0.1-0.2-0.2-0.3-0.3-0.5c0-0.1-0.1-0.2-0.1-0.2c-0.2,0-0.4-0.1-0.6-0.1s-0.3,0-0.5-0.1c-0.3,0-0.6-0.1-0.9-0.1
			c-0.3-0.1-0.7-0.2-1-0.2s-0.7-0.1-1-0.3c-0.2-0.1-0.4-0.2-0.7-0.3c-0.2-0.1-0.5-0.1-0.7-0.2c-0.6-0.2-1.1-0.3-1.7-0.5
			c-0.6-0.2-1.1-0.3-1.7-0.5c-0.3-0.1-0.7-0.2-1-0.3c-0.2-0.1-0.4-0.2-0.6-0.2c-0.1,0-0.1,0-0.2,0c0-0.1,0-0.1-0.1-0.1
			C21.2,22.9,21.2,22.9,21.1,22.9L21.1,22.9z M36.2,78.7c0,0.1-0.1,0.1-0.2,0.1s-0.1,0-0.1,0c-0.1,0-0.1,0-0.2,0.1l0,0
			c-0.1,0-0.1,0-0.2,0c-0.2,0.1-0.4,0.2-0.7,0.3c-0.4,0.2-0.8,0.4-1.3,0.6c-0.1,0-0.2,0.1-0.3,0.1c-0.5,0.2-0.9,0.5-1.4,0.7
			c-0.4,0.2-0.8,0.4-1.2,0.7c-0.2,0.1-0.4,0.2-0.6,0.3c-0.4,0.2-0.8,0.5-1.2,0.6c-0.4,0.3-0.9,0.4-1.3,0.6c-0.3,0.1-0.5,0.2-0.8,0.4
			c-0.1,0-0.2,0.1-0.3,0.1c-0.5,0.2-1,0.4-1.5,0.7c-0.3,0.2-0.6,0.3-1,0.4c-0.2,0-0.4,0.1-0.5,0.2c-0.5,0.2-1,0.5-1.6,0.7
			c-0.1,0-0.2,0.1-0.2,0.1c0,0.1,0,0.1,0,0.2c0.1,0.3,0.1,0.5,0.1,0.8c0,0.1,0.1,0.1,0.1,0.1s0,0,0.1,0c0.4-0.2,0.8-0.4,1.1-0.5
			c0.1,0,0.1,0,0.2-0.1c0.6-0.3,1.2-0.6,1.7-0.8c0.6-0.3,1.1-0.6,1.7-0.9c0.4-0.2,0.8-0.3,1.1-0.5c0.2-0.1,0.4-0.2,0.6-0.3
			c0.5-0.3,1-0.6,1.5-0.8c0.7-0.4,1.4-0.8,2.1-1.2c0.8-0.4,1.5-0.9,2.2-1.3c0.1-0.1,0.2-0.1,0.3-0.2c0.3-0.2,0.6-0.4,0.9-0.6
			c0.1,0,0.1-0.1,0.2-0.1c0,0,0,0,0-0.1l0.3-0.1C36.1,78.7,36.2,78.6,36.2,78.7C36.2,78.6,36.2,78.6,36.2,78.7L36.2,78.7L36.2,78.7z
			 M36.7,78.3l0.3-0.1l0,0l0,0C36.9,78.2,36.8,78.2,36.7,78.3L36.7,78.3L36.7,78.3L36.7,78.3z M31,1.1L31,1.1L31,1.1
			C30.9,1.1,30.9,1.1,31,1.1C30.9,1.1,30.9,1,31,1.1C31,1,31,1.1,31,1.1z M36.2,73.5c0.1,0,0.1,0,0.2,0s0.1,0,0.1-0.1l0,0
			c0.1,0,0.1,0,0.2,0c0.1,0,0.2-0.1,0.3-0.2c0.2-0.1,0.5-0.2,0.7-0.3c0.3-0.1,0.5-0.3,0.7-0.4c0.1,0,0.1-0.1,0-0.2
			c0,0-0.1-0.1-0.1,0c-0.1,0.1-0.3,0.2-0.4,0.2c-0.5,0.3-0.9,0.6-1.4,0.9C36.4,73.4,36.3,73.5,36.2,73.5
			C36.3,73.5,36.3,73.5,36.2,73.5L36.2,73.5L36.2,73.5z M36,73.8h-0.1c-0.1,0-0.1,0-0.2,0l0,0c-0.1,0-0.2,0-0.2,0.1
			c-0.1,0-0.1,0-0.2,0c-0.2,0.1-0.4,0.2-0.6,0.3c-0.7,0.4-1.5,0.8-2.2,1.1c-0.3,0.1-0.7,0.3-1,0.4c-0.5,0.2-1,0.4-1.5,0.6
			c-0.2,0.1-0.5,0.2-0.7,0.3c-0.2,0.1-0.4,0.3-0.5,0.5c0,0,0,0,0,0.1s0,0,0,0.1s0,0.1,0.1,0.1l0,0c0.3-0.1,0.6-0.2,0.9-0.4
			c0.7-0.4,1.5-0.8,2.2-1.1c0.3-0.2,0.6-0.3,1-0.5c0.4-0.2,0.8-0.4,1.1-0.6s0.6-0.4,0.9-0.5c0.2-0.1,0.3-0.2,0.5-0.3v-0.1
			c0.1,0,0.2,0,0.2-0.1H36L36,73.8L36,73.8L36,73.8z M20.4,22.6C20.5,22.6,20.5,22.6,20.4,22.6c0.1,0,0.1,0,0.1,0
			C20.5,22.5,20.5,22.6,20.4,22.6v-0.1c-0.1-0.1-0.1-0.1-0.2-0.2c-0.1,0-0.2-0.1-0.4,0c0-0.1,0.1-0.1,0.1-0.2s-0.1-0.2-0.2-0.3l0,0
			c0,0,0,0.1-0.1,0.1c0,0.1,0,0.1,0.1,0.1c0.1,0.1,0.1,0.2,0.2,0.2c0.1,0,0.1,0,0.2,0c0.1,0,0.1,0,0.2-0.1c-0.1,0.1-0.1,0.2,0,0.2
			C20.3,22.5,20.4,22.5,20.4,22.6z M30.4,67.7c-0.1,0-0.1,0-0.2,0c-0.2,0-0.4,0.1-0.6,0.2V68c0,0,0,0.1,0.1,0l0,0
			C29.9,67.9,30.1,67.8,30.4,67.7L30.4,67.7c0-0.1,0.1-0.1,0.1-0.1S30.5,67.6,30.4,67.7C30.4,67.6,30.3,67.6,30.4,67.7L30.4,67.7
			C30.3,67.7,30.3,67.7,30.4,67.7L30.4,67.7z M43.6,38.3c-0.2,0-0.5,0.1-0.7,0.2c0,0,0,0,0,0.1l0,0C43.2,38.7,43.4,38.6,43.6,38.3
			C43.6,38.4,43.6,38.4,43.6,38.3c0.1,0,0.2,0,0.2-0.1c0.1,0,0.1,0,0.2,0c0.1-0.1,0.3-0.1,0.4-0.2c0.2-0.1,0.4-0.2,0.6-0.4
			c0.1-0.1,0.1-0.1,0-0.2c0.1,0,0.1-0.1,0.2-0.2l0,0l0,0c-0.1,0.1-0.1,0.1-0.1,0.2c-0.1,0-0.1,0-0.2,0c-0.2,0.1-0.4,0.3-0.6,0.4
			c-0.1,0.1-0.3,0.2-0.4,0.3v0.1C43.7,38.2,43.6,38.2,43.6,38.3L43.6,38.3z M26.4,1.4c0.1,0.1,0.3,0.1,0.5,0.1
			C27.3,1.4,27.7,1.2,28,1c0,0,0,0,0-0.1l0,0c-0.1,0-0.1,0-0.2,0C27.6,1,27.5,1,27.3,1.1c-0.2,0-0.3,0.1-0.5,0.2
			C26.7,1.2,26.6,1.3,26.4,1.4L26.4,1.4L26.4,1.4L26.4,1.4L26.4,1.4z M35.8,86.3c-0.1,0-0.1,0-0.2,0c-0.1,0-0.1,0.1-0.2,0.1
			c-0.3,0.3-0.5,0.6-0.8,0.8c-0.1,0.1-0.1,0.1-0.1,0.2v0.1c0.1,0,0.3,0,0.4-0.1C35.2,87.1,35.5,86.7,35.8,86.3
			C35.7,86.3,35.7,86.3,35.8,86.3c0.1,0,0.2-0.1,0.2-0.2v-0.1l0,0C35.8,86.1,35.8,86.1,35.8,86.3C35.7,86.2,35.8,86.2,35.8,86.3
			L35.8,86.3z M42.2,109.7c0.1,0.1,0.3,0.1,0.4,0c0.2-0.2,0.4-0.4,0.6-0.6c0.2-0.2,0.4-0.5,0.5-0.8c0-0.1,0-0.1-0.1-0.2h-0.1
			c0,0.1-0.1,0.2-0.1,0.2c-0.1,0.2-0.3,0.4-0.4,0.6C42.7,109.1,42.5,109.4,42.2,109.7C42.2,109.7,42.3,109.7,42.2,109.7L42.2,109.7
			L42.2,109.7L42.2,109.7z M35.2,63.5c-0.1,0-0.3,0-0.4,0c-0.3,0-0.5,0-0.8,0c-0.3,0-0.6,0.1-0.9,0.2c-0.1,0-0.1,0.1-0.1,0.1
			c-0.2,0.2-0.5,0.3-0.8,0.3c-0.4,0.1-0.7,0.2-1,0.4c-0.3,0.1-0.5,0.3-0.8,0.3c-0.3,0.1-0.6,0.3-0.9,0.4c-0.1,0-0.1,0.1-0.2,0.1v0.1
			c0.1,0.2,0.1,0.4,0.1,0.5s0.1,0.1,0.2,0.1l0,0c0.2-0.1,0.4-0.2,0.6-0.3c0.5-0.3,1.1-0.6,1.7-0.8c0.3-0.1,0.6-0.3,1-0.4
			c0.4-0.2,0.8-0.4,1.2-0.5C34.4,63.9,34.8,63.7,35.2,63.5L35.2,63.5L35.2,63.5L35.2,63.5z M36.8,81.2c-0.2,0.3-0.4,0.5-0.7,0.6
			c-0.4,0.2-0.7,0.5-1,0.8c-0.1,0.1-0.3,0.2-0.4,0.3c-0.2,0.2-0.5,0.4-0.7,0.6c-0.3,0.2-0.5,0.5-0.8,0.7c-0.5,0.4-1,0.9-1.5,1.3
			c-0.4,0.4-0.8,0.8-1.3,1.1c-0.1,0-0.1,0.1-0.2,0.1c-0.2,0.2-0.4,0.3-0.6,0.5s-0.4,0.4-0.6,0.5v0.1h0.5c0.2-0.1,0.3-0.3,0.5-0.4
			c0.3-0.2,0.6-0.4,0.9-0.7c0.4-0.3,0.7-0.7,1.1-1c0.1-0.1,0.1-0.1,0.2-0.2c0.3-0.2,0.6-0.5,0.8-0.7c0.2-0.1,0.3-0.3,0.5-0.4
			c0.4-0.4,0.8-0.8,1.1-1.1c0.5-0.5,1-1,1.6-1.6c0.1-0.1,0.2-0.2,0.3-0.2c0.1-0.1,0.1-0.2,0.1-0.3C36.8,81.3,36.8,81.2,36.8,81.2
			L36.8,81.2L36.8,81.2L36.8,81.2z M37,80.2c-0.5,0.4-0.9,0.8-1.3,1.2c-0.1,0.1-0.2,0.2-0.4,0.3c-0.5,0.4-1,0.8-1.5,1.3
			c-0.3,0.3-0.7,0.6-1.1,0.9c-0.3,0.2-0.7,0.5-1,0.7c-0.6,0.4-1.1,0.8-1.7,1.3c-0.5,0.4-1,0.8-1.5,1.1c-0.1,0.1-0.3,0.2-0.4,0.3
			c-0.1,0.1-0.2,0.1-0.3,0.2c-0.1,0.1-0.2,0.2-0.3,0.3c0,0,0,0.1,0.1,0.1C27.8,88,28,88,28.2,88c0.1,0,0.1,0,0.1-0.1
			c0.1-0.1,0.2-0.2,0.3-0.2c0.2-0.1,0.5-0.2,0.7-0.4c0.1-0.1,0.2-0.2,0.3-0.2c0.4-0.3,0.8-0.7,1.2-1c0.4-0.3,0.8-0.7,1.2-1.1
			c0.2-0.2,0.5-0.4,0.7-0.6c0.9-0.8,1.8-1.5,2.7-2.3c0.3-0.3,0.6-0.5,0.9-0.8c0.2-0.2,0.4-0.4,0.6-0.7C37.1,80.5,37.1,80.3,37,80.2
			L37,80.2L37,80.2L37,80.2z M45.6,62.5c0.1-0.1,0.1-0.2,0.2-0.3c0.3-0.3,0.5-0.7,0.7-1.1c0.1-0.2,0.1-0.3,0.2-0.5
			c0.2-0.3,0.3-0.7,0.5-1c0.2-0.4,0.3-0.8,0.4-1.2c0-0.1,0-0.2,0.1-0.3c0.2-0.5,0.2-1.1,0.1-1.6c0-0.5-0.1-1-0.1-1.5
			c0-0.4,0-0.8,0-1.3c0-0.3,0-0.7,0-1c0-0.6,0-1.2,0-1.8c0-0.3-0.1-0.5-0.1-0.8c0-0.5-0.1-1-0.3-1.5c-0.1-0.3-0.2-0.7-0.3-1
			c-0.2-0.9-0.6-1.7-0.9-2.6c0-0.1-0.1-0.2-0.2-0.4c-0.1-0.3-0.3-0.6-0.4-0.9c-0.2-0.5-0.5-1-0.8-1.5c-0.2-0.4-0.5-0.8-0.7-1.2
			c-0.1-0.3-0.3-0.5-0.6-0.8c-0.2-0.2-0.4-0.4-0.5-0.6c-0.1-0.1-0.1-0.1-0.2-0.2c-0.2-0.1-0.5-0.2-0.7-0.3c-0.1,0-0.3-0.1-0.4,0
			c-0.2,0-0.4,0-0.6,0.1h-0.1c0,0-0.1,0-0.1-0.1l0,0c0-0.1,0-0.1,0.1-0.1c0.4-0.2,0.8-0.2,1.2-0.1c0.1,0,0.1,0,0.2,0.1l0.1-0.1
			c0-0.1,0-0.3-0.1-0.4c0-0.2,0.1-0.3,0.1-0.4v-0.1c0-0.4,0-0.8,0.1-1.2c0,0,0,0,0-0.1s-0.1-0.1-0.2-0.1s-0.1,0-0.2,0.1
			s-0.3,0.1-0.4,0.2c-0.1,0-0.1,0-0.2,0c-0.1,0-0.1,0-0.1-0.1c0,0,0-0.1,0.1-0.1c0.2-0.1,0.4-0.2,0.6-0.3c0.1-0.1,0.3-0.2,0.3-0.4
			c0.1-0.1,0.1-0.3,0.1-0.4c0-0.3,0-0.7-0.1-1c0-0.1-0.1-0.2-0.1-0.3s0-0.3,0-0.4c0.1-0.2,0.1-0.4,0.1-0.5c0-0.2-0.1-0.4-0.1-0.6
			c-0.1-0.2-0.1-0.5-0.1-0.7c0-0.1,0-0.1,0-0.2s0-0.3-0.1-0.4c-0.1-0.2-0.3-0.4-0.4-0.7c-0.1-0.3-0.3-0.5-0.5-0.7c0,0,0,0,0-0.1l0,0
			h0.1c0.1,0,0.2,0.1,0.3,0.2c0.1,0.1,0.2,0.2,0.2,0.3c0.3,0.4,0.5,0.9,0.8,1.3c0.3,0.5,0.4,1.1,0.4,1.6c0,0.3,0,0.6,0.1,0.9
			c0.1,0.4,0,0.8,0,1.3c0,0.2-0.1,0.3-0.2,0.4c-0.1,0-0.1,0.1-0.1,0.2c0,0.1,0,0.1,0,0.2c0,0.5,0,0.9-0.1,1.4V38c0,0,0.1,0,0.1,0.1
			h0.1c0.6-0.2,1.1-0.5,1.6-0.9c0.2-0.2,0.4-0.4,0.5-0.7V36c0-0.1,0-0.3,0-0.4c-0.2-0.7-0.3-1.5-0.5-2.2c-0.1-0.3-0.2-0.7-0.3-1
			c-0.1-0.4-0.1-0.8-0.2-1.2c-0.1-0.3-0.1-0.5-0.1-0.8c-0.1-0.6-0.2-1.2-0.3-1.9c-0.1-0.3-0.1-0.5-0.3-0.8c0-0.1-0.1-0.1-0.1-0.2
			c0-0.2-0.1-0.4-0.2-0.6c-0.1-0.4-0.3-0.9-0.5-1.3s-0.4-0.8-0.6-1.1c-0.2-0.3-0.4-0.5-0.5-0.8c-0.2-0.3-0.4-0.5-0.6-0.7
			c-0.4-0.5-0.9-0.9-1.5-1.2c-0.1-0.1-0.2-0.1-0.3-0.2c-0.2-0.1-0.3-0.2-0.5-0.3c-0.2-0.1-0.4-0.2-0.6-0.2c-0.5-0.1-1-0.3-1.5-0.5
			c-0.2-0.1-0.3-0.1-0.5-0.1s-0.4-0.1-0.6-0.2c-0.1,0-0.2-0.1-0.3,0c-0.1,0-0.1,0-0.1,0.1c-0.1,0.1-0.1,0.2-0.2,0.3
			c-0.3,0.4-0.6,0.7-1,0.9c-0.2,0.1-0.3,0.2-0.4,0.3c-0.1,0.2-0.3,0.5-0.5,0.7c-0.1,0.1-0.1,0.2-0.2,0.2c0,0.2,0.1,0.3,0.2,0.3
			c0.1,0.1,0.2,0.2,0.3,0.3c0.2,0.3,0.2,0.6,0.3,0.9c0,0.4,0,0.8,0.1,1.2c0,0.1,0,0.2,0,0.3c0,0.5-0.1,0.9-0.1,1.4
			c0,0.1,0,0.2,0,0.3c0,0.1-0.1,0.2-0.2,0.3c0,0-0.1,0-0.2,0c0,0-0.1,0-0.1-0.1c-0.1-0.2-0.2-0.3-0.4-0.4c-0.4-0.2-0.8-0.4-1.2-0.6
			c-0.7-0.2-1.3-0.6-2-0.7h-0.1c-0.9-0.3-1.9-0.5-2.8-0.8c-0.3-0.1-0.6-0.2-0.9-0.3c-0.1-0.1-0.3-0.1-0.4-0.1
			c-0.4-0.1-0.8-0.2-1.2-0.4c-0.6-0.3-1.1-0.5-1.7-0.8c-0.1,0-0.1,0-0.2-0.1c-0.3-0.1-0.5-0.2-0.8-0.3c-0.2-0.2-0.5-0.3-0.8-0.4
			c-0.2-0.1-0.3-0.1-0.5-0.3c-0.1-0.1-0.3-0.2-0.4-0.3c-0.1,0-0.2-0.1-0.4-0.2c-0.2,0.1-0.4,0.3-0.6,0.4c-0.6,0.5-1.2,1-1.9,1.5
			c-0.1,0.1-0.2,0.2-0.4,0.3c-0.4,0.4-0.9,0.7-1.4,1c0,0-0.1,0-0.1,0.1c-0.1,0.1-0.2,0.2-0.3,0.3c-0.3,0.3-0.6,0.6-0.8,1
			c-0.1,0.1-0.2,0.2-0.3,0.4c-0.3,0.4-0.4,0.8-0.6,1.2c-0.3,0.7-0.4,1.4-0.5,2.1v0.1c-0.1,0.5-0.1,0.9-0.2,1.4c-0.1,0.8,0,1.6,0,2.4
			c0,0.1,0,0.1,0,0.2c0.1,0.3,0.1,0.7,0.1,1c0.1,0.5,0.1,1.1,0.3,1.6c0.2,0.8,0.3,1.7,0.3,2.6c0,0.1,0,0.2,0,0.3
			c0.1,0.6,0.2,1.2,0.2,1.8c0,0.1,0,0.2,0.1,0.3c0.2,0,0.4,0.2,0.5,0.3c0.3,0.2,0.6,0.3,0.9,0.5c0.7,0.4,1.3,0.7,2,1
			c0.4,0.2,0.9,0.4,1.4,0.6c0.1,0,0.2,0,0.3,0.1c0.3,0.2,0.7,0.2,1,0.4l1.2,0.1c0,0,0,0,0.1,0s0.1-0.1,0.2-0.1
			c0-0.1,0.1-0.1,0.1-0.2c0-0.2,0.1-0.4,0.3-0.5c0.1-0.1,0.2-0.2,0.3-0.3c0.1-0.2,0.1-0.4,0.3-0.7c0.2-0.4,0.5-0.9,0.6-1.3
			c0-0.1,0.1-0.2,0.1-0.3c0.2-0.5,0.4-0.9,0.6-1.4c0.1-0.3,0.2-0.7,0.4-1c0.1-0.2,0.1-0.3,0.1-0.5c0.1-0.3,0.2-0.7,0.2-1
			c0.1-0.4,0.2-0.7,0.4-1c0,0,0,0,0.1,0c0,0.1,0,0.2,0,0.3c-0.1,0.3-0.2,0.6-0.3,0.9c-0.1,0.3-0.1,0.6-0.2,0.9
			c-0.1,0.5-0.2,0.9-0.4,1.4c0,0.1-0.1,0.1-0.1,0.2c-0.2,0.6-0.4,1.2-0.7,1.7c0,0.1-0.1,0.2-0.1,0.3c-0.2,0.4-0.4,0.9-0.6,1.3
			c-0.1,0.1-0.1,0.3-0.2,0.4c0,0.1,0,0.1,0.1,0.1c0.1,0,0.2,0,0.3,0c0.6-0.1,1.3-0.1,1.9,0c0.3,0,0.7,0.1,1,0.1c0.4,0,0.7,0,1.1,0.1
			c0.7,0.1,1.5,0.2,2.2,0.4c0.1,0,0.2,0,0.3,0.1c0.5,0,1,0.2,1.5,0.3c0.6,0.2,1.3,0.3,2,0.3c0.3,0,0.6,0.1,0.9,0.1s0.6,0.1,1,0.2
			c0.1,0,0.3,0.1,0.4,0.1c0.1,0,0.2,0,0.2,0c0.2-0.2,0.3-0.4,0.3-0.6c0-0.2,0.1-0.3,0.3-0.4c0.1-0.1,0.1-0.1,0.2-0.2
			c0.1-0.1,0.2-0.2,0.3-0.4c0.1-0.3,0.3-0.5,0.4-0.8c0.1-0.1,0.1-0.1,0.1-0.2c0-0.2-0.1-0.3-0.2-0.5c-0.1-0.2-0.2-0.3-0.3-0.5
			c-0.1-0.2-0.1-0.3,0.1-0.5s0.4-0.4,0.7-0.6c0.2-0.1,0.4-0.3,0.5-0.5h-0.1c-0.2,0.1-0.5,0.2-0.7,0.2c-0.3,0.1-0.5,0.2-0.8,0.3h-0.1
			l0,0c0,0,0,0,0-0.1s0.1-0.1,0.2-0.1c0.3-0.1,0.6-0.2,0.9-0.3c0.3-0.1,0.7-0.2,1-0.3c0.3-0.1,0.6-0.2,0.9-0.3
			c0.2-0.1,0.3-0.1,0.5-0.2c0.2-0.1,0.4-0.1,0.7,0.1c0.2,0.2,0.4,0.2,0.6,0.1c0.2-0.1,0.4-0.1,0.6-0.2h0.1V40
			c-0.1,0.1-0.2,0.1-0.3,0.1c-0.1,0-0.2,0.1-0.3,0.1s-0.2,0.1-0.4,0.1c0,0.1,0.1,0.2,0.1,0.3c0.1,0.2,0.2,0.4,0.4,0.4
			c0.1,0,0.1,0.1,0.1,0.2c0.1,0.2,0.3,0.5,0.4,0.7c0.1,0.1,0.1,0.2,0.1,0.3s0,0.2,0,0.3l0.1,0.1c0,0,0.1,0,0.1,0.1
			c0.1,0.1,0.2,0.2,0.2,0.4c0,0.3,0,0.6,0,0.9c0,0.1,0,0.3,0.2,0.3c0.2,0.1,0.3,0.3,0.3,0.5s0.1,0.4,0.1,0.6
			c0.1,0.1,0.1,0.2,0.2,0.2c0.1,0.2,0.2,0.4,0.2,0.6c0.1,0.4,0.1,0.7,0,1.1C42,47.5,42,47.8,42.2,48c0.1,0.1,0.1,0.2,0.1,0.4
			s0.1,0.3,0,0.5c0,0.2-0.1,0.3-0.3,0.4c-0.6,0.4-1.1,0.8-1.7,1.1c-0.2,0.1-0.3,0.2-0.4,0.3c-0.2,0.2-0.4,0.3-0.6,0.5
			c-0.2,0.1-0.4,0.1-0.7,0c0,0-0.1,0-0.1-0.1s0-0.1-0.1-0.2c-0.1-0.2-0.1-0.4-0.2-0.6c0-0.1-0.1-0.1-0.2-0.1s-0.1,0-0.2,0
			c-0.2,0-0.4,0-0.6,0.1c-0.1,0.1-0.2,0.1-0.3,0.2c-0.4,0.3-0.9,0.6-1.3,0.8c-0.8,0.5-1.6,1.1-2.5,1.5c-0.1,0-0.1,0.1-0.2,0.1
			c-0.2,0.1-0.4,0.3-0.6,0.3c-0.2,0.1-0.3,0.1-0.4,0.2c-0.2,0.1-0.5,0.3-0.7,0.4C31,54,30.7,54,30.4,54.1c-0.1,0-0.2,0.1-0.3,0.1
			c-0.6,0.3-1.1,0.5-1.7,0.6c-0.8,0.2-1.6,0.4-2.4,0.5c-0.5,0.1-1,0.1-1.5,0.1c-0.8,0.1-1.7,0.1-2.5,0.2c-0.1,0-0.2,0-0.3,0
			c0,0.2,0,0.3,0,0.5s0,0.4,0,0.6c0,0.2,0,0.4,0,0.6c0.1,0.3,0.1,0.6,0.1,0.9c0,0.5,0,1,0.1,1.5c0,0.4,0.1,0.8,0.3,1.1
			c0,0,0,0.1,0.1,0.1c0.4,0.2,0.8,0.4,1.2,0.6c0.2,0.1,0.5,0.2,0.7,0.3c0.1,0,0.3,0.1,0.4,0.1S24.8,62,25,62
			c0.4,0.1,0.7,0.2,1.1,0.3c0.2,0.1,0.4,0.1,0.5,0.1c0.3,0,0.6,0,0.9,0.1c0.5,0,1,0.2,1.5,0.3c0.6,0.1,1.2,0.2,1.8,0.2
			c0.1,0,0.2,0,0.3,0c0.1-0.1,0.2-0.1,0.3,0c0.1,0.1,0.3,0.1,0.4,0.1c0.8,0,1.6,0,2.4,0c0.1,0,0.2,0,0.3,0c0.4,0,0.7-0.1,1.1-0.1
			c0.3,0,0.6,0,0.9-0.2c0.1,0,0.1,0,0.2,0c0.3,0.1,0.5,0.1,0.8,0c0.4-0.1,0.9-0.1,1.3-0.1c0.2,0,0.4,0,0.7,0
			c0.3-0.1,0.6-0.1,0.9-0.1c0.2,0,0.4,0,0.6,0s0.3,0,0.5,0s0.4,0,0.5,0c0.5,0,1,0,1.4-0.1c0.3,0,0.5,0,0.8,0
			C44.6,62.7,45.1,62.7,45.6,62.5L45.6,62.5L45.6,62.5z M36.2,43.3c-0.2,0.1-0.3,0.3-0.4,0.5c0,0.1-0.1,0.3-0.2,0.4
			c-0.1,0.2-0.2,0.3-0.3,0.4c-0.1,0.1-0.2,0.2-0.3,0.3c-0.1,0.1-0.1,0.3-0.2,0.4c0,0.1,0,0.1,0,0.2c0,0.1,0,0.1,0.1,0.1
			c0.2,0,0.3,0.1,0.5,0.1c0.1,0,0.2,0,0.3,0l0,0c0,0,0,0-0.1,0.1c-0.2,0-0.4,0.1-0.7,0c-0.5,0-1-0.1-1.4-0.2
			c-0.6-0.1-1.2-0.2-1.9-0.3c-0.6-0.1-1.2-0.2-1.8-0.3c-0.4-0.1-0.8-0.2-1.2-0.3c-0.5-0.1-0.9-0.2-1.4-0.3c-0.4-0.1-0.8-0.1-1.2-0.2
			c-1-0.1-1.9-0.1-2.9-0.2c-0.2,0-0.4,0-0.6,0c-0.3,0-0.6,0.1-0.9,0.1c-0.1,0-0.2,0-0.3,0.1c-0.1,0-0.2,0.1-0.2,0.2
			c0,0.3-0.1,0.7,0,1c0,0.2,0,0.4-0.1,0.5S20.9,46,20.8,46c-0.1,0-0.1,0-0.2,0c-0.3,0-0.5-0.1-0.8-0.1c-0.1-0.1-0.2-0.1-0.3-0.2
			c-0.2-0.1-0.4-0.1-0.6-0.2c-0.1,0-0.2-0.1-0.4-0.1c-0.3-0.2-0.7-0.3-1.1-0.4c-0.5-0.1-0.9-0.3-1.4-0.6c-0.1-0.1-0.2-0.1-0.3-0.2
			c-0.8-0.4-1.7-0.8-2.5-1.2c-0.1,0-0.1,0-0.2,0.1c0,0,0,0,0,0.1c0,0.2,0,0.3,0,0.5c0,0.4,0,0.9-0.2,1.3c0,0.1-0.1,0.2-0.1,0.3
			c-0.1,0.2-0.1,0.3-0.2,0.5c-0.1,0.4-0.3,0.8-0.4,1.2c-0.1,0.3-0.2,0.6-0.3,0.8c0,0.3-0.1,0.5-0.2,0.8c-0.2,0.7-0.2,1.4-0.1,2.1
			c0.1,0.4,0.2,0.7,0.5,0.9c0.1,0,0.1,0,0.2-0.1c0.1,0,0.1-0.1,0.1-0.2c0-0.1-0.1-0.1-0.1-0.1s0,0-0.1,0c-0.2,0-0.2-0.1-0.2-0.2
			c0-0.1,0-0.3,0-0.4c0,0,0,0,0-0.1c0,0,0.1,0,0.1-0.1l0,0c0.1,0.1,0.1,0.3,0.2,0.4h0.1l0,0l0,0c0-0.2,0-0.4,0-0.6l0,0h0.1
			c0,0.1,0,0.1,0,0.2c0,0.3,0,0.5,0,0.8s0,0.6-0.3,0.8c0,0.1,0,0.1,0,0.2c0.3,0.2,0.6,0.4,0.9,0.6c0.5,0.3,0.9,0.6,1.4,0.9
			c0.2,0.2,0.5,0.3,0.7,0.4c0.3,0.1,0.6,0.3,1,0.4c0.4,0.1,0.6,0.3,1,0.4c0.1,0,0.3,0.1,0.4,0.1c0.3,0.1,0.6,0.1,0.9,0.2
			c0.2,0,0.3,0.1,0.5,0.1c0.6,0.1,1.2,0.1,1.9,0.1c0.2,0,0.5,0,0.7,0c0.8-0.1,1.5-0.1,2.3-0.2c0.7-0.1,1.4-0.1,2.1-0.3
			c0.6-0.1,1.2-0.2,1.7-0.4c0.5-0.1,0.9-0.3,1.4-0.5c0.2-0.1,0.5-0.2,0.7-0.2c0.1,0,0.2-0.1,0.2-0.1c0.1-0.1,0.2-0.2,0.3-0.1
			c0.1,0,0.3,0,0.4-0.1c0.2-0.1,0.4-0.2,0.6-0.3c0.4-0.2,0.8-0.3,1.2-0.6l0,0c0.5-0.2,0.9-0.5,1.3-0.8c0.4-0.2,0.8-0.5,1.2-0.8
			c0.6-0.5,1.3-0.9,2-1.2c0.1,0,0.2-0.1,0.3,0c0.2,0.1,0.5,0.1,0.7,0c0.6-0.2,1.2-0.4,1.8-0.8c0.2-0.1,0.3-0.2,0.5-0.3
			c0.2-0.2,0.5-0.3,0.6-0.6c0.1-0.2,0.3-0.5,0.4-0.7s0.1-0.5,0.1-0.7s0-0.4-0.1-0.7c0-0.1-0.1-0.3-0.2-0.4h-0.1
			c-0.1,0.1-0.2,0.2-0.3,0.3c-0.1,0.3-0.3,0.6-0.5,0.8c-0.2,0.3-0.5,0.6-0.8,0.8c-0.2,0.1-0.4,0.2-0.6,0.3c-0.1,0-0.1,0-0.2,0
			s-0.1,0-0.1-0.1s0-0.1,0-0.1s0,0,0.1,0c0.4-0.1,0.7-0.3,0.9-0.6l0.1-0.1c0.4-0.4,0.7-0.9,0.9-1.4c0.1-0.1,0.1-0.3,0.2-0.5
			c0-0.1,0-0.3,0-0.4c0-0.1-0.1-0.2-0.2-0.2c-0.1,0-0.1,0.1-0.2,0.2c0,0.1,0,0.1-0.1,0.2c-0.1,0.3-0.3,0.5-0.5,0.6s-0.4,0.3-0.6,0.4
			c-0.1,0.1-0.2,0.2-0.3,0.3c-0.1,0.1-0.3,0.2-0.4,0.3c-0.1,0-0.1,0-0.2,0l0,0l0,0c0.1-0.1,0.2-0.2,0.4-0.3c0.1-0.1,0.3-0.3,0.4-0.5
			c0.1-0.1,0.2-0.3,0.3-0.3c0.1-0.1,0.2-0.1,0.3-0.2c0.1-0.1,0.2-0.2,0.3-0.4c0-0.1,0.1-0.2,0.1-0.4c0.2-0.4,0.2-0.7,0.2-1.1
			c0-0.2-0.1-0.4-0.3-0.5c-0.1,0-0.1-0.1-0.2-0.1c-0.2,0-0.4,0.1-0.5,0.2c0,0.1,0,0.1-0.1,0.2c-0.1,0.6-0.5,1.1-0.8,1.5
			c-0.1,0.1-0.1,0.1-0.2,0.1s-0.1,0-0.2,0s-0.1,0-0.1-0.1v-0.1c0.3-0.2,0.5-0.4,0.6-0.7c0-0.1,0.1-0.1,0.1-0.2
			c0.2-0.4,0.5-0.7,0.6-1.1c0.1-0.1,0.3-0.2,0.4-0.3c1,0.1,1-0.1,1-0.2c0-0.2-0.1-0.3-0.3-0.4c-0.1-0.1-0.3-0.1-0.4,0
			c-0.1,0.1-0.2,0.1-0.2,0.2c-0.2,0.2-0.3,0.5-0.4,0.8c-0.1,0.4-0.3,0.7-0.5,1c-0.1,0.2-0.3,0.4-0.5,0.5c-0.1,0.1-0.2,0.2-0.3,0.3
			c-0.1,0.1-0.3,0.3-0.5,0.4c-0.1,0.1-0.2,0.1-0.3,0c-0.1-0.2-0.2-0.3-0.3-0.4c-0.1-0.1-0.1-0.2-0.2-0.3c0-0.1,0-0.2-0.1-0.3
			C36.3,43.5,36.3,43.4,36.2,43.3L36.2,43.3z M30.1,112.6c0-0.1,0-0.2,0-0.3c0-0.1,0-0.3,0-0.4c0-0.3,0-0.6,0-0.9
			c0-0.6,0.1-1.3,0-1.9c0-0.1,0-0.2,0-0.3c0-0.6,0.1-1.1,0.1-1.7c0-0.2,0-0.5,0.1-0.7c0.1-0.3,0.2-0.7,0.2-1c0-0.1,0-0.1,0-0.2
			c0.1-0.7,0.2-1.4,0.3-2.1c0-0.1,0-0.1,0-0.2c0.1-0.6,0.2-1.2,0.2-1.8c0.1-0.7,0.2-1.4,0.3-2.1c0.1-0.6,0.2-1.3,0.3-2
			c0.1-0.8,0.2-1.6,0.3-2.4c0.1-1,0.2-2,0.2-3v-0.7c0-0.3,0-0.6,0-0.8c0-0.4,0.1-0.9,0-1.3c0-0.1,0-0.3-0.1-0.4
			c0-0.1-0.1-0.1-0.2-0.1c-0.3,0-0.7,0-1,0.1c-0.1,0-0.2,0-0.3,0c-0.1,0-0.1,0-0.2,0c-0.4,0-0.9-0.1-1.3,0c-0.4,0-0.8,0-1.2-0.1
			c-0.3-0.1-0.6-0.1-0.9-0.1c-0.6,0-0.5,0-0.5,0.5c0,0.3,0,0.6,0,0.8c0,0.4,0,0.8,0.1,1.3c0,0.1,0,0.2,0,0.3c0.2,0.7,0.3,1.3,0.4,2
			c0.1,0.4,0.1,0.7,0.2,1.1c0.1,0.5,0.2,1.1,0.2,1.6c0,0.1,0,0.3,0.1,0.4c0.1,0.6,0.2,1.1,0.3,1.7c0.1,0.4,0.1,0.8,0.2,1.1
			c0.1,0.4,0.1,0.8,0.1,1.2c0,0.6,0,1.1,0,1.7s0,1.3,0,1.9c0,0.2,0,0.4,0,0.6c0,0.5-0.1,1-0.1,1.4c0,0.2,0,0.3-0.1,0.5
			c-0.1,0.3-0.1,0.6-0.1,0.9c0,0.6,0,1.2-0.1,1.8c0,0.2,0,0.4,0,0.6s0.1,0.4,0.1,0.7c0,0.2,0.1,0.4,0.1,0.5c0.1,0.1,0.1,0.2,0.1,0.3
			c0,0.4,0.1,0.8,0.1,1.2v0.1c0.1,0.2,0.3,0.4,0.5,0.4c0.1,0,0.2,0,0.3,0c0.2,0,0.4,0,0.6,0.1c0.1,0,0.2,0,0.3,0
			C30,112.7,30,112.7,30.1,112.6L30.1,112.6L30.1,112.6z M37.1,87.3c-0.1,0.1-0.2,0.3-0.3,0.3c-0.1,0-0.1,0.1-0.1,0.2
			c0,0.2-0.1,0.5-0.1,0.7c0,0.4,0,0.8,0,1.2c0,0.2,0,0.4-0.1,0.6c-0.1,0.5-0.1,1-0.2,1.5c0,1-0.1,1.9,0.1,2.9c0,0.2,0.1,0.4,0.1,0.6
			c0,0.3,0.1,0.5,0.1,0.8c0,0.1,0,0.2,0,0.3c0,0.2,0.1,0.4,0,0.7c0,0.5,0,1,0.1,1.4c0.1,0.4,0.1,0.8,0.1,1.3c0,0.2,0,0.3,0,0.5
			c0,0.3,0,0.7,0.1,1c0,0.3,0,0.7,0.1,1c0,0.3,0,0.7,0,1c0,0.1,0,0.3-0.1,0.4c0,0.2-0.1,0.5-0.1,0.7c-0.1,0.4-0.2,0.9-0.2,1.4
			c-0.1,0.4-0.1,0.8-0.3,1.2v0.1c0,0.1,0,0.1,0.1,0.2c0.3,0.3,0.7,0.7,0.9,1.1c0,0.1,0.1,0.1,0.2,0.2c0.2,0,0.3,0.1,0.5,0.2
			c0.3,0.1,0.5,0.1,0.8-0.1c0.2-0.1,0.4-0.2,0.5-0.3c0.2-0.2,0.4-0.3,0.6-0.5c0.1-0.1,0.3-0.3,0.4-0.4c0.2-0.1,0.3-0.2,0.5-0.3
			l0.1-0.1c0.1-0.1,0.1-0.2,0-0.3l0,0c-0.1,0-0.1-0.1-0.2-0.1c-0.2-0.1-0.4-0.2-0.6-0.3c-0.1-0.1-0.2-0.1-0.2-0.2
			c-0.1-0.1-0.1-0.3-0.2-0.4c0-0.3-0.1-0.7-0.1-1c0-0.4,0-0.8,0.1-1.2c0-0.4,0-0.8,0-1.2c0-0.6,0-1.2,0-1.8c0-0.4,0-0.8-0.1-1.2
			c0-0.3-0.1-0.6-0.1-0.8c0-0.8,0.1-1.6,0.2-2.4c0.1-0.5,0.2-0.9,0.4-1.4c0.3-0.8,0.6-1.7,0.8-2.5c0.2-0.9,0.4-1.7,0.4-2.6
			c0-0.3,0-0.5,0.1-0.8c0-0.3,0-0.5,0-0.8s-0.1-0.5-0.1-0.8c0-0.4-0.1-0.8-0.2-1.2c0-0.1-0.1-0.1-0.2-0.1c-0.2,0-0.4,0.1-0.6,0.1
			c-0.1,0-0.2,0-0.3,0.1c-0.5,0.2-1,0.4-1.5,0.6C38.1,86.9,37.6,87.1,37.1,87.3L37.1,87.3L37.1,87.3z M21.8,86.7c0,0.3,0,0.5,0,0.8
			c0,0.1,0.1,0.2,0.2,0.3c0.3,0.1,0.7,0.1,1-0.1c0.2-0.1,0.5-0.3,0.8-0.3c0.1,0,0.2-0.1,0.3-0.1c0.3-0.2,0.6-0.3,0.8-0.5
			c0.5-0.3,1-0.6,1.5-0.9s1-0.6,1.5-1s1.1-0.8,1.6-1.1c0.4-0.2,0.7-0.5,1-0.7c0.5-0.3,0.9-0.7,1.3-1c0.5-0.3,1-0.6,1.5-1
			c0.3-0.2,0.5-0.3,0.7-0.5c1-0.6,1.8-1.1,2.8-1.8c0.2-0.2,0.4-0.3,0.6-0.5v-0.1l0,0c-0.2,0.1-0.4,0.2-0.6,0.4
			c-0.6,0.3-1.3,0.7-1.8,1.1c-0.3,0.2-0.6,0.4-0.9,0.6c-0.4,0.2-0.7,0.4-1,0.6c-0.5,0.4-1.1,0.7-1.7,1c-1.3,0.7-2.5,1.4-3.8,2.1
			c-0.2,0.1-0.4,0.2-0.6,0.3c-0.3,0.2-0.7,0.3-1,0.5c-0.2,0.1-0.4,0.3-0.7,0.4c-0.5,0.2-0.9,0.4-1.4,0.7c-0.4,0.2-0.8,0.5-1.3,0.6
			C22.4,86.5,22.1,86.6,21.8,86.7L21.8,86.7L21.8,86.7z M38.3,74.3L38.3,74.3c0-0.2-0.1-0.2-0.1-0.2l0,0c-0.4,0.2-0.7,0.3-1.1,0.5
			c-0.3,0.1-0.7,0.3-1,0.4c-0.2,0.1-0.5,0.2-0.7,0.3c-0.1,0.1-0.3,0.1-0.4,0.2c-0.6,0.3-1.3,0.6-1.9,0.9c-0.2,0.1-0.4,0.2-0.6,0.4
			c-0.3,0.2-0.6,0.3-0.9,0.5c-0.2,0.1-0.3,0.2-0.5,0.3c-0.3,0.2-0.6,0.3-1,0.5l-0.4,0.2c-0.3,0.2-0.6,0.3-0.9,0.5
			c-0.3,0.1-0.5,0.3-0.8,0.4c-0.3,0.2-0.7,0.4-1.1,0.5c-0.4,0.2-0.8,0.4-1.2,0.6c-0.4,0.2-0.8,0.4-1.1,0.5c-1,0.3-1.9,0.8-2.9,1.1
			c-0.3,0.1-0.3,0.2-0.3,0.2c0,0.1,0,0.2,0,0.3c0,0.1,0.1,0.1,0.2,0.1l0,0c0.4-0.1,0.8-0.3,1.2-0.5s0.8-0.4,1.1-0.5
			c0.7-0.3,1.3-0.5,2-0.9c1.1-0.6,2.2-1.1,3.4-1.6c0.2-0.1,0.5-0.2,0.7-0.4c0.2-0.1,0.5-0.2,0.7-0.3c0.4-0.1,0.8-0.3,1.2-0.5
			c0.3-0.2,0.7-0.3,1-0.4c0.1-0.1,0.2-0.1,0.4-0.1c0.2-0.1,0.4-0.1,0.6-0.2c0.2-0.1,0.3-0.2,0.5-0.2c0.5-0.2,1-0.4,1.4-0.7
			c0.6-0.3,1.2-0.6,1.8-1c0.2-0.1,0.3-0.2,0.5-0.3c0.1,0,0.1-0.1,0.1-0.2C38.3,74.5,38.3,74.4,38.3,74.3L38.3,74.3L38.3,74.3z
			 M21.5,83C21.5,83,21.5,83.1,21.5,83c0,0.1,0.1,0.2,0.1,0.2l0,0c0.1,0,0.2-0.1,0.4-0.1c0.6-0.1,1.1-0.3,1.7-0.5
			c0.3-0.1,0.5-0.2,0.8-0.3c0.7-0.3,1.4-0.6,2.1-0.9c0.3-0.1,0.5-0.3,0.8-0.4c0.4-0.2,0.9-0.4,1.3-0.6c0.1,0,0.1-0.1,0.2-0.1
			c0.1-0.1,0.2-0.1,0.3-0.2c0.4-0.2,0.8-0.4,1.2-0.5c0.1-0.1,0.3-0.1,0.4-0.2c0.2-0.1,0.4-0.2,0.5-0.3c0.5-0.2,1-0.4,1.6-0.7
			c0.2-0.1,0.4-0.2,0.6-0.2c0.3-0.1,0.5-0.2,0.8-0.3c0.5-0.3,1-0.5,1.5-0.8C35.9,77,36,77,36.1,77c0.4-0.2,0.8-0.4,1.1-0.7
			c0.1-0.1,0.3-0.2,0.4-0.3c0.2-0.1,0.4-0.3,0.6-0.5c0-0.1,0-0.1,0-0.2c0,0,0-0.1-0.1-0.1c-0.1,0-0.1,0-0.1,0.1
			c-0.3,0.2-0.6,0.3-0.9,0.5c-0.4,0.2-0.9,0.5-1.3,0.7c-0.3,0.2-0.6,0.3-0.9,0.5c-0.6,0.3-1.3,0.5-1.9,0.8c-0.6,0.3-1.3,0.5-1.9,0.8
			c-0.3,0.1-0.6,0.2-0.9,0.4c-0.2,0.1-0.5,0.3-0.7,0.4c-0.6,0.3-1.3,0.6-1.9,0.9s-1.3,0.6-1.9,0.9c-0.5,0.2-1.1,0.5-1.6,0.7
			c-0.3,0.1-0.7,0.3-1,0.5c-0.3,0.1-0.5,0.3-0.8,0.4c-0.2,0.1-0.4,0.2-0.7,0.3C21.5,82.8,21.5,82.8,21.5,83L21.5,83z M38.1,76.2
			c0-0.1,0-0.2,0.1-0.3v-0.1h-0.1c-0.1,0-0.1,0.1-0.1,0.1c-0.4,0.3-0.8,0.5-1.2,0.7c-0.3,0.2-0.7,0.4-1,0.6
			c-0.4,0.2-0.8,0.5-1.3,0.7c-0.1,0-0.2,0.1-0.3,0.1c-0.3,0.1-0.7,0.3-1,0.4c-0.2,0.1-0.4,0.2-0.7,0.3c-0.4,0.2-0.8,0.3-1.2,0.5
			c-0.5,0.3-1,0.5-1.5,0.7c-0.1,0-0.2,0.1-0.3,0.2c-0.5,0.3-1,0.5-1.5,0.8c-0.5,0.2-0.9,0.4-1.4,0.7c-0.2,0.1-0.4,0.2-0.6,0.3
			c-0.5,0.2-0.9,0.4-1.4,0.6c-0.6,0.3-1.3,0.5-1.9,0.7c-0.3,0.1-0.6,0.2-0.9,0.3c-0.1,0-0.1,0.1-0.1,0.2s0,0.2,0,0.3
			c0,0.3,0.1,0.4,0.4,0.3c0.1,0,0.2-0.1,0.3-0.1c0.2-0.1,0.4-0.2,0.7-0.3c0.5-0.2,1.1-0.4,1.6-0.7c0.3-0.2,0.6-0.3,0.8-0.4
			c0.2-0.1,0.3-0.1,0.4-0.2c0.2-0.1,0.4-0.3,0.7-0.3c0.4-0.1,0.9-0.3,1.3-0.5s0.8-0.4,1.2-0.6c0.4-0.3,0.9-0.5,1.3-0.8
			c0.2-0.1,0.4-0.2,0.6-0.3c0.4-0.3,0.9-0.6,1.4-0.8c0.5-0.3,1-0.5,1.6-0.8c0.3-0.1,0.6-0.3,0.9-0.4c0.5-0.2,1-0.4,1.5-0.7
			C36.9,77,37.6,76.7,38.1,76.2L38.1,76.2L38.1,76.2z M40.1,64.9c0.2,0.1,0.3,0.2,0.5,0.3c0.6,0.3,1.2,0.6,1.9,0.9s1.3,0.5,2,0.7
			h0.1c0.1,0,0.1-0.1,0.1-0.2s0-0.1-0.1-0.1c-0.2,0-0.4,0-0.5-0.1c-0.2-0.1-0.4-0.1-0.5-0.1s-0.1,0-0.2-0.1
			c-0.8-0.3-1.5-0.7-2.2-1.1c-0.2-0.1-0.5-0.2-0.6-0.4c-0.1-0.1-0.2-0.1-0.3-0.2c-0.2-0.1-0.4-0.3-0.6-0.4c-0.2-0.2-0.4-0.4-0.6-0.6
			H39c-0.1,0.1-0.3,0.2-0.3,0.4c0,0.1,0,0.2-0.1,0.2c-0.2,0.1-0.4,0.2-0.6,0.3s-0.4,0.2-0.7,0.3c-0.3,0.1-0.6,0.2-0.9,0.4
			c-0.2,0.1-0.4,0.2-0.6,0.4c-0.8,0.4-1.5,0.8-2.3,1.1c-0.9,0.4-1.9,0.9-2.8,1.3c-0.3,0.1-0.6,0.3-0.9,0.4c-0.1,0-0.1,0.1-0.1,0.2
			s-0.1,0.3,0,0.4c0,0,0,0.1,0.1,0.1s0.1,0,0.2,0c0.4-0.2,0.8-0.3,1.2-0.5c0.4-0.2,0.7-0.3,1.1-0.5c0.7-0.3,1.4-0.6,2.1-1
			c0.3-0.2,0.6-0.3,0.9-0.4c0.4-0.1,0.7-0.3,1.1-0.5c0.6-0.3,1.3-0.7,1.9-1c0.1-0.1,0.3-0.1,0.4-0.3c0.1-0.1,0.2-0.1,0.3-0.1
			s0.1,0,0.1-0.1s0-0.1,0.1-0.1c0-0.1,0.2,0,0.2,0s0,0.1,0.1,0.2c0,0.1,0.1,0.1,0.1,0.2c0.2,0.1,0.3,0.2,0.5,0.4c0,0,0.1,0,0.2,0
			C40,64.9,40,64.9,40.1,64.9L40.1,64.9L40.1,64.9z M38.5,71.3c-0.2,0.1-0.4,0.1-0.6,0.2c-0.6,0.3-1.1,0.6-1.7,0.8
			c-0.1,0.1-0.3,0.1-0.4,0.2c-0.2,0.2-0.5,0.3-0.8,0.3c-0.1,0-0.2,0.1-0.4,0.1c-0.2,0.1-0.4,0.2-0.7,0.3c-0.5,0.2-1,0.4-1.5,0.6
			c-0.3,0.1-0.6,0.3-0.9,0.4s-0.6,0.3-0.9,0.4c-0.4,0.2-0.9,0.4-1.3,0.6c-0.1,0-0.1,0.1-0.2,0.1c-0.1,0.3-0.1,0.5-0.2,0.8
			c0,0.1,0,0.1,0,0.2c0,0,0,0.1,0.1,0.1s0.1,0,0.2-0.1c0.4-0.2,0.8-0.3,1.2-0.5c0.7-0.3,1.3-0.6,2-0.9c0.6-0.2,1.2-0.5,1.7-0.8
			s1.1-0.6,1.7-0.9c0.3-0.1,0.6-0.3,0.9-0.5c0.4-0.2,0.7-0.5,1.1-0.7c0.2-0.2,0.4-0.3,0.7-0.5l0.1-0.1
			C38.6,71.5,38.6,71.4,38.5,71.3L38.5,71.3z M21.7,67.7L21.7,67.7c0,0.1,0.1,0.2,0.2,0.2c0.1,0,0.2,0,0.3-0.1
			c0.5-0.2,1.1-0.3,1.6-0.5c0.2-0.1,0.3-0.1,0.5-0.2c0.1,0,0.1-0.1,0.1-0.2s0.1-0.2,0.1-0.2l0,0c0.2,0,0.3-0.1,0.5-0.1
			c0.2-0.1,0.4-0.2,0.6-0.2c0.6-0.1,1.2-0.2,1.7-0.5h0.1c0.3-0.1,0.5-0.2,0.8-0.3c0.3-0.1,0.5-0.2,0.8-0.3c0.2-0.1,0.5-0.2,0.8-0.3
			c0.1,0,0.2-0.1,0.3-0.1c0.4-0.2,0.8-0.4,1.2-0.5c0.3-0.1,0.5-0.2,0.8-0.3c0.2-0.1,0.4-0.1,0.6-0.2c0.1,0,0.2-0.1,0.2-0.1v-0.1l0,0
			c-0.5-0.1-1-0.1-1.5-0.1c-0.1,0-0.1,0-0.2,0c-0.6,0.3-1.2,0.5-1.8,0.8c-0.3,0.1-0.5,0.2-0.7,0.4c-0.1,0.1-0.3,0.1-0.4,0.2
			c-0.7,0.4-1.4,0.6-2,1c-0.3,0.1-0.5,0.2-0.8,0.3c-0.7,0.3-1.4,0.5-2,0.8c-0.4,0.2-0.8,0.3-1.3,0.4c-0.1,0-0.1,0.1-0.1,0.1
			C21.7,67.5,21.7,67.6,21.7,67.7L21.7,67.7L21.7,67.7z M38.8,67.8c0.1-0.1,0.1-0.2,0.2-0.4c0-0.1,0-0.1,0-0.2v-0.1h-0.1
			c-0.2,0.1-0.3,0.1-0.5,0.2c-0.6,0.3-1.2,0.6-1.8,0.9c-0.8,0.4-1.6,0.8-2.4,1.2c-0.7,0.3-1.4,0.7-2.2,0.9c-0.6,0.3-1.3,0.5-1.9,0.8
			c-0.7,0.3-0.6,0.1-0.6,0.9c0,0.1,0.1,0.2,0.2,0.1c0.2-0.1,0.3-0.1,0.5-0.2c0.4-0.2,0.8-0.4,1.2-0.5c0.5-0.2,1.1-0.4,1.6-0.6
			c0.3-0.1,0.5-0.3,0.8-0.4c0.7-0.3,1.3-0.6,2-1c0.4-0.2,0.8-0.4,1.2-0.6c0.2-0.1,0.4-0.2,0.6-0.3C37.9,68.3,38.4,68.1,38.8,67.8
			L38.8,67.8z M29.5,72.5c-0.1,0.2-0.1,0.4,0,0.6c0,0.1,0.1,0.1,0.1,0.1c0.1,0,0.1,0,0.2-0.1c0.8-0.3,1.5-0.6,2.2-0.9
			c0.9-0.4,1.9-0.8,2.8-1.2c0.5-0.2,1-0.5,1.5-0.7c0.3-0.2,0.6-0.4,1-0.5c0.5-0.2,0.9-0.6,1.3-1c0.1-0.1,0.2-0.3,0.2-0.5
			c0-0.1-0.1-0.2-0.2-0.2c-0.3,0.1-0.6,0.3-0.9,0.4c-0.3,0.2-0.5,0.3-0.8,0.5c-0.6,0.4-1.3,0.7-1.9,1c-0.2,0.1-0.5,0.2-0.7,0.4
			c-0.3,0.1-0.6,0.3-0.9,0.4c-0.3,0.2-0.7,0.3-1,0.4c-0.6,0.3-1.2,0.4-1.8,0.8c-0.2,0.1-0.5,0.2-0.7,0.3
			C29.7,72.4,29.6,72.5,29.5,72.5L29.5,72.5L29.5,72.5z M22,84.7c0.2,0,0.4-0.1,0.6-0.1c0.2-0.1,0.5-0.2,0.7-0.3
			c0.2-0.1,0.3-0.1,0.5-0.2c0.4-0.1,0.9-0.2,1.2-0.5c0.1-0.1,0.2-0.1,0.3-0.1c0.6-0.3,1.3-0.6,1.9-0.9c0.3-0.1,0.5-0.2,0.8-0.3
			c0.3-0.1,0.5-0.2,0.8-0.4c0.1,0,0.1-0.1,0.2-0.1c0.6-0.3,1.2-0.6,1.8-0.9c0.5-0.3,1-0.6,1.5-0.8c0.5-0.3,1-0.5,1.5-0.7
			c0.2-0.1,0.3-0.1,0.5-0.2c0.3-0.1,0.6-0.3,0.9-0.4c0.5-0.2,0.9-0.4,1.4-0.6c0.4-0.2,0.8-0.4,1.2-0.7c0.1-0.1,0.1-0.1,0.1-0.2
			s0-0.1,0-0.2c0,0,0-0.1-0.1-0.1c0,0,0,0-0.1,0c-0.3,0.2-0.7,0.4-1,0.6c-0.5,0.3-1.1,0.6-1.7,0.8c-0.1,0-0.2,0.1-0.4,0.1
			c-0.3,0.1-0.6,0.3-0.9,0.4s-0.6,0.3-0.8,0.4c-0.6,0.4-1.3,0.7-1.9,1.1c-0.5,0.3-1,0.6-1.5,0.9c-0.3,0.2-0.7,0.4-1,0.6
			s-0.7,0.3-1,0.5c-0.2,0.1-0.4,0.2-0.6,0.3L26.2,83c0,0,0,0-0.1,0c-0.2,0.1-0.4,0.2-0.6,0.3c-0.2,0.1-0.4,0.1-0.6,0.3
			c-0.2,0.1-0.4,0.2-0.6,0.3C24.1,84,24,84,23.8,84.1c-0.7,0.3-1.4,0.6-2.1,0.8c-0.1,0-0.1,0-0.2,0.1c0,0,0,0.1-0.1,0.1
			c0,0,0,0.1,0.1,0.1C21.8,84.7,21.9,84.7,22,84.7L22,84.7z M43.6,83.3c-0.1-0.1-0.2-0.2-0.3-0.2c-0.4-0.3-0.9-0.6-1.3-1
			c-0.8-0.6-1.5-1.1-2.2-1.7c-0.1-0.1-0.3-0.2-0.4-0.3c-0.2-0.2-0.4-0.3-0.6-0.5c-0.3-0.2-0.5-0.5-0.8-0.8h-0.1l-0.1,0.1
			c-0.1,0.5-0.1,0.6,0.3,0.9c0.1,0.1,0.2,0.2,0.3,0.3c0.2,0.2,0.4,0.4,0.6,0.6c0.1,0.1,0.2,0.2,0.3,0.3c0.3,0.3,0.6,0.6,1,0.9
			c0.5,0.4,1,0.8,1.5,1.3c0.2,0.1,0.3,0.2,0.5,0.3c0.3,0.2,0.6,0.3,0.9,0.4s0.5,0,0.5-0.3C43.7,83.5,43.7,83.4,43.6,83.3L43.6,83.3
			L43.6,83.3z M38.8,69.4C38.8,69.3,38.7,69.3,38.8,69.4C38.7,69.3,38.7,69.3,38.8,69.4c-0.2-0.1-0.2,0-0.3,0
			c-0.3,0.3-0.7,0.5-1.1,0.7c-0.2,0.1-0.3,0.2-0.5,0.3c-0.5,0.3-1.1,0.6-1.7,0.8c-1,0.4-2.1,0.8-3.1,1.3c-0.1,0.1-0.2,0.1-0.4,0.1
			c-0.6,0.3-1.3,0.5-1.9,0.8c-0.1,0-0.1,0-0.2,0.1c-0.1,0-0.1,0.1-0.1,0.2c0,0.2-0.1,0.4-0.1,0.6c0,0,0,0,0,0.1s0.1,0.1,0.1,0.1
			c0.3-0.1,0.6-0.2,0.9-0.3c0.7-0.2,1.3-0.5,2-0.8c0.1-0.1,0.2-0.1,0.4-0.2c0.2-0.1,0.4-0.2,0.6-0.3c0.8-0.4,1.5-0.8,2.2-1.2
			c0.4-0.3,0.9-0.5,1.3-0.7s0.8-0.5,1.2-0.7c0.1-0.1,0.2-0.2,0.4-0.3C38.7,69.7,38.8,69.5,38.8,69.4L38.8,69.4L38.8,69.4z
			 M29.6,67.5c0.2-0.1,0.5-0.1,0.7-0.2c0.6-0.2,1.3-0.4,1.9-0.7c0.6-0.2,1.2-0.4,1.7-0.7c0.6-0.3,1.3-0.7,1.9-1
			c0.2-0.1,0.4-0.1,0.6-0.2c0.3-0.2,0.7-0.4,1-0.5c0.4-0.2,0.8-0.5,1.1-0.8v-0.1l0,0c-0.3,0-0.5-0.1-0.8,0c-0.2,0-0.4,0.1-0.5,0.2
			c-0.1,0.1-0.2,0.2-0.4,0.3c-0.2,0.1-0.3,0.2-0.4,0.2c-0.2,0.1-0.5,0.2-0.7,0.3c-0.2,0.1-0.4,0.2-0.5,0.3c-0.7,0.3-1.4,0.6-2.1,0.9
			c-0.4,0.2-0.9,0.4-1.3,0.6c-0.3,0.2-0.6,0.3-1,0.4c-0.2,0.1-0.5,0.2-0.7,0.3c-0.2,0.1-0.3,0.2-0.5,0.2l-0.1,0.1
			C29.5,67.3,29.5,67.4,29.6,67.5L29.6,67.5L29.6,67.5z M39.2,65.4c-0.2,0.1-0.4,0.2-0.7,0.3c-0.2,0.1-0.3,0.2-0.5,0.2
			c-0.3,0.1-0.5,0.3-0.9,0.4c-0.1,0-0.2,0.1-0.3,0.2s-0.3,0.2-0.4,0.2c-1.1,0.5-2.2,1-3.3,1.5c-0.2,0.1-0.5,0.2-0.7,0.4
			c-0.2,0.1-0.4,0.3-0.7,0.4c-0.5,0.2-1.1,0.5-1.6,0.7c-0.1,0.1-0.3,0.1-0.4,0.2c-0.1,0-0.2,0.2-0.2,0.3c0,0.1,0,0.1,0,0.2
			s0.1,0.1,0.1,0.1c0.3-0.1,0.6-0.2,0.9-0.4c0.2-0.1,0.4-0.2,0.5-0.3c0.8-0.3,1.5-0.7,2.2-1c0.1,0,0.1-0.1,0.2-0.1
			c0.3-0.1,0.6-0.3,0.9-0.4c0.3-0.1,0.6-0.3,1-0.4c0.2-0.1,0.3-0.2,0.5-0.2c0.4-0.2,0.8-0.4,1.2-0.6c0.2-0.1,0.5-0.3,0.7-0.4
			c0.4-0.2,0.8-0.4,1.2-0.6c0.1-0.1,0.2-0.1,0.2-0.3C39.2,65.6,39.3,65.5,39.2,65.4L39.2,65.4L39.2,65.4z M26.4,87.8
			c0.2,0,0.4,0,0.6-0.2c0.3-0.1,0.5-0.2,0.7-0.4c0.1-0.1,0.2-0.2,0.4-0.2c0.1-0.1,0.2-0.1,0.3-0.2c0.9-0.6,1.8-1.3,2.6-2
			c0.3-0.2,0.6-0.4,0.9-0.6c0.5-0.3,1-0.7,1.4-1l0,0c0.4-0.4,0.8-0.7,1.2-1c0.5-0.4,1-0.8,1.4-1.3c0.4-0.4,0.9-0.8,1.3-1.3v-0.1
			h-0.1c-0.4,0.3-0.9,0.6-1.3,1c-0.1,0.1-0.2,0.1-0.3,0.2c-0.5,0.4-1,0.7-1.5,1.1c-0.1,0.1-0.2,0.2-0.3,0.3
			c-0.2,0.3-0.5,0.5-0.8,0.7c-0.1,0.1-0.3,0.2-0.4,0.3c-0.5,0.5-1.1,0.9-1.6,1.3c-0.8,0.6-1.7,1.2-2.5,1.9c-0.2,0.2-0.5,0.3-0.7,0.4
			c-0.1,0.1-0.2,0.1-0.3,0.2l-0.7,0.4c-0.2,0.1-0.4,0.2-0.6,0.3L26,87.8c0,0,0,0,0,0.1C26.2,87.8,26.3,87.8,26.4,87.8L26.4,87.8z
			 M38.6,74.1c0,0.2,0,0.3,0,0.4c0.1,0.1,0.1,0.2,0.1,0.3c0.1,0.1,0.2,0.2,0.3,0.3c0.1,0.1,0.2,0.2,0.3,0.3c0.7,0.6,1.4,1.1,2,1.7
			c0.2,0.2,0.4,0.3,0.6,0.4s0.3,0.2,0.5,0.3c0.4,0.3,1,0.5,1.4,0.8c0.1,0,0.1,0,0.2,0c0,0,0.1,0,0.1-0.1s0-0.2,0-0.3
			c0-0.2-0.1-0.4-0.3-0.4c-0.1,0-0.2-0.1-0.2-0.1c-0.5-0.4-1-0.8-1.5-1.2c-0.2-0.2-0.4-0.3-0.6-0.4c-0.5-0.4-1-0.8-1.5-1.2
			c-0.2-0.2-0.4-0.3-0.7-0.5c-0.2-0.2-0.4-0.3-0.6-0.5h-0.1l0,0C38.6,74,38.6,74.1,38.6,74.1L38.6,74.1L38.6,74.1z M37.6,79.7
			c-0.1,0.1-0.1,0.2-0.1,0.3c-0.1,0.1-0.1,0.3,0,0.4c0,0.3,0.2,0.5,0.4,0.7c0.1,0.1,0.2,0.2,0.2,0.3c0.3,0.4,0.7,0.7,1,1.1
			c0.2,0.2,0.5,0.4,0.7,0.6c0.2,0.1,0.4,0.2,0.6,0.3c0.7,0.4,1.3,0.8,2,1.2c0.1,0.1,0.3,0.1,0.4,0.2c0.1,0,0.1,0,0.2,0
			c0.1,0,0.1-0.1,0.2-0.1c0.1-0.1,0.1-0.2,0-0.3c-0.2-0.1-0.3-0.2-0.5-0.2c-0.3-0.1-0.7-0.3-0.9-0.6c-0.1-0.1-0.1-0.1-0.2-0.1
			c-0.8-0.6-1.6-1.3-2.3-2c-0.3-0.3-0.7-0.6-0.9-1c-0.1-0.2-0.3-0.3-0.4-0.5C37.7,79.7,37.6,79.7,37.6,79.7L37.6,79.7z M44,80.3
			c-0.5-0.4-1.1-0.8-1.6-1.1c-0.4-0.3-0.9-0.6-1.3-0.9c-0.2-0.2-0.5-0.3-0.7-0.5c-0.2-0.1-0.4-0.3-0.6-0.4c-0.5-0.3-0.9-0.6-1.2-1
			l-0.1-0.1h-0.1c0,0-0.1,0-0.1,0.1c0,0.2,0,0.3,0,0.5V77c0.2,0.2,0.3,0.4,0.5,0.6c0.5,0.4,1,0.8,1.5,1.1c0.7,0.5,1.4,0.9,2.1,1.4
			c0.4,0.3,0.9,0.5,1.4,0.8c0,0,0,0,0.1,0c0,0,0.1,0,0.1-0.1l0,0C44,80.7,44.1,80.5,44,80.3L44,80.3L44,80.3z M38.6,75.1
			c-0.1,0.1-0.1,0.2-0.2,0.4c0,0.1,0,0.2,0,0.3c0.3,0.4,0.6,0.8,1,1.1c0.2,0.1,0.3,0.2,0.5,0.3c0.4,0.3,0.7,0.5,1.1,0.8
			c0.6,0.4,1.1,0.7,1.7,1.1c0.4,0.2,0.7,0.4,1.1,0.6c0.1,0,0.1,0,0.1,0c0-0.2,0.1-0.3,0.1-0.5c0-0.1-0.1-0.2-0.1-0.2h-0.1
			c-0.1,0-0.3-0.1-0.3-0.2c-0.1-0.1-0.1-0.1-0.2-0.2c-0.5-0.3-1-0.6-1.5-0.9c-0.2-0.2-0.5-0.3-0.7-0.5s-0.4-0.3-0.6-0.5
			c-0.5-0.4-1.1-0.9-1.6-1.3C38.9,75.3,38.8,75.2,38.6,75.1L38.6,75.1L38.6,75.1z M44.1,76.9c-0.2-0.1-0.4-0.3-0.6-0.4
			c-0.5-0.5-1.2-0.8-1.7-1.3c-0.1,0-0.1-0.1-0.2-0.1c-0.7-0.4-1.3-1-1.9-1.5c-0.3-0.3-0.6-0.5-0.9-0.8c0,0-0.1-0.1-0.1,0
			c-0.1,0-0.1,0.1-0.1,0.1c0,0.1,0,0.3,0,0.4s0,0.2,0.1,0.3c0.2,0.3,0.5,0.6,0.8,0.8c0.3,0.3,0.7,0.5,1,0.7c0.1,0.1,0.1,0.1,0.2,0.2
			c0.4,0.3,0.8,0.6,1.2,0.9c0.1,0.1,0.3,0.2,0.4,0.3c0.3,0.3,0.7,0.5,1.1,0.8c0.1,0.1,0.2,0.1,0.3,0.2c0.3,0.2,0.4,0.1,0.4-0.2
			C44.1,77.1,44.1,77,44.1,76.9L44.1,76.9z M39.1,66.5c0-0.2-0.1-0.2-0.2-0.2s-0.1,0-0.2,0.1c-0.3,0.1-0.6,0.3-0.9,0.4
			c-0.2,0.1-0.5,0.2-0.7,0.4c-0.3,0.2-0.7,0.4-1,0.5c-0.3,0.1-0.5,0.2-0.8,0.3c-0.2,0.1-0.4,0.2-0.6,0.3c-0.4,0.1-0.8,0.4-1.2,0.5
			c-0.6,0.3-1.2,0.6-1.8,0.8l-1.9,0.9c-0.2,0.1-0.2,0.2-0.3,0.4c0,0,0,0.1,0.1,0.1c0.2-0.1,0.3-0.1,0.5-0.2c0.5-0.2,0.9-0.3,1.4-0.5
			c0.9-0.4,1.8-0.8,2.7-1.2c0.3-0.1,0.7-0.3,1-0.5c0.6-0.3,1.3-0.7,2-1c0.3-0.1,0.5-0.2,0.7-0.4c0.2-0.1,0.4-0.3,0.6-0.3
			c0.2-0.1,0.3-0.2,0.5-0.3C39.1,66.6,39.1,66.6,39.1,66.5L39.1,66.5L39.1,66.5z M44.9,41.4c0.2-0.6,0.2-0.5,0.2-1
			c0-0.1,0-0.3,0-0.4c0.1-0.3,0.1-0.5,0.1-0.8c0-0.2,0-0.4,0-0.6c0-0.2,0-0.3,0-0.5c0-0.1-0.1-0.1-0.1-0.1l0,0
			c-0.2,0.1-0.4,0.3-0.6,0.4c-0.2,0.1-0.3,0.1-0.5,0.2c-0.1,0-0.2,0.1-0.2,0.1c-0.1,0.1-0.3,0.2-0.4,0.3c-0.2,0.1-0.3,0-0.5,0
			c-0.1,0-0.1,0.1-0.1,0.2c0,0.1,0,0.2,0.1,0.2c0.2,0.1,0.4,0.3,0.6,0.4c0.4,0.4,0.8,0.9,1.1,1.4c0,0.1,0,0.1,0.1,0.1
			c0.1,0.2,0.3,0.4,0.4,0.6h0.1c0,0,0,0,0-0.1C45.1,41.8,45,41.6,44.9,41.4L44.9,41.4L44.9,41.4z M39.1,69
			C39.1,69.1,39.1,69.1,39.1,69c0.6,0.8,1.2,1.4,1.9,2c0.2,0.2,0.4,0.3,0.6,0.5c0.2,0.1,0.3,0.3,0.5,0.4c0.1,0.1,0.2,0.2,0.3,0.3
			c0.4,0.3,0.7,0.5,1.1,0.8c0.2,0.1,0.4,0.2,0.6,0.2h0.1c0.1-0.2,0.1-0.4,0-0.5c0,0,0-0.1-0.1-0.1c-0.2-0.1-0.3-0.2-0.4-0.3
			c-0.1-0.1-0.1-0.1-0.2-0.2c-0.3-0.2-0.6-0.5-0.9-0.8c-0.5-0.4-1.1-0.9-1.6-1.3c-0.4-0.3-0.9-0.7-1.3-1.1c-0.2-0.2-0.3-0.3-0.5-0.5
			l0,0c0,0,0,0.1-0.1,0.1C39.2,68.7,39.2,68.8,39.1,69L39.1,69L39.1,69L39.1,69z M43.8,82.5c0-0.2,0-0.2-0.1-0.3
			c-0.4-0.3-0.8-0.6-1.2-0.9s-0.8-0.6-1.3-0.9c-0.3-0.2-0.5-0.3-0.8-0.5c-0.2-0.2-0.5-0.3-0.7-0.5c-0.5-0.4-1.1-0.8-1.6-1.2H38
			c0,0,0,0.1,0,0.2s0.1,0.3,0.2,0.4c0.3,0.4,0.7,0.7,1.1,1c0.3,0.3,0.7,0.5,1,0.7c0.9,0.7,1.8,1.4,2.7,2c0.2,0.1,0.3,0.2,0.5,0.3
			c0.1,0,0.1,0,0.2,0c0,0,0.1,0,0.1-0.1S43.8,82.5,43.8,82.5L43.8,82.5L43.8,82.5z M21,78.9c0,0,0,0.1,0,0.3c0,0.2,0.1,0.2,0.3,0.2
			c0.3,0,0.5-0.1,0.8-0.1c0.2-0.1,0.4-0.1,0.6-0.2c0.7-0.1,1.4-0.5,2.1-0.8c0.1-0.1,0.2-0.1,0.3-0.2l0.1-0.1c0-0.2-0.1-0.5-0.2-0.7
			l-0.1-0.1c-0.1,0-0.1,0-0.2,0c-0.2,0.1-0.5,0.2-0.7,0.3c-0.6,0.2-1.2,0.4-1.8,0.6c-0.3,0.1-0.6,0.2-0.8,0.3
			c-0.1,0-0.1,0.1-0.2,0.1c-0.1,0-0.1,0.1-0.1,0.2C21,78.8,21,78.8,21,78.9L21,78.9L21,78.9z M44.2,75.2v-0.3c0-0.1-0.1-0.2-0.1-0.2
			c-0.2-0.1-0.3-0.2-0.5-0.3c-0.3-0.2-0.6-0.3-0.9-0.6c-0.1-0.1-0.2-0.1-0.3-0.2c-0.7-0.4-1.2-1-1.8-1.5c-0.3-0.3-0.6-0.6-0.8-0.9
			s-0.5-0.5-0.8-0.8h-0.1l-0.1,0.1c-0.1,0.2,0,0.3,0,0.5s0.1,0.3,0.2,0.4c0.3,0.3,0.6,0.7,1,1c0.5,0.5,1,0.9,1.6,1.3
			c0.1,0.1,0.2,0.2,0.4,0.3c0.4,0.4,0.9,0.7,1.3,1c0.3,0.2,0.5,0.2,0.8,0.3C44.2,75.3,44.2,75.3,44.2,75.2L44.2,75.2L44.2,75.2z
			 M28.8,63.1c-0.1,0-0.2,0-0.2,0.1c-0.4,0.2-1,0.3-1.4,0.5c-0.6,0.2-1.2,0.4-1.8,0.6c-0.6,0.2-1.1,0.5-1.7,0.7
			c-0.5,0.2-0.9,0.4-1.4,0.5c-0.1,0-0.2,0.1-0.3,0.1c-0.1,0-0.1,0.1-0.1,0.2s0,0.1,0,0.2s0.1,0.2,0.2,0.1c0.6-0.1,1.2-0.3,1.8-0.5
			c0.5-0.2,1-0.4,1.5-0.6c0.3-0.1,0.5-0.2,0.8-0.3c0.4-0.2,0.9-0.4,1.3-0.6c0.5-0.2,0.9-0.4,1.4-0.6c0.1,0,0.2-0.1,0.3-0.1l0.1-0.1
			v-0.1C29.1,63.1,28.9,63.1,28.8,63.1z M42.1,84.9c0.1,0,0.1,0,0.2,0h0.1l0,0c0,0,0,0,0-0.1c-0.3-0.2-0.6-0.4-1-0.6
			c-0.5-0.3-1.1-0.7-1.6-0.9c-0.4-0.2-0.8-0.5-1.1-0.8c-0.4-0.4-0.8-0.9-1.2-1.3c-0.1-0.1-0.1-0.1-0.2-0.2h-0.1l0,0
			c-0.1,0.3-0.2,0.6,0.1,0.9c0.1,0.1,0.2,0.2,0.3,0.3c0.2,0.2,0.5,0.5,0.7,0.7c0.6,0.5,1.1,1,1.8,1.4c0.2,0.1,0.4,0.2,0.6,0.3
			C41.2,84.8,41.7,84.9,42.1,84.9L42.1,84.9L42.1,84.9z M39.4,66.9c0,0.1-0.1,0.2-0.1,0.3c0,0.1,0,0.3,0.1,0.3
			c0.1,0.1,0.2,0.2,0.3,0.3c0.5,0.5,1,1,1.6,1.4c0.7,0.5,1.4,1,2.1,1.3c0.2,0.1,0.4,0.2,0.7,0.3c0.1,0,0.1,0,0.2,0
			c0.1,0,0.1,0,0.1-0.1c0-0.2,0-0.3,0-0.6c-0.1-0.1-0.2-0.1-0.3-0.2c-0.6-0.4-1.2-0.8-1.8-1.1c-0.1,0-0.1-0.1-0.2-0.1
			c-0.2-0.2-0.4-0.3-0.6-0.4c-0.5-0.3-1-0.7-1.4-1c-0.1-0.1-0.2-0.2-0.3-0.3C39.6,67,39.5,66.9,39.4,66.9L39.4,66.9L39.4,66.9z
			 M30.4,88c0.3,0,0.4,0,0.6-0.1c0.2-0.2,0.5-0.3,0.7-0.5c0.4-0.4,0.9-0.7,1.4-1.1c0.1-0.1,0.2-0.2,0.3-0.2c0.5-0.4,1-0.9,1.5-1.4
			c0.1-0.1,0.1-0.1,0.1-0.2c0.5-0.6,1-1.1,1.4-1.7l0.1-0.1c0.1-0.1,0.1-0.2,0.1-0.3v-0.1l0,0c-0.1,0.1-0.2,0.3-0.4,0.3
			c-0.1,0-0.1,0.1-0.1,0.1c-0.6,0.6-1.2,1.2-1.8,1.7c-0.6,0.5-1.1,1.1-1.7,1.5l-0.1,0.1c-0.4,0.4-0.9,0.8-1.3,1.2
			c-0.3,0.2-0.5,0.4-0.8,0.6l0,0c0,0,0,0.1,0.1,0.1C30.3,88,30.4,88,30.4,88z M21.8,66.7L21.8,66.7L21.8,66.7c0,0.2,0.1,0.3,0.1,0.3
			l0,0c0.1,0,0.2,0,0.3-0.1c0.5-0.2,1-0.3,1.6-0.6c0.3-0.1,0.6-0.2,0.9-0.4c0.8-0.3,1.5-0.6,2.3-1c0.1,0,0.2-0.1,0.3-0.1
			c0.2-0.1,0.4-0.2,0.6-0.3c0.1-0.1,0.2-0.1,0.2-0.1c0.4-0.1,0.8-0.3,1.1-0.6c0.1-0.1,0.2-0.1,0.3-0.1c0.2-0.1,0.5-0.2,0.7-0.3
			c0,0,0.1-0.1,0-0.1c0,0,0-0.1-0.1-0.1s-0.3,0-0.4,0c-0.3,0.2-0.7,0.4-1,0.5c-0.6,0.3-1.3,0.5-1.9,0.8S25.6,65,25,65.2
			c-0.1,0-0.2,0.1-0.3,0.1c-0.7,0.3-1.4,0.6-2.1,0.8c-0.3,0.1-0.6,0.2-0.8,0.3C21.8,66.4,21.8,66.5,21.8,66.7L21.8,66.7L21.8,66.7z
			 M44.2,73.8c-0.1-0.1-0.3-0.1-0.4-0.2c-0.1-0.1-0.3-0.2-0.4-0.3c-0.1-0.1-0.2-0.2-0.4-0.3c-0.3-0.2-0.7-0.5-1-0.8
			c-0.5-0.4-1-0.8-1.5-1.3c-0.2-0.1-0.3-0.3-0.5-0.5c-0.3-0.3-0.6-0.6-0.9-0.9c0,0,0,0-0.1,0h-0.1c-0.1,0.1-0.1,0.2,0,0.3
			c0.1,0.2,0.2,0.4,0.4,0.6s0.5,0.5,0.7,0.7c0.3,0.4,0.7,0.8,1.1,1.2c0.3,0.3,0.6,0.6,0.9,0.8c0.3,0.2,0.5,0.4,0.8,0.6
			s0.6,0.4,0.9,0.6c0.4,0.2,0.5,0.3,0.5-0.3C44.2,73.9,44.2,73.8,44.2,73.8L44.2,73.8z M21.1,80c0,0.2,0.1,0.4,0.1,0.6
			c0,0.1,0.1,0.2,0.2,0.1l0,0c0.4-0.1,0.7-0.2,1-0.3c0.7-0.3,1.4-0.6,2.1-0.9c0.3-0.1,0.6-0.3,1-0.4c0.1,0,0.2-0.1,0.2-0.1v-0.1
			c-0.1-0.1-0.2-0.2-0.3-0.3c-0.1-0.1-0.2-0.1-0.3-0.1c-0.3,0.1-0.6,0.2-0.9,0.3c-0.9,0.4-1.8,0.7-2.8,0.9c-0.1,0-0.2,0.1-0.3,0.1
			c-0.1,0-0.1,0.1-0.1,0.1C21.1,79.9,21.1,79.9,21.1,80L21.1,80z M20.5,11C20.5,11,20.6,11,20.5,11c0.1-0.1,0.1-0.2,0.2-0.2
			c0.1-0.1,0.1-0.3,0.1-0.4c0-0.1-0.1-0.2-0.1-0.3c0-0.2-0.2-0.3-0.2-0.5s0-0.4,0-0.6c0-0.3,0-0.5,0-0.8c0-0.7,0-1.3,0.1-2
			C20.7,5,21.3,3.9,22.2,3c0.1-0.1,0.2-0.2,0.2-0.2c0.1-0.1,0.2-0.2,0.4-0.3c0.1-0.1,0.3-0.2,0.4-0.2l0.1-0.1l0,0l0,0
			c-0.1,0-0.1,0-0.2,0c-0.3,0.1-0.6,0.3-0.8,0.5c-0.2,0.1-0.3,0.2-0.4,0.4c-0.2,0.2-0.3,0.5-0.5,0.7c-0.3,0.4-0.5,0.8-0.7,1.3
			c-0.3,0.2-0.4,0.8-0.5,1.3C20.1,6.9,20,7.4,20,8c0,0.7,0.1,1.3,0.2,2c0,0.1,0,0.1,0,0.2C20.3,10.4,20.4,10.7,20.5,11L20.5,11z
			 M26.1,79.1c-0.1,0-0.1,0-0.2,0.1c-0.6,0.3-1.2,0.6-1.9,0.8c-0.1,0-0.2,0.1-0.3,0.1c-0.7,0.3-1.5,0.6-2.2,0.9
			c-0.3,0.1-0.3,0.2-0.3,0.4c0,0.1,0,0.1,0,0.2s0.1,0.1,0.2,0.1l0,0c0.2-0.1,0.3-0.1,0.5-0.2c0.6-0.2,1.2-0.4,1.8-0.7
			c0.5-0.2,1-0.4,1.5-0.7c0.2-0.1,0.4-0.2,0.6-0.3c0.2-0.1,0.4-0.2,0.6-0.3c0.1-0.1,0.2-0.1,0.4-0.2l0.1-0.1L26.1,79.1L26.1,79.1z
			 M44.2,75.8c-0.1-0.2-0.4-0.2-0.5-0.3c-0.2-0.2-0.4-0.3-0.5-0.4c-0.2-0.1-0.5-0.3-0.7-0.5c-0.3-0.2-0.6-0.5-1-0.7
			c-0.9-0.6-1.7-1.4-2.5-2.3l-0.1-0.1c0,0-0.1,0.1-0.1,0.2c0,0.3,0.1,0.6,0.3,0.8c0.1,0.1,0.3,0.3,0.4,0.4c0.3,0.3,0.7,0.6,1,0.9
			c0.3,0.2,0.5,0.4,0.7,0.6c0.4,0.3,0.7,0.6,1.1,0.8c0.3,0.2,0.6,0.4,0.8,0.6c0.2,0.1,0.3,0.3,0.5,0.4c0.1,0.1,0.2,0.1,0.3,0.1
			s0.1,0,0.1-0.1C44.2,76.1,44.2,76,44.2,75.8L44.2,75.8L44.2,75.8z M36.8,63.4C36.8,63.4,36.8,63.3,36.8,63.4
			c-0.1-0.1-0.2-0.1-0.2-0.1c-0.3,0-0.6,0.1-0.8,0.2C35.4,63.8,35,64,34.6,64c-0.6,0.2-1.1,0.5-1.7,0.7c-0.3,0.1-0.6,0.3-0.8,0.4
			c-0.5,0.2-0.9,0.4-1.3,0.7c-0.3,0.2-0.6,0.3-0.9,0.4c-0.1,0-0.1,0.1-0.2,0.1s-0.1,0.1-0.1,0.2s0,0.1,0,0.2c0,0,0.1,0.1,0.1,0l0,0
			c0.4-0.2,0.9-0.3,1.3-0.5c0.2-0.1,0.3-0.1,0.5-0.2c0.9-0.5,1.9-0.9,2.9-1.3c0.4-0.2,0.9-0.4,1.3-0.7c0.2-0.1,0.3-0.2,0.5-0.2
			C36.4,63.7,36.6,63.6,36.8,63.4L36.8,63.4L36.8,63.4L36.8,63.4z M38.7,70.3C38.7,70.2,38.7,70.2,38.7,70.3c0-0.1,0-0.2-0.1-0.2
			l0,0c-0.3,0.2-0.7,0.4-1,0.6c-0.2,0.1-0.4,0.3-0.7,0.4c-0.5,0.3-1.1,0.6-1.6,0.9c-0.9,0.5-1.7,1-2.6,1.4c-0.2,0.1-0.5,0.2-0.7,0.3
			c-0.5,0.2-1,0.4-1.5,0.6c-0.3,0.1-0.6,0.2-0.9,0.3c-0.1,0-0.2,0.1-0.2,0.3c0,0.1,0,0.1,0.1,0.1l0,0c0.2-0.1,0.4-0.2,0.6-0.3
			c0.1-0.1,0.2-0.1,0.3-0.2c0.7-0.3,1.4-0.6,2.1-0.9c0.3-0.1,0.5-0.2,0.8-0.3c0.6-0.3,1.3-0.5,1.9-0.8c0.2-0.1,0.4-0.2,0.6-0.3
			c0.4-0.2,0.7-0.4,1.1-0.6c0.3-0.1,0.6-0.3,0.9-0.4c0.1-0.1,0.3-0.1,0.4-0.2s0.2-0.1,0.3-0.2c0.1,0,0.1-0.1,0.1-0.1
			C38.7,70.6,38.7,70.4,38.7,70.3L38.7,70.3L38.7,70.3z M41.9,85.3c-0.1-0.1-0.2-0.2-0.4-0.2c-0.1,0-0.2-0.1-0.3-0.1
			c-0.2,0-0.4-0.1-0.6-0.2c-0.4-0.2-0.8-0.5-1.2-0.8c-0.2-0.1-0.4-0.3-0.6-0.5c-0.1-0.1-0.2-0.2-0.3-0.3c-0.3-0.3-0.6-0.6-0.9-0.8
			c-0.1-0.1-0.2-0.1-0.3-0.2c-0.1-0.1-0.3-0.1-0.3,0.1c0,0.1,0,0.2-0.1,0.3c0,0.2,0,0.3,0.1,0.4s0.3,0.3,0.4,0.4
			c0.8,0.6,1.6,1.2,2.4,1.8c0.1,0.1,0.2,0.1,0.3,0.2c0.2,0.1,0.4,0.1,0.6,0.2C41.2,85.6,41.5,85.6,41.9,85.3L41.9,85.3z M28,62.9
			c-0.2,0-0.3-0.1-0.4-0.1c-0.3,0-0.5,0-0.8,0.1c-0.1,0-0.3,0.1-0.4,0.1c-0.2,0.1-0.5,0.1-0.7,0.2c-0.4,0.2-0.8,0.4-1.2,0.5
			c-0.8,0.3-1.6,0.7-2.3,1c-0.2,0.1-0.3,0.2-0.2,0.4c0,0,0,0.1,0.1,0.1c0.2,0,0.4,0,0.5-0.1c0.3-0.1,0.7-0.2,1-0.3
			c0.2-0.1,0.5-0.2,0.7-0.3c0.5-0.2,1-0.4,1.5-0.6c0.2-0.1,0.4-0.2,0.7-0.3C27,63.4,27.5,63.2,28,62.9C28,63.1,28,63,28,62.9
			L28,62.9z M40,65.4C40,65.4,40,65.5,40,65.4c0.4,0.4,0.6,0.6,1,0.8c0.1,0.1,0.3,0.2,0.4,0.3c0.2,0.1,0.4,0.3,0.6,0.4
			c0.5,0.2,0.9,0.5,1.3,0.8c0.3,0.2,0.6,0.3,0.9,0.5c0.1,0.1,0.2,0.1,0.3,0c0-0.2,0.1-0.5,0.1-0.7c0-0.1,0-0.1-0.1-0.2
			c-0.3-0.2-0.5-0.3-0.8-0.4c-0.4-0.1-0.9-0.3-1.3-0.5c-0.5-0.2-1-0.4-1.5-0.7c-0.1-0.1-0.3-0.1-0.5-0.2
			C40.2,65.4,40.1,65.4,40,65.4L40,65.4L40,65.4z M20.5,45.9c0.1,0,0.3,0,0.4-0.1c0.1,0,0.2-0.1,0.2-0.2c0-0.2-0.1-0.4-0.2-0.5h-0.1
			c-0.1,0.2-0.3,0.2-0.5,0.1c-0.3-0.1-0.6-0.1-1-0.2c-0.1,0-0.2,0-0.3-0.1c-0.6-0.2-1.1-0.4-1.7-0.5c-0.1,0-0.1,0-0.2-0.1
			c-0.4-0.2-0.7-0.4-1.1-0.6c-0.5-0.3-0.9-0.5-1.4-0.8C14,42.7,13.5,42.4,13,42h-0.1c-0.1,0-0.1,0.1-0.1,0.1c0,0.1,0,0.1,0.1,0.2
			c0.3,0.3,0.7,0.5,1,0.6c0.9,0.5,1.8,0.8,2.6,1.3c0.3,0.1,0.6,0.2,0.9,0.3c0.4,0.4,0.7,0.5,1,0.6c0.4,0.2,0.9,0.4,1.4,0.5
			c0.2,0,0.3,0.1,0.4,0.2C20.3,45.9,20.4,45.9,20.5,45.9L20.5,45.9L20.5,45.9z M31.9,87.5C31.9,87.5,31.9,87.6,31.9,87.5
			c0.2,0.1,0.3,0.1,0.4,0.1c0.1,0,0.3,0,0.4-0.1c0.4-0.2,0.8-0.5,1.1-0.8c0.6-0.5,1.2-1.1,1.7-1.6c0.2-0.3,0.4-0.5,0.6-0.8
			c0.1-0.2,0.2-0.5,0.2-0.7l0,0c0,0,0,0-0.1,0c-0.3,0.3-0.6,0.6-0.8,0.9c-0.2,0.2-0.4,0.4-0.6,0.6c-0.1,0.1-0.2,0.2-0.3,0.3
			c-0.4,0.5-0.9,0.9-1.4,1.3C32.7,86.8,32.3,87.1,31.9,87.5L31.9,87.5L31.9,87.5z M40,63.1c-0.2,0-0.4,0-0.6,0
			c-0.1,0-0.1,0.1-0.1,0.1l0,0c0.1,0.1,0.1,0.2,0.2,0.3c0.4,0.4,0.8,0.7,1.3,1.1c0.1,0.1,0.2,0.1,0.3,0.2c0.6,0.3,1.3,0.6,1.9,0.9
			c0.3,0.1,0.6,0.2,0.9,0.3c0.2,0,0.5,0,0.7,0.1c0,0,0.1,0,0.1-0.1v-0.1l-0.1-0.1c-0.3-0.1-0.6-0.2-0.9-0.4
			c-0.1-0.1-0.3-0.1-0.4-0.2c-0.4-0.2-0.8-0.4-1.2-0.6c-0.1,0-0.1-0.1-0.2-0.1c-0.5-0.3-1-0.6-1.4-0.9c-0.1,0-0.1-0.1-0.2-0.1
			C40.2,63.4,40.1,63.2,40,63.1L40,63.1z M38.2,77.4L38.2,77.4c0,0.3,0,0.5,0.2,0.6c0.6,0.5,1.1,1,1.8,1.4c0.7,0.4,1.4,0.9,2.1,1.4
			c0.3,0.2,0.6,0.4,0.9,0.7c0.2,0.1,0.4,0.2,0.6,0.3c0.1,0,0.1,0,0.1,0l0,0c0-0.1,0-0.2,0.1-0.3c0-0.1,0-0.2-0.1-0.2
			c0,0-0.1,0-0.1-0.1c-0.7-0.4-1.3-0.8-2-1.2c-0.8-0.6-1.7-1.1-2.5-1.7C38.9,77.9,38.6,77.7,38.2,77.4
			C38.3,77.4,38.2,77.4,38.2,77.4L38.2,77.4L38.2,77.4z M39.1,65L39.1,65c-0.1-0.3-0.1-0.3-0.3-0.2c-0.8,0.4-1.5,0.8-2.2,1.2
			c-0.4,0.2-0.7,0.4-1.1,0.5c-0.5,0.2-1,0.5-1.5,0.7c-0.2,0.1-0.4,0.2-0.5,0.3c-0.5,0.2-0.9,0.4-1.4,0.6c-0.7,0.3-1.4,0.6-2.1,0.9
			c-0.1,0-0.2,0.1-0.3,0.1c-0.1,0.1-0.1,0.1-0.1,0.2s0.1,0.1,0.1,0.1c0.1,0,0.1,0,0.2,0c0.3-0.1,0.7-0.3,1-0.4
			c0.5-0.2,1-0.4,1.4-0.8c0.2-0.1,0.4-0.3,0.6-0.4c0.5-0.2,1-0.4,1.5-0.6c0.9-0.4,1.7-0.7,2.5-1.2c0.1,0,0.2-0.1,0.3-0.1
			c0.6-0.2,1.1-0.5,1.7-0.8C38.9,65.2,39,65.1,39.1,65L39.1,65L39.1,65z M44.3,71.3c-0.3-0.2-0.6-0.3-0.9-0.5
			c-0.3-0.2-0.7-0.4-1-0.6c-1.1-0.7-2.1-1.4-2.9-2.3l-0.1-0.1h-0.1l-0.1,0.1c0,0.1,0.1,0.1,0.1,0.1c0.1,0.3,0.3,0.5,0.6,0.7
			c0.1,0.1,0.1,0.1,0.2,0.2c0.3,0.3,0.6,0.6,1,0.8c0.8,0.6,1.5,1.1,2.2,1.8c0.3,0.2,0.5,0.4,0.8,0.6c0.1,0,0.1,0,0.2,0l0,0
			C44.3,71.8,44.3,71.6,44.3,71.3L44.3,71.3L44.3,71.3z M21,76L21,76c0,0.1,0,0.1,0,0.2s0.1,0.1,0.2,0.1c0.1,0,0.1,0,0.2,0
			c0.5-0.1,1-0.3,1.5-0.4c0.6-0.2,1.1-0.4,1.6-0.6c0.1,0,0.1-0.1,0.2-0.1c0.1,0,0.1-0.1,0.1-0.2s0-0.3,0-0.4s-0.1-0.2-0.2-0.1
			c0,0,0,0-0.1,0c-0.8,0.3-1.7,0.5-2.6,0.8c-0.3,0.1-0.5,0.2-0.8,0.3c-0.1,0-0.1,0.1-0.1,0.2C21,75.8,21,75.9,21,76z M40.9,63.1
			h-0.3c-0.1,0-0.1,0-0.1,0.1s0,0.1,0,0.1c0.1,0.1,0.2,0.1,0.3,0.2c0.4,0.2,0.7,0.5,1.1,0.7c0.3,0.2,0.7,0.4,1,0.6
			c0.5,0.3,1.1,0.4,1.7,0.7c0.1,0,0.1,0,0.2,0c0,0,0.1,0,0.1-0.1s0-0.2,0.1-0.3V65c-0.2-0.1-0.5-0.2-0.7-0.3
			c-0.3-0.1-0.5-0.2-0.8-0.4c-0.2-0.1-0.4-0.3-0.6-0.4c-0.4-0.2-0.7-0.4-1.1-0.7C41.3,63,41.4,63.1,40.9,63.1L40.9,63.1L40.9,63.1z
			 M21.3,77.2c0.2,0,0.4,0,0.5-0.1S22,77,22.2,77c0.4-0.1,0.7-0.2,1.1-0.2c0.5-0.1,0.9-0.3,1.4-0.4c0.2-0.1,0.3-0.1,0.2-0.4
			c0-0.1,0-0.3-0.1-0.4l-0.1-0.1c-0.1,0-0.1,0-0.2,0c-1,0.4-2,0.8-3.1,1.1c-0.1,0-0.2,0.1-0.4,0.2l-0.1,0.1c0,0.1,0,0.2,0,0.3
			c0,0,0,0.1,0.1,0.1C21.2,77.2,21.2,77.2,21.3,77.2L21.3,77.2z M39.5,86c0.1-0.1,0.3-0.1,0.4-0.2c0,0,0.1,0,0.1-0.1v-0.1l0,0
			c-0.1-0.1-0.3-0.1-0.4-0.2c-0.3-0.2-0.6-0.5-1-0.7c-0.2-0.1-0.3-0.2-0.4-0.3c-0.3-0.3-0.6-0.5-1-0.8c-0.3-0.2-0.4-0.1-0.5,0.2
			c0,0.1,0,0.3,0.1,0.4c0.3,0.3,0.6,0.6,0.9,0.8c0.1,0.1,0.3,0.3,0.5,0.3c0.2,0.1,0.4,0.2,0.5,0.3C39,85.8,39.2,85.9,39.5,86
			L39.5,86z M24.8,72.2c0-0.1,0-0.2,0-0.3c0-0.1-0.1-0.2-0.3-0.1c-0.6,0.2-1.1,0.4-1.7,0.6c-0.4,0.2-0.9,0.4-1.4,0.5
			c-0.1,0-0.1,0-0.2,0.1c-0.1,0-0.1,0.1-0.1,0.2s0,0.2,0,0.3c0,0.1,0.1,0.1,0.1,0.1c0.2,0,0.4,0,0.5-0.1c0.5-0.2,1-0.3,1.4-0.4
			c0.4-0.1,0.9-0.3,1.3-0.4C24.7,72.5,24.8,72.4,24.8,72.2L24.8,72.2z M39.5,65.5L39.5,65.5c0.1,0.2,0.2,0.3,0.2,0.5
			c0,0.1,0.1,0.2,0.2,0.3c0.4,0.3,0.7,0.5,1.1,0.8c0.3,0.2,0.5,0.4,0.9,0.6c0.4,0.2,0.8,0.5,1.2,0.7c0.3,0.2,0.7,0.3,1,0.5
			c0.1,0,0.1,0,0.2,0c0.1,0,0.1,0,0.1-0.1s0-0.2-0.1-0.3s-0.2-0.1-0.3-0.2c-0.4-0.2-0.9-0.4-1.3-0.7c-0.2-0.2-0.5-0.3-0.7-0.4
			s-0.4-0.2-0.6-0.3C40.8,66.5,40.2,66.1,39.5,65.5C39.7,65.5,39.6,65.5,39.5,65.5C39.6,65.5,39.6,65.5,39.5,65.5L39.5,65.5
			L39.5,65.5z M21,77.5c-0.1,0.2,0,0.3,0,0.5c0,0.1,0.1,0.2,0.2,0.1c0.2-0.1,0.5-0.1,0.7-0.2c0.6-0.2,1.1-0.3,1.7-0.5
			c0.4-0.1,0.9-0.3,1.3-0.5c0.1,0,0.1-0.1,0.1-0.2s0-0.1-0.1-0.2l-0.1-0.1c-0.1,0-0.1,0-0.2,0.1c-0.4,0.1-0.8,0.3-1.2,0.4
			s-0.8,0.2-1.2,0.3c-0.1,0-0.2,0.1-0.4,0.1c-0.2,0-0.2,0.1-0.4,0.1C21.3,77.5,21.2,77.5,21,77.5L21,77.5z M24.7,74
			c0-0.2,0-0.4,0-0.6l0,0c-0.2,0-0.4,0.1-0.6,0.2c-1,0.4-2,0.8-3.1,1.1c-0.1,0.1-0.1,0.3,0,0.4c0,0,0,0.1,0.1,0.1s0.2,0,0.3-0.1
			c0.3-0.1,0.6-0.2,0.8-0.3c0.6-0.1,1.2-0.3,1.7-0.5C24.3,74.3,24.5,74.2,24.7,74L24.7,74z M44.4,69.6c0-0.2,0-0.2-0.2-0.4
			c-0.1-0.1-0.2-0.1-0.3-0.2c-0.3-0.1-0.5-0.2-0.8-0.4c-0.2-0.1-0.4-0.2-0.5-0.3c-0.5-0.3-0.9-0.5-1.3-0.9c-0.5-0.4-1.1-0.7-1.6-1.2
			l0,0c0,0,0,0-0.1,0v0.1c0.1,0.2,0.2,0.4,0.4,0.5c0.4,0.4,0.9,0.7,1.3,1l0,0c0.2,0.1,0.4,0.3,0.6,0.4c0.1,0.1,0.3,0.2,0.4,0.3
			c0.5,0.3,1,0.6,1.5,0.9c0.1,0.1,0.3,0.1,0.4,0.1c0.1,0,0.1,0,0.1-0.1C44.4,69.6,44.4,69.6,44.4,69.6L44.4,69.6L44.4,69.6z
			 M21.4,70.8V71c0,0.1,0.1,0.1,0.1,0.1c0.1,0,0.2,0,0.3,0c0.3-0.1,0.6-0.2,0.9-0.3c0.3-0.1,0.7-0.3,1-0.4c0.2-0.1,0.5-0.1,0.7-0.2
			c0.1,0,0.2-0.1,0.2-0.3c0-0.1,0-0.2,0-0.3c0-0.1-0.1-0.1-0.2-0.1l0,0c-0.4,0.1-0.7,0.2-1.1,0.3c-0.6,0.2-1.2,0.4-1.8,0.4
			c0,0,0,0-0.1,0l-0.1,0.1C21.4,70.6,21.4,70.7,21.4,70.8L21.4,70.8z M27.3,114.5c0.3,0,0.5,0,0.7,0c0.6-0.2,1.3-0.2,1.9-0.1
			c0.2,0.1,0.5,0.1,0.7,0.2c0.2,0,0.3,0.1,0.5,0.1s0.2-0.1,0.2-0.2s-0.1-0.2-0.3-0.3c-0.4-0.1-0.8-0.2-1.2-0.3
			c-0.3-0.1-0.6-0.2-0.9-0.1c-0.5,0-1,0.1-1.5,0.3L27.3,114.5L27.3,114.5z M24.7,72.8L24.1,73c-0.3,0.1-0.6,0.2-0.8,0.2
			c-0.4,0.1-0.7,0.2-1.1,0.3c-0.3,0.1-0.6,0.3-1,0.3c-0.1,0-0.1,0.1-0.1,0.1c0,0.1,0,0.1,0,0.2c0,0.2,0,0.3,0.2,0.2
			c0.2,0,0.4-0.1,0.5-0.1c0.3-0.1,0.5-0.2,0.8-0.3c0.7-0.2,1.4-0.5,2-0.8c0,0,0,0,0.1,0s0.1-0.1,0.1-0.2
			C24.8,72.9,24.8,72.8,24.7,72.8L24.7,72.8z M24.4,68.1c-0.2,0-0.3,0.1-0.5,0.1c-0.5,0.2-1,0.3-1.5,0.4c-0.2,0-0.4,0.1-0.6,0.2
			c-0.1,0-0.1,0.1-0.1,0.2s0,0.2,0,0.3c0,0.1,0.1,0.1,0.1,0.1c0.4,0,0.8-0.1,1.1-0.2c0.5-0.1,0.9-0.3,1.3-0.5c0.1,0,0.1-0.1,0.2-0.1
			l0.1-0.1C24.5,68.4,24.5,68.2,24.4,68.1L24.4,68.1z M26.4,62.7c-0.1-0.1-0.2-0.1-0.3-0.1c-0.1,0-0.1,0-0.2,0c-0.1,0-0.1,0-0.1,0.1
			c-0.2,0.2-0.4,0.3-0.7,0.3c-0.3,0.1-0.6,0.2-0.9,0.3c-0.2,0.1-0.5,0.2-0.7,0.3c-0.4,0.1-0.8,0.3-1.2,0.4c-0.1,0-0.1,0.1-0.1,0.1
			c-0.1,0.1-0.1,0.2,0,0.3l0.1,0.1c0.1,0,0.3-0.1,0.4-0.1c0.6-0.2,1.2-0.5,1.8-0.7c0.3-0.1,0.7-0.3,1-0.4c0.2-0.1,0.5-0.2,0.8-0.3
			C26.2,62.9,26.3,62.8,26.4,62.7L26.4,62.7L26.4,62.7z M22.2,63.6l1.2-0.4c0.2-0.1,0.3-0.1,0.5-0.2c0.3-0.1,0.7-0.2,1-0.4
			c0.1,0,0.2-0.1,0.3-0.1l0.1-0.1c0,0,0-0.1-0.1-0.1c-0.4-0.2-0.8-0.2-1.2,0s-0.8,0.4-1.2,0.5c-0.2,0.1-0.4,0.2-0.6,0.4l-0.1,0.1
			C22.1,63.5,22.2,63.6,22.2,63.6L22.2,63.6z M39,86.2L39,86.2c-0.3-0.3-0.5-0.5-0.9-0.7c-0.2-0.1-0.4-0.2-0.5-0.4
			c-0.1-0.1-0.2-0.1-0.3-0.2c-0.1-0.1-0.2-0.1-0.3-0.1s-0.1,0-0.1-0.1c-0.1-0.1-0.1-0.2-0.2-0.2h-0.1l0,0c-0.1,0.1-0.1,0.3-0.1,0.4
			c0.1,0.3,0.3,0.6,0.6,0.7c0.4,0.2,0.8,0.4,1.3,0.6L39,86.2L39,86.2z M43,63c-0.3,0-0.5,0-0.7,0c-0.1,0-0.2,0-0.3,0.1
			c0,0,0,0,0,0.1l0,0c0,0.1,0.1,0.1,0.2,0.1c0.4,0.2,0.7,0.4,1.1,0.7c0.4,0.3,0.9,0.4,1.4,0.7c0.1,0,0.1,0,0.2,0H45l0.1-0.1v-0.1
			c-0.1-0.1-0.1-0.1-0.2-0.1c-0.1-0.1-0.3-0.1-0.4-0.2C43.9,63.8,43.4,63.6,43,63L43,63L43,63z M21.4,71.9c0.1,0,0.1,0,0.2,0
			c0.3-0.1,0.5-0.1,0.8-0.2c0.2,0,0.3-0.1,0.5-0.1c0.5-0.2,1-0.4,1.5-0.6c0.1-0.1,0.2-0.1,0.1-0.3c0-0.1-0.1-0.2-0.2-0.2
			c-0.3,0.1-0.6,0.2-0.9,0.3c-0.5,0.2-1,0.4-1.5,0.5c-0.3,0.1-0.5,0.3-0.8,0.3l0,0v0.1C21.3,71.8,21.3,71.8,21.4,71.9L21.4,71.9
			L21.4,71.9L21.4,71.9z M21.5,69.9L21.5,69.9c0,0.2,0.1,0.2,0.1,0.2l0,0c0.6-0.2,1.2-0.2,1.8-0.5c0.1,0,0.1,0,0.2-0.1
			c0.3-0.1,0.5-0.2,0.8-0.3l0.1-0.1c0-0.1,0-0.1,0-0.2s-0.1-0.2-0.2-0.2c-0.2,0.1-0.4,0.2-0.6,0.2c-0.5,0.2-1,0.4-1.5,0.4
			c-0.2,0-0.4,0.1-0.5,0.1C21.5,69.7,21.5,69.7,21.5,69.9L21.5,69.9L21.5,69.9L21.5,69.9z M36.2,84.8c-0.2,0.2-0.3,0.3-0.5,0.4
			c-0.6,0.6-1.2,1.2-1.8,1.7c-0.2,0.2-0.4,0.3-0.6,0.5c0,0,0,0,0,0.1c0,0,0,0.1,0.1,0.1l0,0c0.3,0,0.6-0.1,0.8-0.3
			c0.4-0.4,0.8-0.7,1.2-1.1C35.8,85.8,36,85.3,36.2,84.8L36.2,84.8z M32.3,25.6c0.1,0.1,0.1,0.3,0.2,0.4c0.1,0.2,0.2,0.4,0.3,0.7
			c0,0.1,0.1,0.1,0.1,0.2H33l0,0c0-0.3,0.1-0.7,0.1-1s0-0.7,0-1S33,24.4,33,24.1c0,0,0,0,0-0.1c0,0,0-0.1-0.1-0.1c0,0-0.1,0-0.1,0.1
			c0,0.3-0.1,0.5-0.2,0.7C32.6,25.1,32.5,25.3,32.3,25.6L32.3,25.6z M25,67.2c0.4,0,0.7,0,0.9,0c0.3,0,0.6,0,0.8-0.1
			c0.4-0.1,0.7-0.2,1.1-0.4c0.1,0,0.2-0.1,0.3-0.1c0.1,0,0.1-0.1,0.1-0.2v-0.1c0,0,0,0-0.1,0c-0.2,0-0.4,0-0.5,0.1
			c-0.4,0.1-0.9,0.1-1.3,0.3c-0.1,0.1-0.2,0.1-0.4,0.1C25.7,66.9,25.4,67,25,67.2L25,67.2L25,67.2z M24.7,71.3
			C24.7,71.2,24.6,71.2,24.7,71.3l-0.2-0.1c-0.2,0.1-0.4,0.1-0.6,0.2c-0.5,0.2-1.1,0.4-1.7,0.5c-0.2,0-0.5,0.1-0.7,0.1
			c-0.2,0-0.3,0.1-0.3,0.3c0,0.1,0,0.2,0.1,0.2l0,0c0.5-0.1,0.9-0.2,1.3-0.4c0.2-0.1,0.4-0.2,0.6-0.3c0.4-0.1,0.8-0.3,1.2-0.4
			C24.5,71.4,24.5,71.3,24.7,71.3C24.7,71.4,24.7,71.4,24.7,71.3L24.7,71.3L24.7,71.3z M24.4,67.6c0,0,0-0.1,0-0.2s-0.1-0.1-0.1-0.1
			c-0.4,0.1-0.9,0.3-1.4,0.4c-0.3,0.1-0.7,0.3-1,0.3c-0.1,0-0.1,0-0.1,0.1c-0.1,0.1-0.1,0.1-0.1,0.2l0.1,0.1c0.1,0,0.2-0.1,0.3-0.1
			c0.4-0.1,0.8-0.1,1.2-0.3c0.3-0.1,0.5-0.1,0.7-0.2c0.1,0,0.2-0.1,0.3-0.1C24.4,67.8,24.4,67.8,24.4,67.6L24.4,67.6L24.4,67.6z
			 M22.4,12.3c0.1-0.2,0.1-0.3,0.1-0.4c0-0.1,0.1-0.2,0.3-0.2c0.1,0,0.3,0,0.3,0.2c0,0.1,0.1,0.2,0.1,0.3c0.1,0.2,0.1,0.4,0.2,0.6
			c0,0.1,0.1,0.1,0.1,0.1l0,0c0,0,0.1,0,0.1-0.1s0-0.3-0.1-0.4c-0.1-0.1,0-0.3-0.1-0.4c0-0.1-0.1-0.3-0.1-0.4c0,0,0-0.1-0.1-0.1
			C23,11.2,22.8,11,22.4,11c-0.1,0-0.1,0-0.2,0c-0.1,0-0.1,0.1-0.2,0.1s-0.1,0.1-0.1,0.2c0,0.2,0.1,0.4,0.1,0.6
			C22.3,12.1,22.4,12.2,22.4,12.3L22.4,12.3z M30.2,118c0.3,0,0.5-0.1,0.8-0.2c0.1,0,0.2-0.1,0.2-0.2s0-0.2-0.1-0.2
			c-0.3-0.1-0.6-0.1-0.9-0.2c-0.2,0-0.4,0-0.6,0.1c-0.1,0-0.1,0.1-0.1,0.1c-0.1,0.2,0,0.5,0.3,0.5h0.1C30,118,30.1,118,30.2,118z
			 M48,109.5c-0.1,0.3-0.1,0.5-0.1,0.8c0.3,0.2,0.5,0.2,0.7,0c0.1-0.1,0.3-0.3,0.4-0.5c0-0.1,0-0.1,0-0.2c0-0.2-0.2-0.4-0.4-0.3
			c-0.1,0.1-0.3,0.1-0.5,0.1C48.1,109.5,48,109.5,48,109.5L48,109.5L48,109.5z M43.5,63c0,0.1,0,0.1,0,0.2c0.4,0.4,0.8,0.7,1.3,0.9
			c0,0,0,0,0.1,0s0.1,0,0.1-0.1s0-0.1,0.1-0.2c0-0.1,0-0.2-0.1-0.2c-0.1-0.1-0.2-0.1-0.3-0.2c-0.1-0.1-0.2-0.1-0.3-0.2
			c-0.1-0.1-0.1-0.2-0.2-0.2C44,63,43.8,63,43.5,63L43.5,63L43.5,63z M22.2,62.5c0,0.1,0,0.1,0,0.2c0,0.1,0.1,0.2,0.2,0.2
			c0.1,0,0.2,0,0.3-0.1c0.4-0.1,0.8-0.4,1.2-0.6l0.1-0.1c-0.1-0.1-0.3-0.2-0.5-0.1c-0.3,0.1-0.6,0.2-0.8,0.3
			c-0.1,0.1-0.2,0.1-0.2,0.1C22.4,62.4,22.3,62.4,22.2,62.5L22.2,62.5L22.2,62.5z M22.9,14.5c-0.1,0.1-0.1,0.2-0.1,0.3
			c-0.1,0.3-0.1,0.6,0,0.9c0,0.1,0,0.2,0.1,0.3c0,0.1,0.1,0.2,0.2,0.2h0.1c0.1,0,0.2-0.1,0.2-0.2c0-0.2-0.1-0.4-0.1-0.6
			c0-0.1-0.1-0.2-0.1-0.3C23.1,14.8,23,14.6,22.9,14.5L22.9,14.5L22.9,14.5z M36.5,85.7c0,0.1,0,0.1,0,0.2c0.1,0.2,0.2,0.3,0.2,0.6
			c0,0.1,0.1,0.1,0.1,0.1c0.1,0.1,0.2,0.1,0.4,0.1c0.2,0,0.3-0.1,0.5-0.1c0,0,0.1,0,0.1-0.1v-0.1c-0.1-0.1-0.2-0.1-0.3-0.1
			C37.2,86.2,36.8,86.1,36.5,85.7C36.6,85.7,36.6,85.7,36.5,85.7L36.5,85.7L36.5,85.7z M27.6,73c-0.1-0.2-0.2-0.3-0.3-0.4
			c-0.2-0.2-0.3-0.2-0.5-0.1c0,0-0.1,0-0.1,0.1c-0.1,0-0.1,0.1-0.1,0.2l0,0c0.1,0.2,0.3,0.3,0.4,0.5h0.1
			C27.3,73.2,27.5,73.2,27.6,73z M27,75.3C27.1,75.3,27.1,75.3,27,75.3c-0.1-0.2-0.3-0.4-0.5-0.6h-0.1c-0.2,0-0.3,0.1-0.4,0.2v0.2
			c0.2,0.1,0.4,0.2,0.5,0.4c0.1,0.1,0.1,0.1,0.2,0C26.9,75.4,26.9,75.4,27,75.3L27,75.3L27,75.3L27,75.3z M26.1,72
			c0.1,0,0.2-0.1,0.4-0.1c0.1,0,0.1-0.1,0.1-0.2c0,0,0,0,0-0.1c-0.1-0.1-0.2-0.2-0.3-0.3h-0.1c-0.1,0-0.3,0.1-0.4,0.1
			c0,0.1-0.1,0.1,0,0.2C25.8,71.7,25.9,71.9,26.1,72z M27.9,67.9c0,0,0-0.1,0-0.2s-0.1-0.1-0.1-0.1l0,0c-0.2,0.3-0.5,0.5-0.8,0.7
			c0,0,0,0.1-0.1,0.1c0,0,0,0,0,0.1l0,0H27c0.3-0.1,0.6-0.2,0.9-0.4c0,0,0-0.1,0.1-0.1C27.9,68,27.9,68,27.9,67.9L27.9,67.9z
			 M27.8,76c-0.1,0.1-0.2,0.1-0.3,0.2v0.1c0.1,0.2,0.3,0.4,0.5,0.5c0.1,0,0.2,0,0.2-0.1l0,0c0-0.1,0-0.3,0-0.4L27.8,76L27.8,76z
			 M27.5,71.2c-0.1-0.1-0.2-0.3-0.3-0.3c0,0,0,0-0.1,0c-0.2,0-0.3,0.1-0.4,0.2v0.1c0.1,0.1,0.2,0.2,0.3,0.3h0.1
			C27.2,71.5,27.4,71.4,27.5,71.2C27.5,71.3,27.5,71.2,27.5,71.2L27.5,71.2z M29.1,117.5c0,0-0.1,0-0.1-0.1c-0.1-0.1-0.3-0.1-0.4,0
			c-0.1,0-0.1,0.1-0.1,0.2s0.1,0.2,0.2,0.3c0.1,0,0.3,0,0.4,0.1c0,0,0.1,0,0.1-0.1l0,0C29.2,117.7,29.2,117.6,29.1,117.5L29.1,117.5
			z M28.1,73.7c0-0.1-0.1-0.3-0.2-0.4s-0.2,0-0.3,0c-0.1,0-0.1,0.1-0.2,0.1c0,0-0.1,0.1,0,0.1c0.1,0.1,0.1,0.2,0.2,0.3
			C27.7,74,28,73.9,28.1,73.7L28.1,73.7L28.1,73.7L28.1,73.7z M28.1,74.9c-0.2-0.2-0.3-0.3-0.4-0.5l-0.1-0.1c-0.1,0-0.2,0-0.3,0.1
			c0,0,0,0.1,0,0.2c0.1,0.1,0.2,0.3,0.4,0.4c0.1,0.1,0.2,0.1,0.3,0C27.9,75,28,74.9,28.1,74.9L28.1,74.9L28.1,74.9z M27.8,68.5
			c-0.2,0.1-0.5,0.2-0.7,0.3c-0.1,0-0.1,0.1,0,0.2l0,0c0,0,0.1,0,0.1,0.1c0.1,0.1,0.2,0.1,0.3,0c0.1-0.1,0.3-0.1,0.4-0.2
			s0.1-0.2,0.1-0.2C27.9,68.6,27.9,68.5,27.8,68.5L27.8,68.5L27.8,68.5z M25.9,72.9c0.1,0.2,0.2,0.4,0.4,0.5c0.1,0.1,0.3,0.1,0.3,0
			v-0.1c-0.1-0.2-0.3-0.4-0.5-0.6H26C26,72.8,26,72.8,25.9,72.9L25.9,72.9z M26.5,69.5c0.1,0,0.2-0.1,0.3-0.1c0.1-0.1,0.1-0.2,0-0.3
			c0-0.1-0.1-0.1-0.3-0.1c-0.1,0-0.2,0.1-0.4,0.1c0,0-0.1,0.1,0,0.1c0.1,0.1,0.1,0.1,0.2,0.2C26.4,69.5,26.5,69.5,26.5,69.5
			L26.5,69.5L26.5,69.5z M23.1,61.7c-0.1,0-0.1-0.1-0.2-0.1c-0.3,0-0.5,0.1-0.7,0.2c0,0-0.1,0.1,0,0.1c0,0.1,0.1,0.1,0.1,0.1
			C22.6,61.9,22.8,61.8,23.1,61.7C23.1,61.8,23.1,61.7,23.1,61.7z M27.5,69.8c0,0,0-0.1-0.1-0.1c-0.1-0.2-0.3-0.2-0.5-0.1
			c-0.1,0-0.2,0.1-0.2,0.1v0.1c0,0.1,0.2,0.3,0.3,0.2C27.2,70,27.4,70,27.5,69.8L27.5,69.8z M25.6,69.3h-0.1c-0.1,0-0.2,0.1-0.1,0.2
			c0,0,0,0,0,0.1c0.1,0.1,0.1,0.1,0.2,0.2c0,0,0.1,0,0.1,0.1c0.1,0,0.3,0,0.4-0.1l0,0c-0.1-0.2-0.2-0.3-0.3-0.3
			C25.7,69.3,25.6,69.3,25.6,69.3L25.6,69.3L25.6,69.3z M28.1,72.4c0-0.1-0.1-0.2-0.1-0.3c0-0.1-0.1-0.1-0.1-0.1
			c-0.1,0-0.2,0.1-0.3,0.1c-0.1,0-0.1,0.1-0.1,0.2c0.1,0.2,0.2,0.3,0.4,0.4c0,0,0.1,0,0.1-0.1C28.1,72.5,28.1,72.5,28.1,72.4
			L28.1,72.4z M22.9,12C22.8,12,22.8,12,22.9,12c-0.2,0.2-0.2,0.3-0.1,0.5c0.1,0.1,0.1,0.1,0.1,0.2c0,0.1,0,0.2,0.1,0.3h0.1
			c0,0,0.1,0,0.1-0.1v-0.1C23.1,12.5,23,12.3,22.9,12L22.9,12L22.9,12z M22.8,14.1V14c0-0.3-0.2-0.7-0.2-1l-0.1-0.1l0,0
			c0,0-0.1,0-0.1,0.1s0,0.3,0,0.4C22.6,13.6,22.7,13.8,22.8,14.1L22.8,14.1z M27.5,75.8c0-0.1-0.1-0.1-0.2-0.2h-0.1
			c-0.1,0.1-0.2,0.1-0.3,0.2v0.1C27,76,27,76,27.1,76.1h0.1C27.3,76,27.5,76,27.5,75.8L27.5,75.8L27.5,75.8L27.5,75.8z M26.3,69.9
			c-0.1,0-0.2,0.1-0.3,0.1c-0.1,0-0.1,0.1,0,0.2c0,0.1,0.1,0.1,0.2,0.1c0.2,0,0.3-0.1,0.4-0.2C26.5,70,26.4,70,26.3,69.9L26.3,69.9
			L26.3,69.9z M38.3,41.1c0-0.1,0-0.1,0-0.2c0,0,0-0.1-0.1-0.1c-0.1-0.1-0.3,0-0.3,0.1s0,0.3-0.1,0.4c0,0.1,0.1,0.2,0.2,0.2h0.1
			c0.1,0,0.1-0.1,0.1-0.1C38.3,41.2,38.3,41.2,38.3,41.1L38.3,41.1L38.3,41.1z M27,74.1c0,0,0.1,0,0.1-0.1c0.1,0,0.1-0.1,0.1-0.2
			s-0.1-0.1-0.2-0.2l0,0c-0.1-0.1-0.3,0-0.3,0.1c0,0,0,0,0,0.1C26.7,74,26.8,74.1,27,74.1L27,74.1L27,74.1z M26.3,70.6L26.3,70.6
			c0.1,0.2,0.1,0.3,0.3,0.2c0.1,0,0.2-0.1,0.3-0.1c0.1,0,0.1-0.1,0-0.2s-0.1-0.1-0.2-0.1C26.5,70.4,26.4,70.5,26.3,70.6L26.3,70.6z
			 M26,74.5c0.1,0,0.1,0,0.2-0.1c0.1-0.1,0.1-0.1,0.1-0.2c-0.1-0.1-0.1-0.1-0.2-0.2L26,74c-0.1,0-0.1,0.1-0.1,0.2s0,0.2,0,0.3
			C26,74.5,26,74.5,26,74.5L26,74.5L26,74.5z M26.4,72.3L26.4,72.3c0.2,0,0.4-0.1,0.5-0.2v-0.1c0,0,0-0.1-0.1-0.1c0,0,0,0-0.1,0
			s-0.3,0.1-0.4,0.1v0.1C26.3,72.3,26.3,72.3,26.4,72.3L26.4,72.3L26.4,72.3z M27.4,117.1c0-0.1,0-0.2-0.1-0.3
			c0-0.1-0.1-0.1-0.2-0.1l-0.1,0.1c0,0.1,0.1,0.3,0.1,0.4c0,0,0,0,0.1,0c0,0,0.1,0,0.1-0.1C27.4,117.2,27.4,117.2,27.4,117.1
			L27.4,117.1L27.4,117.1z M27.6,69.4c0.1,0.1,0.2,0.1,0.2,0.2h0.1c0,0,0,0,0-0.1s0-0.3-0.1-0.4C27.8,69.1,27.6,69.2,27.6,69.4
			L27.6,69.4z M27.8,70.1h-0.1c-0.1,0.1-0.3,0.1-0.4,0.2v0.1c0,0,0,0.1,0.1,0.1h0.1c0.2,0,0.3-0.1,0.5-0.2v-0.1
			C27.8,70.1,27.8,70.1,27.8,70.1L27.8,70.1L27.8,70.1z M27.9,71.7c0-0.1-0.1-0.1-0.1-0.1c-0.2,0-0.4,0.1-0.5,0.2v0.1
			c0,0,0,0.1,0.1,0.1C27.5,71.9,27.7,71.8,27.9,71.7L27.9,71.7L27.9,71.7z M45.2,63.2c0-0.1-0.1-0.2-0.2-0.2c-0.1,0-0.1,0-0.2,0
			c0,0-0.1,0-0.1,0.1c0,0,0,0,0,0.1c0.1,0.1,0.2,0.2,0.3,0.2h0.1C45.2,63.3,45.2,63.2,45.2,63.2L45.2,63.2L45.2,63.2z M21,11.7
			c0-0.2,0-0.4-0.1-0.5h-0.1l0,0c0,0.2,0,0.4,0.1,0.5C20.9,11.8,20.9,11.8,21,11.7L21,11.7z M27.9,70.6c-0.1,0-0.2,0-0.3,0.1v0.1
			c0,0.1,0.1,0.2,0.2,0.2h0.1v-0.1C28,70.8,28,70.7,27.9,70.6L27.9,70.6L27.9,70.6z M25.8,68.9l0.1,0.1c0.2-0.1,0.3-0.1,0.4-0.2
			c0,0,0,0,0-0.1l0,0C26.1,68.8,25.9,68.8,25.8,68.9C25.8,68.8,25.8,68.8,25.8,68.9L25.8,68.9L25.8,68.9z M28.3,117.8
			c-0.1-0.1-0.1-0.2-0.3-0.3h-0.1l0,0v0.1C28,117.8,28.1,117.9,28.3,117.8L28.3,117.8L28.3,117.8z M28.3,75.4c0-0.1-0.1-0.2-0.2-0.2
			S28,75.3,28,75.3C28,75.5,28.1,75.5,28.3,75.4C28.2,75.5,28.2,75.5,28.3,75.4C28.3,75.5,28.3,75.4,28.3,75.4L28.3,75.4L28.3,75.4z
			 M25.9,70.9C25.9,70.9,25.8,70.9,25.9,70.9c-0.1-0.1-0.2-0.1-0.3-0.1c0,0-0.1,0.1,0,0.2c0.1,0.1,0.1,0.1,0.2,0
			C25.8,71,25.8,71,25.9,70.9L25.9,70.9L25.9,70.9L25.9,70.9z M22.5,61.4L22.5,61.4c-0.1-0.1-0.1-0.1-0.2-0.1c-0.1,0-0.1,0-0.1,0.1
			s0,0.1,0.1,0.1l0,0C22.3,61.4,22.4,61.4,22.5,61.4C22.4,61.4,22.5,61.4,22.5,61.4z M28.2,74.4C28.2,74.3,28.2,74.3,28.2,74.4
			c0-0.2-0.1-0.2-0.1-0.2s0,0-0.1,0c0,0,0,0-0.1,0.1C28,74.3,28,74.3,28.2,74.4L28.2,74.4z M35.8,86.9c-0.1,0-0.2,0.1-0.2,0.2v0.1
			l0,0c0,0,0,0,0.1,0C35.8,87.1,35.9,87.1,35.8,86.9L35.8,86.9z M31,67.4C31,67.4,30.9,67.4,31,67.4c-0.1,0-0.1,0-0.1,0l-0.1,0.1
			C30.8,67.5,30.8,67.5,31,67.4C30.9,67.4,30.9,67.4,31,67.4L31,67.4L31,67.4z M33.9,8.7L33.9,8.7C34,8.8,34,8.9,34,8.8l0,0V8.7
			c0,0,0-0.1-0.1-0.1C34,8.6,34,8.6,33.9,8.7C33.9,8.6,33.9,8.6,33.9,8.7L33.9,8.7z M25.3,69C25.3,69,25.3,69.1,25.3,69l0.1,0.1l0,0
			C25.4,69,25.4,69,25.3,69L25.3,69L25.3,69L25.3,69z M34.4,17.5L34.4,17.5c-0.1-0.1-0.1-0.1-0.2-0.1c0,0-0.1,0.1,0,0.1
			S34.4,17.5,34.4,17.5L34.4,17.5z M25.8,72.5h0.1v-0.1c0,0-0.1,0-0.1-0.1l0,0C25.8,72.4,25.8,72.5,25.8,72.5L25.8,72.5z M48,109.1
			L48,109.1C48,109,48,109,48,109.1C48,109,47.9,109,48,109.1C47.9,109.1,47.9,109.1,48,109.1z"/>
		<path d="M34.7,9.7c0.1,0,0.1,0.1,0.1,0.2l0,0C34.8,9.9,34.7,9.9,34.7,9.7C34.8,9.8,34.8,9.7,34.7,9.7L34.7,9.7L34.7,9.7z"/>
		<path d="M35.9,12c0.1,0,0.1,0,0.1,0.1s0,0.1,0,0.1l0,0C36,12.2,35.9,12.1,35.9,12L35.9,12L35.9,12z"/>
		<path d="M30,41.2c-0.3,0-0.5,0-0.8-0.1c-0.1,0-0.3-0.1-0.4-0.1c-0.2-0.1-0.3-0.3-0.4-0.5c0-0.1,0-0.2,0.1-0.3h0.1
			c0,0,0.1,0,0.1,0.1s0,0.1,0,0.2c0,0.2,0.1,0.3,0.3,0.4c0.2,0.1,0.4,0.1,0.6,0.1c0.5,0,1,0.1,1.4-0.1c0,0,0.1,0,0.1,0.1
			c0,0,0,0,0,0.1l0,0C30.7,41.1,30.4,41.2,30,41.2L30,41.2z"/>
		<path d="M30.3,39.8C30.3,39.8,30.3,39.9,30.3,39.8c0,0.1-0.1,0.2-0.2,0.2s-0.1-0.1-0.2-0.1c0-0.1-0.1-0.1,0-0.2
			c0-0.1,0.1-0.1,0.2-0.1s0.1,0.1,0.1,0.1C30.3,39.7,30.3,39.8,30.3,39.8L30.3,39.8z"/>
		<path d="M29.5,9.2c0.6,0,1.1,0.1,1.6,0.4c0,0,0.1,0,0.1,0.1v0.1c0,0,0,0.1-0.1,0.1s-0.3,0-0.4-0.1c-0.3-0.1-0.6-0.2-1-0.3
			c-0.3,0-0.5,0-0.8,0c-0.1,0-0.1,0.1-0.2,0.1h-0.1c0,0-0.1,0-0.1-0.1V9.4c0.1-0.1,0.2-0.2,0.4-0.2C29.2,9.1,29.3,9.1,29.5,9.2
			L29.5,9.2z"/>
		<path d="M29.5,10.4c0.2,0,0.5,0.1,0.7,0.1c0.1,0,0.1,0,0.1,0.1l0.1,0.1c0,0.1-0.1,0.3-0.2,0.3c-0.2,0.1-0.4,0.2-0.6,0.1V11l0,0
			c0.1-0.1,0.1-0.1,0.2-0.1c0-0.1-0.1-0.2-0.2-0.2s-0.1,0-0.1-0.1c0,0-0.1-0.1,0-0.1C29.5,10.4,29.5,10.4,29.5,10.4L29.5,10.4
			L29.5,10.4z"/>
		<path d="M29.5,10.3c-0.2,0.1-0.4,0.2-0.6,0.2c-0.1,0-0.1,0-0.1-0.1v-0.1c0.3-0.1,0.6-0.3,0.9-0.3c0.2,0,0.4,0,0.5,0.1
			c0.2,0.1,0.3,0.1,0.5,0.2c0,0,0,0,0,0.1h-0.1c-0.1,0-0.2,0-0.3-0.1c-0.1,0-0.2-0.1-0.3-0.1C30,10.2,29.8,10.2,29.5,10.3L29.5,10.3
			L29.5,10.3L29.5,10.3z"/>
		<path d="M30.2,12.6c-0.1,0-0.1,0-0.2,0s-0.1-0.1-0.2-0.1v-0.1l0,0h0.1c0.2,0.1,0.5,0.1,0.7,0c0.1,0,0.2-0.1,0.3-0.1l0,0l0,0
			c-0.1,0.1-0.3,0.2-0.4,0.3C30.5,12.6,30.4,12.6,30.2,12.6L30.2,12.6z"/>
		<path d="M32,18.8C32.1,18.8,32.1,18.8,32,18.8c0.1,0,0.2,0.1,0.3,0.1l0,0c0,0,0,0-0.1,0.1c-0.1,0-0.2,0-0.2-0.1
			C32,18.9,32,18.9,32,18.8L32,18.8z"/>
		<path d="M29,89.3c-0.2,0-0.3-0.1-0.4-0.2S28.5,89,28.5,89c0-0.1,0-0.1,0-0.1h0.1c0.1,0.1,0.1,0.2,0.2,0.3c0.1,0.1,0.2,0.1,0.3,0.2
			v0.1C29.1,89.3,29.1,89.3,29,89.3C29.1,89.3,29.1,89.3,29,89.3L29,89.3z"/>
		<path d="M39.3,107.5C39.3,107.5,39.3,107.6,39.3,107.5l-0.2,0.1c0,0,0-0.1-0.1-0.1c0-0.2-0.1-0.4-0.3-0.4c-0.1,0-0.1-0.1-0.2-0.2
			c0-0.1,0-0.1,0-0.1s0.1-0.1,0.1,0c0.1,0,0.2,0.1,0.2,0.1c0.1,0.2,0.2,0.4,0.3,0.5C39.3,107.5,39.3,107.5,39.3,107.5z"/>
		<path d="M37.6,88.7c0-0.2,0.1-0.4,0.2-0.6l0,0C37.9,88,38,88,38,88c0.1,0,0.1,0.1,0.1,0.2S38,88.3,38,88.3
			c-0.2,0.1-0.2,0.3-0.3,0.5c0,0,0,0-0.1,0.1C37.6,88.8,37.6,88.8,37.6,88.7L37.6,88.7L37.6,88.7z"/>
		<path d="M38.2,41.2L38.2,41.2C38.2,41.3,38.2,41.3,38.2,41.2c-0.2,0.1-0.2,0.1-0.2,0s0-0.1,0-0.2c0-0.1,0.1-0.1,0.1-0.1
			C38.1,41,38.2,41.1,38.2,41.2C38.2,41.1,38.2,41.2,38.2,41.2L38.2,41.2z"/>
	</g>
</g>
</svg>
