<?xml version="1.0" encoding="utf-8"?>
<!-- Generator: Adobe Illustrator 27.7.0, SVG Export Plug-In . SVG Version: 6.00 Build 0)  -->
<svg version="1.1" id="Capa_2" xmlns="http://www.w3.org/2000/svg" xmlns:xlink="http://www.w3.org/1999/xlink" x="0px" y="0px"
	 viewBox="0 0 22 28.2" style="enable-background:new 0 0 22 28.2;" xml:space="preserve" width="22" height="35">
<style type="text/css">
	.st0{fill:#FFFFFF;}
</style>
<path d="M0.4,11.6h3.7v1.2h1.2V1.6h1.2V0.3h2.5v1.2h1.2v5h2.5v1.2h3.7v1.2h2.5v1.2h1.2v1.2h1.2v8.7h-1.2v3.7h-1.2v3.7H6.6v-3.7H5.4
	v-2.5H4.1v-2.5H2.9v-2.5H1.6v-1.2H0.4V11.6"/>
<path class="st0" d="M1.6,12.8h2.5v1.2h1.2v3.7h1.2V1.6h2.5v11.2h1.2v-5h2.5v5h1.2V9.1h2.5v5h1.2v-3.7h1.2v1.2h1.2v8.7h-1.2v3.7
	h-1.2v2.5h-10v-2.5H6.6v-2.5H5.4v-2.5H4.1v-2.5H2.9v-1.2H1.6V12.8"/>
</svg>
