<?xml version="1.0" encoding="utf-8"?>
<!-- Generator: Adobe Illustrator 27.7.0, SVG Export Plug-In . SVG Version: 6.00 Build 0)  -->
<svg version="1.1" id="Layer_2_00000044136048706779107700000013172902575975620505_"
	 xmlns="http://www.w3.org/2000/svg" xmlns:xlink="http://www.w3.org/1999/xlink" x="0px" y="0px" viewBox="0 0 139 139"
	 style="enable-background:new 0 0 139 139;" xml:space="preserve">
<style type="text/css">
	.st0{fill:none;stroke:#000000;}
	.st1{fill:#FFFFFF;}
</style>
<g id="Layer_1-2">
	<circle class="st0" cx="69.5" cy="69.5" r="69"/>
	<path class="st1" d="M34.8,58.7c-1.3,0-2.4-0.4-3.1-1.1s-1.1-1.8-1.1-3s0.4-2.3,1.1-3c0.8-0.8,1.8-1.1,3.1-1.1s2.2,0.3,3,0.9
		c0.7,0.6,1.1,1.4,1.1,2.4v0.2h-2v-0.2c0-0.5-0.2-0.9-0.5-1.2c-0.3-0.3-0.8-0.4-1.6-0.4c-0.9,0-1.5,0.2-1.9,0.5s-0.5,1-0.5,1.9
		s0.2,1.5,0.5,1.9c0.4,0.4,1,0.5,1.9,0.5c0.7,0,1.2-0.1,1.6-0.4c0.3-0.3,0.5-0.7,0.5-1.2v-0.2h2v0.2c0,1-0.4,1.8-1.1,2.4
		C37,58.4,36,58.7,34.8,58.7z M45.3,57.9c-0.6,0.6-1.5,0.8-2.5,0.8s-1.9-0.3-2.5-0.8c-0.6-0.6-0.9-1.3-0.9-2.3s0.3-1.7,0.9-2.3
		c0.6-0.6,1.5-0.8,2.5-0.8s1.9,0.3,2.5,0.8c0.6,0.6,1,1.3,1,2.3S46,57.3,45.3,57.9z M41.6,56.8c0.2,0.2,0.7,0.4,1.3,0.4
		s1-0.1,1.3-0.4s0.4-0.6,0.4-1.2s-0.1-0.9-0.4-1.2S43.4,54,42.8,54s-1,0.1-1.3,0.4c-0.2,0.2-0.4,0.6-0.4,1.2S41.3,56.5,41.6,56.8z
		 M48.8,58.6H47v-6h1.7v1.8h0.1c0.1-0.6,0.3-1,0.7-1.4c0.4-0.4,0.9-0.5,1.6-0.5c0.7,0,1.2,0.2,1.6,0.5s0.6,0.8,0.7,1.4h0.1
		c0.1-0.6,0.3-1,0.7-1.4s0.9-0.5,1.6-0.5s1.3,0.2,1.7,0.7c0.4,0.4,0.6,1,0.6,1.7v3.7h-1.8v-3.1c0-0.5-0.1-0.9-0.3-1.1
		c-0.2-0.2-0.6-0.3-1.1-0.3s-0.9,0.1-1.1,0.3c-0.2,0.2-0.3,0.6-0.3,1.1v3h-1.8v-3.1c0-0.5-0.1-0.9-0.3-1.1c-0.2-0.2-0.6-0.3-1.1-0.3
		s-0.9,0.1-1.1,0.3c-0.2,0.2-0.3,0.6-0.3,1.1L48.8,58.6L48.8,58.6z M60.7,60.6h-1.8v-8h1.7v1.6h0.1c0.2-1.2,1-1.8,2.4-1.8
		c0.9,0,1.6,0.3,2.1,0.8s0.8,1.3,0.8,2.3s-0.2,1.7-0.7,2.3c-0.5,0.5-1.2,0.8-2.1,0.8c-0.7,0-1.2-0.2-1.6-0.5
		c-0.4-0.3-0.6-0.7-0.7-1.3h-0.1L60.7,60.6L60.7,60.6z M60.7,55.7c0,0.5,0.1,0.8,0.4,1.1c0.3,0.2,0.7,0.3,1.3,0.3s1-0.1,1.3-0.3
		c0.3-0.2,0.4-0.6,0.4-1.1s-0.1-0.9-0.4-1.1c-0.3-0.2-0.7-0.3-1.3-0.3s-1,0.1-1.3,0.3c-0.3,0.2-0.4,0.6-0.4,1.1
		C60.7,55.6,60.7,55.7,60.7,55.7z M68.5,58.7c-0.7,0-1.2-0.1-1.5-0.4c-0.4-0.3-0.6-0.7-0.6-1.2c0-0.9,0.7-1.4,1.9-1.6l2.6-0.3V55
		c0-0.4-0.1-0.6-0.3-0.8s-0.5-0.2-1-0.2s-0.8,0.1-1,0.2c-0.2,0.1-0.3,0.4-0.3,0.7v0h-1.8v0c0-0.8,0.3-1.4,0.9-1.8s1.4-0.7,2.3-0.7
		s1.7,0.2,2.2,0.7c0.5,0.5,0.7,1.1,0.7,1.9v3.5h-1.7v-1.4H71c-0.1,0.5-0.4,0.8-0.8,1.1S69.2,58.7,68.5,58.7L68.5,58.7z M68.3,57
		c0,0.3,0.3,0.5,0.8,0.5c0.6,0,1.1-0.1,1.4-0.2c0.3-0.2,0.5-0.5,0.5-0.9l-2.1,0.2C68.5,56.6,68.3,56.7,68.3,57L68.3,57z M75.5,58.6
		h-1.8v-6h1.7v1.6h0.1c0.1-0.5,0.3-0.9,0.6-1.2s0.8-0.5,1.4-0.5c0.6,0,1.1,0.2,1.4,0.6s0.5,0.9,0.5,1.5v1h-1.8v-0.6
		c0-0.3-0.1-0.6-0.2-0.7c-0.2-0.2-0.4-0.2-0.8-0.2c-0.4,0-0.7,0.1-0.8,0.3s-0.2,0.5-0.2,0.8L75.5,58.6L75.5,58.6z M84.3,58.6h-1.5
		c-1.5,0-2.3-0.7-2.3-2.2v-2.3h-0.9v-1.5h0.9v-1.2h1.8v1.2h1.9v1.5h-1.9v2.2c0,0.3,0.1,0.5,0.2,0.6c0.1,0.1,0.4,0.2,0.7,0.2h1.1
		L84.3,58.6L84.3,58.6z M86.9,51.9H85l1.6-1.6h2.6L86.9,51.9z M86.8,58.6H85v-6h1.8V58.6z M94,58.6h-1.5c-1.5,0-2.3-0.7-2.3-2.2
		v-2.3h-0.9v-1.5h0.9v-1.2h1.8v1.2H94v1.5h-1.9v2.2c0,0.3,0.1,0.5,0.2,0.6c0.1,0.1,0.4,0.2,0.7,0.2H94L94,58.6L94,58.6z M97.2,58.7
		c-0.8,0-1.4-0.2-1.9-0.7c-0.4-0.5-0.6-1-0.6-1.7v-3.7h1.8v3.1c0,0.5,0.1,0.8,0.3,1.1c0.2,0.2,0.6,0.3,1.2,0.3s1-0.1,1.2-0.3
		c0.2-0.2,0.4-0.6,0.4-1.1v-3h1.8v6h-1.7v-1.8h-0.1c-0.1,0.6-0.3,1-0.8,1.4C98.5,58.5,97.9,58.7,97.2,58.7L97.2,58.7z M105.4,58.7
		c-1,0-1.8-0.2-2.3-0.6c-0.5-0.4-0.8-0.9-0.8-1.6v0h1.8v0.1c0,0.3,0.1,0.4,0.3,0.5c0.2,0.1,0.6,0.1,1.1,0.1c0.5,0,0.8,0,0.9-0.1
		c0.2-0.1,0.2-0.2,0.2-0.4c0-0.2-0.1-0.3-0.2-0.3c-0.1-0.1-0.3-0.1-0.7-0.2L104,56c-1.2-0.1-1.9-0.7-1.9-1.7c0-0.6,0.2-1,0.7-1.4
		c0.5-0.3,1.2-0.5,2.2-0.5s1.8,0.2,2.3,0.6c0.5,0.4,0.8,0.9,0.8,1.6v0h-1.8v-0.1c0-0.3-0.1-0.5-0.3-0.6c-0.2-0.1-0.5-0.2-1.1-0.2
		c-0.4,0-0.7,0-0.9,0.1c-0.2,0.1-0.2,0.2-0.2,0.4c0,0.2,0.1,0.3,0.2,0.4c0.1,0.1,0.4,0.1,0.8,0.2l1.3,0.2c0.8,0.1,1.4,0.3,1.7,0.5
		c0.3,0.3,0.5,0.7,0.5,1.2c0,0.6-0.3,1-0.8,1.4C107,58.5,106.3,58.7,105.4,58.7L105.4,58.7z M17.8,73.6H16v-6h1.7v1.8h0.1
		c0.1-0.6,0.3-1,0.7-1.4c0.4-0.4,0.9-0.6,1.6-0.6c0.7,0,1.2,0.2,1.6,0.5s0.6,0.8,0.7,1.4h0.1c0.1-0.6,0.3-1.1,0.7-1.4
		s0.9-0.6,1.6-0.6s1.3,0.2,1.7,0.7c0.4,0.4,0.6,1,0.6,1.7v3.7h-1.8v-3.1c0-0.5-0.1-0.9-0.3-1.1c-0.2-0.2-0.6-0.3-1.1-0.3
		s-0.9,0.1-1.1,0.3c-0.2,0.2-0.3,0.6-0.3,1.1v3h-1.8v-3.1c0-0.5-0.1-0.9-0.3-1.1c-0.2-0.2-0.6-0.3-1.1-0.3s-0.9,0.1-1.1,0.3
		c-0.2,0.2-0.3,0.6-0.3,1.1L17.8,73.6L17.8,73.6z M33.6,72.9c-0.6,0.6-1.5,0.8-2.5,0.8s-1.9-0.3-2.5-0.8c-0.6-0.6-0.9-1.3-0.9-2.3
		s0.3-1.7,0.9-2.3c0.6-0.6,1.5-0.8,2.5-0.8s1.9,0.3,2.5,0.8c0.6,0.6,1,1.3,1,2.3S34.2,72.3,33.6,72.9z M29.8,71.8
		c0.2,0.2,0.7,0.4,1.3,0.4s1-0.1,1.3-0.4s0.4-0.6,0.4-1.2s-0.1-0.9-0.4-1.2S31.7,69,31.1,69s-1,0.1-1.3,0.4
		c-0.2,0.2-0.4,0.6-0.4,1.2S29.6,71.5,29.8,71.8z M37.1,73.6h-1.8v-6h1.7v1.6h0.1c0.1-0.5,0.3-0.9,0.6-1.2s0.8-0.5,1.4-0.5
		c0.6,0,1.1,0.2,1.4,0.6c0.3,0.4,0.5,0.9,0.5,1.5v1h-1.8v-0.6c0-0.3-0.1-0.6-0.2-0.7c-0.2-0.2-0.4-0.2-0.8-0.2
		c-0.4,0-0.7,0.1-0.8,0.3c-0.2,0.2-0.2,0.5-0.2,0.8L37.1,73.6L37.1,73.6z M44.3,73c-0.9,0-1.6-0.2-2.1-0.7c-0.5-0.5-0.7-1.2-0.7-2
		s0.3-1.5,0.8-2c0.5-0.5,1.2-0.7,2.1-0.7c0.6,0,1.1,0.1,1.5,0.4c0.4,0.3,0.7,0.7,0.8,1.2h0.1v-1.4h1.7v5.1c0,2-1.1,3-3.4,3
		c-1,0-1.8-0.2-2.3-0.6c-0.6-0.4-0.8-1-0.8-1.8h1.8c0,0.3,0.1,0.6,0.3,0.7c0.2,0.1,0.6,0.2,1.2,0.2s1-0.1,1.2-0.3
		c0.2-0.2,0.3-0.6,0.3-1.1v-1.4h-0.1c-0.1,0.5-0.3,0.8-0.7,1.1C45.4,72.9,44.9,73,44.3,73L44.3,73z M43.6,69.3
		c-0.3,0.2-0.4,0.5-0.4,0.9s0.1,0.8,0.4,0.9c0.3,0.2,0.7,0.3,1.2,0.3s1-0.1,1.3-0.3c0.3-0.2,0.4-0.5,0.4-0.9v-0.1
		c0-0.4-0.1-0.7-0.4-0.9c-0.3-0.2-0.7-0.3-1.3-0.3S43.9,69.1,43.6,69.3L43.6,69.3z M52.5,73.7c-1,0-1.9-0.3-2.5-0.8
		c-0.6-0.5-0.9-1.3-0.9-2.3c0-0.9,0.3-1.7,0.9-2.3c0.6-0.6,1.4-0.8,2.4-0.8s1.8,0.3,2.4,0.8c0.6,0.5,0.9,1.2,0.9,2.2
		c0,0.1,0,0.3,0,0.6h-4.9c0,0.5,0.2,0.8,0.4,1c0.2,0.2,0.7,0.3,1.2,0.3c0.5,0,0.9-0.1,1.1-0.2c0.2-0.1,0.3-0.3,0.3-0.6v-0.1h1.8v0.1
		c0,0.7-0.3,1.2-0.9,1.6C54.3,73.5,53.5,73.7,52.5,73.7L52.5,73.7z M53.6,69.2c-0.2-0.2-0.6-0.3-1.2-0.3s-0.9,0.1-1.2,0.3
		c-0.2,0.2-0.4,0.5-0.4,0.9h3.2C54,69.6,53.9,69.3,53.6,69.2z M58.3,73.6h-1.8v-6h1.7v1.8h0.1c0.1-0.6,0.3-1,0.7-1.4
		c0.4-0.4,1-0.6,1.7-0.6c0.8,0,1.4,0.2,1.8,0.7c0.4,0.4,0.6,1,0.6,1.7v3.7h-1.8v-3.1c0-0.5-0.1-0.8-0.3-1c-0.2-0.2-0.6-0.3-1.2-0.3
		s-1,0.1-1.2,0.3c-0.2,0.2-0.3,0.6-0.3,1.1V73.6L58.3,73.6z M68.6,73.6h-2.2l-2.7-6h2l1.8,4.3h0.1l1.8-4.3h2L68.6,73.6L68.6,73.6z
		 M75,73.7c-1,0-1.9-0.3-2.5-0.8c-0.6-0.5-0.9-1.3-0.9-2.3c0-0.9,0.3-1.7,0.9-2.3c0.6-0.6,1.4-0.8,2.4-0.8s1.8,0.3,2.4,0.8
		c0.6,0.5,0.9,1.2,0.9,2.2c0,0.1,0,0.3-0.1,0.6h-4.9c0,0.5,0.2,0.8,0.4,1c0.2,0.2,0.7,0.3,1.2,0.3c0.5,0,0.9-0.1,1.1-0.2
		c0.2-0.1,0.3-0.3,0.3-0.6v-0.1h1.8v0.1c0,0.7-0.3,1.2-0.9,1.6C76.7,73.5,75.9,73.7,75,73.7L75,73.7z M76.1,69.2
		c-0.2-0.2-0.6-0.3-1.2-0.3S74,69,73.7,69.2c-0.2,0.2-0.4,0.5-0.4,0.9h3.2C76.5,69.6,76.3,69.3,76.1,69.2z M80.8,73.6H79v-6h1.7v1.6
		h0.1c0.1-0.5,0.3-0.9,0.6-1.2s0.8-0.5,1.4-0.5c0.6,0,1.1,0.2,1.4,0.6c0.3,0.4,0.5,0.9,0.5,1.5v1h-1.8V70c0-0.3-0.1-0.6-0.2-0.7
		c-0.2-0.2-0.4-0.2-0.8-0.2c-0.4,0-0.7,0.1-0.8,0.3s-0.2,0.5-0.2,0.8L80.8,73.6L80.8,73.6z M88.4,73.7c-1,0-1.8-0.2-2.3-0.6
		c-0.5-0.4-0.8-0.9-0.8-1.6v0H87v0.1c0,0.3,0.1,0.4,0.3,0.5s0.6,0.1,1.1,0.1c0.5,0,0.8,0,0.9-0.1c0.2-0.1,0.2-0.2,0.2-0.4
		c0-0.2-0.1-0.3-0.2-0.3c-0.1-0.1-0.3-0.1-0.7-0.2L87,71c-1.2-0.1-1.9-0.7-1.9-1.7c0-0.6,0.2-1,0.7-1.4s1.2-0.5,2.2-0.5
		s1.8,0.2,2.3,0.6c0.5,0.4,0.8,0.9,0.8,1.6v0h-1.8v-0.1c0-0.3-0.1-0.4-0.3-0.6c-0.2-0.1-0.5-0.2-1.1-0.2c-0.4,0-0.7,0-0.9,0.1
		c-0.2,0.1-0.2,0.2-0.2,0.4c0,0.2,0.1,0.3,0.2,0.4c0.1,0.1,0.4,0.1,0.8,0.2l1.3,0.2c0.8,0.1,1.4,0.3,1.7,0.6
		c0.3,0.3,0.5,0.7,0.5,1.2c0,0.6-0.3,1-0.8,1.4C90,73.6,89.3,73.7,88.4,73.7L88.4,73.7z M93.9,67h-1.8v-1.4h1.8V67z M93.9,73.6h-1.8
		v-6h1.8V73.6z M100.5,72.9c-0.6,0.6-1.4,0.8-2.5,0.8s-1.9-0.3-2.5-0.8c-0.6-0.6-0.9-1.3-0.9-2.3s0.3-1.7,0.9-2.3
		c0.6-0.6,1.5-0.8,2.5-0.8s1.9,0.3,2.5,0.8c0.6,0.6,0.9,1.3,0.9,2.3S101.1,72.3,100.5,72.9z M96.7,71.8c0.2,0.2,0.7,0.4,1.3,0.4
		s1-0.1,1.3-0.4s0.4-0.6,0.4-1.2s-0.1-0.9-0.4-1.2s-0.7-0.4-1.3-0.4s-1,0.1-1.3,0.4c-0.2,0.2-0.4,0.6-0.4,1.2S96.5,71.5,96.7,71.8z
		 M104,73.6h-1.8v-6h1.7v1.8h0.1c0.1-0.6,0.3-1,0.7-1.4c0.4-0.4,1-0.6,1.7-0.6c0.8,0,1.4,0.2,1.8,0.7c0.4,0.4,0.6,1,0.6,1.7v3.7H107
		v-3.1c0-0.5-0.1-0.8-0.3-1c-0.2-0.2-0.6-0.3-1.2-0.3s-1,0.1-1.2,0.3c-0.2,0.2-0.3,0.6-0.3,1.1L104,73.6L104,73.6z M112.9,73.7
		c-1,0-1.9-0.3-2.5-0.8c-0.6-0.5-0.9-1.3-0.9-2.3c0-0.9,0.3-1.7,0.9-2.3c0.6-0.6,1.4-0.8,2.4-0.8s1.8,0.3,2.4,0.8
		c0.6,0.5,0.9,1.2,0.9,2.2c0,0.1,0,0.3-0.1,0.6h-4.9c0,0.5,0.2,0.8,0.4,1c0.2,0.2,0.7,0.3,1.2,0.3c0.5,0,0.9-0.1,1.1-0.2
		c0.2-0.1,0.3-0.3,0.3-0.6v-0.1h1.8v0.1c0,0.7-0.3,1.2-0.9,1.6C114.7,73.6,113.9,73.8,112.9,73.7L112.9,73.7z M114,69.2
		c-0.2-0.2-0.6-0.3-1.2-0.3s-0.9,0.1-1.2,0.3c-0.2,0.2-0.4,0.5-0.4,0.9h3.2C114.4,69.6,114.3,69.3,114,69.2z M120,73.7
		c-1,0-1.8-0.2-2.3-0.6c-0.5-0.4-0.8-0.9-0.8-1.6v0h1.8v0.1c0,0.3,0.1,0.4,0.3,0.5s0.6,0.1,1.1,0.1c0.5,0,0.8,0,0.9-0.1
		c0.2-0.1,0.2-0.2,0.2-0.4c0-0.2-0.1-0.3-0.2-0.3c-0.1-0.1-0.3-0.1-0.7-0.2l-1.7-0.2c-1.2-0.1-1.9-0.7-1.9-1.7c0-0.6,0.2-1,0.7-1.4
		s1.2-0.5,2.2-0.5s1.8,0.2,2.3,0.6c0.5,0.4,0.8,0.9,0.8,1.6v0H121v-0.1c0-0.3-0.1-0.4-0.3-0.6c-0.2-0.1-0.5-0.2-1.1-0.2
		c-0.4,0-0.7,0-0.9,0.1c-0.2,0.1-0.2,0.2-0.2,0.4c0,0.2,0.1,0.3,0.2,0.4c0.1,0.1,0.4,0.1,0.8,0.2l1.3,0.2c0.8,0.1,1.4,0.3,1.7,0.6
		c0.3,0.3,0.5,0.7,0.5,1.2c0,0.6-0.3,1-0.8,1.4C121.6,73.6,120.9,73.7,120,73.7L120,73.7z M34,88.7c-1,0-1.9-0.3-2.5-0.8
		c-0.6-0.6-0.9-1.3-0.9-2.3s0.3-1.7,0.9-2.3c0.6-0.6,1.4-0.8,2.5-0.8c1,0,1.8,0.2,2.3,0.7c0.6,0.5,0.9,1.1,0.9,1.9v0.2h-1.8v-0.1
		c0-0.7-0.5-1-1.5-1c-0.5,0-0.9,0.1-1.2,0.3c-0.2,0.2-0.4,0.6-0.4,1.2s0.1,0.9,0.4,1.2c0.2,0.2,0.6,0.3,1.2,0.3c1,0,1.5-0.3,1.5-1
		V86h1.8v0.2c0,0.8-0.3,1.4-0.9,1.9C35.8,88.5,35,88.7,34,88.7z M43.7,87.9c-0.6,0.6-1.5,0.8-2.5,0.8s-1.9-0.3-2.5-0.8
		c-0.6-0.6-0.9-1.3-0.9-2.3s0.3-1.7,0.9-2.3c0.6-0.6,1.5-0.8,2.5-0.8s1.9,0.3,2.5,0.8c0.6,0.6,1,1.3,1,2.3S44.3,87.3,43.7,87.9z
		 M40,86.8c0.2,0.2,0.7,0.4,1.3,0.4s1-0.1,1.3-0.4s0.4-0.6,0.4-1.2s-0.1-0.9-0.4-1.2s-0.7-0.4-1.3-0.4s-1,0.1-1.3,0.4
		c-0.2,0.2-0.4,0.6-0.4,1.2S39.7,86.5,40,86.8z M47.2,88.6h-1.8v-6h1.7v1.8h0.1c0.1-0.6,0.3-1,0.7-1.4c0.4-0.4,1-0.6,1.7-0.6
		c0.8,0,1.4,0.2,1.8,0.7c0.4,0.4,0.6,1,0.6,1.7v3.7h-1.8v-3.1c0-0.5-0.1-0.8-0.3-1c-0.2-0.2-0.6-0.3-1.2-0.3s-1,0.1-1.2,0.3
		c-0.2,0.2-0.3,0.6-0.3,1.1V88.6L47.2,88.6z M58,88.8c-1,0-1.9-0.3-2.5-0.8c-0.6-0.5-0.9-1.3-0.9-2.3c0-0.9,0.3-1.7,0.9-2.3
		c0.6-0.6,1.4-0.8,2.4-0.8s1.8,0.3,2.4,0.8c0.6,0.5,0.9,1.2,0.9,2.2c0,0.1,0,0.3,0,0.6h-4.9c0,0.5,0.2,0.8,0.4,1
		c0.2,0.2,0.7,0.3,1.2,0.3c0.5,0,0.9-0.1,1.1-0.2c0.2-0.1,0.3-0.3,0.3-0.6v-0.1h1.8v0.1c0,0.7-0.3,1.2-0.9,1.6
		C59.7,88.6,58.9,88.8,58,88.8L58,88.8z M59.1,84.2c-0.2-0.2-0.6-0.3-1.2-0.3S57,84,56.7,84.2c-0.2,0.2-0.4,0.5-0.4,0.9h3.2
		C59.5,84.6,59.3,84.3,59.1,84.2z M63.8,88.6H62v-8h1.8V88.6z M68.4,88.6h-1.8v-6h1.7v1.8h0.1c0.1-0.6,0.3-1,0.7-1.4
		c0.4-0.4,0.9-0.6,1.6-0.6c0.7,0,1.2,0.2,1.6,0.5s0.6,0.8,0.7,1.4H73c0.1-0.6,0.3-1.1,0.7-1.4s0.9-0.6,1.6-0.6s1.3,0.2,1.7,0.7
		c0.4,0.4,0.6,1,0.6,1.7v3.7h-1.8v-3.1c0-0.5-0.1-0.9-0.3-1.1c-0.2-0.2-0.6-0.3-1.1-0.3s-0.9,0.1-1.1,0.3c-0.2,0.2-0.3,0.6-0.3,1.1
		v3h-1.8v-3.1c0-0.5-0.1-0.9-0.3-1.1c-0.2-0.2-0.6-0.3-1.1-0.3s-0.9,0.1-1.1,0.3c-0.2,0.2-0.3,0.6-0.3,1.1L68.4,88.6L68.4,88.6z
		 M81,88.8c-0.8,0-1.4-0.2-1.9-0.7c-0.4-0.4-0.6-1-0.6-1.7v-3.7h1.8v3.1c0,0.5,0.1,0.8,0.3,1.1c0.2,0.2,0.6,0.3,1.2,0.3
		s1-0.1,1.2-0.3c0.2-0.2,0.4-0.6,0.4-1.1v-3.1h1.8v6h-1.7v-1.8h-0.1c-0.1,0.6-0.3,1-0.8,1.4C82.2,88.6,81.7,88.7,81,88.8L81,88.8z
		 M87.9,88.6h-1.8v-6h1.7v1.8h0.1c0.1-0.6,0.3-1,0.7-1.4c0.4-0.4,1-0.6,1.7-0.6c0.8,0,1.4,0.2,1.8,0.7c0.4,0.4,0.6,1,0.6,1.7v3.7H91
		v-3.1c0-0.5-0.1-0.8-0.3-1c-0.2-0.2-0.6-0.3-1.2-0.3s-1,0.1-1.2,0.3c-0.2,0.2-0.3,0.6-0.3,1.1L87.9,88.6L87.9,88.6z M96.4,88.8
		c-0.9,0-1.6-0.3-2.2-0.8c-0.5-0.6-0.8-1.3-0.8-2.3s0.2-1.7,0.7-2.3c0.5-0.6,1.2-0.8,2.1-0.8c0.7,0,1.2,0.2,1.6,0.5
		c0.4,0.3,0.6,0.7,0.7,1.2h0.1v-3.6h1.8v8h-1.7V87h-0.1C98.5,88.2,97.7,88.8,96.4,88.8L96.4,88.8z M95.3,85.6c0,0.5,0.1,0.9,0.4,1.1
		c0.3,0.2,0.7,0.3,1.3,0.3s1-0.1,1.3-0.3c0.3-0.2,0.4-0.6,0.4-1.1v-0.1c0-0.5-0.2-0.9-0.4-1.1c-0.3-0.2-0.7-0.3-1.3-0.3
		s-1,0.1-1.3,0.3C95.4,84.7,95.3,85.1,95.3,85.6z M107.2,87.9c-0.6,0.6-1.4,0.8-2.5,0.8s-1.9-0.3-2.5-0.8c-0.6-0.6-0.9-1.3-0.9-2.3
		s0.3-1.7,0.9-2.3c0.6-0.6,1.5-0.8,2.5-0.8s1.9,0.3,2.5,0.8c0.6,0.6,0.9,1.3,0.9,2.3S107.8,87.3,107.2,87.9z M103.4,86.8
		c0.2,0.2,0.7,0.4,1.3,0.4s1-0.1,1.3-0.4s0.4-0.6,0.4-1.2s-0.1-0.9-0.4-1.2s-0.7-0.4-1.3-0.4s-1,0.1-1.3,0.4
		c-0.2,0.2-0.4,0.6-0.4,1.2S103.2,86.6,103.4,86.8z"/>
</g>
</svg>
