<?xml version="1.0" encoding="utf-8"?>
<!-- Generator: Adobe Illustrator 27.7.0, SVG Export Plug-In . SVG Version: 6.00 Build 0)  -->
<svg version="1.1" id="Layer_2_00000044136048706779107700000013172902575975620505_"
	 xmlns="http://www.w3.org/2000/svg" xmlns:xlink="http://www.w3.org/1999/xlink" x="0px" y="0px" viewBox="0 0 139 139"
	 style="enable-background:new 0 0 139 139;" xml:space="preserve">
<style type="text/css">
	.st0{fill:none;stroke:#000000;}
	.st1{fill:#FFFFFF;}
</style>
<g id="Layer_1-2">
	<circle class="st0" cx="69.5" cy="69.5" r="69"/>
</g>
<path class="st1" d="M38.9,58.6c-1.2,0-2.2-0.2-2.8-0.7c-0.7-0.5-1-1.2-1-2.1v-0.1h1.8V56c0,0.4,0.1,0.7,0.4,0.8
	c0.3,0.2,0.8,0.2,1.6,0.2c0.7,0,1.2-0.1,1.4-0.2c0.2-0.1,0.4-0.3,0.4-0.6c0-0.2-0.1-0.4-0.2-0.5c-0.2-0.1-0.4-0.2-0.9-0.3l-2.3-0.3
	c-1.5-0.2-2.3-1-2.3-2.3c0-0.7,0.3-1.3,0.9-1.8c0.6-0.5,1.5-0.7,2.8-0.7c1.2,0,2.1,0.3,2.7,0.8c0.6,0.5,0.9,1.2,0.9,2.1v0.1h-1.8
	v-0.2c0-0.4-0.1-0.7-0.4-0.8c-0.3-0.2-0.8-0.3-1.6-0.3c-0.6,0-1.1,0.1-1.3,0.2c-0.2,0.1-0.4,0.3-0.4,0.6c0,0.2,0.1,0.4,0.2,0.5
	c0.1,0.1,0.4,0.2,0.7,0.3l2.3,0.4c1.6,0.3,2.4,1,2.4,2.3c0,0.7-0.3,1.3-0.9,1.8C41,58.4,40.1,58.6,38.9,58.6z M45,58.5h-1.8v-8H45
	v3.9h0.1c0.1-0.6,0.4-1,0.8-1.4c0.4-0.4,1-0.6,1.7-0.6c0.8,0,1.4,0.2,1.8,0.7c0.4,0.4,0.6,1,0.6,1.8v3.7h-1.8v-3.1
	c0-0.5-0.1-0.9-0.4-1.1c-0.2-0.2-0.6-0.3-1.2-0.3c-0.6,0-1,0.1-1.2,0.4C45.1,54.6,45,55,45,55.5V58.5z M52.7,58.6
	c-0.6,0-1.2-0.1-1.5-0.4c-0.4-0.3-0.6-0.7-0.6-1.2c0-0.9,0.6-1.4,1.9-1.6l2.6-0.3V55c0-0.4-0.1-0.6-0.3-0.8c-0.2-0.1-0.5-0.2-1-0.2
	c-0.5,0-0.8,0.1-1,0.2c-0.2,0.1-0.3,0.4-0.3,0.7v0h-1.8v0c0-0.8,0.3-1.4,0.9-1.8s1.4-0.7,2.4-0.7c1,0,1.7,0.2,2.2,0.7
	c0.5,0.5,0.7,1.1,0.7,1.9v3.5h-1.7v-1.4h-0.1c-0.1,0.5-0.4,0.8-0.8,1.1S53.4,58.6,52.7,58.6z M52.5,56.9c0,0.3,0.3,0.5,0.8,0.5
	c0.6,0,1.1-0.1,1.4-0.3c0.3-0.2,0.5-0.5,0.5-0.9l-2.1,0.2C52.7,56.5,52.5,56.6,52.5,56.9z M59.7,58.5h-1.8v-6h1.7v1.6h0.1
	c0.1-0.5,0.3-0.9,0.6-1.2c0.3-0.3,0.8-0.5,1.4-0.5c0.6,0,1.1,0.2,1.4,0.6c0.3,0.4,0.5,0.9,0.5,1.5v1h-1.8v-0.6
	c0-0.3-0.1-0.6-0.2-0.7c-0.2-0.2-0.4-0.2-0.8-0.2c-0.4,0-0.7,0.1-0.8,0.3c-0.2,0.2-0.3,0.5-0.3,0.9V58.5z M67.4,58.6
	c-1,0-1.9-0.3-2.5-0.8c-0.6-0.5-0.9-1.3-0.9-2.3c0-1,0.3-1.7,0.9-2.3c0.6-0.6,1.4-0.9,2.4-0.9s1.8,0.3,2.4,0.8
	c0.6,0.5,0.9,1.2,0.9,2.1c0,0.1,0,0.3,0,0.6h-4.9c0,0.5,0.2,0.8,0.4,1c0.2,0.2,0.7,0.3,1.2,0.3c0.5,0,0.9-0.1,1.1-0.2
	c0.2-0.1,0.3-0.3,0.3-0.6v-0.1h1.8v0.1c0,0.7-0.3,1.2-0.9,1.6C69.1,58.4,68.3,58.6,67.4,58.6z M68.5,54.1c-0.2-0.2-0.6-0.3-1.2-0.3
	s-0.9,0.1-1.2,0.3c-0.2,0.2-0.4,0.5-0.4,0.9h3.2C68.9,54.5,68.7,54.2,68.5,54.1z M74.4,60.6h-1v-1.6h1.5c0.4,0,0.6-0.1,0.8-0.4
	l-2.9-6h2l1.3,2.7l0.5,1.4h0.1l0.5-1.4l1.1-2.7h2l-3,6.4c-0.3,0.6-0.6,1-1.1,1.3C75.8,60.4,75.2,60.6,74.4,60.6z M86.4,57.8
	c-0.6,0.6-1.5,0.9-2.5,0.9s-1.9-0.3-2.5-0.9c-0.6-0.6-0.9-1.3-0.9-2.3c0-1,0.3-1.7,0.9-2.3c0.6-0.6,1.5-0.9,2.5-0.9s1.9,0.3,2.5,0.9
	c0.6,0.6,0.9,1.3,0.9,2.3C87.3,56.5,87,57.2,86.4,57.8z M82.6,56.7c0.2,0.2,0.7,0.4,1.3,0.4s1-0.1,1.3-0.4c0.2-0.2,0.4-0.6,0.4-1.2
	s-0.1-0.9-0.4-1.2c-0.2-0.2-0.7-0.4-1.3-0.4c-0.6,0-1,0.1-1.3,0.4c-0.2,0.2-0.4,0.6-0.4,1.2C82.3,56.1,82.4,56.4,82.6,56.7z
	 M90.6,58.6c-0.8,0-1.4-0.2-1.9-0.7c-0.4-0.4-0.6-1-0.6-1.7v-3.7h1.8v3.1c0,0.5,0.1,0.8,0.3,1.1c0.2,0.2,0.6,0.3,1.2,0.3
	c0.6,0,1-0.1,1.2-0.3c0.2-0.2,0.4-0.6,0.4-1.1v-3h1.8v6h-1.7v-1.8H93c-0.1,0.6-0.3,1-0.8,1.4C91.9,58.5,91.3,58.6,90.6,58.6z
	 M97.5,58.5h-1.8v-6h1.7v1.6h0.1c0.1-0.5,0.3-0.9,0.6-1.2c0.3-0.3,0.8-0.5,1.4-0.5c0.6,0,1.1,0.2,1.4,0.6c0.3,0.4,0.5,0.9,0.5,1.5v1
	h-1.8v-0.6c0-0.3-0.1-0.6-0.2-0.7c-0.2-0.2-0.4-0.2-0.8-0.2c-0.4,0-0.7,0.1-0.8,0.3c-0.2,0.2-0.3,0.5-0.3,0.9V58.5z M20.2,73.5h-1.8
	v-6h1.7v1.8h0.1c0.1-0.6,0.3-1,0.7-1.4c0.4-0.4,0.9-0.6,1.6-0.6c0.7,0,1.2,0.2,1.6,0.5c0.4,0.4,0.6,0.8,0.7,1.4h0.1
	c0.1-0.6,0.3-1,0.7-1.4c0.4-0.4,0.9-0.6,1.6-0.6c0.7,0,1.3,0.2,1.7,0.7c0.4,0.4,0.6,1,0.6,1.7v3.7h-1.8v-3.1c0-0.5-0.1-0.9-0.3-1.1
	c-0.2-0.2-0.6-0.3-1.1-0.3c-0.5,0-0.9,0.1-1.1,0.3c-0.2,0.2-0.3,0.6-0.3,1.1v3H23v-3.1c0-0.5-0.1-0.9-0.3-1.1
	c-0.2-0.2-0.6-0.3-1.1-0.3c-0.5,0-0.9,0.1-1.1,0.3c-0.2,0.2-0.3,0.6-0.3,1.1V73.5z M36,72.8c-0.6,0.6-1.5,0.9-2.5,0.9
	c-1,0-1.9-0.3-2.5-0.9c-0.6-0.6-0.9-1.3-0.9-2.3c0-1,0.3-1.7,0.9-2.3c0.6-0.6,1.5-0.9,2.5-0.9c1,0,1.9,0.3,2.5,0.9
	c0.6,0.6,0.9,1.3,0.9,2.3C36.9,71.5,36.6,72.2,36,72.8z M32.2,71.7c0.2,0.2,0.7,0.4,1.3,0.4c0.6,0,1-0.1,1.3-0.4
	c0.2-0.2,0.4-0.6,0.4-1.2c0-0.5-0.1-0.9-0.4-1.2c-0.2-0.2-0.7-0.4-1.3-0.4c-0.6,0-1,0.1-1.3,0.4c-0.2,0.2-0.4,0.6-0.4,1.2
	C31.9,71.1,32,71.4,32.2,71.7z M39.5,73.5h-1.8v-6h1.7v1.6h0.1c0.1-0.5,0.3-0.9,0.6-1.2c0.3-0.3,0.8-0.5,1.4-0.5
	c0.6,0,1.1,0.2,1.4,0.6s0.5,0.9,0.5,1.5v1h-1.8v-0.6c0-0.3-0.1-0.6-0.2-0.7c-0.2-0.2-0.4-0.2-0.8-0.2c-0.4,0-0.7,0.1-0.8,0.3
	s-0.3,0.5-0.3,0.9V73.5z M46.7,72.9c-0.9,0-1.6-0.2-2.1-0.7c-0.5-0.5-0.7-1.2-0.7-2c0-0.8,0.3-1.5,0.8-2c0.5-0.5,1.2-0.7,2.1-0.7
	c0.6,0,1.1,0.1,1.5,0.4c0.4,0.3,0.7,0.7,0.8,1.2h0.1v-1.5h1.7v5.1c0,2-1.1,3-3.4,3c-1,0-1.8-0.2-2.3-0.6c-0.6-0.4-0.8-1-0.8-1.8H46
	c0,0.3,0.1,0.6,0.3,0.7c0.2,0.1,0.6,0.2,1.2,0.2c0.6,0,1-0.1,1.2-0.3c0.2-0.2,0.3-0.6,0.3-1.1v-1.4h-0.1c-0.1,0.5-0.3,0.8-0.7,1.1
	C47.8,72.8,47.3,72.9,46.7,72.9z M46,69.2c-0.3,0.2-0.4,0.5-0.4,0.9c0,0.4,0.1,0.8,0.4,0.9c0.3,0.2,0.7,0.3,1.2,0.3
	c0.6,0,1-0.1,1.3-0.3c0.3-0.2,0.4-0.5,0.4-0.9v-0.1c0-0.4-0.1-0.7-0.4-0.9c-0.3-0.2-0.7-0.3-1.3-0.3C46.7,68.9,46.3,69,46,69.2z
	 M55,73.6c-1,0-1.9-0.3-2.5-0.8c-0.6-0.5-0.9-1.3-0.9-2.3c0-1,0.3-1.7,0.9-2.3c0.6-0.6,1.4-0.9,2.4-0.9s1.8,0.3,2.4,0.8
	c0.6,0.5,0.9,1.2,0.9,2.1c0,0.1,0,0.3,0,0.6h-4.9c0,0.5,0.2,0.8,0.4,1c0.2,0.2,0.7,0.3,1.2,0.3c0.5,0,0.9-0.1,1.1-0.2
	c0.2-0.1,0.3-0.3,0.3-0.6v-0.1h1.8v0.1c0,0.7-0.3,1.2-0.9,1.6C56.7,73.4,55.9,73.6,55,73.6z M56,69.1c-0.2-0.2-0.6-0.3-1.2-0.3
	s-0.9,0.1-1.2,0.3c-0.2,0.2-0.4,0.5-0.4,0.9h3.2C56.4,69.5,56.3,69.2,56,69.1z M60.8,73.5H59v-6h1.7v1.8h0.1c0.1-0.6,0.3-1,0.7-1.4
	c0.4-0.4,1-0.6,1.7-0.6c0.8,0,1.4,0.2,1.8,0.7c0.4,0.4,0.6,1,0.6,1.7v3.7h-1.8v-3.1c0-0.5-0.1-0.8-0.3-1c-0.2-0.2-0.6-0.3-1.2-0.3
	c-0.6,0-1,0.1-1.2,0.3c-0.2,0.2-0.3,0.6-0.3,1.1V73.5z M71,73.5h-2.2l-2.7-6h2l1.8,4.3H70l1.8-4.3h2L71,73.5z M77.4,73.6
	c-1,0-1.9-0.3-2.5-0.8c-0.6-0.5-0.9-1.3-0.9-2.3c0-1,0.3-1.7,0.9-2.3c0.6-0.6,1.4-0.9,2.4-0.9s1.8,0.3,2.4,0.8
	c0.6,0.5,0.9,1.2,0.9,2.1c0,0.1,0,0.3,0,0.6h-4.9c0,0.5,0.2,0.8,0.4,1c0.2,0.2,0.7,0.3,1.2,0.3c0.5,0,0.9-0.1,1.1-0.2
	c0.2-0.1,0.3-0.3,0.3-0.6v-0.1h1.8v0.1c0,0.7-0.3,1.2-0.9,1.6C79.1,73.4,78.4,73.6,77.4,73.6z M78.5,69.1c-0.2-0.2-0.6-0.3-1.2-0.3
	s-0.9,0.1-1.2,0.3c-0.2,0.2-0.4,0.5-0.4,0.9h3.2C78.9,69.5,78.8,69.2,78.5,69.1z M83.2,73.5h-1.8v-6h1.7v1.6h0.1
	c0.1-0.5,0.3-0.9,0.6-1.2c0.3-0.3,0.8-0.5,1.4-0.5c0.6,0,1.1,0.2,1.4,0.6c0.3,0.4,0.5,0.9,0.5,1.5v1h-1.8v-0.6
	c0-0.3-0.1-0.6-0.2-0.7c-0.2-0.2-0.4-0.2-0.8-0.2c-0.4,0-0.7,0.1-0.8,0.3s-0.3,0.5-0.3,0.9V73.5z M90.8,73.6c-1,0-1.8-0.2-2.3-0.6
	c-0.5-0.4-0.8-0.9-0.8-1.6v0h1.8v0.1c0,0.3,0.1,0.4,0.3,0.5c0.2,0.1,0.5,0.1,1.1,0.1c0.5,0,0.8,0,0.9-0.1c0.2-0.1,0.3-0.2,0.3-0.4
	c0-0.2-0.1-0.3-0.2-0.3c-0.1-0.1-0.3-0.1-0.7-0.2L89.4,71c-1.2-0.1-1.9-0.7-1.9-1.7c0-0.6,0.2-1,0.7-1.4c0.5-0.4,1.2-0.5,2.2-0.5
	c1,0,1.8,0.2,2.3,0.6c0.5,0.4,0.8,0.9,0.8,1.6v0h-1.8v-0.1c0-0.3-0.1-0.5-0.3-0.6c-0.2-0.1-0.5-0.2-1.1-0.2c-0.4,0-0.7,0-0.9,0.1
	c-0.2,0.1-0.2,0.2-0.2,0.4c0,0.2,0.1,0.3,0.2,0.4c0.1,0.1,0.4,0.1,0.8,0.2l1.3,0.2c0.8,0.1,1.4,0.3,1.7,0.6c0.3,0.3,0.5,0.7,0.5,1.2
	c0,0.6-0.3,1-0.8,1.4C92.4,73.5,91.7,73.6,90.8,73.6z M96.3,66.9h-1.8v-1.4h1.8V66.9z M96.3,73.5h-1.8v-6h1.8V73.5z M102.9,72.8
	c-0.6,0.6-1.5,0.9-2.5,0.9c-1,0-1.9-0.3-2.5-0.9c-0.6-0.6-0.9-1.3-0.9-2.3c0-1,0.3-1.7,0.9-2.3c0.6-0.6,1.5-0.9,2.5-0.9
	c1,0,1.9,0.3,2.5,0.9c0.6,0.6,0.9,1.3,0.9,2.3C103.9,71.5,103.5,72.2,102.9,72.8z M99.2,71.7c0.2,0.2,0.7,0.4,1.3,0.4
	c0.6,0,1-0.1,1.3-0.4s0.4-0.6,0.4-1.2c0-0.5-0.1-0.9-0.4-1.2c-0.2-0.2-0.7-0.4-1.3-0.4c-0.6,0-1,0.1-1.3,0.4
	c-0.2,0.2-0.4,0.6-0.4,1.2C98.8,71.1,98.9,71.4,99.2,71.7z M106.4,73.5h-1.8v-6h1.7v1.8h0.1c0.1-0.6,0.3-1,0.7-1.4
	c0.4-0.4,1-0.6,1.7-0.6c0.8,0,1.4,0.2,1.8,0.7c0.4,0.4,0.6,1,0.6,1.7v3.7h-1.8v-3.1c0-0.5-0.1-0.8-0.3-1c-0.2-0.2-0.6-0.3-1.2-0.3
	c-0.6,0-1,0.1-1.2,0.3c-0.2,0.2-0.3,0.6-0.3,1.1V73.5z M115.2,73.6c-1,0-1.8-0.2-2.3-0.6c-0.5-0.4-0.8-0.9-0.8-1.6v0h1.8v0.1
	c0,0.3,0.1,0.4,0.3,0.5c0.2,0.1,0.5,0.1,1.1,0.1c0.5,0,0.8,0,0.9-0.1c0.2-0.1,0.3-0.2,0.3-0.4c0-0.2-0.1-0.3-0.2-0.3
	c-0.1-0.1-0.3-0.1-0.7-0.2l-1.7-0.2c-1.2-0.1-1.9-0.7-1.9-1.7c0-0.6,0.2-1,0.7-1.4c0.5-0.4,1.2-0.5,2.2-0.5c1,0,1.8,0.2,2.3,0.6
	c0.5,0.4,0.8,0.9,0.8,1.6v0h-1.8v-0.1c0-0.3-0.1-0.5-0.3-0.6c-0.2-0.1-0.5-0.2-1.1-0.2c-0.4,0-0.7,0-0.9,0.1
	c-0.2,0.1-0.2,0.2-0.2,0.4c0,0.2,0.1,0.3,0.2,0.4c0.1,0.1,0.4,0.1,0.8,0.2l1.3,0.2c0.8,0.1,1.4,0.3,1.7,0.6c0.3,0.3,0.5,0.7,0.5,1.2
	c0,0.6-0.3,1-0.8,1.4C116.8,73.5,116.1,73.6,115.2,73.6z M29.6,88.5h-2.2l-1.6-6h1.9l0.7,2.7l0.3,1.9h0.1l0.5-2.1l0.9-2.6h2.3
	l0.9,2.6l0.5,2.1h0.1l0.3-1.9l0.7-2.7h1.8l-1.7,6h-2.2l-1-2.9L31.2,84h-0.1l-0.5,1.7L29.6,88.5z M38.9,81.9h-1.8v-1.4h1.8V81.9z
	 M38.9,88.5h-1.8v-6h1.8V88.5z M44.1,88.5h-1.5c-1.5,0-2.3-0.7-2.3-2.2V84h-0.9v-1.5h0.9v-1.2h1.8v1.2h1.9V84h-1.9v2.1
	c0,0.3,0.1,0.5,0.2,0.6c0.1,0.1,0.4,0.2,0.7,0.2h1.1V88.5z M46.6,88.5h-1.8v-8h1.8v3.9h0.1c0.1-0.6,0.4-1,0.8-1.4
	c0.4-0.4,1-0.6,1.7-0.6c0.8,0,1.4,0.2,1.8,0.7c0.4,0.4,0.6,1,0.6,1.8v3.7h-1.8v-3.1c0-0.5-0.1-0.9-0.4-1.1c-0.2-0.2-0.6-0.3-1.2-0.3
	c-0.6,0-1,0.1-1.2,0.4c-0.2,0.2-0.3,0.6-0.3,1.1V88.5z M58.5,88.5H57c-1.5,0-2.3-0.7-2.3-2.2V84h-0.9v-1.5h0.9v-1.2h1.8v1.2h1.9V84
	h-1.9v2.1c0,0.3,0.1,0.5,0.2,0.6c0.1,0.1,0.4,0.2,0.7,0.2h1.1V88.5z M61,88.5h-1.8v-8H61v3.9h0.1c0.1-0.6,0.4-1,0.8-1.4
	c0.4-0.4,1-0.6,1.7-0.6c0.8,0,1.4,0.2,1.8,0.7c0.4,0.4,0.6,1,0.6,1.8v3.7h-1.8v-3.1c0-0.5-0.1-0.9-0.4-1.1c-0.2-0.2-0.6-0.3-1.2-0.3
	c-0.6,0-1,0.1-1.2,0.4C61.1,84.6,61,85,61,85.5V88.5z M70.1,88.6c-1,0-1.9-0.3-2.5-0.8c-0.6-0.5-0.9-1.3-0.9-2.3
	c0-1,0.3-1.7,0.9-2.3c0.6-0.6,1.4-0.9,2.4-0.9s1.8,0.3,2.4,0.8c0.6,0.5,0.9,1.2,0.9,2.1c0,0.1,0,0.3,0,0.6h-4.9c0,0.5,0.2,0.8,0.4,1
	c0.2,0.2,0.7,0.3,1.2,0.3c0.5,0,0.9-0.1,1.1-0.2c0.2-0.1,0.3-0.3,0.3-0.6v-0.1h1.8v0.1c0,0.7-0.3,1.2-0.9,1.6
	C71.8,88.4,71,88.6,70.1,88.6z M71.1,84.1c-0.2-0.2-0.6-0.3-1.2-0.3s-0.9,0.1-1.2,0.3c-0.2,0.2-0.4,0.5-0.4,0.9h3.2
	C71.5,84.5,71.4,84.2,71.1,84.1z M79.3,88.5h-2.2l-1.6-6h1.9l0.7,2.7l0.3,1.9h0.1l0.5-2.1l0.9-2.6h2.3l0.9,2.6l0.5,2.1h0.1l0.3-1.9
	l0.7-2.7h1.8l-1.7,6h-2.2l-1-2.9L81,84h-0.1l-0.5,1.7L79.3,88.5z M92.5,87.8c-0.6,0.6-1.5,0.9-2.5,0.9c-1,0-1.9-0.3-2.5-0.9
	c-0.6-0.6-0.9-1.3-0.9-2.3c0-1,0.3-1.7,0.9-2.3c0.6-0.6,1.5-0.9,2.5-0.9c1,0,1.9,0.3,2.5,0.9c0.6,0.6,0.9,1.3,0.9,2.3
	C93.5,86.5,93.2,87.2,92.5,87.8z M88.8,86.7c0.2,0.2,0.7,0.4,1.3,0.4c0.6,0,1-0.1,1.3-0.4s0.4-0.6,0.4-1.2c0-0.5-0.1-0.9-0.4-1.2
	c-0.2-0.2-0.7-0.4-1.3-0.4c-0.6,0-1,0.1-1.3,0.4c-0.2,0.2-0.4,0.6-0.4,1.2C88.4,86.1,88.5,86.4,88.8,86.7z M96,88.5h-1.8v-6h1.7v1.6
	H96c0.1-0.5,0.3-0.9,0.6-1.2c0.3-0.3,0.8-0.5,1.4-0.5c0.6,0,1.1,0.2,1.4,0.6c0.3,0.4,0.5,0.9,0.5,1.5v1h-1.8v-0.6
	c0-0.3-0.1-0.6-0.2-0.7c-0.2-0.2-0.4-0.2-0.8-0.2c-0.4,0-0.7,0.1-0.8,0.3C96.1,84.4,96,84.7,96,85V88.5z M102.4,88.5h-1.8v-8h1.8
	V88.5z M106,88.6c-0.9,0-1.6-0.3-2.1-0.8c-0.5-0.6-0.8-1.3-0.8-2.3c0-1,0.2-1.7,0.7-2.3c0.5-0.6,1.2-0.8,2.1-0.8
	c0.7,0,1.2,0.2,1.6,0.5c0.4,0.3,0.6,0.7,0.7,1.2h0.1v-3.6h1.8v8h-1.7v-1.7h-0.1C108.2,88,107.4,88.6,106,88.6z M104.9,85.5
	c0,0.5,0.1,0.9,0.4,1.1c0.3,0.2,0.7,0.3,1.3,0.3c0.6,0,1-0.1,1.3-0.3c0.3-0.2,0.4-0.6,0.4-1.1v-0.1c0-0.5-0.1-0.9-0.4-1.1
	c-0.3-0.2-0.7-0.3-1.3-0.3c-0.6,0-1,0.1-1.3,0.3C105,84.6,104.9,85,104.9,85.5z"/>
</svg>
