<?xml version="1.0" encoding="utf-8"?>
<!-- Generator: Adobe Illustrator 27.5.0, SVG Export Plug-In . SVG Version: 6.00 Build 0)  -->
<svg version="1.1" id="Layer_1" xmlns="http://www.w3.org/2000/svg" xmlns:xlink="http://www.w3.org/1999/xlink" x="0px" y="0px"
	 viewBox="0 0 254.5 264" style="enable-background:new 0 0 254.5 264;" xml:space="preserve">
<style type="text/css">
	.st0{fill:#DFB000;stroke:#000000;}
</style>
<path class="st0" d="M95.5,14.8l20.7,14.7l0.3,0.2l0.3-0.3L134,10.8l15.1,20.4l0.2,0.3l0.3-0.2l22.1-12.4l8.1,24l0.1,0.4l0.4-0.1
	l24.9-5l0.3,25.4V64h0.4l25.2,2.9l-7.6,24.2l-0.1,0.4l0.4,0.2l23.1,10.6L232.2,123l-0.2,0.3l0.3,0.3l18.7,17.2l-20.4,15.1l-0.3,0.2
	l0.2,0.3l12.4,22.1l-24,8.1l-0.4,0.1l0.1,0.4l5,24.9l-25.4,0.3h-0.4v0.4l-2.9,25.2l-24.2-7.6l-0.4-0.1l-0.2,0.4l-10.6,23.1
	L138.8,239l-0.3-0.2l-0.3,0.3L121,257.8l-15.1-20.4l-0.2-0.3l-0.3,0.2l-22.1,12.4l-8.1-24l-0.1-0.4l-0.4,0.1l-24.9,5L49.4,205v-0.4
	H49l-25.2-2.9l7.6-24.2l0.1-0.4l-0.4-0.2L8,166.3l14.7-20.7l0.2-0.3l-0.3-0.3L4,127.8l20.4-15.1l0.3-0.2l-0.2-0.3L12,89.9l24-8.1
	l0.4-0.1l-0.1-0.4l-5-24.9l25.4-0.3h0.4v-0.4L60,30.5l24.2,7.6l0.4,0.1l0.2-0.4L95.5,14.8z"/>
<path d="M102.2,147.9c-2.6,0.7-4.8,0.5-6.7-0.5c-1.9-1.1-3.2-2.8-3.8-5.2c-0.7-2.4-0.4-4.6,0.7-6.4c1.1-1.9,2.9-3.1,5.5-3.8
	c2.6-0.7,4.9-0.5,6.8,0.5c1.9,1,3.2,2.8,3.8,5.2c0.7,2.4,0.4,4.6-0.7,6.5C106.7,145.9,104.8,147.2,102.2,147.9z M97.4,144.4
	c0.9,0.5,2.2,0.5,3.9,0.1c1.7-0.5,2.8-1.1,3.4-2c0.5-0.9,0.6-2.2,0.1-3.9c-0.5-1.7-1.1-2.8-2.1-3.3c-0.9-0.5-2.2-0.5-3.9-0.1
	c-1.7,0.5-2.8,1.1-3.3,2c-0.5,0.9-0.5,2.2-0.1,3.9C95.8,142.8,96.5,143.9,97.4,144.4z M115.3,144.1l-3.2,0.9l-4.2-15.5l3.5-0.9
	l1.9,7l0.2,0c-0.1-1.1,0.2-2,0.8-2.8c0.6-0.8,1.6-1.4,2.9-1.7c1.7-0.5,3.2-0.3,4.4,0.6c1.2,0.8,2.1,2.2,2.6,4
	c0.5,1.9,0.4,3.5-0.3,4.8s-1.9,2.3-3.7,2.7c-2.7,0.7-4.5,0-5.6-2.2l-0.2,0.1L115.3,144.1z M114,138.3c0.3,1,0.7,1.6,1.4,1.9
	c0.7,0.3,1.6,0.3,2.7,0c1.1-0.3,1.9-0.7,2.3-1.3c0.4-0.6,0.5-1.4,0.2-2.4c-0.3-1.1-0.7-1.7-1.4-2c-0.6-0.3-1.5-0.3-2.7,0
	c-1.2,0.3-2,0.8-2.4,1.3c-0.4,0.6-0.5,1.3-0.3,2.3L114,138.3z M130.7,140l-3.5,0.9l-3.1-11.6l3.2-0.9l0.8,3.1l0.2-0.1
	c-0.1-1.1,0.1-2,0.6-2.7c0.5-0.8,1.3-1.3,2.4-1.6c1.2-0.3,2.3-0.2,3.1,0.4c0.8,0.6,1.4,1.5,1.7,2.7l0.5,1.9l-3.5,0.9l-0.3-1.2
	c-0.2-0.6-0.4-1.1-0.8-1.3c-0.4-0.2-0.9-0.2-1.6,0c-0.8,0.2-1.3,0.5-1.5,1c-0.2,0.4-0.2,1,0,1.8L130.7,140z M143.1,136.9
	c-1.3,0.3-2.3,0.3-3.2,0c-0.9-0.4-1.4-1-1.7-2c-0.5-1.8,0.5-3.1,2.9-4l4.8-1.8l-0.1-0.4c-0.2-0.7-0.5-1.2-1-1.4
	c-0.4-0.2-1.1-0.1-2.1,0.1c-0.9,0.2-1.5,0.6-1.8,0.9c-0.3,0.4-0.4,0.9-0.2,1.5l0,0.1l-3.5,0.9l0-0.1c-0.4-1.5-0.1-2.8,0.7-4
	c0.9-1.2,2.3-2.1,4.2-2.6c1.9-0.5,3.4-0.4,4.6,0.2c1.2,0.6,2,1.7,2.4,3.3l1.8,6.8l-3.2,0.9l-0.7-2.7l-0.2,0c0,1-0.4,1.8-1.1,2.6
	C145.3,136,144.3,136.6,143.1,136.9z M141.7,133.7c0.2,0.6,0.7,0.7,1.7,0.5c1.2-0.3,2.1-0.7,2.6-1.2c0.5-0.5,0.7-1.2,0.5-2l-3.9,1.5
	C141.8,132.8,141.5,133.2,141.7,133.7z M158.8,132.7c-1.9,0.5-3.5,0.6-4.8,0.1c-1.2-0.5-2.1-1.4-2.4-2.7l0-0.1l3.5-0.9l0.1,0.2
	c0.1,0.5,0.4,0.8,0.8,0.9c0.4,0.1,1.1,0,2.1-0.3c0.9-0.2,1.5-0.5,1.7-0.7c0.3-0.2,0.4-0.5,0.3-0.9c-0.1-0.3-0.3-0.5-0.5-0.6
	c-0.3-0.1-0.7-0.1-1.5,0l-3.4,0.5c-2.5,0.4-4-0.4-4.5-2.3c-0.3-1.1,0-2.1,0.7-3c0.8-0.9,2.1-1.7,4-2.2c1.9-0.5,3.5-0.5,4.7-0.1
	c1.2,0.4,2,1.4,2.4,2.8l0,0.1l-3.5,0.9l0-0.1c-0.1-0.5-0.4-0.8-0.8-0.9c-0.4-0.1-1.1-0.1-2.2,0.2c-0.9,0.2-1.4,0.5-1.7,0.7
	c-0.3,0.2-0.3,0.5-0.2,0.9c0.1,0.3,0.3,0.5,0.6,0.6c0.3,0.1,0.8,0.1,1.6,0l2.6-0.4c1.6-0.2,2.8-0.2,3.6,0.2c0.8,0.3,1.3,1,1.6,2
	c0.3,1.1,0,2.1-0.8,3.1C161.9,131.5,160.6,132.2,158.8,132.7z"/>
</svg>
