<?xml version="1.0" encoding="utf-8"?>
<!-- Generator: Adobe Illustrator 24.0.2, SVG Export Plug-In . SVG Version: 6.00 Build 0)  -->
<svg version="1.1" id="Layer_1" xmlns="http://www.w3.org/2000/svg" xmlns:xlink="http://www.w3.org/1999/xlink" x="0px" y="0px"
	 viewBox="0 0 301 301" style="enable-background:new 0 0 301 301;" xml:space="preserve">
<style type="text/css">
	.st0{fill:#7D9F00;stroke:#000000;}
	.st1{fill:#FFFFFF;}
</style>
<path class="st0" d="M111.6,5.7l25.1,17.8l0.4,0.3l0.3-0.3l20.8-22.6l18.4,24.7l0.3,0.4l0.4-0.2L204,10.6l9.8,29.1l0.1,0.4l0.4-0.1
	l30.2-6.1l0.3,30.8l0,0.4l0.4,0.1l30.6,3.6l-9.2,29.4l-0.1,0.4l0.4,0.2l28,12.8l-17.8,25.1l-0.3,0.4l0.3,0.3l22.6,20.8l-24.7,18.4
	l-0.4,0.3l0.2,0.4l15.1,26.8l-29.1,9.8l-0.4,0.1l0.1,0.4l6.1,30.2l-30.8,0.3l-0.4,0l-0.1,0.4l-3.6,30.6l-29.4-9.2l-0.4-0.1l-0.2,0.4
	l-12.8,28L164,277.1l-0.4-0.3l-0.3,0.3l-20.8,22.6l-18.4-24.7l-0.3-0.4l-0.4,0.2l-26.8,15.1L86.8,261l-0.1-0.4l-0.4,0.1l-30.2,6.1
	l-0.3-30.8l0-0.4l-0.4-0.1l-30.6-3.6l9.2-29.4l0.1-0.4l-0.4-0.2l-28-12.8L23.5,164l0.3-0.4l-0.3-0.3L0.8,142.5l24.7-18.4l0.4-0.3
	l-0.2-0.4L10.6,96.7l29.1-9.8l0.4-0.1L40,86.3L34,56.1l30.8-0.3l0.4,0l0.1-0.4l3.6-30.6l29.4,9.2l0.4,0.1l0.2-0.4L111.6,5.7z"/>
<path class="st1" d="M109.5,157.4l-3.9,1l2.6-17.4l5-1.3l11,13.7l-4,1.1l-2.4-3l-7.8,2.1L109.5,157.4z M111.1,146.3l-0.6,3.8
	l5.1-1.4l-2.4-3l-1.6-2.2l-0.3,0.1L111.1,146.3z M129.6,156.2l-3.5,0.9l-4.2-15.6l3.2-0.9l0.9,3.2l0.2-0.1c-0.2-2.4,1.1-3.9,3.7-4.7
	c1.8-0.5,3.3-0.3,4.5,0.5c1.3,0.8,2.1,2.2,2.6,4c0.5,1.9,0.4,3.5-0.3,4.8c-0.7,1.3-1.9,2.2-3.6,2.7c-1.3,0.4-2.4,0.3-3.4,0
	c-0.9-0.4-1.6-1.1-2.1-2.1l-0.2,0L129.6,156.2z M127,146.6c0.3,1,0.7,1.6,1.4,1.8c0.7,0.3,1.6,0.2,2.7-0.1c1.1-0.3,1.9-0.7,2.3-1.3
	c0.4-0.6,0.5-1.4,0.2-2.4c-0.3-1-0.7-1.7-1.4-2c-0.6-0.3-1.5-0.3-2.6,0c-1.2,0.3-2,0.8-2.4,1.4c-0.4,0.6-0.5,1.4-0.3,2.4L127,146.6z
	 M150.7,144.8c-0.9,1.4-2.4,2.4-4.4,2.9s-3.7,0.4-5.3-0.4c-1.5-0.8-2.5-2.1-3-3.9c-0.5-1.8-0.3-3.5,0.6-4.9c0.9-1.4,2.4-2.4,4.4-2.9
	c2-0.5,3.7-0.4,5.2,0.4c1.5,0.8,2.5,2.1,3,3.9C151.9,141.8,151.7,143.4,150.7,144.8z M142.9,144.6c0.6,0.3,1.5,0.3,2.6,0
	c1.2-0.3,1.9-0.8,2.3-1.4c0.4-0.6,0.4-1.4,0.1-2.4c-0.3-1-0.7-1.7-1.4-2.1c-0.6-0.4-1.5-0.4-2.6-0.1c-1.2,0.3-1.9,0.8-2.3,1.4
	c-0.4,0.6-0.4,1.4-0.1,2.5C141.9,143.6,142.3,144.3,142.9,144.6z M157.7,148.7l-1.9,0.5l-0.8-3.2l2.9-0.8c0.7-0.2,1.2-0.6,1.3-1.1
	l-8.8-10.1l3.9-1.1l3.9,4.7l1.7,2.5l0.2-0.1l0.2-3l0.8-5.9l3.9-1l-2.4,14c-0.2,1.3-0.7,2.3-1.4,3
	C160.3,147.7,159.2,148.3,157.7,148.7z M172.4,140.8c-1.3,0.3-2.3,0.3-3.2,0c-0.9-0.4-1.4-1-1.7-2c-0.5-1.8,0.5-3.1,2.9-4l4.8-1.8
	l-0.1-0.4c-0.2-0.7-0.5-1.2-1-1.4c-0.4-0.2-1.1-0.1-2.1,0.1c-0.9,0.2-1.5,0.6-1.8,0.9c-0.3,0.4-0.4,0.9-0.2,1.5l0,0.1l-3.5,0.9
	l0-0.1c-0.4-1.5-0.1-2.8,0.7-4s2.3-2.1,4.2-2.6c1.9-0.5,3.4-0.4,4.6,0.2c1.2,0.6,2,1.7,2.4,3.3l1.8,6.8l-3.2,0.9l-0.7-2.7l-0.2,0
	c0,1-0.4,1.8-1.1,2.6C174.6,139.9,173.7,140.4,172.4,140.8z M171,137.6c0.2,0.6,0.7,0.7,1.7,0.5c1.2-0.3,2.1-0.7,2.6-1.2
	c0.5-0.5,0.7-1.2,0.5-2l-3.9,1.5C171.2,136.7,170.9,137,171,137.6z M185.7,136.9l-3.5,0.9l-3.1-11.6l3.2-0.9l0.8,3.1l0.2-0.1
	c-0.1-1.1,0.1-2,0.6-2.7c0.5-0.8,1.3-1.3,2.4-1.6c1.2-0.3,2.3-0.2,3.1,0.4c0.8,0.6,1.4,1.5,1.7,2.7l0.5,1.9l-3.5,0.9l-0.3-1.2
	c-0.2-0.6-0.4-1.1-0.8-1.3c-0.4-0.2-0.9-0.2-1.6,0c-0.8,0.2-1.2,0.5-1.5,1c-0.2,0.4-0.2,1,0,1.8L185.7,136.9z M99.4,191.4
	c-2,0.5-3.7,0.5-5.2-0.2c-1.4-0.7-2.4-2.1-2.9-4.1c-0.5-1.8-0.3-3.5,0.6-4.9c0.9-1.4,2.3-2.4,4.2-2.9c1.9-0.5,3.6-0.4,5,0.2
	c1.4,0.7,2.3,1.9,2.8,3.7c0.1,0.2,0.1,0.6,0.2,1.1l-9.5,2.5c0.3,0.9,0.7,1.5,1.3,1.8c0.6,0.3,1.4,0.2,2.5-0.1c1-0.3,1.7-0.6,2-0.9
	c0.4-0.4,0.5-0.8,0.3-1.3l-0.1-0.2l3.5-0.9l0.1,0.3c0.3,1.3,0.1,2.5-0.9,3.6C102.6,190.1,101.2,190.9,99.4,191.4z M99.1,182
	c-0.6-0.2-1.4-0.2-2.4,0.1c-1,0.3-1.7,0.7-2.1,1.1c-0.4,0.5-0.5,1.1-0.4,1.9l6.2-1.7C100.2,182.7,99.7,182.2,99.1,182z M110.6,188.1
	l-3.5,0.9l-4.2-15.5l3.5-0.9L110.6,188.1z M120.5,189.7l-3.5,0.9l-4.2-15.6l3.2-0.9l0.9,3.2l0.2-0.1c-0.2-2.4,1.1-3.9,3.7-4.7
	c1.8-0.5,3.3-0.3,4.5,0.5c1.3,0.8,2.1,2.2,2.6,4c0.5,1.9,0.4,3.5-0.3,4.8c-0.7,1.3-1.9,2.2-3.6,2.7c-1.3,0.4-2.4,0.3-3.4,0
	c-0.9-0.4-1.6-1.1-2.1-2.1l-0.2,0L120.5,189.7z M117.9,180.1c0.3,1,0.7,1.6,1.4,1.8c0.7,0.3,1.6,0.2,2.7-0.1
	c1.1-0.3,1.9-0.7,2.3-1.3c0.4-0.6,0.5-1.4,0.2-2.4c-0.3-1-0.7-1.7-1.4-2c-0.6-0.3-1.5-0.3-2.6,0c-1.2,0.3-2,0.8-2.4,1.4
	c-0.4,0.6-0.5,1.4-0.3,2.4L117.9,180.1z M134.5,181.7l-3.5,0.9l-3.1-11.6l3.2-0.9l0.8,3.1l0.2-0.1c-0.1-1.1,0.1-2,0.6-2.7
	c0.5-0.8,1.3-1.3,2.4-1.6c1.2-0.3,2.3-0.2,3.1,0.4c0.8,0.6,1.4,1.5,1.7,2.7l0.5,1.9l-3.5,0.9l-0.3-1.2c-0.2-0.6-0.4-1.1-0.8-1.3
	c-0.4-0.2-0.9-0.2-1.6,0c-0.8,0.2-1.3,0.5-1.5,1c-0.2,0.4-0.2,1,0,1.8L134.5,181.7z M153.9,175c-0.9,1.4-2.4,2.4-4.4,2.9
	c-2,0.5-3.7,0.4-5.3-0.4c-1.5-0.8-2.5-2.1-3-3.9c-0.5-1.8-0.3-3.5,0.6-4.9c0.9-1.4,2.4-2.4,4.4-2.9s3.7-0.4,5.2,0.4
	c1.5,0.8,2.5,2.1,3,3.9C155.1,172,154.8,173.6,153.9,175z M146.1,174.8c0.6,0.3,1.5,0.3,2.6,0c1.2-0.3,1.9-0.8,2.3-1.4
	c0.4-0.6,0.4-1.4,0.1-2.4c-0.3-1-0.7-1.7-1.4-2.1c-0.6-0.4-1.5-0.4-2.6-0.1c-1.2,0.3-1.9,0.8-2.3,1.4c-0.4,0.6-0.4,1.4-0.1,2.5
	C145,173.8,145.5,174.5,146.1,174.8z M160.8,178.9l-1.9,0.5l-0.8-3.2l2.9-0.8c0.7-0.2,1.2-0.6,1.3-1.1l-8.8-10.1l3.9-1.1l3.9,4.7
	l1.7,2.5l0.2-0.1l0.2-3l0.8-5.9l3.9-1l-2.4,14c-0.2,1.3-0.7,2.3-1.4,3C163.4,178,162.3,178.5,160.8,178.9z M178.2,170.3
	c-2,0.5-3.7,0.5-5.2-0.2c-1.4-0.7-2.4-2.1-2.9-4.1c-0.5-1.8-0.3-3.5,0.6-4.9c0.9-1.4,2.3-2.4,4.2-2.9c1.9-0.5,3.6-0.4,5,0.2
	c1.4,0.7,2.3,1.9,2.8,3.7c0.1,0.2,0.1,0.6,0.2,1.1l-9.5,2.5c0.3,0.9,0.7,1.5,1.3,1.8c0.6,0.3,1.4,0.2,2.5-0.1c1-0.3,1.7-0.6,2-0.9
	c0.4-0.4,0.5-0.8,0.3-1.3l-0.1-0.2l3.5-0.9l0.1,0.3c0.3,1.3,0.1,2.5-0.9,3.6C181.4,169,180,169.8,178.2,170.3z M177.9,160.9
	c-0.6-0.2-1.4-0.2-2.4,0.1c-1,0.3-1.7,0.7-2.1,1.1c-0.4,0.5-0.5,1.1-0.4,1.9l6.2-1.7C178.9,161.6,178.5,161.1,177.9,160.9z
	 M192.1,166.5c-2,0.5-3.7,0.4-5.2-0.3c-1.5-0.8-2.4-2.1-2.9-3.9c-0.5-1.9-0.3-3.5,0.6-4.9c0.9-1.4,2.3-2.4,4.3-2.9
	c1.9-0.5,3.5-0.4,4.9,0.2c1.4,0.6,2.3,1.7,2.7,3.2l0.1,0.3l-3.5,0.9l-0.1-0.2c-0.4-1.3-1.5-1.8-3.4-1.2c-1.1,0.3-1.8,0.7-2.1,1.3
	c-0.4,0.6-0.4,1.4-0.1,2.4c0.3,1.1,0.7,1.7,1.3,2.1c0.6,0.3,1.4,0.3,2.5,0c1.9-0.5,2.7-1.4,2.4-2.8l0-0.2l3.5-0.9l0.1,0.3
	c0.4,1.5,0.1,2.9-0.8,4.1C195.4,165.2,194,166,192.1,166.5z M208,162l-2.9,0.8c-2.9,0.8-4.7-0.2-5.5-3l-1.2-4.5l-1.8,0.5l-0.8-2.9
	l1.8-0.5l-0.6-2.2l3.5-0.9l0.6,2.2l3.8-1l0.8,2.9l-3.8,1l1.1,4.1c0.2,0.6,0.4,0.9,0.7,1.1c0.3,0.1,0.8,0.1,1.4-0.1l2.1-0.6L208,162z
	 M219.9,157.3c-0.9,1.4-2.4,2.4-4.4,2.9c-2,0.5-3.7,0.4-5.3-0.4c-1.5-0.8-2.5-2.1-3-3.9c-0.5-1.8-0.3-3.5,0.6-4.9
	c0.9-1.4,2.4-2.4,4.4-2.9c2-0.5,3.7-0.4,5.2,0.4c1.5,0.8,2.5,2.1,3,3.9C221,154.3,220.8,155.9,219.9,157.3z M212.1,157.1
	c0.6,0.3,1.5,0.3,2.6,0c1.2-0.3,1.9-0.8,2.3-1.4c0.4-0.6,0.4-1.4,0.1-2.4c-0.3-1-0.7-1.7-1.4-2.1c-0.6-0.4-1.5-0.4-2.6-0.1
	c-1.2,0.3-1.9,0.8-2.3,1.4c-0.4,0.6-0.4,1.4-0.1,2.5C211,156.1,211.5,156.8,212.1,157.1z"/>
</svg>
