<?xml version="1.0" encoding="utf-8"?>
<!-- Generator: Adobe Illustrator 27.5.0, SVG Export Plug-In . SVG Version: 6.00 Build 0)  -->
<svg version="1.1" id="Layer_1" xmlns="http://www.w3.org/2000/svg" xmlns:xlink="http://www.w3.org/1999/xlink" x="0px" y="0px"
	 viewBox="0 0 299 299" style="enable-background:new 0 0 299 299;" xml:space="preserve">
<style type="text/css">
	.st0{fill:#7D9F00;stroke:#000000;}
</style>
<path class="st0" d="M136,32.3l19.5-29.2L172,34.2l0.3,0.5l0.5-0.4l27.6-21.7l6,34.6l0.1,0.6l0.6-0.2l33-12.1l-5,34.8l-0.1,0.6
	l0.6,0l35.1-1.3L255,101l-0.3,0.5l0.6,0.2l33.8,9.6l-24.5,25.2l-0.4,0.4l0.5,0.3l29.2,19.5l-31.1,16.4l-0.5,0.3l0.4,0.5l21.7,27.6
	l-34.6,6l-0.6,0.1l0.2,0.6l12.1,33l-34.8-5l-0.6-0.1l0,0.6l1.3,35.1L196,256.1l-0.5-0.3l-0.2,0.6l-9.6,33.8l-25.2-24.5l-0.4-0.4
	l-0.3,0.5L140.3,295l-16.4-31.1l-0.3-0.5l-0.5,0.4l-27.6,21.7l-6-34.6l-0.1-0.6l-0.6,0.2l-33,12.1l5-34.8l0.1-0.6l-0.6,0l-35.1,1.3
	l15.5-31.5l0.3-0.5l-0.6-0.2l-33.8-9.6l24.5-25.2l0.4-0.4l-0.5-0.3L2,141.4L33.1,125l0.5-0.3l-0.4-0.5L11.5,96.7l34.6-6l0.6-0.1
	L46.5,90l-12.1-33l34.8,5l0.6,0.1l0-0.6l-1.3-35.1L99.9,42l0.5,0.3l0.2-0.6l9.6-33.8l25.2,24.5l0.4,0.4L136,32.3z"/>
</svg>
