<?xml version="1.0" encoding="utf-8"?>
<!-- Generator: Adobe Illustrator 27.5.0, SVG Export Plug-In . SVG Version: 6.00 Build 0)  -->
<svg version="1.1" id="Layer_1" xmlns="http://www.w3.org/2000/svg" xmlns:xlink="http://www.w3.org/1999/xlink" x="0px" y="0px"
	 viewBox="0 0 254.5 264" style="enable-background:new 0 0 254.5 264;" xml:space="preserve">
<style type="text/css">
	.st0{fill:#AE79EF;stroke:#000000;}
	.st1{fill:#FFFFFF;}
</style>
<path class="st0" d="M96.5,14.8l20.7,14.7l0.3,0.2l0.3-0.3L135,10.8l15.1,20.4l0.2,0.3l0.3-0.2l22.1-12.4l8.1,24l0.1,0.4l0.4-0.1
	l24.9-5l0.3,25.4l0,0.4l0.4,0l25.2,2.9l-7.6,24.2l-0.1,0.4l0.4,0.2l23.1,10.6l-14.7,20.7l-0.2,0.3l0.3,0.3l18.7,17.2l-20.4,15.1
	l-0.3,0.2l0.2,0.3l12.4,22.1l-24,8.1l-0.4,0.1l0.1,0.4l5,24.9l-25.4,0.3l-0.4,0l0,0.4l-2.9,25.2l-24.2-7.6l-0.4-0.1l-0.2,0.4
	l-10.6,23.1L139.8,239l-0.3-0.2l-0.3,0.3L122,257.8l-15.1-20.4l-0.2-0.3l-0.3,0.2l-22.1,12.4l-8.1-24l-0.1-0.4l-0.4,0.1l-24.9,5
	L50.4,205l0-0.4l-0.4,0l-25.2-2.9l7.6-24.2l0.1-0.4l-0.4-0.2L9,166.3l14.7-20.7l0.2-0.3l-0.3-0.3L5,127.8l20.4-15.1l0.3-0.2
	l-0.2-0.3L13,89.9l24-8.1l0.4-0.1l-0.1-0.4l-5-24.9l25.4-0.3l0.4,0l0-0.4l2.9-25.2l24.2,7.6l0.4,0.1l0.2-0.4L96.5,14.8z"/>
<path class="st1" d="M72.4,159.5c-2.5,0.7-4.8,0.5-6.7-0.6c-1.9-1.1-3.1-2.8-3.8-5.2c-0.7-2.4-0.4-4.6,0.7-6.4
	c1.1-1.9,2.9-3.1,5.5-3.8c2.4-0.7,4.5-0.6,6.2,0.2c1.7,0.7,2.9,2.1,3.4,4.1l0.1,0.3l-3.9,1l-0.1-0.3c-0.3-1-0.8-1.7-1.6-2
	c-0.8-0.3-1.8-0.3-3.2,0.1c-1.7,0.5-2.8,1.1-3.4,2c-0.5,0.9-0.5,2.2-0.1,3.9c0.5,1.7,1.1,2.8,2,3.3c0.9,0.5,2.2,0.5,3.9,0.1
	c1.4-0.4,2.3-0.9,2.8-1.5c0.5-0.7,0.6-1.5,0.3-2.5l-0.1-0.3l3.9-1l0.1,0.3c0.5,2,0.2,3.7-0.9,5.2C76.5,157.8,74.8,158.9,72.4,159.5z
	 M92.3,152.4c-0.9,1.4-2.4,2.4-4.4,2.9c-2,0.5-3.7,0.4-5.3-0.4c-1.5-0.8-2.5-2.1-3-3.9c-0.5-1.8-0.3-3.5,0.6-4.9
	c0.9-1.4,2.4-2.4,4.4-2.9s3.7-0.4,5.2,0.4c1.5,0.8,2.5,2.1,3,3.9C93.5,149.4,93.3,151,92.3,152.4z M84.5,152.2
	c0.6,0.3,1.5,0.3,2.6,0c1.2-0.3,1.9-0.8,2.3-1.4c0.4-0.6,0.4-1.4,0.1-2.4c-0.3-1-0.7-1.7-1.4-2.1c-0.6-0.4-1.5-0.4-2.6-0.1
	c-1.2,0.3-1.9,0.8-2.3,1.4c-0.4,0.6-0.4,1.4-0.1,2.5C83.5,151.2,83.9,151.9,84.5,152.2z M99.4,152L96,153l-3.1-11.6l3.2-0.9L97,144
	l0.2,0c-0.1-1.1,0-2.1,0.6-3c0.5-0.9,1.4-1.5,2.8-1.9c1.3-0.3,2.4-0.3,3.3,0.2c0.9,0.5,1.6,1.3,2,2.4l0.2-0.1
	c-0.1-1.2,0-2.2,0.6-3.1c0.5-0.9,1.5-1.5,2.9-1.9c1.4-0.4,2.6-0.3,3.6,0.4c1,0.6,1.7,1.7,2.1,3l1.9,7.2l-3.5,0.9l-1.6-6.1
	c-0.3-1-0.6-1.6-1.1-1.9c-0.5-0.3-1.2-0.3-2.2,0c-1,0.3-1.7,0.7-2,1.2c-0.3,0.5-0.3,1.3,0,2.4l1.6,5.9l-3.5,0.9l-1.6-6.1
	c-0.3-1-0.6-1.6-1.1-1.9c-0.5-0.3-1.2-0.3-2.2,0c-1,0.3-1.7,0.7-2,1.2c-0.3,0.5-0.3,1.3,0,2.4L99.4,152z M123.8,145.8
	c-1.6,0.4-2.9,0.3-3.9-0.3c-1.1-0.6-1.8-1.6-2.1-3l-1.9-7.2l3.5-0.9l1.6,6.1c0.3,0.9,0.7,1.6,1.2,1.9c0.6,0.3,1.4,0.3,2.5,0
	c1.1-0.3,1.8-0.7,2.2-1.3c0.4-0.6,0.4-1.4,0.1-2.4l-1.6-5.9l3.5-0.9l3.1,11.6l-3.2,0.9l-1-3.5l-0.2,0c0.1,1.1-0.1,2.2-0.7,3.1
	C126.2,144.7,125.2,145.4,123.8,145.8z M137.2,141.9l-3.5,0.9l-3.1-11.6l3.2-0.9l1,3.6l0.2-0.1c-0.1-1.1,0.1-2.2,0.7-3.1
	c0.6-0.9,1.6-1.6,3-2c1.5-0.4,2.8-0.3,3.8,0.4c1,0.6,1.7,1.6,2.1,3l1.9,7.2l-3.5,0.9l-1.6-6.1c-0.3-0.9-0.7-1.6-1.2-1.8
	c-0.5-0.3-1.3-0.3-2.4,0c-1.1,0.3-1.8,0.7-2.1,1.3c-0.3,0.6-0.4,1.4-0.1,2.4L137.2,141.9z M148.4,125.2l-3.5,0.9l-0.7-2.7l3.5-0.9
	L148.4,125.2z M151.8,138l-3.5,0.9l-3.1-11.6l3.5-0.9L151.8,138z M158.9,136.4c-1.8,0.5-3.3,0.3-4.6-0.5c-1.3-0.8-2.1-2.2-2.6-4
	c-0.5-1.9-0.4-3.5,0.2-4.8c0.7-1.3,1.9-2.2,3.6-2.7c1.3-0.4,2.5-0.3,3.4,0.1c0.9,0.4,1.6,1.1,2.1,2l0.2-0.1l-1.9-7l3.5-0.9l4.2,15.5
	l-3.2,0.9l-0.9-3.2l-0.2,0C162.7,134.1,161.5,135.7,158.9,136.4z M155.2,130.9c0.3,1,0.7,1.7,1.4,2c0.6,0.3,1.5,0.3,2.7,0
	c1.1-0.3,1.9-0.8,2.4-1.3c0.5-0.6,0.6-1.4,0.3-2.4l0-0.2c-0.3-1-0.7-1.6-1.4-1.9c-0.7-0.3-1.6-0.3-2.7,0c-1.1,0.3-1.9,0.7-2.3,1.3
	C154.9,129,154.9,129.8,155.2,130.9z M172.3,132.8c-1.3,0.3-2.3,0.3-3.2,0c-0.9-0.4-1.4-1-1.7-2c-0.5-1.8,0.5-3.1,2.9-4l4.8-1.8
	l-0.1-0.4c-0.2-0.7-0.5-1.2-1-1.4c-0.4-0.2-1.1-0.1-2.1,0.1c-0.9,0.2-1.5,0.6-1.8,0.9c-0.3,0.4-0.4,0.9-0.2,1.5l0,0.1l-3.5,0.9
	l0-0.1c-0.4-1.5-0.1-2.8,0.7-4s2.3-2.1,4.2-2.6c1.9-0.5,3.4-0.4,4.6,0.2c1.2,0.6,2,1.7,2.4,3.3l1.8,6.8l-3.2,0.9l-0.7-2.7l-0.2,0
	c0,1-0.4,1.8-1.1,2.6C174.6,131.9,173.6,132.4,172.3,132.8z M170.9,129.6c0.2,0.6,0.7,0.7,1.7,0.5c1.2-0.3,2.1-0.7,2.6-1.2
	c0.5-0.5,0.7-1.2,0.5-2l-3.9,1.5C171.1,128.6,170.8,129,170.9,129.6z M187.5,128.7c-1.8,0.5-3.3,0.3-4.6-0.5c-1.3-0.8-2.1-2.2-2.6-4
	c-0.5-1.9-0.4-3.5,0.2-4.8c0.7-1.3,1.9-2.2,3.6-2.7c1.3-0.4,2.5-0.3,3.4,0.1c0.9,0.4,1.6,1.1,2.1,2l0.2-0.1l-1.9-7l3.5-0.9l4.2,15.5
	l-3.2,0.9l-0.9-3.2l-0.2,0C191.3,126.4,190.1,128,187.5,128.7z M183.7,123.2c0.3,1,0.7,1.7,1.4,2c0.6,0.3,1.5,0.3,2.7,0
	c1.1-0.3,1.9-0.8,2.4-1.3c0.5-0.6,0.6-1.4,0.3-2.4l-0.1-0.2c-0.3-1-0.7-1.6-1.4-1.9c-0.7-0.3-1.6-0.3-2.7,0
	c-1.1,0.3-1.9,0.7-2.3,1.3C183.5,121.4,183.5,122.2,183.7,123.2z"/>
</svg>
