<?xml version="1.0" encoding="utf-8"?>
<!-- Generator: Adobe Illustrator 27.5.0, SVG Export Plug-In . SVG Version: 6.00 Build 0)  -->
<svg version="1.1" id="Layer_1" xmlns="http://www.w3.org/2000/svg" xmlns:xlink="http://www.w3.org/1999/xlink" x="0px" y="0px"
	 viewBox="0 0 254.5 264" style="enable-background:new 0 0 254.5 264;" xml:space="preserve">
<style type="text/css">
	.st0{fill:#AE79EF;stroke:#000000;}
</style>
<path class="st0" d="M96.5,14.8l20.7,14.7l0.3,0.2l0.3-0.3L135,10.8l15.1,20.4l0.2,0.3l0.3-0.2l22.1-12.4l8.1,24l0.1,0.4l0.4-0.1
	l24.9-5l0.3,25.4l0,0.4l0.4,0l25.2,2.9l-7.6,24.2l-0.1,0.4l0.4,0.2l23.1,10.6l-14.7,20.7l-0.2,0.3l0.3,0.3l18.7,17.2l-20.4,15.1
	l-0.3,0.2l0.2,0.3l12.4,22.1l-24,8.1l-0.4,0.1l0.1,0.4l5,24.9l-25.4,0.3l-0.4,0l0,0.4l-2.9,25.2l-24.2-7.6l-0.4-0.1l-0.2,0.4
	l-10.6,23.1L139.8,239l-0.3-0.2l-0.3,0.3L122,257.8l-15.1-20.4l-0.2-0.3l-0.3,0.2l-22.1,12.4l-8.1-24l-0.1-0.4l-0.4,0.1l-24.9,5
	L50.4,205l0-0.4l-0.4,0l-25.2-2.9l7.6-24.2l0.1-0.4l-0.4-0.2L9,166.3l14.7-20.7l0.2-0.3l-0.3-0.3L5,127.8l20.4-15.1l0.3-0.2
	l-0.2-0.3L13,89.9l24-8.1l0.4-0.1l-0.1-0.4l-5-24.9l25.4-0.3l0.4,0l0-0.4l2.9-25.2l24.2,7.6l0.4,0.1l0.2-0.4L96.5,14.8z"/>
</svg>
