<?xml version="1.0" encoding="utf-8"?>
<!-- Generator: Adobe Illustrator 27.7.0, SVG Export Plug-In . SVG Version: 6.00 Build 0)  -->
<svg version="1.1" id="Layer_1" xmlns="http://www.w3.org/2000/svg" xmlns:xlink="http://www.w3.org/1999/xlink" x="0px" y="0px"
	 viewBox="0 0 299 299" style="enable-background:new 0 0 299 299;" xml:space="preserve">
<style type="text/css">
	.st0{fill:#AE79EF;stroke:#000000;}
	.st1{fill:#FFFFFF;}
</style>
<path class="st0" d="M136,32.3l19.5-29.2L172,34.2l0.3,0.5l0.5-0.4l27.6-21.7l6,34.6l0.1,0.6l0.6-0.2l33-12.1l-5,34.8l-0.1,0.6h0.6
	l35.1-1.3L255,101l-0.3,0.5l0.6,0.2l33.8,9.6l-24.5,25.2l-0.4,0.4l0.5,0.3l29.2,19.5l-31.1,16.4l-0.5,0.3l0.4,0.5l21.7,27.6l-34.6,6
	l-0.6,0.1l0.2,0.6l12.1,33l-34.8-5l-0.6-0.1v0.6l1.3,35.1L196,256.1l-0.5-0.3l-0.2,0.6l-9.6,33.8l-25.2-24.5l-0.4-0.4l-0.3,0.5
	L140.3,295l-16.4-31.1l-0.3-0.5l-0.5,0.4l-27.6,21.7l-6-34.6l-0.1-0.6l-0.6,0.2l-33,12.1l5-34.8l0.1-0.6h-0.6l-35.1,1.3L40.7,197
	l0.3-0.5l-0.6-0.2l-33.8-9.6l24.5-25.2l0.4-0.4l-0.5-0.3L2,141.4L33.1,125l0.5-0.3l-0.4-0.5L11.5,96.7l34.6-6l0.6-0.1L46.5,90
	L34.4,57l34.8,5l0.6,0.1v-0.6l-1.3-35.1L99.9,42l0.5,0.3l0.2-0.6l9.6-33.8l25.2,24.5l0.4,0.4L136,32.3z"/>
<path class="st1" d="M93,171.6c-2.5,0.7-4.8,0.5-6.7-0.6c-1.9-1.1-3.1-2.8-3.8-5.2c-0.7-2.4-0.4-4.6,0.7-6.4
	c1.1-1.9,2.9-3.1,5.5-3.8c2.4-0.7,4.5-0.6,6.2,0.2c1.7,0.7,2.9,2.1,3.4,4.1l0.1,0.3l-3.9,1l-0.1-0.3c-0.3-1-0.8-1.7-1.6-2
	c-0.8-0.3-1.8-0.3-3.2,0.1c-1.7,0.5-2.8,1.1-3.4,2c-0.5,0.9-0.5,2.2-0.1,3.9c0.5,1.7,1.1,2.8,2,3.3c0.9,0.5,2.2,0.5,3.9,0.1
	c1.4-0.4,2.3-0.9,2.8-1.5c0.5-0.7,0.6-1.5,0.3-2.5l-0.1-0.3l3.9-1l0.1,0.3c0.5,2,0.2,3.7-0.9,5.2C97.2,169.9,95.4,171,93,171.6z
	 M113,164.5c-0.9,1.4-2.4,2.4-4.4,2.9c-2,0.5-3.7,0.4-5.3-0.4c-1.5-0.8-2.5-2.1-3-3.9c-0.5-1.8-0.3-3.5,0.6-4.9
	c0.9-1.4,2.4-2.4,4.4-2.9c2-0.5,3.7-0.4,5.2,0.4c1.5,0.8,2.5,2.1,3,3.9C114.1,161.5,113.9,163.1,113,164.5z M105.1,164.3
	c0.6,0.3,1.5,0.3,2.6,0c1.2-0.3,1.9-0.8,2.3-1.4c0.4-0.6,0.4-1.4,0.1-2.4c-0.3-1-0.7-1.7-1.4-2.1c-0.6-0.4-1.5-0.4-2.6-0.1
	c-1.2,0.3-1.9,0.8-2.3,1.4c-0.4,0.6-0.4,1.4-0.1,2.5C104.1,163.3,104.5,164,105.1,164.3z M120.1,164.1l-3.5,0.9l-3.1-11.6l3.2-0.9
	l0.9,3.5l0.2,0c-0.1-1.1,0-2.1,0.6-3c0.5-0.9,1.4-1.5,2.8-1.9c1.3-0.3,2.4-0.3,3.3,0.2c0.9,0.5,1.6,1.3,2,2.4l0.2-0.1
	c-0.1-1.2,0-2.2,0.6-3.1c0.5-0.9,1.5-1.5,2.9-1.9c1.4-0.4,2.6-0.3,3.6,0.4c1,0.6,1.7,1.7,2.1,3l1.9,7.2l-3.5,0.9l-1.6-6.1
	c-0.3-1-0.6-1.6-1.1-1.9c-0.5-0.3-1.2-0.3-2.2,0c-1,0.3-1.7,0.7-2,1.2c-0.3,0.5-0.3,1.3,0,2.4l1.6,5.9l-3.5,0.9l-1.6-6.1
	c-0.3-1-0.6-1.6-1.1-1.9c-0.5-0.3-1.2-0.3-2.2,0c-1,0.3-1.7,0.7-2,1.2c-0.3,0.5-0.3,1.3,0,2.4L120.1,164.1z M143,158l-3.5,0.9
	l-3.1-11.6l3.2-0.9l0.9,3.5l0.2,0c-0.1-1.1,0-2.1,0.6-3c0.5-0.9,1.4-1.5,2.8-1.9c1.3-0.3,2.4-0.3,3.3,0.2c0.9,0.5,1.6,1.3,2,2.4
	l0.2-0.1c-0.1-1.2,0-2.2,0.6-3.1c0.5-0.9,1.5-1.5,2.9-1.9c1.4-0.4,2.6-0.3,3.6,0.4c1,0.6,1.7,1.7,2.1,3l1.9,7.2l-3.5,0.9l-1.6-6.1
	c-0.3-1-0.6-1.6-1.1-1.9c-0.5-0.3-1.2-0.3-2.2,0c-1,0.3-1.7,0.7-2,1.2c-0.3,0.5-0.3,1.3,0,2.4l1.6,5.9l-3.5,0.9l-1.6-6.1
	c-0.3-1-0.6-1.6-1.1-1.9c-0.5-0.3-1.2-0.3-2.2,0c-1,0.3-1.7,0.7-2,1.2c-0.3,0.5-0.3,1.3,0,2.4L143,158z M167.4,151.7
	c-1.6,0.4-2.9,0.3-3.9-0.3c-1.1-0.6-1.8-1.6-2.1-3l-1.9-7.2l3.5-0.9l1.6,6.1c0.3,0.9,0.7,1.6,1.2,1.9c0.6,0.3,1.4,0.3,2.5,0
	c1.1-0.3,1.8-0.7,2.2-1.3c0.4-0.6,0.4-1.4,0.1-2.4l-1.6-5.9l3.5-0.9l3.1,11.6l-3.2,0.9l-1-3.5l-0.2,0c0.1,1.1-0.1,2.2-0.7,3.1
	C169.8,150.7,168.8,151.3,167.4,151.7z M180.8,147.9l-3.5,0.9l-3.1-11.6l3.2-0.9l1,3.6l0.2-0.1c-0.1-1.1,0.1-2.2,0.7-3.1
	c0.6-0.9,1.6-1.6,3-2c1.5-0.4,2.8-0.3,3.8,0.4c1,0.6,1.7,1.6,2.1,3l1.9,7.2l-3.5,0.9l-1.6-6.1c-0.3-0.9-0.7-1.6-1.2-1.8
	c-0.5-0.3-1.3-0.3-2.4,0c-1.1,0.3-1.8,0.7-2.1,1.3c-0.3,0.6-0.4,1.4-0.1,2.4L180.8,147.9z M191.9,131.2l-3.5,0.9l-0.7-2.7l3.5-0.9
	L191.9,131.2z M195.4,144l-3.5,0.9l-3.1-11.6l3.5-0.9L195.4,144z M205.4,141.3l-2.9,0.8c-2.9,0.8-4.7-0.2-5.5-3l-1.2-4.5L194,135
	l-0.8-2.9l1.8-0.5l-0.6-2.2l3.5-0.9l0.6,2.2l3.8-1l0.8,2.9l-3.8,1l1.1,4.1c0.2,0.6,0.4,0.9,0.7,1.1c0.3,0.1,0.8,0.1,1.4-0.1l2.1-0.6
	L205.4,141.3z M209.9,144.3l-1.9,0.5l-0.8-3.2l2.9-0.8c0.7-0.2,1.2-0.6,1.3-1.1l-8.8-10.1l3.9-1.1l3.9,4.7l1.7,2.5l0.2-0.1l0.2-3
	l0.8-5.9l3.9-1l-2.4,14c-0.2,1.3-0.7,2.3-1.4,3C212.6,143.3,211.5,143.9,209.9,144.3z"/>
</svg>
