<?xml version="1.0" encoding="utf-8"?>
<!-- Generator: Adobe Illustrator 27.7.0, SVG Export Plug-In . SVG Version: 6.00 Build 0)  -->
<svg version="1.1" id="Layer_1" xmlns="http://www.w3.org/2000/svg" xmlns:xlink="http://www.w3.org/1999/xlink" x="0px" y="0px"
	 viewBox="0 0 301 301" style="enable-background:new 0 0 301 301;" xml:space="preserve">
<style type="text/css">
	.st0{fill:#7D9F00;stroke:#000000;}
	.st1{fill:#FFFFFF;}
</style>
<path class="st0" d="M111.6,5.7l25.1,17.8l0.4,0.3l0.3-0.3l20.8-22.6l18.4,24.7l0.3,0.4l0.4-0.2L204,10.6l9.8,29.1l0.1,0.4l0.4-0.1
	l30.2-6.1l0.3,30.8v0.4l0.4,0.1l30.6,3.6l-9.2,29.4l-0.1,0.4l0.4,0.2l28,12.8l-17.8,25.1l-0.3,0.4l0.3,0.3l22.6,20.8L275,176.6
	l-0.4,0.3l0.2,0.4l15.1,26.8l-29.1,9.8l-0.4,0.1l0.1,0.4l6.1,30.2l-30.8,0.3h-0.4l-0.1,0.4l-3.6,30.6l-29.4-9.2l-0.4-0.1l-0.2,0.4
	l-12.8,28L164,277.1l-0.4-0.3l-0.3,0.3l-20.8,22.6L124.1,275l-0.3-0.4l-0.4,0.2l-26.8,15.1L86.8,261l-0.1-0.4l-0.4,0.1l-30.2,6.1
	L55.8,236v-0.4l-0.4-0.1l-30.6-3.6l9.2-29.4l0.1-0.4l-0.4-0.2l-28-12.8L23.5,164l0.3-0.4l-0.3-0.3L0.8,142.5l24.7-18.4l0.4-0.3
	l-0.2-0.4L10.6,96.7l29.1-9.8l0.4-0.1L40,86.3l-6-30.2l30.8-0.3h0.4l0.1-0.4l3.6-30.6L98.3,34l0.4,0.1l0.2-0.4L111.6,5.7z"/>
<path class="st1" d="M106.1,156.4c-2.4,0.6-4.3,0.7-5.8,0.1c-1.5-0.6-2.5-1.8-3-3.6l0-0.1l3.5-0.9l0.1,0.4c0.2,0.7,0.6,1.2,1.2,1.4
	c0.6,0.2,1.7,0,3.2-0.4c1.3-0.4,2.2-0.7,2.6-1.1c0.4-0.3,0.6-0.8,0.4-1.3c-0.1-0.5-0.4-0.8-0.7-0.9c-0.4-0.1-1-0.2-1.8-0.1l-4.5,0.5
	c-3.1,0.3-4.9-0.7-5.6-3.2c-0.4-1.3-0.1-2.6,0.8-3.9c0.9-1.3,2.6-2.2,5-2.9c2.3-0.6,4.2-0.6,5.6,0.1c1.4,0.7,2.4,1.8,2.8,3.5l0,0.1
	l-3.5,0.9l-0.1-0.3c-0.2-0.8-0.6-1.2-1.2-1.4c-0.6-0.2-1.7-0.1-3.2,0.3c-1.2,0.3-2,0.7-2.5,1.1c-0.4,0.4-0.6,0.8-0.4,1.3
	c0.1,0.4,0.3,0.7,0.7,0.9c0.3,0.1,0.8,0.2,1.5,0.1l4.5-0.5c3.3-0.3,5.3,0.7,5.9,3.1c0.4,1.4,0.1,2.7-0.8,3.9
	C110,154.8,108.4,155.7,106.1,156.4z M119.2,152.9c-1.6,0.4-2.9,0.3-3.9-0.3c-1.1-0.6-1.8-1.6-2.1-3l-1.9-7.2l3.5-0.9l1.6,6.1
	c0.3,0.9,0.7,1.6,1.2,1.9c0.6,0.3,1.4,0.3,2.5,0c1.1-0.3,1.8-0.7,2.2-1.3c0.4-0.6,0.4-1.4,0.1-2.4l-1.6-5.9l3.5-0.9l3.1,11.6
	l-3.2,0.9l-1-3.5l-0.2,0c0.1,1.1-0.1,2.2-0.7,3.1C121.6,151.8,120.6,152.5,119.2,152.9z M133.7,153l-3.5,0.9l-4.2-15.6l3.2-0.9
	l0.9,3.2l0.2-0.1c-0.2-2.4,1.1-3.9,3.7-4.7c1.8-0.5,3.3-0.3,4.5,0.5c1.3,0.8,2.1,2.2,2.6,4c0.5,1.9,0.4,3.5-0.3,4.8
	c-0.7,1.3-1.9,2.2-3.6,2.7c-1.3,0.4-2.4,0.3-3.4,0c-0.9-0.4-1.6-1.1-2.1-2.1l-0.2,0L133.7,153z M131.1,143.4c0.3,1,0.7,1.6,1.4,1.8
	c0.7,0.3,1.6,0.2,2.7-0.1c1.1-0.3,1.9-0.7,2.3-1.3c0.4-0.6,0.5-1.4,0.2-2.4c-0.3-1-0.7-1.7-1.4-2c-0.6-0.3-1.5-0.3-2.6,0
	c-1.2,0.3-2,0.8-2.4,1.4c-0.4,0.6-0.5,1.4-0.3,2.4L131.1,143.4z M148.8,148.9l-3.5,0.9l-4.2-15.6l3.2-0.9l0.9,3.2l0.2-0.1
	c-0.2-2.4,1.1-3.9,3.7-4.7c1.8-0.5,3.3-0.3,4.5,0.5c1.3,0.8,2.1,2.2,2.6,4c0.5,1.9,0.4,3.5-0.3,4.8c-0.7,1.3-1.9,2.2-3.6,2.7
	c-1.3,0.4-2.4,0.3-3.4,0c-0.9-0.4-1.6-1.1-2.1-2.1l-0.2,0L148.8,148.9z M146.2,139.3c0.3,1,0.7,1.6,1.4,1.8c0.7,0.3,1.6,0.2,2.7-0.1
	c1.1-0.3,1.9-0.7,2.3-1.3c0.4-0.6,0.5-1.4,0.2-2.4c-0.3-1-0.7-1.7-1.4-2c-0.6-0.3-1.5-0.3-2.6,0c-1.2,0.3-2,0.8-2.4,1.4
	c-0.4,0.6-0.5,1.4-0.3,2.4L146.2,139.3z M169.9,137.5c-0.9,1.4-2.4,2.4-4.4,2.9c-2,0.5-3.7,0.4-5.3-0.4c-1.5-0.8-2.5-2.1-3-3.9
	c-0.5-1.8-0.3-3.5,0.6-4.9c0.9-1.4,2.4-2.4,4.4-2.9c2-0.5,3.7-0.4,5.2,0.4c1.5,0.8,2.5,2.1,3,3.9
	C171.1,134.4,170.9,136.1,169.9,137.5z M162.1,137.3c0.6,0.3,1.5,0.3,2.6,0c1.2-0.3,1.9-0.8,2.3-1.4c0.4-0.6,0.4-1.4,0.1-2.4
	c-0.3-1-0.7-1.7-1.4-2.1c-0.6-0.4-1.5-0.4-2.6-0.1c-1.2,0.3-1.9,0.8-2.3,1.4c-0.4,0.6-0.4,1.4-0.1,2.5
	C161.1,136.3,161.5,137,162.1,137.3z M177,137.1l-3.5,0.9l-3.1-11.6l3.2-0.9l0.8,3.1l0.2-0.1c-0.1-1.1,0.1-2,0.6-2.7
	c0.5-0.8,1.3-1.3,2.4-1.6c1.2-0.3,2.3-0.2,3.1,0.4c0.8,0.6,1.4,1.5,1.7,2.7l0.5,1.9l-3.5,0.9l-0.3-1.2c-0.2-0.6-0.4-1.1-0.8-1.3
	c-0.4-0.2-0.9-0.2-1.6,0c-0.8,0.2-1.3,0.5-1.5,1c-0.2,0.4-0.2,1,0,1.8L177,137.1z M194,132.6l-2.9,0.8c-2.9,0.8-4.7-0.2-5.5-3
	l-1.2-4.5l-1.8,0.5l-0.8-2.9l1.8-0.5l-0.6-2.2l3.5-0.9l0.6,2.2l3.8-1l0.8,2.9l-3.8,1l1.1,4.1c0.2,0.6,0.4,0.9,0.7,1.1
	c0.3,0.1,0.8,0.1,1.4-0.1l2.1-0.6L194,132.6z M98.4,189.2l-2.9,0.8c-2.9,0.8-4.7-0.2-5.5-3l-1.2-4.5l-1.8,0.5l-0.8-2.9l1.8-0.5
	l-0.6-2.2l3.5-0.9l0.6,2.2l3.8-1l0.8,2.9l-3.8,1l1.1,4.1c0.2,0.6,0.4,0.9,0.7,1.1c0.3,0.1,0.8,0.1,1.4-0.1l2.1-0.6L98.4,189.2z
	 M103.2,187.9l-3.5,0.9l-4.2-15.5l3.5-0.9l2,7.5l0.2,0c-0.1-1.2,0.2-2.2,0.7-3.1c0.6-0.9,1.6-1.6,3-1.9c1.5-0.4,2.8-0.3,3.8,0.4
	c1,0.7,1.7,1.7,2.1,3.1l1.9,7.1l-3.5,0.9l-1.6-6.1c-0.3-1-0.7-1.6-1.2-1.9c-0.6-0.3-1.4-0.3-2.5,0c-1.1,0.3-1.9,0.7-2.2,1.3
	c-0.3,0.6-0.4,1.4-0.1,2.4L103.2,187.9z M120.7,183.5c-2,0.5-3.7,0.5-5.2-0.2c-1.4-0.7-2.4-2.1-2.9-4.1c-0.5-1.8-0.3-3.5,0.6-4.9
	c0.9-1.4,2.3-2.4,4.2-2.9c1.9-0.5,3.6-0.4,5,0.2c1.4,0.7,2.3,1.9,2.8,3.7c0.1,0.2,0.1,0.6,0.2,1.1L116,179c0.3,0.9,0.7,1.5,1.3,1.8
	c0.6,0.3,1.4,0.2,2.5-0.1c1-0.3,1.7-0.6,2-0.9c0.4-0.4,0.5-0.8,0.3-1.3l-0.1-0.2l3.5-0.9l0.1,0.3c0.3,1.3,0.1,2.5-0.9,3.6
	C124,182.2,122.6,183,120.7,183.5z M120.5,174.1c-0.6-0.2-1.4-0.2-2.4,0.1c-1,0.3-1.7,0.7-2.1,1.1c-0.4,0.5-0.5,1.1-0.4,1.9l6.2-1.7
	C121.5,174.8,121.1,174.3,120.5,174.1z M136.5,183.2l-3.5,0.9l-4.2-15.6l3.2-0.9l0.9,3.2l0.2-0.1c-0.2-2.4,1.1-3.9,3.7-4.7
	c1.8-0.5,3.3-0.3,4.5,0.5c1.3,0.8,2.1,2.2,2.6,4c0.5,1.9,0.4,3.5-0.3,4.8c-0.7,1.3-1.9,2.2-3.6,2.7c-1.3,0.4-2.4,0.3-3.4,0
	c-0.9-0.4-1.6-1.1-2.1-2.1l-0.2,0L136.5,183.2z M134,173.7c0.3,1,0.7,1.6,1.4,1.8c0.7,0.3,1.6,0.2,2.7-0.1c1.1-0.3,1.9-0.7,2.3-1.3
	c0.4-0.6,0.5-1.4,0.2-2.4c-0.3-1-0.7-1.7-1.4-2c-0.6-0.3-1.5-0.3-2.6,0c-1.2,0.3-2,0.8-2.4,1.4c-0.4,0.6-0.5,1.4-0.3,2.4L134,173.7z
	 M150.6,175.3l-3.5,0.9l-3.1-11.6l3.2-0.9l0.8,3.1l0.2-0.1c-0.1-1.1,0.1-2,0.6-2.7c0.5-0.8,1.3-1.3,2.4-1.6c1.2-0.3,2.3-0.2,3.1,0.4
	c0.8,0.6,1.4,1.5,1.7,2.7l0.5,1.9l-3.5,0.9l-0.3-1.2c-0.2-0.6-0.4-1.1-0.8-1.3c-0.4-0.2-0.9-0.2-1.6,0c-0.8,0.2-1.3,0.5-1.5,1
	c-0.2,0.4-0.2,1,0,1.8L150.6,175.3z M170,168.5c-0.9,1.4-2.4,2.4-4.4,2.9s-3.7,0.4-5.3-0.4c-1.5-0.8-2.5-2.1-3-3.9
	c-0.5-1.8-0.3-3.5,0.6-4.9c0.9-1.4,2.4-2.4,4.4-2.9c2-0.5,3.7-0.4,5.2,0.4c1.5,0.8,2.5,2.1,3,3.9C171.1,165.5,170.9,167.1,170,168.5
	z M162.1,168.4c0.6,0.3,1.5,0.3,2.6,0c1.2-0.3,1.9-0.8,2.3-1.4c0.4-0.6,0.4-1.4,0.1-2.4c-0.3-1-0.7-1.7-1.4-2.1
	c-0.6-0.4-1.5-0.4-2.6-0.1c-1.2,0.3-1.9,0.8-2.3,1.4c-0.4,0.6-0.4,1.4-0.1,2.5C161.1,167.3,161.5,168,162.1,168.4z M173.6,155.4
	l-3.5,0.9l-0.7-2.7l3.5-0.9L173.6,155.4z M173.4,173.4l-0.6,0.2l-0.7-2.6l0.6-0.2c0.8-0.2,1.1-0.7,0.9-1.4l-3.2-11.8l3.5-0.9l3,11.3
	c0.4,1.6,0.3,2.8-0.3,3.6C176.1,172.3,175,172.9,173.4,173.4z M185.2,166.2c-2,0.5-3.7,0.5-5.2-0.2c-1.4-0.7-2.4-2.1-2.9-4.1
	c-0.5-1.8-0.3-3.5,0.6-4.9c0.9-1.4,2.3-2.4,4.2-2.9c1.9-0.5,3.6-0.4,5,0.2c1.4,0.7,2.3,1.9,2.8,3.7c0.1,0.2,0.1,0.6,0.2,1.1
	l-9.5,2.5c0.3,0.9,0.7,1.5,1.3,1.8c0.6,0.3,1.4,0.2,2.5-0.1c1-0.3,1.7-0.6,2-0.9c0.4-0.4,0.5-0.8,0.3-1.3l-0.1-0.2l3.5-0.9l0.1,0.3
	c0.3,1.3,0.1,2.5-0.9,3.6C188.4,165,187,165.7,185.2,166.2z M184.9,156.8c-0.6-0.2-1.4-0.2-2.4,0.1s-1.7,0.7-2.1,1.1
	c-0.4,0.5-0.5,1.1-0.4,1.9l6.2-1.7C185.9,157.5,185.5,157,184.9,156.8z M199.1,162.5c-2,0.5-3.7,0.4-5.2-0.3
	c-1.5-0.8-2.4-2.1-2.9-3.9c-0.5-1.9-0.3-3.5,0.6-4.9c0.9-1.4,2.3-2.4,4.3-2.9c1.9-0.5,3.5-0.4,4.9,0.2c1.4,0.6,2.3,1.7,2.7,3.2
	l0.1,0.3l-3.5,0.9l-0.1-0.2c-0.4-1.3-1.5-1.8-3.4-1.2c-1.1,0.3-1.8,0.7-2.1,1.3c-0.4,0.6-0.4,1.4-0.1,2.4c0.3,1.1,0.7,1.7,1.3,2.1
	c0.6,0.3,1.4,0.3,2.5,0c1.9-0.5,2.7-1.4,2.4-2.8l-0.1-0.2l3.5-0.9l0.1,0.3c0.4,1.5,0.1,2.9-0.8,4.1
	C202.3,161.1,200.9,162,199.1,162.5z M215,158l-2.9,0.8c-2.9,0.8-4.7-0.2-5.5-3l-1.2-4.5l-1.8,0.5l-0.8-2.9l1.8-0.5l-0.6-2.2
	l3.5-0.9l0.6,2.2l3.8-1l0.8,2.9l-3.8,1l1.1,4.1c0.2,0.6,0.4,0.9,0.7,1.1c0.3,0.1,0.8,0.1,1.4-0.1l2.1-0.6L215,158z M219.2,151.4
	l-3.5,0.9c-0.2-0.6-0.7-2.1-1.4-4.4c-0.8-2.3-1.2-3.7-1.4-4.3l-0.4-1.6l4.5-1.2l0.4,1.6c0.2,0.6,0.5,2.1,0.9,4.4
	C218.7,149.3,219,150.8,219.2,151.4z M220.8,156.4l-4,1.1l-1-3.8l4-1.1L220.8,156.4z"/>
</svg>
