<?xml version="1.0" encoding="utf-8"?>
<!-- Generator: Adobe Illustrator 24.0.2, SVG Export Plug-In . SVG Version: 6.00 Build 0)  -->
<svg version="1.1" id="Layer_1" xmlns="http://www.w3.org/2000/svg" xmlns:xlink="http://www.w3.org/1999/xlink" x="0px" y="0px"
	 viewBox="0 0 301 301" style="enable-background:new 0 0 301 301;" xml:space="preserve">
<style type="text/css">
	.st0{fill:#FE6970;stroke:#000000;}
</style>
<path class="st0" d="M111.6,5.7l25.1,17.8l0.4,0.3l0.3-0.3l20.8-22.6l18.4,24.7l0.3,0.4l0.4-0.2L204,10.6l9.8,29.1l0.1,0.4l0.4-0.1
	l30.2-6.1l0.3,30.8l0,0.4l0.4,0.1l30.6,3.6l-9.2,29.4l-0.1,0.4l0.4,0.2l28,12.8l-17.8,25.1l-0.3,0.4l0.3,0.3l22.6,20.8l-24.7,18.4
	l-0.4,0.3l0.2,0.4l15.1,26.8l-29.1,9.8l-0.4,0.1l0.1,0.4l6.1,30.2l-30.8,0.3l-0.4,0l-0.1,0.4l-3.6,30.6l-29.4-9.2l-0.4-0.1l-0.2,0.4
	l-12.8,28L164,277.1l-0.4-0.3l-0.3,0.3l-20.8,22.6l-18.4-24.7l-0.3-0.4l-0.4,0.2l-26.8,15.1L86.8,261l-0.1-0.4l-0.4,0.1l-30.2,6.1
	l-0.3-30.8l0-0.4l-0.4-0.1l-30.6-3.6l9.2-29.4l0.1-0.4l-0.4-0.2l-28-12.8L23.5,164l0.3-0.4l-0.3-0.3L0.8,142.5l24.7-18.4l0.4-0.3
	l-0.2-0.4L10.6,96.7l29.1-9.8l0.4-0.1L40,86.3L34,56.1l30.8-0.3l0.4,0l0.1-0.4l3.6-30.6l29.4,9.2l0.4,0.1l0.2-0.4L111.6,5.7z"/>
</svg>
