<?xml version="1.0" encoding="utf-8"?>
<!-- Generator: Adobe Illustrator 27.5.0, SVG Export Plug-In . SVG Version: 6.00 Build 0)  -->
<svg version="1.1" id="Layer_1" xmlns="http://www.w3.org/2000/svg" xmlns:xlink="http://www.w3.org/1999/xlink" x="0px" y="0px"
	 viewBox="0 0 299 299" style="enable-background:new 0 0 299 299;" xml:space="preserve">
<style type="text/css">
	.st0{fill:#AE79EF;stroke:#000000;}
	.st1{fill:#FFFFFF;}
</style>
<path class="st0" d="M136,32.3l19.5-29.2L172,34.2l0.3,0.5l0.5-0.4l27.6-21.7l6,34.6l0.1,0.6l0.6-0.2l33-12.1l-5,34.8l-0.1,0.6h0.6
	l35.1-1.3L255,101l-0.3,0.5l0.6,0.2l33.8,9.6l-24.5,25.2l-0.4,0.4l0.5,0.3l29.2,19.5l-31.1,16.4l-0.5,0.3l0.4,0.5l21.7,27.6l-34.6,6
	l-0.6,0.1l0.2,0.6l12.1,33l-34.8-5l-0.6-0.1v0.6l1.3,35.1L196,256.1l-0.5-0.3l-0.2,0.6l-9.6,33.8l-25.2-24.5l-0.4-0.4l-0.3,0.5
	L140.3,295l-16.4-31.1l-0.3-0.5l-0.5,0.4l-27.6,21.7l-6-34.6l-0.1-0.6l-0.6,0.2l-33,12.1l5-34.8l0.1-0.6h-0.6l-35.1,1.3L40.7,197
	l0.3-0.5l-0.6-0.2l-33.8-9.6l24.5-25.2l0.4-0.4l-0.5-0.3L2,141.4L33.1,125l0.5-0.3l-0.4-0.5L11.5,96.7l34.6-6l0.6-0.1L46.5,90
	L34.4,57l34.8,5l0.6,0.1v-0.6l-1.3-35.1L99.9,42l0.5,0.3l0.2-0.6l9.6-33.8l25.2,24.5l0.4,0.4L136,32.3z"/>
<path class="st1" d="M93.5,173c-2.6,0.7-4.8,0.5-6.7-0.6c-1.9-1.1-3.1-2.8-3.8-5.2c-0.7-2.4-0.4-4.6,0.7-6.4
	c1.1-1.9,2.9-3.1,5.5-3.8c2.4-0.7,4.5-0.6,6.2,0.2c1.7,0.7,2.9,2.1,3.4,4.1l0.1,0.3l-3.9,1l-0.1-0.3c-0.3-1-0.8-1.7-1.6-2
	c-0.8-0.3-1.8-0.3-3.2,0.1c-1.7,0.5-2.8,1.1-3.4,2c-0.5,0.9-0.5,2.2-0.1,3.9c0.5,1.7,1.1,2.8,2,3.3c0.9,0.5,2.2,0.5,3.9,0.1
	c1.4-0.4,2.3-0.9,2.8-1.5c0.5-0.7,0.6-1.5,0.3-2.5l-0.1-0.3l3.9-1l0.1,0.3c0.5,2,0.2,3.7-0.9,5.2C97.7,171.3,95.9,172.4,93.5,173z
	 M113.5,165.9c-0.9,1.4-2.4,2.4-4.4,2.9c-2,0.5-3.7,0.4-5.3-0.4c-1.5-0.8-2.5-2.1-3-3.9c-0.5-1.8-0.3-3.5,0.6-4.9
	c0.9-1.4,2.4-2.4,4.4-2.9c2-0.5,3.7-0.4,5.2,0.4c1.5,0.8,2.5,2.1,3,3.9C114.6,162.9,114.4,164.5,113.5,165.9z M105.6,165.7
	c0.6,0.3,1.5,0.3,2.6,0c1.2-0.3,1.9-0.8,2.3-1.4c0.4-0.6,0.4-1.4,0.1-2.4c-0.3-1-0.7-1.7-1.4-2.1c-0.6-0.4-1.5-0.4-2.6-0.1
	c-1.2,0.3-1.9,0.8-2.3,1.4c-0.4,0.6-0.4,1.4-0.1,2.5C104.6,164.7,105,165.4,105.6,165.7z M120.6,165.5l-3.5,0.9l-3.1-11.6l3.2-0.9
	l0.9,3.5l0.2,0c-0.1-1.1,0-2.1,0.6-3c0.5-0.9,1.4-1.5,2.8-1.9c1.3-0.3,2.4-0.3,3.3,0.2c0.9,0.5,1.6,1.3,2,2.4l0.2-0.1
	c-0.1-1.2,0-2.2,0.6-3.1c0.5-0.9,1.5-1.5,2.9-1.9c1.4-0.4,2.6-0.3,3.6,0.4c1,0.6,1.7,1.7,2.1,3l1.9,7.2l-3.5,0.9l-1.6-6.1
	c-0.3-1-0.6-1.6-1.1-1.9c-0.5-0.3-1.2-0.3-2.2,0c-1,0.3-1.7,0.7-2,1.2c-0.3,0.5-0.3,1.3,0,2.4l1.6,5.9l-3.5,0.9l-1.6-6.1
	c-0.3-1-0.6-1.6-1.1-1.9c-0.5-0.3-1.2-0.3-2.2,0c-1,0.3-1.7,0.7-2,1.2c-0.3,0.5-0.3,1.3,0,2.4L120.6,165.5z M144.9,159.3
	c-1.6,0.4-2.9,0.3-3.9-0.3c-1.1-0.6-1.8-1.6-2.1-3l-1.9-7.2l3.5-0.9l1.6,6.1c0.3,0.9,0.7,1.6,1.2,1.9c0.6,0.3,1.4,0.3,2.5,0
	c1.1-0.3,1.8-0.7,2.2-1.3c0.4-0.6,0.4-1.4,0.1-2.4l-1.6-5.9l3.5-0.9l3.1,11.6l-3.2,0.9l-1-3.5l-0.2,0c0.1,1.1-0.1,2.2-0.7,3.1
	C147.4,158.2,146.3,158.9,144.9,159.3z M158.3,155.4l-3.5,0.9l-3.1-11.6l3.2-0.9l1,3.6l0.2-0.1c-0.1-1.1,0.1-2.2,0.7-3.1
	c0.6-0.9,1.6-1.6,3-2c1.5-0.4,2.8-0.3,3.8,0.4c1,0.6,1.7,1.6,2.1,3l1.9,7.2l-3.5,0.9l-1.6-6.1c-0.3-0.9-0.7-1.6-1.2-1.8
	c-0.5-0.3-1.3-0.3-2.4,0c-1.1,0.3-1.8,0.7-2.1,1.3c-0.3,0.6-0.4,1.4-0.1,2.4L158.3,155.4z M169.5,138.7l-3.5,0.9l-0.7-2.7l3.5-0.9
	L169.5,138.7z M172.9,151.5l-3.5,0.9l-3.1-11.6l3.5-0.9L172.9,151.5z M180,149.9c-1.8,0.5-3.3,0.3-4.6-0.5c-1.3-0.8-2.1-2.2-2.6-4
	c-0.5-1.9-0.4-3.5,0.2-4.8c0.7-1.3,1.9-2.2,3.6-2.7c1.3-0.4,2.5-0.3,3.4,0.1c0.9,0.4,1.6,1.1,2.1,2l0.2-0.1l-1.9-7l3.5-0.9l4.2,15.5
	l-3.2,0.9l-0.9-3.2l-0.2,0C183.9,147.6,182.6,149.2,180,149.9z M176.3,144.4c0.3,1,0.7,1.7,1.4,2c0.6,0.3,1.5,0.3,2.7,0
	c1.1-0.3,1.9-0.8,2.4-1.3c0.5-0.6,0.6-1.4,0.3-2.4l0-0.2c-0.3-1-0.7-1.6-1.4-1.9c-0.7-0.3-1.6-0.3-2.7,0c-1.1,0.3-1.9,0.7-2.3,1.3
	C176.1,142.5,176,143.3,176.3,144.4z M193.5,146.3c-1.3,0.3-2.3,0.3-3.2,0c-0.9-0.4-1.4-1-1.7-2c-0.5-1.8,0.5-3.1,2.9-4l4.8-1.8
	l-0.1-0.4c-0.2-0.7-0.5-1.2-1-1.4c-0.4-0.2-1.1-0.1-2.1,0.1c-0.9,0.2-1.5,0.6-1.8,0.9c-0.3,0.4-0.4,0.9-0.2,1.5l0,0.1l-3.5,0.9
	l0-0.1c-0.4-1.5-0.1-2.8,0.7-4s2.3-2.1,4.2-2.6c1.9-0.5,3.4-0.4,4.6,0.2c1.2,0.6,2,1.7,2.4,3.3l1.8,6.8l-3.2,0.9l-0.7-2.7l-0.2,0
	c0,1-0.4,1.8-1.1,2.6C195.7,145.4,194.7,145.9,193.5,146.3z M192.1,143c0.2,0.6,0.7,0.7,1.7,0.5c1.2-0.3,2.1-0.7,2.6-1.2
	c0.5-0.5,0.7-1.2,0.5-2l-3.9,1.5C192.3,142.1,191.9,142.5,192.1,143z M208.6,142.2c-1.8,0.5-3.3,0.3-4.6-0.5c-1.3-0.8-2.1-2.2-2.6-4
	c-0.5-1.9-0.4-3.5,0.2-4.8c0.7-1.3,1.9-2.2,3.6-2.7c1.3-0.4,2.5-0.3,3.4,0.1c0.9,0.4,1.6,1.1,2.1,2l0.2-0.1l-1.9-7l3.5-0.9l4.2,15.5
	l-3.2,0.9l-0.9-3.2l-0.2,0C212.5,139.9,211.2,141.5,208.6,142.2z M204.9,136.7c0.3,1,0.7,1.7,1.4,2c0.6,0.3,1.5,0.3,2.7,0
	c1.1-0.3,1.9-0.8,2.4-1.3c0.5-0.6,0.6-1.4,0.3-2.4l-0.1-0.2c-0.3-1-0.7-1.6-1.4-1.9c-0.7-0.3-1.6-0.3-2.7,0
	c-1.1,0.3-1.9,0.7-2.3,1.3C204.7,134.9,204.6,135.7,204.9,136.7z"/>
</svg>
