<?xml version="1.0" encoding="utf-8"?>
<!-- Generator: Adobe Illustrator 24.0.2, SVG Export Plug-In . SVG Version: 6.00 Build 0)  -->
<svg version="1.1" id="Layer_1" xmlns="http://www.w3.org/2000/svg" xmlns:xlink="http://www.w3.org/1999/xlink" x="0px" y="0px"
	 viewBox="0 0 56.5 56.5" style="enable-background:new 0 0 56.5 56.5;" xml:space="preserve">
<style type="text/css">
	.st100{fill:none;stroke:white;}
	.st200{fill:white;}
</style>
<circle class="st100" cx="28.4" cy="28.4" r="27.4"/>
<path class="st200" d="M36.2,28.9c0.3,0,0.6-0.3,0.6-0.6s-0.3-0.6-0.6-0.6V28.9z M20.2,28c-0.2,0.2-0.2,0.6,0,0.8l3.6,3.6
	c0.2,0.2,0.6,0.2,0.8,0c0.2-0.2,0.2-0.6,0-0.8l-3.2-3.2l3.2-3.2c0.2-0.2,0.2-0.6,0-0.8c-0.2-0.2-0.6-0.2-0.8,0L20.2,28z M36.2,27.8
	H20.6v1.1h15.6V27.8z"/>
</svg>
