<?xml version="1.0" encoding="utf-8"?>
<!-- Generator: Adobe Illustrator 24.0.2, SVG Export Plug-In . SVG Version: 6.00 Build 0)  -->
<svg version="1.1" id="Layer_1" xmlns="http://www.w3.org/2000/svg" xmlns:xlink="http://www.w3.org/1999/xlink" x="0px" y="0px"
	 viewBox="0 0 56.5 56.5" style="enable-background:new 0 0 56.5 56.5;" xml:space="preserve">
<style type="text/css">
	.st100{fill:none;stroke:black;}
	.st200{fill:black;}
</style>
<circle class="st100" cx="28.4" cy="28.4" r="27.4"/>
<path class="st200" d="M20.6,27.8c-0.3,0-0.6,0.3-0.6,0.6c0,0.3,0.3,0.6,0.6,0.6V27.8z M36.6,28.8c0.2-0.2,0.2-0.6,0-0.8L33,24.4
	c-0.2-0.2-0.6-0.2-0.8,0c-0.2,0.2-0.2,0.6,0,0.8l3.2,3.2l-3.2,3.2c-0.2,0.2-0.2,0.6,0,0.8c0.2,0.2,0.6,0.2,0.8,0L36.6,28.8z
	 M20.6,28.9h15.6v-1.1H20.6V28.9z"/>
</svg>
